<svg xmlns="http://www.w3.org/2000/svg" width="1em" height="1em" viewBox="0 0 128 128">
	<path fill="url(#deviconBootstrapWordmark0)" d="M14.985 15.15c-.237-6.815 5.072-13.099 12.249-13.099h73.54c7.177 0 12.486 6.284 12.249 13.099c-.228 6.546.068 15.026 2.202 21.94c2.141 6.936 5.751 11.319 11.664 11.883v6.387c-5.913.563-9.523 4.947-11.664 11.883c-2.134 6.914-2.43 15.394-2.202 21.94c.237 6.815-5.072 13.098-12.249 13.098h-73.54c-7.177 0-12.486-6.284-12.249-13.098c.228-6.546-.068-15.026-2.203-21.94c-2.14-6.935-5.76-11.319-11.673-11.883v-6.387c5.913-.563 9.533-4.947 11.673-11.883c2.135-6.914 2.43-15.394 2.203-21.94" />
	<g filter="url(#deviconBootstrapWordmark2)">
		<path fill="url(#deviconBootstrapWordmark1)" d="M67.11 79.174c11.619 0 18.62-5.689 18.62-15.072c0-7.093-4.995-12.228-12.413-13.041v-.296c5.45-.886 9.726-5.947 9.726-11.6c0-8.053-6.358-13.299-16.047-13.299h-21.8v53.308zM53.674 32.627h11.279c6.13 0 9.613 2.733 9.613 7.684c0 5.282-4.05 8.238-11.392 8.238h-9.5zm0 39.787V54.866h11.203c8.023 0 12.186 2.955 12.186 8.718s-4.049 8.83-11.694 8.83z" />
		<path fill="white" d="M67.11 79.174c11.619 0 18.62-5.689 18.62-15.072c0-7.093-4.995-12.228-12.413-13.041v-.296c5.45-.886 9.726-5.947 9.726-11.6c0-8.053-6.358-13.299-16.047-13.299h-21.8v53.308zM53.674 32.627h11.279c6.13 0 9.613 2.733 9.613 7.684c0 5.282-4.05 8.238-11.392 8.238h-9.5zm0 39.787V54.866h11.203c8.023 0 12.186 2.955 12.186 8.718s-4.049 8.83-11.694 8.83z" />
	</g>
	<defs>
		<linearGradient id="deviconBootstrapWordmark0" x1="19.8" x2="129.708" y1="4.704" y2="91.95" gradientUnits="userSpaceOnUse">
			<stop stop-color="#9013fe" />
			<stop offset="1" stop-color="#9013fe" />
		</linearGradient>
		<linearGradient id="deviconBootstrapWordmark1" x1="49.032" x2="73.598" y1="29.374" y2="70.922" gradientUnits="userSpaceOnUse">
			<stop stop-color="white" />
			<stop offset="1" stop-color="white" />
		</linearGradient>
		<filter id="deviconBootstrapWordmark2" width="48.641" height="61.415" x="41.143" y="22.795" color-interpolation-filters="sRGB" filterUnits="userSpaceOnUse">
			<feFlood flood-opacity="0" result="BackgroundImageFix" />
			<feColorMatrix in="SourceAlpha" result="hardAlpha" values="0 0 0 0 0 0 0 0 0 0 0 0 0 0 0 0 0 0 127 0" />
			<feOffset dy=".983" />
			<feGaussianBlur stdDeviation="1.965" />
			<feColorMatrix values="0 0 0 0 0 0 0 0 0 0 0 0 0 0 0 0 0 0 0.15 0" />
			<feBlend in2="BackgroundImageFix" result="effect1_dropShadow_2_2" />
			<feBlend in="SourceGraphic" in2="effect1_dropShadow_2_2" result="shape" />
		</filter>
	</defs>
</svg>