<svg xmlns="http://www.w3.org/2000/svg" width="24" height="24" viewBox="0 0 24 24">
	<g fill="none">
		<g clip-path="url(#SVGXv8lpc2Y)">
			<path fill="currentColor" d="M11.214.006c-.052.005-.216.022-.364.033c-3.408.308-6.6 2.147-8.624 4.974a11.9 11.9 0 0 0-2.118 5.243c-.096.66-.108.854-.108 1.748s.012 1.089.108 1.748c.652 4.507 3.86 8.293 8.209 9.696c.779.251 1.6.422 2.533.526c.364.04 1.936.04 2.3 0c1.611-.179 2.977-.578 4.323-1.265c.207-.105.247-.134.219-.157a212 212 0 0 1-1.955-2.62l-1.919-2.593l-2.404-3.559a343 343 0 0 0-2.422-3.556c-.009-.003-.018 1.578-.023 3.51c-.007 3.38-.01 3.516-.052 3.596a.43.43 0 0 1-.206.213c-.075.038-.14.045-.495.045H7.81l-.108-.068a.44.44 0 0 1-.157-.172l-.05-.105l.005-4.704l.007-4.706l.073-.092a.6.6 0 0 1 .174-.143c.096-.047.133-.051.54-.051c.478 0 .558.018.682.154c.035.038 1.337 2 2.895 4.362l4.734 7.172l1.9 2.878l.097-.063a12.3 12.3 0 0 0 2.465-2.163a11.95 11.95 0 0 0 2.825-6.135c.096-.66.108-.854.108-1.748s-.012-1.088-.108-1.748C23.24 5.75 20.032 1.963 15.683.56a12.6 12.6 0 0 0-2.498-.523c-.226-.024-1.776-.05-1.97-.03m4.913 7.26a.47.47 0 0 1 .237.276c.018.06.023 1.365.018 4.305l-.007 4.218l-.743-1.14l-.746-1.14V10.72c0-1.983.009-3.097.023-3.151a.48.48 0 0 1 .232-.296c.097-.05.132-.054.5-.054c.347 0 .408.005.486.047" />
		</g>
		<defs>
			<clipPath id="SVGXv8lpc2Y">
				<path fill="#fff" d="M0 0h24v24H0z" />
			</clipPath>
		</defs>
	</g>
</svg>