<?xml version="1.0" encoding="UTF-8"?>
<svg version="1.1" xmlns="http://www.w3.org/2000/svg" width="748" height="190">
<path d="M0 0 C17.82 0 35.64 0 54 0 C55.28777344 4.87394531 56.57554688 9.74789063 57.90234375 14.76953125 C58.71799287 17.85484584 59.53369866 20.94014523 60.34960938 24.02539062 C61.64500598 28.92376274 62.94019095 33.82219013 64.23413086 38.72094727 C65.27719418 42.66985173 66.32119384 46.61850754 67.36584663 50.56699181 C67.76448576 52.0744003 68.16278586 53.58189848 68.56074333 55.08948708 C69.11764532 57.19897439 69.67574545 59.30814127 70.23413086 61.41723633 C70.55167831 62.61858719 70.86922577 63.81993805 71.19639587 65.05769348 C71.74177892 67.05455242 72.34540942 69.03622826 73 71 C73.40202637 69.8440332 73.80405273 68.68806641 74.21826172 67.49707031 C75.7641394 63.05314391 77.31156586 58.60975792 78.859375 54.16650391 C79.51895302 52.27243684 80.17815446 50.37823858 80.83691406 48.48388672 C86.46893901 32.28964882 92.23294804 16.14774549 98 0 C118.46 0 138.92 0 160 0 C159.27870226 3.6064887 158.50537715 6.69635388 157.3203125 10.13012695 C156.97417404 11.13791199 156.62803558 12.14569702 156.27140808 13.184021 C155.70393608 14.81962982 155.70393608 14.81962982 155.125 16.48828125 C154.72883987 17.63774231 154.33267975 18.78720337 153.92451477 19.97149658 C152.84492059 23.10066484 151.76226248 26.22873718 150.67789078 29.35625076 C149.99711985 31.32081151 149.31761031 33.28580402 148.63851929 35.25094604 C141.93216292 54.6563448 135.12884411 74.02620278 128.24633789 93.36987305 C122.36452937 109.91033735 116.6020017 126.49103601 110.88208008 143.08813477 C107.51247381 152.85247584 104.09152294 162.59525578 100.56640625 172.3046875 C100.22383286 173.24909698 99.88125946 174.19350647 99.52830505 175.16653442 C97.12806183 181.74387635 97.12806183 181.74387635 96 184 C77.52 184 59.04 184 40 184 C36.62399171 173.87197514 36.62399171 173.87197514 35.37426758 169.06884766 C35.09420364 167.9980899 34.81413971 166.92733215 34.52558899 165.8241272 C34.23483994 164.69880585 33.94409088 163.5734845 33.64453125 162.4140625 C33.33803146 161.23532562 33.03153168 160.05658875 32.71574402 158.84213257 C32.07302275 156.36667442 31.43187914 153.89080617 30.79223633 151.41455078 C29.80988491 147.61488501 28.82028363 143.81715683 27.83007812 140.01953125 C27.20529322 137.60948797 26.58092931 135.19933551 25.95703125 132.7890625 C25.51179863 131.0828624 25.51179863 131.0828624 25.05757141 129.3421936 C24.78696396 128.29034882 24.51635651 127.23850403 24.23754883 126.15478516 C23.99788895 125.22928864 23.75822906 124.30379211 23.51130676 123.35025024 C23 121 23 121 23 118 C22.34 118 21.68 118 21 118 C20.83505539 118.64201859 20.67011078 119.28403717 20.50016785 119.94551086 C18.51688322 127.45850633 16.11090223 134.77139985 13.55078125 142.10546875 C12.99505432 143.71065369 12.99505432 143.71065369 12.42810059 145.3482666 C11.06017731 149.29604641 9.68598183 153.24165064 8.3125 157.1875 C5.239375 166.035625 2.16625 174.88375 -1 184 C-21.79 184 -42.58 184 -64 184 C-57.52051511 164.28776427 -50.81188821 144.68647069 -43.85232544 125.13964844 C-38.15031102 109.12171782 -32.54240926 93.07382991 -27 77 C-19.20536598 54.39948252 -11.26484009 31.85258718 -3.24571228 9.33079529 C-2.96280838 8.53577103 -2.67990448 7.74074677 -2.38842773 6.92163086 C-2.14293686 6.2324205 -1.89744598 5.54321014 -1.64451599 4.83311462 C-1.08006154 3.22770881 -0.53813908 1.61441723 0 0 Z " fill="#000000" transform="translate(64,0)"/>
<path d="M0 0 C19.8 0 39.6 0 60 0 C58.87507211 7.87449521 58.87507211 7.87449521 57.77929688 10.96435547 C57.5333226 11.66831955 57.28734833 12.37228363 57.03392029 13.09757996 C56.76491409 13.84655045 56.4959079 14.59552094 56.21875 15.3671875 C55.93302628 16.1796846 55.64730255 16.9921817 55.35292053 17.82929993 C54.40776306 20.51329194 53.45379753 23.19406759 52.5 25.875 C51.83641057 27.75535156 51.17358318 29.6359722 50.51147461 31.5168457 C49.46166695 34.49891686 48.41140356 37.48081852 47.35887146 40.46192932 C43.43302397 51.5846818 39.57033579 62.72920614 35.70996094 73.87481689 C34.21196471 78.19948418 32.71233319 82.52358368 31.2127533 86.84770203 C29.80809488 90.89832685 28.40398346 94.94914119 27 99 C30.5903881 96.19718568 33.42899183 93.45872519 36.25 89.875 C39.94356882 85.26572111 43.77377566 80.84032038 47.76171875 76.484375 C49.95023033 74.23656983 49.95023033 74.23656983 50.98753357 72.25016785 C52.46406432 69.9312458 53.72068982 68.56515602 56 67 C61.14740501 65.9988739 66.24645241 66.18444285 71.4609375 66.31640625 C72.97691557 66.32947416 74.49292336 66.33943271 76.00894165 66.34642029 C79.98487028 66.3730536 83.95898758 66.44172983 87.9342041 66.51934814 C91.99625141 66.59116278 96.05859359 66.62297032 100.12109375 66.65820312 C108.08155725 66.73311006 116.04055285 66.85246122 124 67 C122.20523941 70.80464834 119.80438309 73.77787849 117.0625 76.9375 C116.06369485 78.10277268 115.06499998 79.26813989 114.06640625 80.43359375 C113.55609863 81.02640137 113.04579102 81.61920898 112.52001953 82.22998047 C110.1641787 84.97329014 107.83268402 87.73700281 105.5 90.5 C104.58346486 91.58344461 103.6667978 92.66677764 102.75 93.75 C102.29625 94.28625 101.8425 94.8225 101.375 95.375 C97.25 100.25 97.25 100.25 95.87304688 101.87719727 C94.96274449 102.95308275 94.05258659 104.0290905 93.14257812 105.10522461 C90.75475046 107.92856532 88.36393697 110.74930495 85.96875 113.56640625 C85.47181641 114.15164062 84.97488281 114.736875 84.46289062 115.33984375 C83.51460218 116.45651986 82.56543719 117.57245241 81.61523438 118.6875 C80.40153895 120.11773179 79.20025848 121.55847334 78 123 C77.401875 123.63808594 76.80375 124.27617188 76.1875 124.93359375 C72.90920412 130.63825993 75.78595269 139.05979505 76.96875 145.11328125 C77.26839661 146.68942451 77.26839661 146.68942451 77.57409668 148.29740906 C78.21004999 151.63695563 78.85463785 154.97476011 79.5 158.3125 C80.14376375 161.66837658 80.78572759 165.02458644 81.42590332 168.38114929 C81.8240941 170.46610037 82.22466257 172.55059899 82.62780762 174.63459778 C82.80799438 175.57284897 82.98818115 176.51110016 83.17382812 177.4777832 C83.33371216 178.30494339 83.49359619 179.13210358 83.6583252 179.98432922 C84 182 84 182 84 184 C63.21 184 42.42 184 21 184 C18 170 15 156 12 142 C7.05 155.86 2.1 169.72 -3 184 C-23.13 184 -43.26 184 -64 184 C-57.87844256 165.34382493 -51.49312258 146.80831488 -44.90945435 128.31103516 C-39.18924315 112.23571337 -33.56213391 96.1306721 -28 80 C-21.19941077 60.28126418 -14.29235539 40.60242921 -7.3046875 20.94921875 C-6.96223999 19.98579559 -6.61979248 19.02237244 -6.26696777 18.02975464 C-5.63164557 16.24316173 -4.99570639 14.45678803 -4.35900879 12.67068481 C-4.07618042 11.87588715 -3.79335205 11.08108948 -3.50195312 10.26220703 C-3.25868286 9.57965851 -3.0154126 8.89710999 -2.76477051 8.19387817 C-1.81592043 5.4719355 -0.91155298 2.73465895 0 0 Z " fill="#000000" transform="translate(319,0)"/>
<path d="M0 0 C1.03125 0.721875 2.0625 1.44375 3.125 2.1875 C10.49848227 8.61619067 14.15304922 17.63226565 16 27 C16.3403125 28.670625 16.3403125 28.670625 16.6875 30.375 C18.56480477 52.15173534 13.55067469 72.2991413 -0.0625 89.625 C-12.79749177 104.54313322 -29.88264265 112.6076367 -49 116 C-50.60726628 116.09562435 -52.21758499 116.14762958 -53.82763672 116.16113281 C-54.75986053 116.17074036 -55.69208435 116.1803479 -56.65255737 116.19024658 C-57.65151031 116.19449646 -58.65046326 116.19874634 -59.6796875 116.203125 C-60.72464386 116.20882507 -61.76960022 116.21452515 -62.84622192 116.22039795 C-65.06023146 116.22983602 -67.27425496 116.23637719 -69.48828125 116.24023438 C-72.82838557 116.24986559 -76.16785442 116.28086974 -79.5078125 116.3125 C-99.49975912 116.41286765 -116.45491207 115.10346155 -131.70703125 100.67578125 C-142.11885138 88.52570154 -145.15641796 72.57951978 -144 57 C-141.28126838 36.47357623 -131.80796979 18.44918896 -116 5 C-86.22960756 -16.4845443 -30.5790225 -23.66604593 0 0 Z M-69 33 C-75.66153959 43.53243421 -81.1587042 56.1648805 -79.5 68.8125 C-77.8015529 72.42170009 -76.53292072 73.71899602 -72.984375 75.390625 C-69.33543924 76.51116433 -66.46929983 76.39414456 -63 75 C-54.2360029 69.50014468 -49.6370608 60.80514024 -46.625 51.125 C-45.41405278 45.07026389 -44.07631534 36.61852952 -47.05078125 31.0234375 C-49.74208123 28.3083207 -52.338387 27.09451614 -56.0625 26.5625 C-61.6501501 27.18335001 -65.04078956 29.0058142 -69 33 Z " fill="#000000" transform="translate(558,74)"/>
<path d="M0 0 C6.74082705 7.20230177 7.49714254 14.50211055 7.65625 24.02734375 C6.60372191 38.23561724 -0.39287308 52.73571211 -5.15234375 66.01953125 C-6.26299383 69.13207282 -7.3724067 72.24505329 -8.48165894 75.35809326 C-9.20805328 77.39557188 -9.93535701 79.43272655 -10.66360474 81.46954346 C-12.43184879 86.41913847 -14.18548837 91.37305419 -15.90771484 96.33886719 C-16.23096237 97.27016449 -16.5542099 98.20146179 -16.88725281 99.16098022 C-17.49582106 100.9184028 -18.10190744 102.67668736 -18.70515442 104.4359436 C-20.73037788 110.28506538 -20.73037788 110.28506538 -21.83984375 111.39453125 C-23.71165315 111.48839506 -25.58702435 111.51196929 -27.46118164 111.50805664 C-28.66235123 111.50798111 -29.86352081 111.50790558 -31.10108948 111.50782776 C-32.40835495 111.50266647 -33.71562042 111.49750519 -35.0625 111.4921875 C-36.40628507 111.49032323 -37.75007082 111.48889937 -39.09385681 111.48789978 C-42.63666652 111.48407527 -46.17943545 111.47424557 -49.722229 111.4631958 C-53.33499602 111.45298024 -56.94776959 111.44840185 -60.56054688 111.44335938 C-67.65366255 111.43262323 -74.74675049 111.41554761 -81.83984375 111.39453125 C-80.36141997 106.91511899 -78.88221443 102.4359657 -77.40234375 97.95703125 C-77.13666595 97.15281738 -76.87098816 96.34860352 -76.59725952 95.52001953 C-74.21914985 88.33689927 -71.79300546 81.18104826 -69.171875 74.08203125 C-68.75800537 72.96111084 -68.34413574 71.84019043 -67.91772461 70.68530273 C-67.13306981 68.57945934 -66.33874553 66.4771862 -65.53344727 64.37915039 C-63.31062006 58.41749655 -61.4159977 53.25925625 -63.71484375 47.01953125 C-64.75734796 45.23543222 -64.75734796 45.23543222 -66.83984375 44.39453125 C-71.70805125 43.86042935 -75.70612472 43.89065613 -80.21484375 45.89453125 C-86.42415867 51.8081645 -88.62346388 61.03829781 -91.3515625 68.953125 C-91.76525589 70.13802017 -92.17894928 71.32291534 -92.60517883 72.54371643 C-93.69514318 75.66716809 -94.78081571 78.7920621 -95.8638916 81.91790771 C-97.39847897 86.34534052 -98.9383669 90.77091671 -100.48164368 95.19532776 C-101.30161023 97.54690626 -102.11857199 99.89953499 -102.93229675 102.25328064 C-103.48340874 103.83611595 -103.48340874 103.83611595 -104.0456543 105.45092773 C-104.36890182 106.38388168 -104.69214935 107.31683563 -105.02519226 108.27806091 C-105.83984375 110.39453125 -105.83984375 110.39453125 -106.83984375 111.39453125 C-108.77290873 111.48849182 -110.70943213 111.51196642 -112.64477539 111.50805664 C-114.50659203 111.50794334 -114.50659203 111.50794334 -116.40602112 111.50782776 C-117.77068115 111.50272036 -119.13534077 111.49750435 -120.5 111.4921875 C-121.88862558 111.49032325 -123.27725182 111.48889938 -124.6658783 111.48789978 C-128.3270549 111.48407512 -131.98819205 111.47424528 -135.64935303 111.4631958 C-139.38276638 111.45298057 -143.11618609 111.44840192 -146.84960938 111.44335938 C-154.17970552 111.43262296 -161.50976911 111.41554716 -168.83984375 111.39453125 C-167.02043527 104.41995213 -164.97591142 97.6038685 -162.53125 90.82421875 C-162.21212143 89.92809372 -161.89299286 89.03196869 -161.56419373 88.10868835 C-160.51382112 85.16101252 -159.45805417 82.21529908 -158.40234375 79.26953125 C-156.88077831 75.00593237 -155.36217934 70.74127913 -153.84375 66.4765625 C-153.44572174 65.3597258 -153.04769348 64.2428891 -152.63760376 63.09220886 C-149.49697155 54.26966448 -146.39423264 45.43427097 -143.3046875 36.59375 C-142.84316148 35.27385889 -142.3816188 33.95397361 -141.9200592 32.63409424 C-140.1091589 27.45461201 -138.29860294 22.27501461 -136.49368286 17.09344482 C-135.23653601 13.48590895 -133.97598843 9.87957734 -132.71484375 6.2734375 C-132.14726601 4.63939217 -132.14726601 4.63939217 -131.56822205 2.97233582 C-131.22215408 1.98445572 -130.87608612 0.99657562 -130.51953125 -0.02124023 C-130.21772949 -0.88684067 -129.91592773 -1.7524411 -129.60498047 -2.64427185 C-128.83984375 -4.60546875 -128.83984375 -4.60546875 -127.83984375 -5.60546875 C-125.90677877 -5.69942932 -123.97025537 -5.72290392 -122.03491211 -5.71899414 C-120.17309547 -5.71888084 -120.17309547 -5.71888084 -118.27366638 -5.71876526 C-116.90900635 -5.71365786 -115.54434673 -5.70844185 -114.1796875 -5.703125 C-112.79106192 -5.70126075 -111.40243568 -5.69983688 -110.0138092 -5.69883728 C-106.3526326 -5.69501262 -102.69149545 -5.68518278 -99.03033447 -5.6741333 C-95.29692112 -5.66391807 -91.56350141 -5.65933942 -87.83007812 -5.65429688 C-80.49998198 -5.64356046 -73.16991839 -5.62648466 -65.83984375 -5.60546875 C-66.05640625 -4.91839844 -66.27296875 -4.23132813 -66.49609375 -3.5234375 C-66.77453125 -2.62238281 -67.05296875 -1.72132812 -67.33984375 -0.79296875 C-67.61828125 0.10035156 -67.89671875 0.99367188 -68.18359375 1.9140625 C-68.96772726 4.4502652 -68.96772726 4.4502652 -68.83984375 7.39453125 C-68.24558594 7.01941406 -67.65132812 6.64429687 -67.0390625 6.2578125 C-48.76196083 -5.02680548 -18.77380053 -16.38223359 0 0 Z " fill="#000000" transform="translate(728.83984375,72.60546875)"/>
<path d="M0 0 C1.04590805 0.00222061 2.0918161 0.00444122 3.16941833 0.00672913 C4.35056717 0.00680466 5.531716 0.00688019 6.74865723 0.00695801 C8.03404892 0.01211929 9.31944061 0.01728058 10.64378357 0.02259827 C11.95193527 0.02401321 13.26008698 0.02542816 14.60787964 0.02688599 C18.09150591 0.03071042 21.57509071 0.04054005 25.05870056 0.05158997 C28.6111444 0.06180569 32.16359491 0.06638395 35.71604919 0.07142639 C42.69067564 0.0821624 49.66527449 0.09923792 56.63987732 0.12025452 C49.06623447 23.2462174 41.00057089 46.18107989 32.84088135 69.1061554 C30.44161236 75.85142518 28.05897434 82.60233805 25.69065857 89.35853577 C25.38536728 90.22936295 25.08007599 91.10019012 24.76553345 91.99740601 C23.60884517 95.29835439 22.45283211 98.59953517 21.29914856 101.90153503 C20.52834611 104.10761882 19.75607888 106.31318524 18.98362732 108.51869202 C18.33684021 110.36986633 18.33684021 110.36986633 17.67698669 112.25843811 C16.63987732 115.12025452 16.63987732 115.12025452 15.63987732 117.12025452 C-3.83012268 117.12025452 -23.30012268 117.12025452 -43.36012268 117.12025452 C-39.98482703 104.74417047 -39.98482703 104.74417047 -38.23805237 99.754776 C-37.84573929 98.62848282 -37.45342621 97.50218964 -37.04922485 96.34176636 C-36.63103989 95.15362839 -36.21285492 93.96549042 -35.78199768 92.74134827 C-35.33320794 91.45785778 -34.88472436 90.17426019 -34.43652344 88.89056396 C-33.2447057 85.4804393 -32.04804937 82.07203286 -30.8501091 78.66405487 C-29.85887996 75.84261621 -28.87021043 73.02028323 -27.88143826 70.19798279 C-21.80882003 52.86680528 -15.70516894 35.5464472 -9.54762268 18.24525452 C-9.07395264 16.91081802 -9.07395264 16.91081802 -8.5907135 15.54942322 C-7.71878461 13.09534672 -6.84296558 10.64270113 -5.96559143 8.19056702 C-5.71248703 7.47704575 -5.45938263 6.76352448 -5.1986084 6.02838135 C-3.08766725 0.15732484 -3.08766725 0.15732484 0 0 Z " fill="#000000" transform="translate(221.36012268066406,66.87974548339844)"/>
<path d="M0 0 C5.88108383 4.76087739 8.39108701 9.54118855 9.375 16.9375 C9.98593754 24.41315384 8.3930253 30.16496838 3.625 36.125 C-4.17050673 43.73921588 -14.36774291 47.11576149 -25.125 47.4375 C-35.11375398 47.22309493 -44.12034891 45.34468891 -51.375 38.125 C-56.57243179 31.46162591 -57.13173031 25.39419789 -56.375 17.125 C-54.62259767 9.42335919 -50.93128279 4.45744698 -44.375 0.125 C-30.88429761 -7.14092838 -13.46696339 -7.48164633 0 0 Z " fill="#000000" transform="translate(285.375,8.875)"/>
<path d="M0 0 C2.96912882 1.38980498 4.69657028 2.69657028 7 5 C7.2528288 7.51064876 7.37024359 9.86361315 7.375 12.375 C7.39949219 13.04789063 7.42398438 13.72078125 7.44921875 14.4140625 C7.46937709 17.82754088 7.25328396 19.66695853 5.1640625 22.4140625 C1.11408938 25.38209334 -3.13773769 25.53285066 -8 25 C-11.66883017 23.36940881 -14.12234547 21.5675436 -16 18 C-17.26176965 13.24340073 -17.54716189 10.09432378 -15.3125 5.625 C-10.51172483 0.17547143 -7.24932437 -0.98383688 0 0 Z M-12.8125 6.75 C-14.54568109 10.03392206 -14.44932633 12.34119985 -14 16 C-11.96818095 19.65727429 -10.45709627 20.7968461 -6.625 22.5 C-2.23055093 23.10613091 -0.59883515 22.53554295 3 20 C5.21990864 17.26211268 5.92917061 15.48568726 6.4375 12 C5.88726132 8.22693478 4.67599263 6.67599263 2 4 C-3.70152532 0.25837401 -8.25717035 2.35175068 -12.8125 6.75 Z " fill="#000000" transform="translate(741,159)"/>
<path d="M0 0 C1.423125 -0.061875 2.84625 -0.12375 4.3125 -0.1875 C5.51326172 -0.23970703 5.51326172 -0.23970703 6.73828125 -0.29296875 C9 0 9 0 10.8046875 1.34765625 C12 3 12 3 11.8125 5.625 C11 8 11 8 9 9 C9.99 10.485 9.99 10.485 11 12 C11 12.99 11 13.98 11 15 C10.01 15 9.02 15 8 15 C5 10.77777778 5 10.77777778 5 8 C4.34 8 3.68 8 3 8 C3 10.31 3 12.62 3 15 C2.01 15 1.02 15 0 15 C0 10.05 0 5.1 0 0 Z M3 2 C3 3.32 3 4.64 3 6 C4.65 6 6.3 6 8 6 C8.33 5.01 8.66 4.02 9 3 C6.03 2.505 6.03 2.505 3 2 Z " fill="#000000" transform="translate(732,164)"/>
</svg>
