<svg xmlns="http://www.w3.org/2000/svg" width="1em" height="1em" viewBox="0 0 128 128">
	<path fill="currentColor" d="M64.113 0L43.6 10.24l21.37 10.774L84.854 10.4L64.114 0zm-30.48 15.217l-23.479 11.71l21.969 11.03l22.889-11.951zm61.135.158L74.734 25.938L97.2 37.272l20.606-10.344l-23.037-11.553zM64.82 30.957L41.982 42.912l22 11.043l23.26-11.676zM4.115 33.32v64.977l15.041 8.064v-33.98s20.477 39.348 20.688 39.781c.213.43 2.257 4.569 4.459 6.027c2.92 1.94 15.459 9.48 15.459 9.48l.008-65.952l-16.918-8.512v36.766s-20.7-44.034-22.612-47.993c-.246-.512-1.263-1.07-1.521-1.209c-3.732-1.947-14.604-7.449-14.604-7.449m119.77.928l-21.471 10.674l.018 28.068l21.453-10.9zm-30.186 15.01L68.64 61.717V89.74l25.088-12.47l-.028-28.012zm30.186 22.765l-21.447 10.823l.017 28.277l21.43-10.69zm-30.147 15.13L68.638 99.7V128l25.124-12.537z" />
</svg>