<svg xmlns="http://www.w3.org/2000/svg" width="48" height="48" viewBox="0 0 48 48" stroke="rgb(220, 220, 220)">
	<path fill="none" stroke-linecap="round" stroke-linejoin="round" d="M31.091 24.638c-1.288-1.24-1.484-3.666-6.178-5.003c-3.58-.895-6.296-.279-9.105.175c-1.095.41-1.873.662-3.577 1.376c-3.015-2.46-1.44-8.57.275-9.855c4.376-3.279 14.255-2.102 15.509-1.651c.848.306 6.01 4.193 9.104 7.254c2.094 2.7.37 8.508.15 8.904c-1.103 1.998-2.268 3.252-2.901 3.377l-1.576-.3" stroke-width="1.4" />
	<path fill="none" stroke-linecap="round" stroke-linejoin="round" d="M12.748 20.972c.391 3.83.666 6.923 0 10.82c-.281 1.9 1.523 3.634 3.491 5.182m1.595.796c1.472.54 4.74-.034 6.704-.35c3.318-.564 6.05-2.37 7.178-7.58" stroke-width="1.4" />
	<path fill="none" stroke-linecap="round" stroke-linejoin="round" d="M30.04 26.064c-.1-2.166 4.751-2.064 4.628-1.05c-.345 1.977-1.577 3.977-2.952 4.827M14.479 10.26c5.76 2.185 7.966 5.834 10.434 9.375" stroke-width="1.4" />
	<path fill="none" stroke-linecap="round" stroke-linejoin="round" d="M20.077 13.616c1.06-.204 11.34-.532 13.325.005m-3.9 21.165c3.006 1.266.448 3.314.037 5.06c4.569.126 5.85 1.348 6.88 2.654m-17.733-4.55s-1.26 1.575-1.377 1.746c-2.89.327-5.975.36-7.454 2.804m7.404-7.582l-1.02 2.056l-.53 1.07c.788.713.46.473.6.454l1.525-.728l.6-2.652zm1.576-11.256c3.052-.918 5.91-1.252 7.905 1m-10.332-1.025c-1.054-.1-1.813-.496-3.413-.052m14.733-2.746c1.053 2.32 1.426 4.764 1.012 7.35c.707-1.548 1.07-2.037 1.3-2.126m-13.907 5.804c1.547 1.036 3.053.724 4.603.3" stroke-width="1.4" />
	<rect width="37" height="37" x="5.5" y="5.5" fill="none" stroke-linecap="round" stroke-linejoin="round" rx="4" ry="4" stroke-width="1.4" />
</svg>