<?xml version="1.0" encoding="UTF-8"?>
<svg version="1.1" xmlns="http://www.w3.org/2000/svg" width="883" height="883">
<path d="M0 0 C7.84309083 2.63678525 13.01190849 8.65758919 18 15 C18.45761719 16.10730469 18.91523438 17.21460938 19.38671875 18.35546875 C21.70576955 21.26097552 21.70576955 21.26097552 24.73364258 21.2878418 C27.81206809 21.1613008 30.85618838 20.92815803 33.91918945 20.59677124 C37.51290505 20.21375571 41.11568986 19.94659501 44.71875 19.66796875 C45.47393921 19.60742813 46.22912842 19.54688751 47.00720215 19.48451233 C54.75305186 18.88825003 62.48402502 18.71228465 70.25097656 18.69439697 C71.70999636 18.68992267 73.16901554 18.67919104 74.62792969 18.66107178 C97.22903924 18.39153792 119.15469229 22.82610163 141.16357422 27.49761963 C148.23342005 28.99644766 155.3129545 30.44837053 162.39453125 31.890625 C163.08589802 32.03144123 163.77726479 32.17225746 164.48958206 32.31734085 C200.12863963 39.55416943 236.53193473 43.35861759 272.875 44.5 C274.12877441 44.54133057 275.38254883 44.58266113 276.67431641 44.62524414 C286.14611792 44.92072531 295.61842368 45.07996228 305.09375 45.21484375 C306.96790085 45.24277512 306.96790085 45.24277512 308.87991333 45.27127075 C315.18924502 45.36508363 321.49845759 45.45012209 327.80810547 45.51953125 C357.50607193 45.90567339 384.25698312 48.63069676 408 68 C408.87398437 68.71027344 409.74796875 69.42054687 410.6484375 70.15234375 C420.10770282 78.23390826 427.14969475 87.64210565 429.37890625 100.12109375 C429.78968625 106.70682476 427.26824153 112.97386046 423.375 118.16796875 C418.13298321 123.81405767 411.74751375 127.401326 405 131 C406.485 135.95 406.485 135.95 408 141 C408.98097656 140.48050781 409.96195313 139.96101562 410.97265625 139.42578125 C439.02386295 124.82541554 467.7769695 122.08284685 498.0625 131.25 C506.30109947 133.89533829 514.20092472 137.26660807 522 141 C522.93344238 141.44617676 522.93344238 141.44617676 523.88574219 141.90136719 C540.12004718 149.80075283 554.12566781 160.42162947 567 173 C567.97453125 173.88171875 567.97453125 173.88171875 568.96875 174.78125 C592.8869572 196.89430949 605.64690296 232.83733664 607.12548828 264.70458984 C608.42588102 303.52686749 598.18531862 339.64808471 572 369 C568.0955546 373.09644739 564.06256766 377.06116537 560 381 C561.34310497 384.50046243 562.87516263 387.80229418 564.6171875 391.12109375 C577.40411816 415.82366141 586.94008447 441.51588435 596.25 467.6875 C596.63651733 468.77194397 597.02303467 469.85638794 597.42126465 470.97369385 C598.5212442 474.06761371 599.6137126 477.16406429 600.703125 480.26171875 C601.20374451 481.67059105 601.20374451 481.67059105 601.71447754 483.10792542 C602.01656128 483.97296188 602.31864502 484.83799835 602.62988281 485.72924805 C603.02859589 486.86259834 603.02859589 486.86259834 603.43536377 488.0188446 C604 490 604 490 604 493 C604.51159668 492.78384033 605.02319336 492.56768066 605.55029297 492.3449707 C614.75310911 488.48569216 623.93147542 484.78036043 633.5625 482.125 C634.25005371 481.93462158 634.93760742 481.74424316 635.64599609 481.5480957 C639.65830396 480.4882679 643.68436626 479.66877024 647.76928711 478.93701172 C648.75134628 478.76048065 649.73340546 478.58394958 650.745224 478.40206909 C651.48930008 478.26938629 652.23337616 478.13670349 653 478 C653.20598071 520.15854855 653.36457708 562.31703907 653.45958797 604.4759911 C653.47084438 609.45274489 653.48249328 614.42949769 653.49438477 619.40625 C653.49792596 620.89242843 653.49792596 620.89242843 653.50153869 622.40863067 C653.54070517 638.45329888 653.61166867 654.497677 653.69437516 670.54217309 C653.77852655 687.00421427 653.82852634 703.46610348 653.84679645 719.92835093 C653.85914837 730.08737626 653.89816464 740.24558168 653.9712482 750.40435463 C654.01880708 757.36978082 654.03320453 764.33478289 654.0215124 771.30035967 C654.01574491 775.3200421 654.0246085 779.33829158 654.07284927 783.35771942 C654.1167207 787.04000656 654.11882085 790.7199008 654.08809005 794.40229923 C654.082499 796.36097047 654.12126094 798.31961435 654.16173178 800.27787542 C654.03343292 808.67209076 654.03343292 808.67209076 651.04154003 812.51652241 C648.78519104 814.54772708 646.5055203 816.29092505 644 818 C642.87869687 818.90186457 641.76334754 819.81122153 640.65625 820.73046875 C634.61367934 825.43440061 634.61367934 825.43440061 632.02539062 827.43359375 C629.80909196 829.14764537 627.60013423 830.87095726 625.390625 832.59375 C623.84415993 833.79219583 622.29729123 834.990121 620.75 836.1875 C619.64108398 837.05314575 619.64108398 837.05314575 618.50976562 837.9362793 C617.82076172 838.46648682 617.13175781 838.99669434 616.421875 839.54296875 C615.80924805 840.01758545 615.19662109 840.49220215 614.56542969 840.98120117 C613 842 613 842 611 842 C611.66 843.65 612.32 845.3 613 847 C551.64169059 847.13719254 490.28336344 847.26437783 428.92494202 847.33874512 C428.01601714 847.33984957 427.10709226 847.34095403 426.17062421 847.34209196 C406.41460926 847.3660383 386.6585927 847.38819932 366.9025737 847.40852264 C357.21345047 847.41850085 347.52432767 847.42887334 337.83520508 847.43945312 C336.38897143 847.44102223 336.38897143 847.44102223 334.91352094 847.44262304 C303.69355298 847.47668017 272.47370127 847.53674539 241.25380366 847.61037777 C209.15647277 847.68594162 177.05920615 847.73510741 144.96178782 847.75131992 C140.42250339 847.75362497 135.88321917 847.75623006 131.34393501 847.75901794 C130.45058738 847.75955733 129.55723975 847.76009671 128.63682098 847.76065244 C114.28836559 847.77008587 99.94010964 847.80713512 85.59173541 847.85465627 C71.14734181 847.90190084 56.70314482 847.91970737 42.25867676 847.90801102 C33.68936013 847.90195185 25.1207662 847.91791674 16.55158083 847.96638034 C10.81020349 847.9966159 5.06929355 847.99714622 -0.6721174 847.97465451 C-3.93295199 847.96269743 -7.19217739 847.96713464 -10.45291508 847.99906546 C-27.512846 848.15628967 -41.26970262 845.63979807 -57 839 C-58.36074517 838.44881034 -59.72223931 837.89946332 -61.08473068 837.35260439 C-64.21685401 836.07388206 -67.29703427 834.71613987 -70.375 833.3125 C-71.4880249 832.81049072 -72.6010498 832.30848145 -73.74780273 831.79125977 C-101.67229829 819.03416613 -129.67695267 804.43155183 -152 783 C-153.39605469 781.69869141 -153.39605469 781.69869141 -154.8203125 780.37109375 C-165.7376815 770.003999 -174.65651718 758.01362551 -182.6875 745.3125 C-183.09758301 744.66571289 -183.50766602 744.01892578 -183.93017578 743.35253906 C-187.89437181 736.89274374 -190.36648915 730.58889509 -189 723 C-185.93276903 715.62511376 -181.10840903 710.894435 -175 706 C-172.61313944 703.97209809 -170.24573151 701.92171495 -167.875 699.875 C-163.61260955 696.21398642 -159.32403631 692.58803013 -155 689 C-158.26954006 686.29009287 -161.62258654 684.74214909 -165.53125 683.109375 C-166.83077988 682.55871341 -168.13025727 682.00792795 -169.4296875 681.45703125 C-171.45101389 680.60776305 -173.47337885 679.76109757 -175.49707031 678.91748047 C-203.11259098 667.37127733 -203.11259098 667.37127733 -208.75 658 C-209.15734375 657.34 -209.5646875 656.68 -209.984375 656 C-212.42505289 651.193742 -212.18312756 646.33358396 -212.171875 641.06640625 C-212.17024353 640.18344376 -212.16861206 639.30048126 -212.16693115 638.39076233 C-212.08000898 628.52079296 -211.22130233 618.75355025 -210.25 608.9375 C-210.11760925 607.55055435 -210.11760925 607.55055435 -209.98254395 606.1355896 C-208.50574905 590.67037627 -206.59080144 575.32196638 -204 560 C-205.3096875 559.87625 -206.619375 559.7525 -207.96875 559.625 C-212.59568836 559.11008993 -217.0002268 558.17163906 -221.5 557 C-222.21414062 556.82210937 -222.92828125 556.64421875 -223.6640625 556.4609375 C-228.86367985 555.13632015 -228.86367985 555.13632015 -230 554 C-230.09788377 551.95147609 -230.12371218 549.89950816 -230.12304783 547.84864712 C-230.12420167 547.19578103 -230.12535552 546.54291494 -230.12654433 545.87026504 C-230.12921734 543.65538278 -230.12468326 541.44057141 -230.12025452 539.22569275 C-230.12069008 537.63265658 -230.12156471 536.03962048 -230.12284368 534.44658476 C-230.12509159 530.04782756 -230.12106335 525.64909447 -230.11606562 521.25034034 C-230.11176552 516.51479902 -230.11320723 511.77925916 -230.1139679 507.04371643 C-230.11449341 498.83202222 -230.11134374 490.62033594 -230.10573006 482.40864372 C-230.09761878 470.53577058 -230.09500022 458.66290128 -230.09374207 446.79002566 C-230.09155096 427.52920439 -230.08488929 408.26838734 -230.07543945 389.00756836 C-230.06626685 370.2923993 -230.05918528 351.57723139 -230.05493164 332.86206055 C-230.05466892 331.70934298 -230.05440619 330.55662541 -230.05413551 329.368977 C-230.05283051 323.58639614 -230.0515668 317.80381527 -230.05032361 312.02123439 C-230.03994917 264.01415334 -230.02232926 216.00707688 -230 168 C-229.13539658 167.57003031 -229.13539658 167.57003031 -228.25332642 167.13137436 C-225.61876899 165.82030205 -222.98515987 164.50733561 -220.3515625 163.19433594 C-218.99140015 162.51798599 -218.99140015 162.51798599 -217.60375977 161.82797241 C-211.60791409 158.83653711 -205.71519802 155.75409992 -200 152.25 C-198.78618652 151.51221313 -198.78618652 151.51221313 -197.54785156 150.75952148 C-182.18535917 141.29348901 -167.76399177 130.65288322 -154 119 C-153.39994141 118.49227051 -152.79988281 117.98454102 -152.18164062 117.46142578 C-148.10061622 113.99789552 -144.04750685 110.50258327 -140 107 C-124.52847211 93.62585259 -108.91219744 80.62310428 -92.30810547 68.6640625 C-90.10629954 67.07663822 -87.9141689 65.47658773 -85.72265625 63.875 C-62.76959611 47.2370533 -38.88756401 34.84798432 -12 26 C-12.33 25.0925 -12.66 24.185 -13 23.25 C-14.85101824 16.71151112 -14.99840221 9.67753319 -12.625 3.3125 C-9.48463763 -1.15647722 -5.04440706 -0.66311454 0 0 Z " fill="#020201" transform="translate(230,36)"/>
<path d="M0 0 C2.13544565 1.50025939 4.14210164 3.09686748 6.15258789 4.76074219 C6.89283203 5.35169678 7.63307617 5.94265137 8.39575195 6.55151367 C9.91177036 7.76266995 11.42271263 8.98020789 12.9284668 10.20410156 C14.88152473 11.77995947 16.8557153 13.31813754 18.85180664 14.83886719 C25.9014105 20.22275008 32.51505551 25.9296459 38.95727539 32.02636719 C41.21098927 34.15602343 43.5240926 36.19635121 45.87524414 38.21777344 C50.67831853 42.39759174 55.16276294 46.87441768 59.65258789 51.38574219 C60.46405273 52.19333984 61.27551758 53.0009375 62.11157227 53.83300781 C66.98007716 58.70937147 71.61053664 63.7145395 76.09008789 68.94824219 C77.13541857 70.13970304 78.182267 71.32983419 79.23071289 72.51855469 C85.94278885 80.17533268 92.39266615 87.97520293 98.60961914 96.03808594 C100.21643626 98.11126159 101.8395498 100.17096652 103.46508789 102.22949219 C110.78475566 111.52236691 117.78422029 120.97611594 124.52319336 130.69726562 C126.1914946 133.09392151 127.87555514 135.47891155 129.56274414 137.86230469 C135.26553484 145.93122125 140.89365859 154.03718808 146.27758789 162.32324219 C146.72303955 163.00644531 147.16849121 163.68964844 147.62744141 164.39355469 C150.03754954 168.14250765 152.17332098 171.91491507 154.09008789 175.94824219 C150.92917513 174.5269964 148.1983607 172.66545982 145.37133789 170.67358398 C118.68162295 152.03107256 87.26141514 143.11934431 54.89868164 148.13574219 C27.6614417 153.94635337 3.64537473 169.1480993 -11.84350586 192.56152344 C-17.74938867 202.24091928 -21.84758428 212.03416387 -24.90991211 222.94824219 C-25.25151367 223.91890625 -25.59311523 224.88957031 -25.94506836 225.88964844 C-34.84732002 254.11014663 -28.1915188 287.93093292 -15.90991211 313.94824219 C-15.59151367 314.63450684 -15.27311523 315.32077148 -14.94506836 316.02783203 C-1.36411616 344.80282672 23.98620959 364.98317826 53.52758789 375.88574219 C75.5475075 383.14872266 103.97756799 386.63897675 126.09008789 377.94824219 C127.48052944 377.44513073 128.87116556 376.94255679 130.26196289 376.44042969 C155.74867853 366.8960686 176.51206632 348.92403376 187.9699707 324.03710938 C197.93621001 301.19637408 197.6198813 276.38785349 195.09008789 251.94824219 C197.40285465 254.26100895 198.03901824 256.02984093 199.19946289 259.08105469 C199.61808594 260.17877197 200.03670898 261.27648926 200.46801758 262.4074707 C200.92080078 263.61717529 201.37358398 264.82687988 201.84008789 266.07324219 C202.18892029 267.00098953 202.18892029 267.00098953 202.5447998 267.94747925 C206.76886669 279.19374489 210.86033711 290.48985366 214.87976074 301.81072998 C215.51948678 303.60935465 216.16263164 305.40676702 216.8092041 307.20294189 C217.72092264 309.74066613 218.61831326 312.28301417 219.51196289 314.82714844 C219.92671875 315.97068031 219.92671875 315.97068031 220.34985352 317.13731384 C222.50545666 323.35950233 222.50545666 323.35950233 221.09008789 326.94824219 C218.7567783 328.53035486 216.50006594 329.8680956 214.02758789 331.19824219 C196.53139778 341.05797363 179.86842653 352.5308246 164.09008789 364.94824219 C163.4257373 365.4698291 162.76138672 365.99141602 162.0769043 366.52880859 C153.70490305 373.13556912 145.67157788 380.005969 137.90649414 387.31542969 C135.65419789 389.42090496 133.37556379 391.4522216 131.02758789 393.44824219 C127.02756552 396.89857861 123.33793847 400.64275441 119.65234375 404.42285156 C116.95851709 407.16472508 114.19493535 409.75612251 111.28149414 412.26464844 C106.65577095 416.26803758 102.34078961 420.55059033 98.02758789 424.88574219 C97.26381836 425.64564453 96.50004883 426.40554688 95.71313477 427.18847656 C91.52186885 431.38691316 87.49937065 435.67205584 83.62939453 440.16821289 C81.59135502 442.52496881 79.46481382 444.79465679 77.34008789 447.07324219 C72.10590477 452.82058052 67.31246258 458.8484813 62.58032227 465.01220703 C61.01459991 467.04631226 59.43577251 469.06978985 57.85571289 471.09277344 C32.84350451 503.25605905 10.75885341 540.50143559 -2.90991211 578.94824219 C-3.2644043 579.83769531 -3.61889648 580.72714844 -3.98413086 581.64355469 C-10.30123699 597.7533495 -12.61316582 615.3279394 -6.90991211 631.94824219 C-3.50677116 639.19458542 0.28698076 644.39182865 7.71508789 647.69824219 C17.25136665 650.90654415 26.2484759 648.41231238 35.58618164 645.82324219 C39.09008789 644.94824219 39.09008789 644.94824219 43.09008789 644.94824219 C43.42008789 647.25824219 43.75008789 649.56824219 44.09008789 651.94824219 C27.59765107 654.83499654 11.22481658 656.88179208 -5.47241211 658.07324219 C-6.56779297 658.15506744 -7.66317383 658.2368927 -8.79174805 658.32119751 C-27.65432037 659.72974638 -46.52539775 660.67982593 -65.42773438 661.35302734 C-66.38112198 661.38730331 -67.33450958 661.42157928 -68.31678772 661.45689392 C-70.06435051 661.51843294 -71.81201648 661.57715595 -73.55979919 661.63209534 C-77.95839464 661.78288058 -82.31699173 662.06188424 -86.69995117 662.46679688 C-93.17933045 663.02898324 -99.61278109 663.07529903 -106.11303711 663.04589844 C-107.91874176 663.04377602 -107.91874176 663.04377602 -109.76092529 663.04161072 C-113.56061414 663.03606682 -117.36024143 663.02352513 -121.15991211 663.01074219 C-123.75496333 663.00571993 -126.35001549 663.0011583 -128.94506836 662.99707031 C-135.26670352 662.98611584 -141.58830341 662.96943468 -147.90991211 662.94824219 C-147.93464096 662.36609451 -147.95936981 661.78394684 -147.98484802 661.18415833 C-148.10124032 658.48688327 -148.22235463 655.78983877 -148.34350586 653.09277344 C-148.38229858 652.17757935 -148.42109131 651.26238525 -148.46105957 650.31945801 C-148.86433878 641.47653854 -149.80578927 632.72762673 -150.90991211 623.94824219 C-146.28035749 624.66061235 -142.09641415 626.32428812 -137.76928711 628.04589844 C-136.1367806 628.68583101 -134.50412493 629.32538314 -132.87133789 629.96459961 C-132.02025452 630.29914154 -131.16917114 630.63368347 -130.29229736 630.97836304 C-114.34137579 637.23405788 -98.39729842 643.23621499 -81.90991211 647.94824219 C-81.10489258 648.1810791 -80.29987305 648.41391602 -79.47045898 648.65380859 C-62.17855169 653.54828971 -62.17855169 653.54828971 -45.22241211 649.94824219 C-40.51684614 646.32936466 -38.49507595 641.69851225 -37.28491211 636.01074219 C-39.30507728 626.11193283 -47.75201535 620.04233895 -55.70483398 614.75488281 C-74.60728706 602.47685438 -94.83272652 592.17433917 -115.23022461 582.64355469 C-119.6755165 580.55871601 -124.06474297 578.37608616 -128.44897461 576.16699219 C-137.27759527 571.7249537 -146.21136456 567.51705034 -155.15991211 563.32324219 C-184.83928285 549.40523798 -184.83928285 549.40523798 -190.47241211 544.88574219 C-197.82798369 539.3874262 -204.66388421 536.21185539 -213.75756836 534.76074219 C-221.74617412 533.30059506 -228.65174041 530.30796297 -235.93572998 526.80114746 C-238.96226014 525.34449577 -242.00623259 523.92589652 -245.0489502 522.50344849 C-246.64074461 521.75866975 -248.23164319 521.01197348 -249.82165527 520.26339722 C-257.92223049 516.45239113 -266.09611879 512.81480282 -274.28491211 509.19824219 C-276.51047786 508.21344386 -278.73582951 507.22816298 -280.96115112 506.24281311 C-282.49614337 505.56316767 -284.03123986 504.88375761 -285.56643677 504.20457458 C-291.77241514 501.45730395 -297.96879036 498.68885132 -304.16381836 495.91699219 C-307.08370934 494.61205636 -310.00383821 493.30765551 -312.92416382 492.00369263 C-314.86648592 491.13629958 -316.80856536 490.26836292 -318.75039673 489.39987183 C-328.04621531 485.24593014 -337.33990205 481.11319458 -346.79272461 477.32714844 C-347.46249832 477.0576236 -348.13227203 476.78809875 -348.82234192 476.51040649 C-351.81651246 475.30932381 -354.81633547 474.13053745 -357.83349609 472.98828125 C-364.81611849 470.23493772 -370.26644032 466.67664131 -376.16210938 462.04174805 C-379.62528506 459.40321126 -383.16768586 457.41613784 -387.09741211 455.57324219 C-387.77521729 455.24509521 -388.45302246 454.91694824 -389.15136719 454.57885742 C-407.061624 446.05781962 -429.71618544 444.41911284 -448.63769531 450.82666016 C-462.15218615 455.85298132 -472.95169216 464.85174786 -480.90991211 476.94824219 C-481.94228494 479.35711213 -482.45845119 481.35234193 -482.90991211 483.94824219 C-482.24991211 484.60824219 -481.58991211 485.26824219 -480.90991211 485.94824219 C-475.64447047 485.64459095 -471.59993182 484.07324582 -466.84741211 481.88574219 C-459.20517605 478.63625728 -450.89074772 476.55365951 -442.83178711 479.78027344 C-437.97797853 483.35258583 -434.9707735 489.27107794 -431.73876953 494.26245117 C-423.67748712 506.59245569 -415.05368886 511.91276188 -401.03491211 515.94824219 C-389.84849123 519.22609813 -379.38882738 524.42694599 -368.81427002 529.2640686 C-361.75556134 532.48773858 -354.64850828 535.59802815 -347.53491211 538.69824219 C-346.23061386 539.26737491 -344.9263334 539.83654843 -343.62207031 540.40576172 C-340.88744268 541.59887302 -338.15242715 542.79109059 -335.41723633 543.98291016 C-331.29210585 545.78085544 -327.16878304 547.58291978 -323.04571533 549.3855896 C-319.44611409 550.9592111 -315.84600073 552.5316586 -312.24578857 554.10388184 C-310.48817263 554.87164134 -308.7307247 555.63978563 -306.97344971 556.4083252 C-304.51921827 557.48146978 -302.0642674 558.5529515 -299.60913086 559.62402344 C-298.87316177 559.94625381 -298.13719269 560.26848419 -297.37892151 560.60047913 C-294.57696304 561.82127409 -291.81122237 562.98113877 -288.90991211 563.94824219 C-290.45005177 567.38762144 -292.50608856 570.06821078 -294.84741211 573.01074219 C-307.5195614 589.52238306 -316.58834908 608.72579238 -322.80444336 628.51855469 C-323.59415469 630.96861315 -324.43431841 633.30427281 -325.37866211 635.69042969 C-327.26787854 640.65852433 -328.41637203 645.77450167 -329.59741211 650.94824219 C-329.82235352 651.91375 -330.04729492 652.87925781 -330.27905273 653.87402344 C-330.82746545 656.23103127 -331.37097069 658.5890541 -331.90991211 660.94824219 C-340.69773617 661.15820245 -349.09994957 660.66210702 -357.78491211 659.32324219 C-358.95256104 659.1443042 -360.12020996 658.96536621 -361.32324219 658.78100586 C-420.28470648 649.29612684 -487.28820188 617.79032314 -523.00878906 568.50073242 C-532.92965256 554.58669921 -532.92965256 554.58669921 -532.88647461 551.00292969 C-531.4264652 547.93106989 -529.05123857 545.96281953 -526.53491211 543.76074219 C-525.72787842 543.03781982 -525.72787842 543.03781982 -524.90454102 542.30029297 C-520.57107611 538.44931171 -516.09243978 534.78548237 -511.58569336 531.13964844 C-500.18115019 522.67803706 -500.18115019 522.67803706 -494.47241211 510.44824219 C-495.09068916 505.50202578 -496.40633585 502.13165631 -500.38647461 498.99902344 C-509.21543918 494.12447104 -518.30373509 490.03792898 -527.55761719 486.03125 C-533.84094449 483.30997821 -540.08141922 480.54117284 -546.22241211 477.51074219 C-546.85518066 477.20523437 -547.48794922 476.89972656 -548.13989258 476.58496094 C-554.7125837 473.28492607 -554.7125837 473.28492607 -556.90991211 469.94824219 C-557.36429663 466.59291458 -557.12571991 463.31850537 -556.90991211 459.94824219 C-556.85883301 458.87525879 -556.80775391 457.80227539 -556.75512695 456.69677734 C-556.56926361 453.0486332 -556.34038169 449.40551946 -556.09741211 445.76074219 C-556.00975586 444.44517334 -555.92209961 443.12960449 -555.83178711 441.77416992 C-555.07565372 430.89381096 -553.81161533 420.11935759 -552.24487305 409.32714844 C-551.78506745 406.06159031 -551.41895375 402.78596521 -551.03491211 399.51074219 C-543.63418498 344.97587585 -516.79259199 297.89825797 -488.47241211 251.69824219 C-464.18553265 214.78909649 -464.18553265 214.78909649 -459.37475586 172.21777344 C-465.68705015 148.72408641 -486.29196549 132.41856484 -505.90991211 119.94824219 C-502.54078643 117.7021584 -500.63358328 117.46841348 -496.65209961 116.98339844 C-495.39606934 116.82500488 -494.14003906 116.66661133 -492.84594727 116.50341797 C-492.18330872 116.42319397 -491.52067017 116.34296997 -490.83795166 116.26031494 C-487.38554724 115.8406318 -483.93696079 115.39158455 -480.48803711 114.94433594 C-479.81338409 114.85732422 -479.13873108 114.7703125 -478.44363403 114.68066406 C-471.75010458 113.8110653 -465.13128186 112.70737559 -458.50073242 111.44042969 C-455.21991707 110.81716134 -451.9359779 110.21141359 -448.65209961 109.60449219 C-425.24313721 105.26889135 -401.89900976 100.66526408 -378.63183594 95.61938477 C-373.61865789 94.53289972 -368.6038595 93.4544574 -363.58764648 92.38208008 C-345.62155489 88.52056516 -327.78305531 84.28826108 -309.96996307 79.76704407 C-304.42713834 78.36215246 -298.88118449 76.96960939 -293.33583832 75.57471085 C-291.24375137 75.04831906 -289.15181237 74.52134204 -287.05987549 73.99435425 C-278.17031611 71.75675754 -269.27287183 69.55354702 -260.36694336 67.38183594 C-259.24193924 67.10749222 -258.11693512 66.8331485 -256.95783997 66.55049133 C-251.74380876 65.28054231 -246.52866431 64.01530652 -241.3125 62.75415039 C-232.66104305 60.65551234 -224.071062 58.46907002 -215.52563477 55.96679688 C-206.84036466 53.5201428 -198.04786078 51.45873514 -189.28686523 49.30273438 C-179.82104463 46.96990873 -170.40347327 44.57090335 -161.04321289 41.84179688 C-156.17638877 40.45387602 -151.26499695 39.26589156 -146.34741211 38.07324219 C-137.76618186 35.96143664 -129.2604542 33.67250503 -120.77709961 31.19873047 C-114.32959771 29.3275427 -107.85067457 27.61432694 -101.34741211 25.94824219 C-92.45051704 23.6612987 -83.65570505 21.13005436 -74.87084961 18.44824219 C-69.73521298 16.88371663 -64.57533815 15.41088287 -59.40991211 13.94824219 C-52.54008616 11.99867126 -45.68598039 10.0048435 -38.84741211 7.94824219 C-38.03570557 7.70509277 -37.22399902 7.46194336 -36.38769531 7.21142578 C-32.06855996 5.91375795 -27.75891923 4.59032065 -23.45678711 3.23730469 C-22.55968018 2.95886719 -21.66257324 2.68042969 -20.73828125 2.39355469 C-19.02917691 1.86266899 -17.32243209 1.32410058 -15.61865234 0.77636719 C-4.70756985 -2.59238284 -4.70756985 -2.59238284 0 0 Z " fill="#F0ECE1" transform="translate(594.909912109375,213.0517578125)"/>
<path d="M0 0 C3.03188087 -0.00218821 6.06339784 -0.02041605 9.09521484 -0.03930664 C24.59218469 -0.08536451 39.2015081 1.40769123 54.41943359 4.43530273 C56.06407593 4.7562793 56.06407593 4.7562793 57.74194336 5.08374023 C65.88454721 6.68930785 73.99654616 8.42536844 82.10693359 10.18530273 C86.79268793 11.19363775 91.48015894 12.19346958 96.16943359 13.18530273 C97.21518555 13.40718262 98.2609375 13.6290625 99.33837891 13.85766602 C140.21050244 22.37969114 181.85334723 24.90449463 223.50537109 25.41577148 C224.96416735 25.43439138 226.42296354 25.45301731 227.88175964 25.47164917 C234.39833628 25.55287373 240.9145032 25.62512 247.43152332 25.65743828 C281.60331276 25.84352627 313.73726987 26.71030141 339.30615234 52.32592773 C343.56278463 57.00197662 346.62096097 61.22355058 347.79443359 67.56030273 C346.85088021 73.03291235 344.45213341 75.73858592 340.16943359 79.18530273 C328.03393219 86.79339408 313.33814288 90.06951849 299.75341797 94.11401367 C296.51665647 95.08151432 293.28698456 96.06838834 290.06005859 97.06811523 C277.3628937 100.99674188 264.59438538 104.6294889 251.78417969 108.16992188 C249.0328581 108.94276711 246.28702058 109.72893501 243.54296875 110.52685547 C230.36219565 114.35174795 217.11449508 117.81817579 203.79443359 121.12280273 C202.2263797 121.51356995 202.2263797 121.51356995 200.62664795 121.91223145 C185.61237051 125.65188204 170.57478797 129.21715961 155.46630859 132.55639648 C148.34055441 134.13380209 141.23999346 135.81044603 134.14019775 137.49963379 C120.09115832 140.83912937 106.01461914 144.04648208 91.91943359 147.18530273 C91.06283142 147.37677887 90.20622925 147.568255 89.32366943 147.76553345 C57.80360583 154.80359371 26.15460667 161.2599963 -5.49853516 167.66748047 C-9.05367716 168.3872681 -12.60834478 169.10933091 -16.16259766 169.83349609 C-36.93530701 174.06536141 -57.72240473 178.16752762 -78.58312988 181.94459534 C-85.99823153 183.28758434 -93.40265495 184.64979792 -100.76806641 186.24780273 C-101.51279709 186.40906143 -102.25752777 186.57032013 -103.02482605 186.73646545 C-104.02308159 186.95283913 -104.02308159 186.95283913 -105.04150391 187.17358398 C-116.1584348 189.55647186 -127.34863996 191.60514186 -138.51513672 193.74200439 C-140.91857372 194.20215209 -143.32184913 194.66313658 -145.72509766 195.12426758 C-161.50225315 198.15057447 -177.27962274 201.17592459 -193.08056641 204.07592773 C-193.90349686 204.22703003 -194.72642731 204.37813232 -195.57429504 204.53381348 C-199.60377073 205.27268655 -203.63398105 206.00724224 -207.6652832 206.73608398 C-214.44022053 207.96633339 -221.19128023 209.23018579 -227.91259766 210.73217773 C-248.78252468 215.38329852 -276.12431022 218.08738813 -296.83056641 211.18530273 C-296.83056641 191.38530273 -296.83056641 171.58530273 -296.83056641 151.18530273 C-291.55056641 148.54530273 -286.27056641 145.90530273 -280.83056641 143.18530273 C-254.7453032 129.54454908 -230.51083465 113.99081174 -208.37548828 94.52416992 C-205.99064994 92.45741053 -203.53588709 90.47989122 -201.08056641 88.49780273 C-197.5717265 85.65071772 -194.17190003 82.72717722 -190.83056641 79.68530273 C-185.65499096 74.98097278 -180.27784247 70.56986732 -174.83056641 66.18530273 C-173.69742944 65.25991866 -172.56463192 64.3341188 -171.43212891 63.40795898 C-162.49416444 56.13520586 -153.28568016 49.30103037 -143.88330078 42.64135742 C-142.083553 41.36475231 -140.29191629 40.07779638 -138.50244141 38.78686523 C-112.00479123 19.96673934 -85.04352758 7.04054042 -52.51977539 3.30493164 C-50.39773026 3.0608392 -48.2772529 2.80560122 -46.15673828 2.54858398 C-30.74671193 0.70605166 -15.5108904 -0.00124987 0 0 Z " fill="#424248" transform="translate(296.83056640625,69.814697265625)"/>
<path d="M0 0 C0.2059878 40.88460693 0.36458065 81.76914624 0.45958797 122.6541684 C0.47084436 127.48070947 0.48249326 132.30724952 0.49438477 137.13378906 C0.49792596 138.57510827 0.49792596 138.57510827 0.50153869 140.04554504 C0.5407035 155.60522859 0.61166606 171.16461296 0.69437516 186.72411901 C0.77853125 202.68895417 0.82852732 218.65363261 0.84679645 234.61868048 C0.85914742 244.47062237 0.89815831 254.32171864 0.9712482 264.17340022 C1.01881293 270.9285814 1.03320324 277.68332527 1.0215124 284.43866175 C1.01574577 288.33684579 1.02459795 292.23355215 1.07284927 296.13147354 C1.11673403 299.70275877 1.11881306 303.27157705 1.08809005 306.84297723 C1.08250135 308.74200411 1.1212522 310.64100294 1.16173178 312.53960657 C1.03343509 320.68428129 1.03343509 320.68428129 -1.95845997 324.49341488 C-4.21586484 326.52498706 -6.50034578 328.28014641 -9 330 C-10.12084298 330.90243638 -11.23614139 331.81183739 -12.34375 332.73046875 C-18.38632066 337.43440061 -18.38632066 337.43440061 -20.97460938 339.43359375 C-23.19090804 341.14764537 -25.39986577 342.87095726 -27.609375 344.59375 C-29.15584007 345.79219583 -30.70270877 346.990121 -32.25 348.1875 C-32.98927734 348.76459717 -33.72855469 349.34169434 -34.49023438 349.9362793 C-35.17923828 350.46648682 -35.86824219 350.99669434 -36.578125 351.54296875 C-37.19075195 352.01758545 -37.80337891 352.49220215 -38.43457031 352.98120117 C-40 354 -40 354 -42 354 C-41.34 355.65 -40.68 357.3 -40 359 C-85.87 359 -131.74 359 -179 359 C-176.03 355.535 -176.03 355.535 -173 352 C-164.44283794 341.62965879 -155.52207952 330.55188691 -155.7265625 316.50390625 C-156.13997439 312.71823448 -157.42846733 310.76934288 -160 308 C-167.93502931 302.63102494 -175.75154536 302.96030459 -185 304 C-188.10573728 304.64496957 -191.09923556 305.53665875 -194.12109375 306.49609375 C-194.97144196 306.75872513 -195.82179016 307.02135651 -196.69790649 307.29194641 C-208.60171757 311.03955715 -220.27393905 315.47604724 -231.96191406 319.84008789 C-266.82944251 332.8282699 -266.82944251 332.8282699 -278.25 328.875 C-285.02593384 324.25504511 -287.70686699 318.38656787 -289.56640625 310.640625 C-290.9751425 302.06129433 -290.2428963 293.35120963 -288 285 C-287.71640625 283.91203125 -287.4328125 282.8240625 -287.140625 281.703125 C-271.92755306 228.56761287 -237.6918403 178.08132335 -200.484375 137.73046875 C-199.19450825 136.31283218 -197.90800865 134.89103395 -196.67163086 133.42651367 C-190.85923377 126.57496686 -184.45243806 120.30205976 -178.09399414 113.96362305 C-176.0673702 111.94235732 -174.04614453 109.91580426 -172.02539062 107.88867188 C-160.2895758 96.14743526 -160.2895758 96.14743526 -154.56225586 91.34790039 C-152.78372159 89.81339692 -151.14452153 88.17655766 -149.5 86.5 C-146.57565895 83.53640605 -143.54452199 80.7634846 -140.38671875 78.05078125 C-138.60611139 76.52079948 -136.84017982 74.97370664 -135.08203125 73.41796875 C-102.07074847 44.37699549 -46.3268653 0 0 0 Z " fill="#E9A36D" transform="translate(883,524)"/>
<path d="M0 0 C2.47096701 2.2467936 4.85695313 4.56672473 7.23754883 6.90942383 C7.93235352 7.57973633 8.6271582 8.25004883 9.34301758 8.94067383 C34.00560785 34.56942743 46.80436655 74.26307942 46.46411133 109.15942383 C45.57037949 143.1438598 28.69665207 174.4119832 4.55004883 197.53442383 C-9.30497089 209.63888635 -26.8943338 215.74265655 -44.76245117 218.90942383 C-46.22424805 219.21686523 -46.22424805 219.21686523 -47.71557617 219.53051758 C-79.40029395 225.54397841 -116.86913074 219.97299871 -144.27026367 202.62817383 C-163.98175774 189.03403999 -177.98580611 172.80010549 -187.76245117 150.90942383 C-188.48561523 149.34514648 -188.48561523 149.34514648 -189.22338867 147.74926758 C-203.85596365 113.38488694 -198.25765528 70.67968589 -184.80932617 36.85083008 C-174.26087183 11.6388507 -158.35777703 -7.68951244 -133.19995117 -19.27807617 C-89.40673884 -37.13597498 -35.98401374 -31.7893186 0 0 Z " fill="#020101" transform="translate(325.762451171875,443.090576171875)"/>
<path d="M0 0 C0.33 0 0.66 0 1 0 C3.02805496 8.66031623 5.02631486 17.32713306 7 26 C7.16967285 26.73798828 7.3393457 27.47597656 7.51416016 28.23632812 C11.20810792 44.48443999 12.96186475 61.22503313 14.93359375 77.75 C18.64883512 108.62795682 22.74594626 139.07708345 41 165 C42.01551967 166.65725604 43.02141862 168.32066791 44 170 C43.56429687 170.40089844 43.12859375 170.80179688 42.6796875 171.21484375 C37.06512555 176.57419834 30.72580494 182.90861899 30 191 C30.66 191.66 31.32 192.32 32 193 C37.26544164 192.69634876 41.30998029 191.12500363 46.0625 188.9375 C53.70473606 185.68801509 62.01916439 183.60541732 70.078125 186.83203125 C74.93193358 190.40434364 77.93913861 196.32283575 81.17114258 201.31420898 C89.23242499 213.64421351 97.85622325 218.96451969 111.875 223 C123.06142088 226.27785594 133.52108473 231.4787038 144.09564209 236.31582642 C151.15435077 239.53949639 158.26140383 242.64978597 165.375 245.75 C166.67929825 246.31913273 167.9835787 246.88830624 169.2878418 247.45751953 C172.02246943 248.65063083 174.75748496 249.8428484 177.49267578 251.03466797 C181.61780626 252.83261325 185.74112907 254.6346776 189.86419678 256.43734741 C193.46379802 258.01096891 197.06391138 259.58341641 200.66412354 261.15563965 C202.42173948 261.92339915 204.17918741 262.69154344 205.9364624 263.46008301 C208.39069384 264.53322759 210.84564471 265.60470931 213.30078125 266.67578125 C214.03675034 266.99801163 214.77271942 267.320242 215.5309906 267.65223694 C218.33294907 268.8730319 221.09868974 270.03289658 224 271 C222.45986033 274.43937925 220.40382355 277.11996859 218.0625 280.0625 C205.39035071 296.57414087 196.32156303 315.7775502 190.10546875 335.5703125 C189.31575742 338.02037096 188.4755937 340.35603062 187.53125 342.7421875 C185.64203357 347.71028214 184.49354008 352.82625948 183.3125 358 C183.08755859 358.96550781 182.86261719 359.93101562 182.63085938 360.92578125 C182.08244666 363.28278908 181.53894142 365.64081191 181 368 C172.21217594 368.20996026 163.80996254 367.71386484 155.125 366.375 C153.95735107 366.19606201 152.78970215 366.01712402 151.58666992 365.83276367 C92.62520562 356.34788465 25.62171022 324.84208095 -10.09887695 275.55249023 C-20.01974045 261.63845702 -20.01974045 261.63845702 -19.9765625 258.0546875 C-18.51655309 254.9828277 -16.14132646 253.01457734 -13.625 250.8125 C-13.08697754 250.33055176 -12.54895508 249.84860352 -11.99462891 249.35205078 C-7.661164 245.50106952 -3.18252767 241.83724018 1.32421875 238.19140625 C12.72876192 229.72979487 12.72876192 229.72979487 18.4375 217.5 C17.81922295 212.55378359 16.50357626 209.18341412 12.5234375 206.05078125 C3.69447293 201.17622885 -5.39382298 197.08968679 -14.64770508 193.08300781 C-20.93103238 190.36173603 -27.17150712 187.59293065 -33.3125 184.5625 C-33.94526855 184.25699219 -34.57803711 183.95148438 -35.22998047 183.63671875 C-41.80267159 180.33668389 -41.80267159 180.33668389 -44 177 C-44.45438452 173.64467239 -44.2158078 170.37026318 -44 167 C-43.92338135 165.3905249 -43.92338135 165.3905249 -43.84521484 163.74853516 C-43.6593515 160.10039101 -43.43046958 156.45727727 -43.1875 152.8125 C-43.09984375 151.49693115 -43.0121875 150.1813623 -42.921875 148.82592773 C-42.16574161 137.94556877 -40.90170322 127.1711154 -39.33496094 116.37890625 C-38.87515534 113.11334812 -38.50904164 109.83772302 -38.125 106.5625 C-32.90258278 68.07927802 -18.08967384 34.01212514 0 0 Z " fill="#9E9B94" transform="translate(82,506)"/>
<path d="M0 0 C1.73935066 -0.00845947 1.73935066 -0.00845947 3.51383972 -0.01708984 C5.43158707 -0.01101715 5.43158707 -0.01101715 7.38807678 -0.00482178 C8.74309477 -0.00753074 10.09811129 -0.01109114 11.453125 -0.01544189 C15.1390774 -0.02458031 18.82491818 -0.02101548 22.5108726 -0.01468372 C26.36386977 -0.00963018 30.2168572 -0.01431347 34.06985474 -0.01745605 C40.54215719 -0.02109803 47.01441406 -0.01629101 53.48670959 -0.0067749 C60.97345955 0.00410552 68.46010055 0.00058803 75.94684786 -0.01042771 C82.36897208 -0.0194995 88.79106348 -0.02078626 95.21319205 -0.01555037 C99.05133542 -0.01242948 102.88942757 -0.0120245 106.72756767 -0.01862335 C110.33660679 -0.02439446 113.94550529 -0.02040431 117.55452919 -0.00883484 C119.51367117 -0.00492201 121.47282502 -0.01087625 123.43196106 -0.01708984 C125.17554146 -0.00863037 125.17554146 -0.00863037 126.9543457 0 C128.47279036 0.00113108 128.47279036 0.00113108 130.02191067 0.002285 C132.54066467 0.25396729 132.54066467 0.25396729 135.54066467 2.25396729 C136.96658885 5.8934572 137.68703172 9.75688851 138.54066467 13.56646729 C138.93149231 15.29872559 138.93149231 15.29872559 139.33021545 17.065979 C147.12469053 53.37682632 150.50648437 96.67818351 129.54066467 129.25396729 C120.94236241 141.92596791 109.56478873 149.51254737 95.54066467 155.25396729 C94.73500061 155.61619385 93.92933655 155.97842041 93.09925842 156.35162354 C75.59149255 162.52611806 53.42273032 157.90640651 37.26722717 150.20318604 C31.88729056 147.48313166 27.1744523 144.09626945 22.54066467 140.25396729 C21.68988342 139.56560791 20.83910217 138.87724854 19.96253967 138.16802979 C6.56845066 126.78716274 -2.97773705 110.95418222 -8.89683533 94.50396729 C-9.1316864 93.85597168 -9.36653748 93.20797607 -9.60850525 92.54034424 C-13.33795107 81.46522949 -13.83031105 70.22771978 -13.77183533 58.62896729 C-13.77009811 57.55830017 -13.77009811 57.55830017 -13.76832581 56.46600342 C-13.58861499 0.01012582 -13.58861499 0.01012582 0 0 Z " fill="#FE799A" transform="translate(445.45933532714844,633.7460327148438)"/>
<path d="M0 0 C2.69306931 7.23762376 2.69306931 7.23762376 2 11 C-8.56902947 20.8068165 -26.78875031 23.89424049 -40.25 28 C-43.15231798 28.89174923 -46.0540872 29.78526913 -48.95585632 30.67880249 C-50.86503241 31.26618979 -52.77454641 31.85247993 -54.68440247 32.43765259 C-60.02346003 34.07486698 -65.35188365 35.74130437 -70.67189026 37.43936157 C-78.83592345 40.04452809 -87.01883602 42.45917187 -95.3125 44.625 C-97.55880396 45.22056186 -99.80490041 45.81690701 -102.05078125 46.4140625 C-103.09186035 46.69024414 -104.13293945 46.96642578 -105.20556641 47.25097656 C-108.48263598 48.12936635 -111.74213309 49.05299273 -115 50 C-122.71848985 52.23961163 -130.48933706 54.28271401 -138.25366211 56.35668945 C-144.55176735 58.04686792 -150.82040132 59.80154816 -157.0625 61.6875 C-163.25366015 63.55287682 -169.47872375 65.11361264 -175.78100586 66.5559082 C-181.49797872 67.86611623 -187.15841018 69.34281502 -192.8203125 70.875 C-197.87162385 72.24115574 -202.93602359 73.55671828 -208 74.875 C-208.98427979 75.13152344 -209.96855957 75.38804687 -210.98266602 75.65234375 C-215.83296748 76.91610212 -220.6838183 78.17772685 -225.53515625 79.4375 C-233.56077026 81.52396607 -241.5848272 83.61420247 -249.59228516 85.76953125 C-267.4400598 90.57198317 -285.33491933 95.15507076 -303.27069092 99.61657715 C-306.00431388 100.29726585 -308.7372685 100.98061638 -311.4702282 101.66396236 C-328.29135559 105.86909142 -345.1306255 109.99223908 -362 114 C-363.5804871 114.37694443 -365.16097226 114.75389699 -366.74145508 115.13085938 C-410.71072868 125.59034084 -454.9109093 134.66284094 -499.57263184 141.61975098 C-501.78021111 141.96556991 -503.98653345 142.31814315 -506.19238281 142.67480469 C-520.47917717 144.972838 -534.7731077 146.54505606 -549.1875 147.75 C-549.95460297 147.81538971 -550.72170593 147.88077942 -551.51205444 147.94815063 C-559.73390006 148.63676467 -567.92307614 149.11189968 -576.17578125 149.140625 C-576.85924118 149.14431091 -577.54270111 149.14799683 -578.24687195 149.15179443 C-585.88493966 149.11241475 -591.18184363 148.77027001 -596.80078125 143.515625 C-609 129.56127886 -609 129.56127886 -609 125 C-607.9790625 125.04713135 -606.958125 125.0942627 -605.90625 125.14282227 C-577.78990963 126.31472241 -551.91856299 123.05634881 -524.45849609 117.15429688 C-519.2011252 116.03007187 -513.92838333 115.00694538 -508.64453125 114.015625 C-501.22720696 112.62244064 -493.82373866 111.17228467 -486.42578125 109.6796875 C-470.81827517 106.53836082 -455.17923269 103.56244574 -439.54174805 100.5748291 C-404.67097658 93.91202744 -369.81054528 87.2005011 -334.99633789 80.24731445 C-332.27468331 79.70386905 -329.55266703 79.16229167 -326.83032227 78.62231445 C-311.67645982 75.61597858 -296.5536868 72.51187493 -281.48002625 69.12094116 C-272.12568837 67.01662937 -262.74882861 65.03886134 -253.35870361 63.10150146 C-228.75476085 58.01791852 -204.25967269 52.56872169 -179.85131836 46.60913086 C-172.84435674 44.90468404 -165.82605085 43.28066211 -158.78344727 41.73046875 C-142.30779675 38.09730201 -125.93405459 34.07455992 -109.5625 30 C-107.78557266 29.56021317 -107.78557266 29.56021317 -105.9727478 29.11154175 C-89.8624753 25.11908874 -73.89243542 20.78725468 -58 16 C-57.10385483 15.73008743 -56.20770966 15.46017487 -55.28440857 15.18208313 C-52.87676192 14.45585274 -50.46954428 13.7282239 -48.0625 13 C-39.27147932 10.34221274 -30.43543323 7.86160244 -21.57446289 5.44726562 C-17.12704365 4.22217216 -12.75804119 2.96906542 -8.453125 1.3046875 C-5.29966455 0.11322168 -3.31424422 -0.3107104 0 0 Z " fill="#36363C" transform="translate(620,172)"/>
<path d="M0 0 C9.42337401 7.28228087 14.84214812 16.49181967 20 27 C20.56589844 28.1446875 21.13179688 29.289375 21.71484375 30.46875 C33.09744549 55.2613889 35 82.13929851 35 109 C-10.87 109 -56.74 109 -104 109 C-102.87267987 97.72679875 -102.87267987 97.72679875 -101.65234375 93.4765625 C-101.38123779 92.52869873 -101.11013184 91.58083496 -100.83081055 90.60424805 C-100.38862183 89.12952026 -100.38862183 89.12952026 -99.9375 87.625 C-99.62659424 86.58061768 -99.31568848 85.53623535 -98.99536133 84.46020508 C-89.79035099 54.2623578 -74.56455526 18.9324091 -46.05078125 2.27734375 C-31.40281094 -5.35610556 -14.96085645 -9.38397599 0 0 Z " fill="#585858" transform="translate(389,774)"/>
<path d="M0 0 C14.07966738 10.4036072 25.35504431 24.59376065 29.6171875 41.89453125 C30.25674766 46.54880942 30.365806 51.1457271 30.39453125 55.83984375 C30.40299072 57.15166626 30.40299072 57.15166626 30.41162109 58.48999023 C30.28315161 70.10123662 28.07448308 79.41946124 20.296875 88.3203125 C10.89466926 97.37500345 -1.84308173 98.78193942 -14.3671875 98.5546875 C-36.38771922 97.59311312 -59.17137641 88.37625351 -75.91796875 74.27734375 C-76.50835937 73.83132813 -77.09875 73.3853125 -77.70703125 72.92578125 C-90.21234324 63.16135956 -98.81026551 46.9022182 -100.91796875 31.27734375 C-101.96905486 17.78413261 -101.76203346 6.98461549 -93.04296875 -3.91015625 C-68.67547186 -29.48595877 -25.31692636 -17.62157224 0 0 Z " fill="#FDFDFD" transform="translate(305.91796875,451.72265625)"/>
<path d="M0 0 C0.73089844 0.00491455 1.46179688 0.0098291 2.21484375 0.01489258 C26.93782097 0.53083656 53.35724676 9.42005055 73.0625 24.3125 C73.80886719 24.86421875 74.55523438 25.4159375 75.32421875 25.984375 C85.80168514 34.36634811 92.56199002 48.3743745 94.78515625 61.48046875 C95.91496553 73.0172537 96.72514425 86.75155718 89.0625 96.3125 C84.64420179 100.75363179 79.15493829 103.40372037 73.5625 106.0625 C72.94592529 106.35640625 72.32935059 106.6503125 71.6940918 106.953125 C55.92125958 114.14548654 37.21938074 112.80554977 21.0625 107.3125 C11.91428995 103.71957816 3.32180363 98.98182489 -3.9375 92.3125 C-4.40639648 91.88453125 -4.87529297 91.4565625 -5.35839844 91.015625 C-12.45716255 84.4615346 -18.23868834 77.83654144 -22.9375 69.3125 C-23.32292969 68.62671875 -23.70835937 67.9409375 -24.10546875 67.234375 C-31.80005653 52.72963481 -34.75468479 35.08471084 -31.18359375 18.89453125 C-30.27055107 16.5277814 -29.27941153 14.46049034 -27.9375 12.3125 C-27.36 11.384375 -26.7825 10.45625 -26.1875 9.5 C-18.7495169 2.26862754 -10.23458312 -0.08390996 0 0 Z " fill="#EFEFEF" transform="translate(673.9375,379.6875)"/>
<path d="M0 0 C1.73935066 -0.00845947 1.73935066 -0.00845947 3.51383972 -0.01708984 C5.43158707 -0.01101715 5.43158707 -0.01101715 7.38807678 -0.00482178 C8.74309477 -0.00753074 10.09811129 -0.01109114 11.453125 -0.01544189 C15.1390774 -0.02458031 18.82491818 -0.02101548 22.5108726 -0.01468372 C26.36386977 -0.00963018 30.2168572 -0.01431347 34.06985474 -0.01745605 C40.54215719 -0.02109803 47.01441406 -0.01629101 53.48670959 -0.0067749 C60.97345955 0.00410552 68.46010055 0.00058803 75.94684786 -0.01042771 C82.36897208 -0.0194995 88.79106348 -0.02078626 95.21319205 -0.01555037 C99.05133542 -0.01242948 102.88942757 -0.0120245 106.72756767 -0.01862335 C110.33660679 -0.02439446 113.94550529 -0.02040431 117.55452919 -0.00883484 C119.51367117 -0.00492201 121.47282502 -0.01087625 123.43196106 -0.01708984 C125.17554146 -0.00863037 125.17554146 -0.00863037 126.9543457 0 C128.47279036 0.00113108 128.47279036 0.00113108 130.02191067 0.002285 C132.54066467 0.25396729 132.54066467 0.25396729 135.54066467 2.25396729 C136.96658885 5.8934572 137.68703172 9.75688851 138.54066467 13.56646729 C138.93149231 15.29872559 138.93149231 15.29872559 139.33021545 17.065979 C147.12469053 53.37682632 150.50648437 96.67818351 129.54066467 129.25396729 C120.94236241 141.92596791 109.56478873 149.51254737 95.54066467 155.25396729 C94.73500061 155.61619385 93.92933655 155.97842041 93.09925842 156.35162354 C75.59149255 162.52611806 53.42273032 157.90640651 37.26722717 150.20318604 C31.88729056 147.48313166 27.1744523 144.09626945 22.54066467 140.25396729 C21.68988342 139.56560791 20.83910217 138.87724854 19.96253967 138.16802979 C6.56845066 126.78716274 -2.97773705 110.95418222 -8.89683533 94.50396729 C-9.1316864 93.85597168 -9.36653748 93.20797607 -9.60850525 92.54034424 C-13.33795107 81.46522949 -13.83031105 70.22771978 -13.77183533 58.62896729 C-13.77009811 57.55830017 -13.77009811 57.55830017 -13.76832581 56.46600342 C-13.58861499 0.01012582 -13.58861499 0.01012582 0 0 Z M-2.45933533 38.25396729 C-2.58471401 43.79994843 -2.67449593 49.34507102 -2.73399353 54.89215088 C-2.75884455 56.77152916 -2.79273808 58.6508139 -2.83653259 60.52984619 C-3.12115948 73.07352039 -2.15158818 83.56753691 2.54066467 95.25396729 C2.87606262 96.09314697 3.21146057 96.93232666 3.55702209 97.79693604 C4.39871864 99.74674911 5.3053262 101.62333977 6.29066467 103.50396729 C6.62791565 104.1596167 6.96516663 104.81526611 7.31263733 105.49078369 C17.46671752 124.62929096 33.57155455 139.62185814 54.41957092 146.15631104 C71.34049062 150.66163567 88.21736072 149.03988825 103.46644592 140.26568604 C119.28218729 129.91612212 127.3281209 114.57230828 132.22816467 96.75396729 C132.38285217 95.51646729 132.38285217 95.51646729 132.54066467 94.25396729 C132.72628967 92.99584229 132.91191467 91.73771729 133.10316467 90.44146729 C132.96223666 79.90709802 125.00806728 68.61516075 117.93128967 61.41802979 C98.68995177 44.00021737 72.2141981 35.23455363 46.54066467 34.25396729 C45.86003967 34.22673584 45.17941467 34.19950439 44.47816467 34.17144775 C28.96487879 33.63615859 12.6251329 34.37112911 -2.45933533 38.25396729 Z " fill="#070505" transform="translate(445.45933532714844,633.7460327148438)"/>
<path d="M0 0 C2.95496216 0.79279472 4.42173875 2.23991204 6.65625 4.2578125 C12.40354608 8.56828456 19.83014228 10.47847833 26.6328125 12.47265625 C33.66297744 14.61439837 40.21346982 17.48020206 46.875 20.5625 C48.7864209 21.43474488 50.69931778 22.30369342 52.61236572 23.17236328 C53.93609316 23.77345214 55.25945494 24.37534689 56.5824585 24.97802734 C63.669514 28.20293728 70.80017238 31.32581014 77.9375 34.4375 C79.24154249 35.00657797 80.5455789 35.57566988 81.84960938 36.14477539 C84.58448845 37.33795123 87.31975224 38.53024095 90.05517578 39.72216797 C94.18030626 41.52011325 98.30362907 43.3221776 102.42669678 45.12484741 C106.02629802 46.69846891 109.62641138 48.27091641 113.22662354 49.84313965 C114.98423948 50.61089915 116.74168741 51.37904344 118.4989624 52.14758301 C120.95319384 53.22072759 123.40814471 54.29220931 125.86328125 55.36328125 C126.59925034 55.68551163 127.33521942 56.007742 128.0934906 56.33973694 C130.89544907 57.5605319 133.66118974 58.72039658 136.5625 59.6875 C135.02236033 63.12687925 132.96632355 65.80746859 130.625 68.75 C121.34567647 80.8528019 114.27102871 94.35003501 108.5546875 108.453125 C108.21824219 109.25492188 107.88179688 110.05671875 107.53515625 110.8828125 C107.24906494 111.59453613 106.96297363 112.30625977 106.66821289 113.03955078 C105.5625 114.6875 105.5625 114.6875 103.76464844 115.52734375 C100.9066056 115.73520141 99.0402952 115.0588614 96.35546875 114.0546875 C94.78744507 113.47412598 94.78744507 113.47412598 93.18774414 112.88183594 C92.05328857 112.44645508 90.91883301 112.01107422 89.75 111.5625 C87.96420532 110.88622559 87.96420532 110.88622559 86.14233398 110.19628906 C-1.11525067 76.93977852 -1.11525067 76.93977852 -14.91015625 49.7890625 C-19.17894088 39.96729062 -20.60968727 29.04923603 -16.6171875 18.83984375 C-14.14829147 14.33533476 -10.77486544 10.56251567 -7.4375 6.6875 C-6.54153305 5.47926574 -5.64567515 4.27095059 -4.75 3.0625 C-2.4375 0.6875 -2.4375 0.6875 0 0 Z " fill="#F0ECE1" transform="translate(169.4375,717.3125)"/>
<path d="M0 0 C3.64359037 3.10299833 7.26026312 6.22225916 10.609375 9.64453125 C12.02693369 11.13024985 12.02693369 11.13024985 14.1875 12.3125 C16 14 16 14 16.4296875 16.73828125 C15.87047548 20.98320882 13.86555535 22.98535315 10.9375 25.875 C9.91591491 26.93156531 8.89508049 27.98885696 7.875 29.046875 C7.37742187 29.55412109 6.87984375 30.06136719 6.3671875 30.58398438 C4.64554269 32.3671165 3.0375742 34.23260456 1.4375 36.125 C-13.61590866 53.31364393 -31.10861611 65.08615273 -54 69 C-58.82881634 69.28070012 -63.66383905 69.29471664 -68.5 69.3125 C-69.54914078 69.31692612 -69.54914078 69.31692612 -70.61947632 69.32144165 C-81.29727492 69.33161113 -91.734244 68.63395569 -102.3125 67.1875 C-103.54484375 67.0222583 -104.7771875 66.8570166 -106.046875 66.68676758 C-114.33514961 65.43729372 -114.33514961 65.43729372 -116.82177734 63.80175781 C-118.53805411 61.17719865 -118.37187719 59.12098003 -118.36328125 56.00390625 C-118.36263672 54.80443359 -118.36199219 53.60496094 -118.36132812 52.36914062 C-118.34521484 51.11294922 -118.32910156 49.85675781 -118.3125 48.5625 C-118.31572266 47.34111328 -118.31894531 46.11972656 -118.32226562 44.86132812 C-118.22753252 28.6791917 -115.76316044 9.82803535 -105 -3 C-104.47277344 -3.67160156 -103.94554687 -4.34320312 -103.40234375 -5.03515625 C-76.51980632 -35.69897367 -26.96795595 -22.43421263 0 0 Z " fill="#030201" transform="translate(747,741)"/>
<path d="M0 0 C5.54292534 3.07352945 10.31392946 7.22613737 15.20361328 11.23095703 C28.87337474 22.39706978 43.42580398 28.81219432 60.08642578 34.26928711 C68.60727546 37.15373259 75.75820439 40.92636909 80.8671875 48.58984375 C83.92413323 55.14838187 83.9392091 61.91750529 81.921875 68.828125 C78.5639598 77.30738884 75.18058815 82.93366485 66.734375 86.828125 C56.85551268 90.85820482 43.22017768 89.71761168 33.48828125 85.84375 C16.78862365 77.85479309 -0.69730173 64.29264331 -12.1328125 49.58984375 C-12.85984375 48.6875 -13.586875 47.78515625 -14.3359375 46.85546875 C-23.20594099 35.51831197 -29.93109824 24.36022952 -28.1328125 9.58984375 C-25.7709313 4.02940018 -21.63118737 0.54473217 -16.12890625 -1.78515625 C-10.32692917 -3.60182226 -5.41526297 -2.3125971 0 0 Z " fill="#FCFCFC" transform="translate(181.1328125,548.41015625)"/>
<path d="M0 0 C9.79665174 5.93590229 17.77514593 15.82896907 25.13671875 24.515625 C33.53247464 33.90283951 46.14027394 37.28995773 57.91845703 40.31274414 C66.96156033 42.66902158 74.04637335 45.46883247 79.37890625 53.44140625 C81.91771871 58.51903116 81.53973717 63.02744693 80.37890625 68.44140625 C78.4409883 73.93217376 75.26669388 77.40995608 70.37890625 80.44140625 C55.41062562 87.51097319 36.65474372 85.88860411 21.37890625 80.44140625 C0.39693049 72.18078587 -16.6409882 52.62754661 -25.96875 32.5390625 C-29.05213833 25.01294259 -31.80844731 16.92275866 -28.6328125 8.96484375 C-22.28200981 -1.73312811 -11.20022595 -5.43902681 0 0 Z " fill="#FCFCFC" transform="translate(624.62109375,487.55859375)"/>
<path d="M0 0 C4.86086599 3.84818558 7.60087575 7.70574609 8.46875 14.01953125 C8.58655737 27.788268 4.49268201 37.90121073 -4 48.609375 C-4.51046875 49.29515625 -5.0209375 49.9809375 -5.546875 50.6875 C-15.1504635 62.7632994 -30.98530771 70.90589855 -46 73.609375 C-53.9367973 74.45459238 -61.1027129 73.88593125 -68 69.609375 C-73.31536242 64.88570413 -76.62418366 60.22116787 -77.37109375 53.04296875 C-77.64249567 36.71095905 -71.41965113 25.45138457 -60.375 13.484375 C-45.15153988 -1.1085276 -19.38016093 -13.47526814 0 0 Z " fill="#DB01B3" transform="translate(826,798.390625)"/>
<path d="M0 0 C5.43420099 3.84440814 9.14943885 9.07331656 11.25 15.375 C11.85026636 24.68404878 12.36189301 33.22270004 7.25 41.375 C6.68925781 42.38046875 6.68925781 42.38046875 6.1171875 43.40625 C-0.95855127 55.58964126 -11.44145048 63.70445243 -24.75 68.375 C-34.11780412 70.79515326 -45.62825785 70.98969665 -54.4375 66.875 C-61.67643453 62.59380188 -67.03092829 57.15527388 -69.31640625 48.921875 C-71.47715272 36.22992276 -68.9712176 25.59556949 -61.8046875 15.0390625 C-47.40602569 -3.62992486 -21.18858026 -12.67091178 0 0 Z " fill="#ED7A0C" transform="translate(861.75,561.625)"/>
<path d="M0 0 C6.34811415 4.12262586 12.08329489 8.73339572 14.0390625 16.32421875 C15.52961014 29.31993096 12.02471705 39.18652812 4.0390625 49.32421875 C-5.56792198 60.4248035 -17.40369625 66.99771901 -31.9609375 69.32421875 C-42.93622904 70.01348827 -52.14770457 69.37480509 -60.9609375 62.32421875 C-64.6145178 58.73067381 -67.636956 55.66991349 -67.9609375 50.32421875 C-68.6209375 50.32421875 -69.2809375 50.32421875 -69.9609375 50.32421875 C-70.81349271 36.4559874 -68.4758283 26.47476428 -59.18359375 15.63671875 C-45.00283871 0.88275217 -19.97462699 -10.05789522 0 0 Z " fill="#EB0807" transform="translate(780.9609375,622.67578125)"/>
<path d="M0 0 C41.25 0 82.5 0 125 0 C129.62578769 17.34670383 129.62578769 17.34670383 130.6875 24.6875 C130.80416016 25.42548828 130.92082031 26.16347656 131.04101562 26.92382812 C132.64611129 37.48844085 133.16427566 48.01106646 133.125 58.6875 C133.12886719 59.75033203 133.13273438 60.81316406 133.13671875 61.90820312 C133.12917535 68.02212971 132.79979727 73.93804454 132 80 C131.67 80 131.34 80 131 80 C130.85304688 79.40574219 130.70609375 78.81148437 130.5546875 78.19921875 C126.05103404 61.55640738 116.06581764 49.51741607 101.18554688 40.95605469 C83.81491556 31.38718708 64.88297693 25.76206532 45 25 C44.33532715 24.97276855 43.6706543 24.94553711 42.98583984 24.91748047 C27.51812574 24.36985933 12.33536173 26.12545643 -3 28 C-3.09279631 21.364033 -3.07750806 14.93921271 -2.0625 8.375 C-1.88847656 7.20710937 -1.71445312 6.03921875 -1.53515625 4.8359375 C-1 2 -1 2 0 0 Z " fill="#9D1312" transform="translate(447,644)"/>
<path d="M0 0 C4.27983111 0.65777743 7.84008436 2.12180344 11.78125 3.89453125 C12.45109924 4.19397644 13.12094849 4.49342163 13.81109619 4.80194092 C16.04284823 5.80080919 18.27134613 6.8067405 20.5 7.8125 C22.0795 8.5206646 23.65925866 9.22825251 25.23925781 9.93530273 C28.65584319 11.46464653 32.07136776 12.99632818 35.48632812 14.52929688 C44.2520726 18.46093902 53.03332903 22.35776899 61.81323242 26.25765991 C64.68123303 27.53194603 67.54869594 28.80743452 70.41601562 30.08325195 C80.92811123 34.75894059 91.45260955 39.40445821 102 44 C102 44.66 102 45.32 102 46 C101.33097656 46.11214844 100.66195312 46.22429688 99.97265625 46.33984375 C86.31889641 49.1439045 74.1635208 55.95360442 64.19750977 65.6328125 C62.734375 67.0078125 62.734375 67.0078125 60 69 C54.92952988 68.70278396 50.21203943 66.01622342 45.65234375 63.94921875 C44.73511536 63.5386171 43.81788696 63.12801544 42.87286377 62.70497131 C40.90893585 61.82536551 38.94600299 60.94353527 36.98397827 60.05969238 C31.89506963 57.76755009 26.79893841 55.49158439 21.703125 53.21484375 C20.69698654 52.76489044 19.69084808 52.31493713 18.65422058 51.85134888 C6.49795264 46.4226225 -5.73623583 41.18100888 -18 36 C-18 31.70955746 -17.34797823 30.31082038 -15.33203125 26.640625 C-14.76806641 25.60679687 -14.20410156 24.57296875 -13.62304688 23.5078125 C-13.02556641 22.43273437 -12.42808594 21.35765625 -11.8125 20.25 C-11.23435547 19.19039062 -10.65621094 18.13078125 -10.06054688 17.0390625 C-6.87707306 11.24046387 -3.57093225 5.56823333 0 0 Z " fill="#D0584F" transform="translate(253,702)"/>
<path d="M0 0 C9.28832689 4.80907647 16.87490167 10.51153664 24.41015625 17.765625 C25.01859375 18.26578125 25.62703125 18.7659375 26.25390625 19.28125 C27.41015625 20.765625 27.41015625 20.765625 27.30078125 22.7265625 C22.50684311 33.70215772 6.17562575 43.06636417 -4.3828125 47.5859375 C-15.41062725 51.64245401 -26.22463481 52.93609304 -37.90234375 52.890625 C-39.37477539 52.89642578 -39.37477539 52.89642578 -40.87695312 52.90234375 C-47.1731361 52.89400995 -53.33914557 52.51979746 -59.58984375 51.765625 C-60.72646444 46.29165975 -60.7734254 40.95468067 -60.77734375 35.390625 C-60.78958984 34.483125 -60.80183594 33.575625 -60.81445312 32.640625 C-60.82668872 26.97962134 -60.20243379 22.19408745 -58.58984375 16.765625 C-58.3784375 16.01152344 -58.16703125 15.25742187 -57.94921875 14.48046875 C-55.3976683 7.0384466 -51.43023117 2.46603711 -44.40234375 -1.109375 C-31.03169596 -7.3120411 -13.26718989 -6.13329344 0 0 Z " fill="#585858" transform="translate(713.58984375,747.234375)"/>
<path d="M0 0 C6.13993419 1.89180545 11.85402734 4.20137637 17.6015625 7.0625 C18.78734642 7.64387726 18.78734642 7.64387726 19.99708557 8.23699951 C22.54232352 9.48612377 25.08368012 10.74292657 27.625 12 C30.27791587 13.30532971 32.93172282 14.60883343 35.5856781 15.91204834 C37.33155772 16.76937904 39.07713531 17.62732508 40.82240295 18.48590088 C46.36734792 21.21074316 51.93397739 23.87918931 57.52807617 26.50170898 C115.94905469 53.92358204 115.94905469 53.92358204 126 69 C125.77784462 75.22035064 125.77784462 75.22035064 123.31640625 77.6875 C114.67041894 82.58640681 100.96384218 78.10455115 91.9609375 75.71875 C80.87051493 72.60200361 70.02125344 68.79055583 59.21459961 64.8135376 C56.81878698 63.93343104 54.42009277 63.06142103 52.02148438 62.18896484 C47.6366245 60.5879937 43.26634104 58.95136897 38.90328979 57.29193115 C37.18358129 56.64180659 35.46052099 56.00047644 33.73416138 55.3682251 C31.30796979 54.47604969 28.89772943 53.54957956 26.48828125 52.61328125 C25.7594574 52.35302658 25.03063354 52.09277191 24.27972412 51.82463074 C22.25512695 51.01293945 22.25512695 51.01293945 19 49 C17.62231445 45.56884766 17.62231445 45.56884766 17 42 C13.46664235 30.25582538 9.47486477 19.08480842 3.69921875 8.25 C2.27842593 5.53252959 1.07040939 2.86891452 0 0 Z " fill="#D0574F" transform="translate(423,778)"/>
<path d="M0 0 C0 25.74 0 51.48 0 78 C-11.88782063 82.95325859 -23.36215294 86.68319587 -36.12890625 83.12890625 C-44.78585577 79.09780762 -48.96879454 73.09204839 -52.23828125 64.33203125 C-56.21323214 52.16256621 -52.86492821 40.11132986 -47.49609375 28.84375 C-39.33386023 15.15479932 -26.91603318 5.00536494 -11.64453125 0.41015625 C-7.80650091 -0.18510695 -3.8839175 0 0 0 Z " fill="#0210FE" transform="translate(883,715)"/>
<path d="M0 0 C1.14210938 -0.00773438 2.28421875 -0.01546875 3.4609375 -0.0234375 C7.22381084 0.45040581 9.92196868 1.67196868 12.625 4.375 C13.857244 13.88088225 8.70312657 20.86620888 3.125 28.1875 C1.62653816 29.91799978 0.12634 31.64699665 -1.375 33.375 C-2.30260349 34.62070659 -3.2296498 35.8668282 -4.15625 37.11328125 C-8.15573164 42.11607574 -11.84699916 46.64283878 -18.35839844 47.99414062 C-25.39366947 48.58023752 -32.3700311 48.16062013 -39.375 47.375 C-40.36092556 43.20990324 -41.33751506 39.04267017 -42.3125 34.875 C-42.59029297 33.70195313 -42.86808594 32.52890625 -43.15429688 31.3203125 C-44.54818354 25.34171427 -45.77740667 19.48709378 -46.375 13.375 C-42.59077985 12.00021707 -38.8044933 10.63129142 -35.01635742 9.26733398 C-33.73292562 8.80434915 -32.45002933 8.33987666 -31.16772461 7.8737793 C-9.31966332 -0.06397938 -9.31966332 -0.06397938 0 0 Z " fill="#575757" transform="translate(706.375,835.625)"/>
<path d="M0 0 C3.77275334 3.05074394 5.71703201 5.33731762 6.23828125 10.2421875 C6.6077472 23.34850601 1.81805432 35.76295976 -6.5390625 45.859375 C-8.95630443 48.16027908 -11.00198052 49.00041896 -14.25 49.6875 C-26.19660042 47.49728992 -36.99914687 36.49620672 -44 27 C-46.76196538 22.76498642 -47.67454715 19.10870404 -47.46484375 14.109375 C-46.82884099 11.22331207 -45.36366655 9.68622846 -42.94140625 8.05078125 C-30.60482577 1.37363809 -14.03296241 -2.40746082 0 0 Z " fill="#040303" transform="translate(521,539)"/>
<path d="M0 0 C4.53357166 0.68530734 8.57147673 2.30844302 12.75 4.125 C13.45576172 4.43123291 14.16152344 4.73746582 14.88867188 5.05297852 C20.57682677 7.61695743 25.38017898 10.7779969 30 15 C29.41701436 18.8738942 28.2749991 21.6304307 26.26953125 24.984375 C25.43518555 26.38816406 25.43518555 26.38816406 24.58398438 27.8203125 C23.99939453 28.78710938 23.41480469 29.75390625 22.8125 30.75 C22.24724609 31.70132813 21.68199219 32.65265625 21.09960938 33.6328125 C17.5675849 39.53974919 13.87780628 45.31431543 10 51 C-0.42585868 50.49552297 -8.04049612 46.85127551 -15.171875 39.18359375 C-22.75703973 30.12353588 -22.75703973 30.12353588 -23.30078125 25.37109375 C-23 23 -23 23 -20.6875 20.75 C-18 19 -18 19 -15 18 C-13.86454538 15.76420065 -13.86454538 15.76420065 -12.875 13.125 C-11.43855519 10.03111887 -10.6632969 8.3790268 -7.67578125 6.671875 C-5.45270788 5.95993314 -3.30005415 5.39085888 -1 5 C-0.67 3.35 -0.34 1.7 0 0 Z " fill="#87643E" transform="translate(189,670)"/>
<path d="M0 0 C4.60416626 0.60875755 8.56483324 1.84722956 12.875 3.5625 C14.02742188 4.01753906 15.17984375 4.47257813 16.3671875 4.94140625 C17.67042969 5.46541016 17.67042969 5.46541016 19 6 C19 9.83902654 17.41073493 12.24953767 15.5703125 15.49609375 C15.04472244 16.4410244 15.04472244 16.4410244 14.5085144 17.40504456 C13.38660271 19.41923935 12.25607361 21.42843831 11.125 23.4375 C10.00297266 25.44400836 8.88271044 27.45149251 7.76290894 29.45924377 C7.06566339 30.70786997 6.36678023 31.9555835 5.66604614 33.20225525 C4.03872902 36.10240943 2.45136692 39.00741965 1 42 C-3.36119513 41.32584579 -7.22471288 39.80372897 -11.25 38.0625 C-11.88679687 37.79759766 -12.52359375 37.53269531 -13.1796875 37.25976562 C-17.8770523 35.2458954 -17.8770523 35.2458954 -19 33 C-17.69238281 30.28198242 -17.69238281 30.28198242 -15.703125 26.85546875 C-15.35368835 26.24866776 -15.00425171 25.64186676 -14.64422607 25.01667786 C-13.5202958 23.06917906 -12.38528991 21.12839432 -11.25 19.1875 C-10.49927381 17.89039399 -9.74926484 16.59287258 -9 15.29492188 C-6.0382545 10.17358054 -3.05472745 5.0665648 0 0 Z " fill="#CDCBCB" transform="translate(226,691)"/>
<path d="M0 0 C0.92876953 -0.01224609 1.85753906 -0.02449219 2.81445312 -0.03710938 C7.80515852 -0.04776569 11.8856775 0.21214759 16.5625 2.1875 C16.625 4.4375 16.625 4.4375 15.5625 7.1875 C13.66796875 8.05859375 13.66796875 8.05859375 11.3125 8.875 C8.20802969 10.06185911 6.86317743 10.71175451 5.06640625 13.5546875 C4.27888654 15.33628947 3.50515702 17.12405799 2.74609375 18.91796875 C1.06829577 22.13513253 -1.14049138 22.89736619 -4.4375 24.1875 C-6.1118009 26.19372029 -6.1118009 26.19372029 -7.4375 28.1875 C-7.83839844 27.65640625 -8.23929688 27.1253125 -8.65234375 26.578125 C-13.44671093 20.62049866 -18.09164557 16.86331304 -25.84765625 15.8828125 C-32.16869767 15.70249753 -38.27648068 16.87564798 -44.4375 18.1875 C-33.7449801 4.11839486 -16.98255606 0.01173639 0 0 Z " fill="#01DA29" transform="translate(172.4375,667.8125)"/>
<path d="M0 0 C1.35525292 10.97587549 1.35525292 10.97587549 -1.51171875 15.2578125 C-3.89877718 17.36689555 -6.38883804 19.17503258 -9 21 C-10.59640005 22.26631733 -12.19240028 23.53319094 -13.77978516 24.81079102 C-16.15663591 26.71301376 -18.56535437 28.57268618 -20.97460938 30.43359375 C-23.19090804 32.14764537 -25.39986577 33.87095726 -27.609375 35.59375 C-29.15584007 36.79219583 -30.70270877 37.990121 -32.25 39.1875 C-32.98927734 39.76459717 -33.72855469 40.34169434 -34.49023438 40.9362793 C-35.17923828 41.46648682 -35.86824219 41.99669434 -36.578125 42.54296875 C-37.19075195 43.01758545 -37.80337891 43.49220215 -38.43457031 43.98120117 C-40 45 -40 45 -42 45 C-41.34 46.65 -40.68 48.3 -40 50 C-47.92 50 -55.84 50 -64 50 C-60.72182872 46.72182872 -57.82970255 44.3619271 -54.0625 41.75 C-36.16973643 29.16711323 -18.49465542 15.78745646 -2.28515625 1.07421875 C-1 0 -1 0 0 0 Z " fill="#030201" transform="translate(883,833)"/>
<path d="M0 0 C2.58045976 9.96856181 3.38747513 18.75343542 3 29 C-2.85285034 28.65742968 -5.81646998 27.02041499 -9.8125 22.9375 C-10.84649958 21.93495786 -11.88299627 20.93498527 -12.921875 19.9375 C-13.43427734 19.44121094 -13.94667969 18.94492188 -14.47460938 18.43359375 C-18.95860961 14.21943732 -23.88336703 10.41108865 -29 7 C-27.97060303 6.73521851 -27.97060303 6.73521851 -26.92041016 6.46508789 C-23.82133442 5.66655465 -20.72316179 4.86457151 -17.625 4.0625 C-16.54476563 3.78470703 -15.46453125 3.50691406 -14.3515625 3.22070312 C-13.3203125 2.95322266 -12.2890625 2.68574219 -11.2265625 2.41015625 C-10.27346191 2.16402588 -9.32036133 1.91789551 -8.33837891 1.66430664 C-2.4799706 0 -2.4799706 0 0 0 Z " fill="#9F9C95" transform="translate(511,235)"/>
<path d="M0 0 C0.484375 1.77734375 0.484375 1.77734375 0.75 3.9375 C0.89695312 5.00291016 0.89695312 5.00291016 1.046875 6.08984375 C1 8 1 8 -1 10 C-6.65190149 10.5131613 -11.16990299 9.28317557 -16.4375 7.5 C-17.16904297 7.26152344 -17.90058594 7.02304687 -18.65429688 6.77734375 C-20.4392116 6.19403828 -22.22005557 5.59830065 -24 5 C-24 4.67 -24 4.34 -24 4 C-20.37757339 3.13465736 -16.75172417 2.28463446 -13.125 1.4375 C-12.09246094 1.19064453 -11.05992187 0.94378906 -9.99609375 0.68945312 C-9.00996094 0.46064453 -8.02382812 0.23183594 -7.0078125 -0.00390625 C-5.64100342 -0.32597046 -5.64100342 -0.32597046 -4.24658203 -0.65454102 C-2 -1 -2 -1 0 0 Z " fill="#A3A098" transform="translate(261,300)"/>
<path d="M0 0 C3.18141867 -0.46557346 5.25343123 -0.50963377 7.95703125 1.3359375 C9.6935608 2.84258024 11.369718 4.37936464 13 6 C12.67 6.99 12.34 7.98 12 9 C9.997193 7.69161864 7.99773901 6.37857806 6 5.0625 C5.42765625 4.68931641 4.8553125 4.31613281 4.265625 3.93164062 C2.82614271 2.98055411 1.41085511 1.99305724 0 1 C0 0.67 0 0.34 0 0 Z " fill="#D8D4CA" transform="translate(144,692)"/>
<path d="M0 0 C2.34914492 2.34914492 2.73140357 3.95679446 3.625 7.125 C3.88539063 8.03507812 4.14578125 8.94515625 4.4140625 9.8828125 C4.70410156 10.93082031 4.70410156 10.93082031 5 12 C4.34 11.67 3.68 11.34 3 11 C2.34 11.99 1.68 12.98 1 14 C0.67 9.38 0.34 4.76 0 0 Z " fill="#B3B1A8" transform="translate(790,465)"/>
</svg>
