<?xml version="1.0" encoding="UTF-8"?>
<svg version="1.1" xmlns="http://www.w3.org/2000/svg" width="112" height="112">
<path d="M0 0 C1.63970099 0.09457015 3.28359948 0.11108398 4.92602539 0.11108398 C17.25935872 0.11108398 29.59269206 0.11108398 41.92602539 0.11108398 C42.42102539 1.59608398 42.42102539 1.59608398 42.92602539 3.11108398 C43.87864258 3.0762793 44.83125977 3.04147461 45.81274414 3.00561523 C47.06700195 2.97854492 48.32125977 2.95147461 49.61352539 2.92358398 C50.85489258 2.8887793 52.09625977 2.85397461 53.37524414 2.81811523 C57.39497322 3.14977605 58.94797185 3.39359368 61.92602539 6.11108398 C62.68569973 9.45492661 62.55619559 12.76737725 62.49365234 16.18212891 C62.49425502 17.23318219 62.49485769 18.28423548 62.49547863 19.36713886 C62.49174092 22.77581158 62.45364184 26.18312402 62.41430664 29.59155273 C62.40695695 31.69331199 62.40185499 33.79508036 62.39904785 35.89685059 C62.37281337 43.69756778 62.30300738 51.49808918 62.23852539 59.29858398 C62.13540039 76.72670898 62.03227539 94.15483398 61.92602539 112.11108398 C24.96602539 112.11108398 -11.99397461 112.11108398 -50.07397461 112.11108398 C-50.15647461 95.17795898 -50.23897461 78.24483398 -50.32397461 60.79858398 C-50.36039063 55.44857178 -50.39680664 50.09855957 -50.43432617 44.58642578 C-50.45239258 38.06188965 -50.45239258 38.06188965 -50.45574951 35.0091095 C-50.46189872 32.87337413 -50.47598121 30.73765279 -50.49627686 28.602005 C-50.52546051 25.37000337 -50.52960198 22.13885148 -50.52807617 18.90673828 C-50.54246861 17.95259128 -50.55686104 16.99844427 -50.57168961 16.01538372 C-50.53107271 9.60972879 -50.53107271 9.60972879 -48.17108154 7.03523254 C-42.71275156 4.62986746 -37.77188904 4.80877166 -32.13647461 6.48608398 C-29.60758899 7.18911438 -29.60758899 7.18911438 -27.07397461 7.11108398 C-24.79849578 5.70362632 -24.79849578 5.70362632 -22.63647461 3.73608398 C-15.96608196 -1.72636897 -8.15799596 -0.50718064 0 0 Z " fill="#EEEBE1" transform="translate(50.073974609375,-0.11108398437500001)"/>
<path d="M0 0 C-3.3200258 2.71095632 -6.71878023 5.19857706 -10.25 7.625 C-16.36776798 12.04338799 -23.54438506 17.63315517 -26 25 C-24.96875 25.103125 -23.9375 25.20625 -22.875 25.3125 C-14.93867283 26.72055805 -10.6505089 30.64558564 -6 37 C-3.86450796 43.40647613 -4.30634278 49.27850745 -7.1875 55.375 C-10.32283076 61.00976345 -13.8789966 63.9768112 -20 66 C-23.4453125 66.265625 -23.4453125 66.265625 -27.125 66.25 C-28.34445313 66.25515625 -29.56390625 66.2603125 -30.8203125 66.265625 C-34 66 -34 66 -37 64 C-36.61092203 75.49725405 -33.79856304 82.85201672 -27.171875 92.15234375 C-26 94 -26 94 -26 96 C-30.95 96 -35.9 96 -41 96 C-41.09258562 84.70849142 -41.16370685 73.41707279 -41.20724869 62.12526226 C-41.22814419 56.88228152 -41.25649772 51.63956003 -41.30175781 46.39672852 C-41.34514545 41.33928179 -41.36912231 36.28208477 -41.37950897 31.22446632 C-41.38691309 29.29268269 -41.40137124 27.36091309 -41.42292023 25.42923546 C-41.45186026 22.72815544 -41.45595998 20.02811382 -41.45410156 17.3269043 C-41.47567322 16.12281166 -41.47567322 16.12281166 -41.49768066 14.89439392 C-41.45721372 9.47671463 -41.45721372 9.47671463 -39.09710693 7.01594543 C-33.73072517 4.41619672 -28.66091216 4.70870095 -23.0625 6.375 C-19.69485816 7.18949942 -18.5043483 7.27857782 -15.42578125 5.578125 C-13.73543818 4.28383475 -12.06176164 2.96746076 -10.40625 1.62890625 C-6.75119733 -0.84537453 -4.2825809 -0.55514938 0 0 Z " fill="#070706" transform="translate(41,0)"/>
<path d="M0 0 C3.97549881 3.00371021 6.35120666 6.31395576 8 11 C8.52951928 15.9252547 8.64988308 20.35819011 6.8125 25 C4.64365978 27.393203 2.97860036 28.71378621 0 30 C-2.31 30 -4.62 30 -7 30 C-7.495 22.575 -7.495 22.575 -8 15 C-8.33 15.33 -8.66 15.66 -9 16 C-9 21.94 -9 27.88 -9 34 C-28.14 34 -47.28 34 -67 34 C-67 28.72 -67 23.44 -67 18 C-64.48503906 17.93941406 -61.97007813 17.87882812 -59.37890625 17.81640625 C-56.95301158 17.75466297 -54.52716574 17.69125622 -52.10131836 17.62768555 C-50.41060701 17.58427561 -48.71985009 17.54260511 -47.02905273 17.50268555 C-44.60386394 17.44512906 -42.17890585 17.38139351 -39.75390625 17.31640625 C-38.99348526 17.29969376 -38.23306427 17.28298126 -37.44960022 17.26576233 C-33.92917969 17.47908732 -33.92917969 17.47908732 -31 16 C-29.329375 15.87625 -29.329375 15.87625 -27.625 15.75 C-26.42875 15.5025 -25.2325 15.255 -24 15 C-22.9590446 13.35860132 -21.96405923 11.68771075 -21 10 C-18.87890625 7.83203125 -18.87890625 7.83203125 -16.5625 5.8125 C-15.80066406 5.13832031 -15.03882813 4.46414062 -14.25390625 3.76953125 C-9.80763375 0.27878351 -5.69546044 -1.10051726 0 0 Z " fill="#FAFAFA" transform="translate(67,78)"/>
<path d="M0 0 C5.56158789 3.84577886 9.09591923 8.07555616 10.5703125 14.77734375 C10.98896188 17.77191816 11.31589971 20.76456076 11.5703125 23.77734375 C12.36695313 22.9575 13.16359375 22.13765625 13.984375 21.29296875 C15.05441345 20.20415769 16.12474143 19.11563112 17.1953125 18.02734375 C17.71738281 17.48851563 18.23945312 16.9496875 18.77734375 16.39453125 C22.79409322 12.32819228 26.78122146 8.30029832 32.5703125 7.21484375 C36.91022506 8.02857735 38.55029616 9.54161196 41.5703125 12.77734375 C41.9453125 15.58984375 41.9453125 15.58984375 41.5703125 17.77734375 C42.5603125 17.44734375 43.5503125 17.11734375 44.5703125 16.77734375 C44.5703125 23.37734375 44.5703125 29.97734375 44.5703125 36.77734375 C26.7503125 36.77734375 8.9303125 36.77734375 -9.4296875 36.77734375 C-9.7596875 30.50734375 -10.0896875 24.23734375 -10.4296875 17.77734375 C-9.7696875 17.77734375 -9.1096875 17.77734375 -8.4296875 17.77734375 C-7.42859235 21.08805213 -7.32612616 24.07819144 -7.3671875 27.52734375 C-7.37621094 28.5121875 -7.38523438 29.49703125 -7.39453125 30.51171875 C-7.40613281 31.259375 -7.41773438 32.00703125 -7.4296875 32.77734375 C0.03990267 31.645013 0.03990267 31.645013 5.5703125 26.77734375 C7.81864151 22.28068573 7.29967134 16.02680197 5.78125 11.34375 C4.04261723 7.7271284 2.98999782 6.05713397 -0.4296875 3.77734375 C-6.79328666 2.89960594 -10.14967591 4.23031194 -15.30859375 7.9765625 C-18.44243607 10.63715423 -20.90284986 13.53780832 -23.4296875 16.77734375 C-19.4696875 17.10734375 -15.5096875 17.43734375 -11.4296875 17.77734375 C-11.4296875 18.10734375 -11.4296875 18.43734375 -11.4296875 18.77734375 C-23.44573278 19.46678897 -35.39236265 19.92865091 -47.4296875 19.77734375 C-47.4296875 19.44734375 -47.4296875 19.11734375 -47.4296875 18.77734375 C-43.1396875 18.77734375 -38.8496875 18.77734375 -34.4296875 18.77734375 C-35.0896875 16.79734375 -35.7496875 14.81734375 -36.4296875 12.77734375 C-36.88679273 8.51102825 -36.73141844 6.35845519 -34.7421875 2.52734375 C-26.0948009 -7.75603491 -10.70771557 -6.06770549 0 0 Z " fill="#595959" transform="translate(67.4296875,75.22265625)"/>
<path d="M0 0 C5.55531777 3.3257588 9.3159596 7.76698568 11.2734375 13.9609375 C12.19874886 20.77949401 12.00604051 27.98044717 8.2734375 33.9609375 C4.59205828 37.99292426 0.51264894 40.72637942 -4.93359375 41.296875 C-14.19048737 41.39716637 -18.40024755 40.59897507 -25.4765625 34.6484375 C-30.6205597 28.50421862 -31.40780503 23.0201654 -31.19921875 15.12109375 C-30.45205422 10.12558879 -28.3983396 7.31618209 -24.7265625 3.9609375 C-24.1696875 3.435 -23.6128125 2.9090625 -23.0390625 2.3671875 C-16.56312528 -2.65724655 -7.49578987 -2.85656176 0 0 Z " fill="#080808" transform="translate(93.7265625,29.0390625)"/>
<path d="M0 0 C5.47257772 3.78422927 9.28892966 8.11415297 10.5703125 14.77734375 C10.71278496 18.45109788 10.68798671 22.1032934 10.5703125 25.77734375 C11.2303125 26.10734375 11.8903125 26.43734375 12.5703125 26.77734375 C11.30264173 28.07211437 10.03105026 29.36304714 8.7578125 30.65234375 C8.05011719 31.37164062 7.34242187 32.0909375 6.61328125 32.83203125 C1.39351903 37.80228284 -2.49783174 36.94044624 -9.4296875 36.77734375 C-9.7596875 30.50734375 -10.0896875 24.23734375 -10.4296875 17.77734375 C-9.7696875 17.77734375 -9.1096875 17.77734375 -8.4296875 17.77734375 C-7.42859235 21.08805213 -7.32612616 24.07819144 -7.3671875 27.52734375 C-7.37621094 28.5121875 -7.38523438 29.49703125 -7.39453125 30.51171875 C-7.40613281 31.259375 -7.41773438 32.00703125 -7.4296875 32.77734375 C0.03990267 31.645013 0.03990267 31.645013 5.5703125 26.77734375 C7.81864151 22.28068573 7.29967134 16.02680197 5.78125 11.34375 C4.04261723 7.7271284 2.98999782 6.05713397 -0.4296875 3.77734375 C-6.79328666 2.89960594 -10.14967591 4.23031194 -15.30859375 7.9765625 C-18.44243607 10.63715423 -20.90284986 13.53780832 -23.4296875 16.77734375 C-19.4696875 17.10734375 -15.5096875 17.43734375 -11.4296875 17.77734375 C-11.4296875 18.10734375 -11.4296875 18.43734375 -11.4296875 18.77734375 C-23.44573278 19.46678897 -35.39236265 19.92865091 -47.4296875 19.77734375 C-47.4296875 19.44734375 -47.4296875 19.11734375 -47.4296875 18.77734375 C-43.1396875 18.77734375 -38.8496875 18.77734375 -34.4296875 18.77734375 C-35.0896875 16.79734375 -35.7496875 14.81734375 -36.4296875 12.77734375 C-36.88679273 8.51102825 -36.73141844 6.35845519 -34.7421875 2.52734375 C-26.0948009 -7.75603491 -10.70771557 -6.06770549 0 0 Z " fill="#1B0E0A" transform="translate(67.4296875,75.22265625)"/>
<path d="M0 0 C3.97549881 3.00371021 6.35120666 6.31395576 8 11 C8.52951928 15.9252547 8.64988308 20.35819011 6.8125 25 C4.64365978 27.393203 2.97860036 28.71378621 0 30 C-2.31 30 -4.62 30 -7 30 C-7.33 25.05 -7.66 20.1 -8 15 C-8.99 15.33 -9.98 15.66 -11 16 C-13.232269 15.91382274 -15.46238486 15.76077759 -17.6875 15.5625 C-18.86699219 15.46066406 -20.04648437 15.35882813 -21.26171875 15.25390625 C-22.16535156 15.17011719 -23.06898437 15.08632812 -24 15 C-21.95227235 11.25128452 -19.77797122 8.61587036 -16.5625 5.8125 C-15.80066406 5.13832031 -15.03882813 4.46414062 -14.25390625 3.76953125 C-9.80763375 0.27878351 -5.69546044 -1.10051726 0 0 Z " fill="#FA6B6B" transform="translate(67,78)"/>
<path d="M0 0 C1.32 0 2.64 0 4 0 C4.33 0.99 4.66 1.98 5 3 C5.95261719 2.96519531 6.90523437 2.93039062 7.88671875 2.89453125 C9.14097656 2.86746094 10.39523438 2.84039062 11.6875 2.8125 C13.54955078 2.76029297 13.54955078 2.76029297 15.44921875 2.70703125 C19.44586108 3.03678722 21.02120194 3.32361799 24 6 C24.72022038 9.15553517 24.58032795 12.25887008 24.48828125 15.48046875 C24.48120651 16.40845779 24.47413177 17.33644684 24.46684265 18.29255676 C24.43883943 21.2583558 24.37609033 24.22227108 24.3125 27.1875 C24.28742478 29.19723837 24.26461026 31.20700632 24.24414062 33.21679688 C24.18899327 38.14525776 24.10267997 43.07230946 24 48 C17.213777 41.37788942 12.24218704 33.14639352 11.5 23.5625 C11.5790533 18.89835549 13.37133543 16.53922965 16.4921875 13.21484375 C18 12 18 12 20 12 C19.34 11.01 18.68 10.02 18 9 C9.0356302 7.84403828 0.49793144 9.03190752 -8 12 C-6.625 10 -6.625 10 -5 8 C-4.34 8 -3.68 8 -3 8 C-1.92474806 5.34771188 -0.90543849 2.71631546 0 0 Z " fill="#020202" transform="translate(88,0)"/>
<path d="M0 0 C2.0847728 3.21402473 2.29989814 4.53116335 1.5 8.3125 C-2.21212952 14.12181447 -6.97057999 18.09470122 -13.5 20.3125 C-16.25 20.875 -16.25 20.875 -18.5 20.3125 C-21.80619695 17.45308642 -22.44692613 15.73045669 -23 11.375 C-22.72738295 6.21474873 -20.27161462 2.91802575 -16.5 -0.5 C-11.25427508 -3.61464917 -5.06570942 -3.41935386 0 0 Z " fill="#F8F8F8" transform="translate(89.5,34.6875)"/>
<path d="M0 0 C0.99 0.33 1.98 0.66 3 1 C3.969375 0.938125 4.93875 0.87625 5.9375 0.8125 C9 1 9 1 11.375 3 C11.91125 3.66 12.4475 4.32 13 5 C11.87811159 8.08519311 10.5383537 10.86805649 8.875 13.6875 C6.83580059 16.65569437 6.83580059 16.65569437 7 19 C1.55306686 19.09688221 -3.63904667 19.12862175 -9 18 C-7.5572683 14.63362603 -5.83532593 12.33497429 -3 10 C-1.68 10 -0.36 10 1 10 C-0.65 9.34 -2.3 8.68 -4 8 C-4.41378906 8.88751953 -4.41378906 8.88751953 -4.8359375 9.79296875 C-7.98672217 15.7667719 -13.1769042 20.20989755 -18.265625 24.51953125 C-20.08980537 26.03731592 -20.08980537 26.03731592 -22 28 C-24.125 27.625 -24.125 27.625 -26 27 C-25.278125 26.38511719 -24.55625 25.77023438 -23.8125 25.13671875 C-22.4203125 23.92435547 -22.4203125 23.92435547 -21 22.6875 C-20.071875 21.88699219 -19.14375 21.08648437 -18.1875 20.26171875 C-15.6523927 18.16501729 -15.6523927 18.16501729 -16 15 C-14.13543748 12.88917451 -12.27261151 10.94735155 -10.25 9 C-9.71117188 8.46632813 -9.17234375 7.93265625 -8.6171875 7.3828125 C-2.73967132 1.61997956 -2.73967132 1.61997956 0 0 Z " fill="#413C37" transform="translate(95,84)"/>
<path d="M0 0 C2.0625 1.5625 2.0625 1.5625 3 4 C3.497527 7.90914074 3.50634367 10.13499624 1.5 13.5625 C-6.81568403 21.67029193 -6.81568403 21.67029193 -12.3125 22.5 C-15 22 -15 22 -18 20 C-18.72168584 13.8656704 -17.26127101 9.29043922 -13.78125 4.2265625 C-9.88090986 -0.38884 -5.88139786 -1.32619756 0 0 Z " fill="#F8F8F8" transform="translate(20,30)"/>
<path d="M0 0 C1.06734375 0.0009668 1.06734375 0.0009668 2.15625 0.00195312 C5.56855376 0.0306012 8.73882668 0.12592014 12 1.1875 C12 1.8475 12 2.5075 12 3.1875 C13.32 3.5175 14.64 3.8475 16 4.1875 C15.443125 4.26226562 14.88625 4.33703125 14.3125 4.4140625 C6.14329023 5.82159526 0.9446456 9.53201646 -4.0625 16.0625 C-6.48056393 19.09340657 -6.69150755 19.15267021 -10.875 19.625 C-11.90625 19.480625 -12.9375 19.33625 -14 19.1875 C-16.47025103 15.48212345 -16.70150117 11.49061085 -16 7.1875 C-11.90763103 0.4643224 -7.46046648 -0.12839571 0 0 Z " fill="#6D0101" transform="translate(50,73.8125)"/>
<path d="M0 0 C5.9226451 5.7707824 5.9226451 5.7707824 6.12025452 8.91091919 C6.1169236 10.07674026 6.1169236 10.07674026 6.11352539 11.26611328 C6.11344986 12.14687531 6.11337433 13.02763733 6.11329651 13.93508911 C6.10813522 14.88721283 6.10297394 15.83933655 6.09765625 16.8203125 C6.0962413 17.79410858 6.09482635 18.76790466 6.09336853 19.77120972 C6.08775973 22.88917073 6.07520573 26.0070606 6.0625 29.125 C6.05748613 31.23567605 6.05292303 33.34635322 6.04882812 35.45703125 C6.03778745 40.63804521 6.02104073 45.81901752 6 51 C4.515 51.495 4.515 51.495 3 52 C2.7525 51.071875 2.505 50.14375 2.25 49.1875 C0.40074918 44.47191041 -2.55563478 43.06345528 -7 41 C-5.515 40.505 -5.515 40.505 -4 40 C-2.78369719 37.88515387 -2.78369719 37.88515387 -1.875 35.3125 C-1.54242188 34.46300781 -1.20984375 33.61351562 -0.8671875 32.73828125 C1.00532073 26.82554128 1.155394 21.13958722 1.125 15 C1.12886719 14.21882813 1.13273437 13.43765625 1.13671875 12.6328125 C1.12944141 8.31007169 0.85947175 4.25643155 0 0 Z " fill="#B4B0A4" transform="translate(106,41)"/>
<path d="M0 0 C0 0.66 0 1.32 0 2 C-1.65 2 -3.3 2 -5 2 C-5 1.34 -5 0.68 -5 0 C-8.20802233 -0.11698258 -11.41549025 -0.18750607 -14.625 -0.25 C-15.52863281 -0.28351563 -16.43226562 -0.31703125 -17.36328125 -0.3515625 C-23.25216729 -0.43753164 -26.51512738 0.08117926 -31 4 C-32.57170996 7.14341993 -32.23175783 10.55771451 -32 14 C-31.67 14.99 -31.34 15.98 -31 17 C-24.4 17.33 -17.8 17.66 -11 18 C-11 18.33 -11 18.66 -11 19 C-23.01604528 19.68944522 -34.96267515 20.15130716 -47 20 C-47 19.67 -47 19.34 -47 19 C-42.71 19 -38.42 19 -34 19 C-34.66 17.02 -35.32 15.04 -36 13 C-36.45710523 8.7336845 -36.30173094 6.58111144 -34.3125 2.75 C-25.98239036 -7.15607632 -10.39707412 -6.16122911 0 0 Z " fill="#131211" transform="translate(67,75)"/>
<path d="M0 0 C1.0528418 0.01353516 1.0528418 0.01353516 2.12695312 0.02734375 C3.85561525 0.05086296 5.58410145 0.08673287 7.3125 0.125 C7.9725 1.445 8.6325 2.765 9.3125 4.125 C7.889375 5.053125 7.889375 5.053125 6.4375 6 C2.19673415 9.45062315 1.89702885 13.93478696 1.3125 19.125 C1.04179688 18.5578125 0.77109375 17.990625 0.4921875 17.40625 C-2.40564922 11.80248627 -5.94105104 6.32378177 -10.6875 2.125 C-7.00662647 -0.32891569 -4.24394412 -0.10302759 0 0 Z " fill="#B3AFA3" transform="translate(98.6875,7.875)"/>
<path d="M0 0 C4.61513112 1.31860889 8.09897612 3.21355437 12 6 C11.67 8.31 11.34 10.62 11 13 C5.55306686 13.09688221 0.36095333 13.12862175 -5 12 C-3.5572683 8.63362603 -1.83532593 6.33497429 1 4 C2.32 4 3.64 4 5 4 C2.525 3.01 2.525 3.01 0 2 C0 1.34 0 0.68 0 0 Z " fill="#69471D" transform="translate(91,90)"/>
<path d="M0 0 C7.33333333 0 14.66666667 0 22 0 C18.80695434 1.66891885 15.53796877 2.99209703 12.1875 4.3125 C7.20204611 6.36282131 3.2084375 8.65237926 -1 12 C-1.66 11.67 -2.32 11.34 -3 11 C-2.690625 10.29875 -2.38125 9.5975 -2.0625 8.875 C-0.96697322 5.91063343 -0.43577008 3.12301892 0 0 Z " fill="#0F0F0E" transform="translate(47,0)"/>
<path d="M0 0 C0.33 1.65 0.66 3.3 1 5 C-4.32886161 9.44071801 -7.07911053 10.60709557 -14 10 C-14.33 8.68 -14.66 7.36 -15 6 C-5.57142857 0 -5.57142857 0 0 0 Z " fill="#EDEDED" transform="translate(96,56)"/>
<path d="M0 0 C2.0078125 0.23046875 2.0078125 0.23046875 5.0078125 2.23046875 C4.2578125 6.98046875 4.2578125 6.98046875 2.0078125 9.23046875 C-4.06272692 9.78233597 -4.06272692 9.78233597 -6.9921875 8.04296875 C-7.9921875 6.23046875 -7.9921875 6.23046875 -7.7421875 3.60546875 C-6.35428729 -0.78954858 -4.33589635 0.0879979 0 0 Z " fill="#0B0A0A" transform="translate(45.9921875,53.76953125)"/>
<path d="M0 0 C0.99 0 1.98 0 3 0 C3.33 1.98 3.66 3.96 4 6 C-0.94423897 9.22889075 -3.9163773 10.5964336 -10 10 C-10.66 9.67 -11.32 9.34 -12 9 C-11.8125 7.13671875 -11.8125 7.13671875 -11 5 C-8.75 3.76953125 -8.75 3.76953125 -6 2.8125 C-2.7389803 1.8395483 -2.7389803 1.8395483 0 0 Z " fill="#EFEFEF" transform="translate(23,52)"/>
<path d="M0 0 C2.375 2 2.375 2 4 4 C3.34 5.65 2.68 7.3 2 9 C-1.86790003 9 -3.01319413 8.72629646 -6.25 7 C-6.95640625 6.62875 -7.6628125 6.2575 -8.390625 5.875 C-9.18726562 5.441875 -9.18726562 5.441875 -10 5 C-7.70638175 -0.07872613 -5.55185801 -0.5551858 0 0 Z " fill="#EDACD3" transform="translate(104,85)"/>
<path d="M0 0 C3.9238497 -0.46712496 6.26151432 -0.18467957 9.375 2.1875 C12 5 12 5 12.375 7.8125 C12.25125 8.534375 12.1275 9.25625 12 10 C12.99 9.67 13.98 9.34 15 9 C15 10.32 15 11.64 15 13 C12.8125 14.703125 12.8125 14.703125 10 16.25 C9.071875 16.77078125 8.14375 17.2915625 7.1875 17.828125 C6.465625 18.21484375 5.74375 18.6015625 5 19 C4.67 18.34 4.34 17.68 4 17 C6.97 12.545 6.97 12.545 10 8 C8.42163702 4.31622777 8.42163702 4.31622777 7 3 C4.32941149 2.85884839 1.67567762 2.95752893 -1 3 C-0.67 2.01 -0.34 1.02 0 0 Z " fill="#322C2D" transform="translate(97,83)"/>
<path d="M0 0 C2.4375 0.375 2.4375 0.375 5 1 C5.33 1.66 5.66 2.32 6 3 C5.29875 2.855625 4.5975 2.71125 3.875 2.5625 C-0.72847636 3.26302901 -2.22693093 6.38856121 -5 10 C-0.05 10.33 4.9 10.66 10 11 C10 11.33 10 11.66 10 12 C8.13794922 12.03867188 8.13794922 12.03867188 6.23828125 12.078125 C4.59631972 12.13442082 2.954394 12.19176783 1.3125 12.25 C0.08756836 12.27126953 0.08756836 12.27126953 -1.16210938 12.29296875 C-6.30543229 12.50120045 -9.33412552 13.03767413 -13 17 C-13.33 17.99 -13.66 18.98 -14 20 C-15.32 19.67 -16.64 19.34 -18 19 C-16.77083333 17.77083333 -15.54166667 16.54166667 -14.3125 15.3125 C-13.5803125 14.57902344 -12.848125 13.84554687 -12.09375 13.08984375 C-10.5095519 11.50860125 -8.91373043 9.93899251 -7.3125 8.375 C-4.70457737 5.69659297 -2.35936124 2.8986438 0 0 Z " fill="#553D20" transform="translate(91,92)"/>
<path d="M0 0 C0.66 0 1.32 0 2 0 C3.00109515 3.31070838 3.10356134 6.30084769 3.0625 9.75 C3.05347656 10.73484375 3.04445312 11.7196875 3.03515625 12.734375 C3.02355469 13.48203125 3.01195312 14.2296875 3 15 C6.3 14.67 9.6 14.34 13 14 C13 17 13 17 12 19 C8.37 19 4.74 19 1 19 C0.67 12.73 0.34 6.46 0 0 Z " fill="#332220" transform="translate(57,93)"/>
<path d="M0 0 C1.134375 0.020625 2.26875 0.04125 3.4375 0.0625 C3.01993961 4.93403789 0.94017008 6.81612285 -2.5625 10.0625 C-3.5525 11.5475 -3.5525 11.5475 -4.5625 13.0625 C-5.5525 13.0625 -6.5425 13.0625 -7.5625 13.0625 C-7.08761102 11.08230257 -6.60747141 9.10336365 -6.125 7.125 C-5.85816406 6.02285156 -5.59132813 4.92070312 -5.31640625 3.78515625 C-4.2891289 0.07524788 -4.2891289 0.07524788 0 0 Z " fill="#B5B1A5" transform="translate(84.5625,-0.0625)"/>
<path d="M0 0 C8.32798318 -1.22763099 15.75663213 -0.29236614 23 4 C23 4.66 23 5.32 23 6 C21.35 6 19.7 6 18 6 C18 5.34 18 4.68 18 4 C11.4 3.67 4.8 3.34 -2 3 C-1.34 2.01 -0.68 1.02 0 0 Z " fill="#080404" transform="translate(44,71)"/>
<path d="M0 0 C-3.19776765 6.85876332 -8.56240427 11.68947804 -14.265625 16.51953125 C-16.08980537 18.03731592 -16.08980537 18.03731592 -18 20 C-20.125 19.625 -20.125 19.625 -22 19 C-20.42173185 17.53618641 -18.83717771 16.07914837 -17.25 14.625 C-16.36828125 13.81289062 -15.4865625 13.00078125 -14.578125 12.1640625 C-12.38561437 10.32368237 -10.54535645 9.21535038 -8 8 C-7.29848848 6.6846659 -6.63474075 5.34882408 -6 4 C-2.44444444 0 -2.44444444 0 0 0 Z " fill="#DA8F35" transform="translate(91,92)"/>
<path d="M0 0 C0.7425 0.2475 1.485 0.495 2.25 0.75 C2.25 3.75 2.25 3.75 0.6875 5.9375 C-2.55948625 8.35192567 -4.80115643 8.0537572 -8.75 7.75 C-6.95252408 3.55588951 -4.99386899 -0.45398809 0 0 Z " fill="#F6A13C" transform="translate(94.75,94.25)"/>
<path d="M0 0 C0.99 0.33 1.98 0.66 3 1 C3.33 1.99 3.66 2.98 4 4 C10.6 4.33 17.2 4.66 24 5 C24 5.33 24 5.66 24 6 C11.98395472 6.68944522 0.03732485 7.15130716 -12 7 C-12 6.67 -12 6.34 -12 6 C-7.71 6 -3.42 6 1 6 C0.67 4.02 0.34 2.04 0 0 Z " fill="#0F0807" transform="translate(32,88)"/>
<path d="M0 0 C1.67542976 0.28604898 3.34385343 0.61781233 5 1 C5 2.98 5 4.96 5 7 C2.625 7.625 2.625 7.625 0 8 C-0.66 7.34 -1.32 6.68 -2 6 C-1.44444444 1.44444444 -1.44444444 1.44444444 0 0 Z " fill="#EDEDED" transform="translate(28,40)"/>
<path d="M0 0 C7 9.33333333 7 9.33333333 7 12 C4.69 12 2.38 12 0 12 C0 8.04 0 4.08 0 0 Z " fill="#5B5B5B" transform="translate(0,83)"/>
<path d="M0 0 C3.69230769 0.69230769 3.69230769 0.69230769 5 2 C5.04063832 3.66617115 5.042721 5.33388095 5 7 C2.625 7.625 2.625 7.625 0 8 C-0.66 7.34 -1.32 6.68 -2 6 C-1.44444444 1.44444444 -1.44444444 1.44444444 0 0 Z " fill="#DCDCDC" transform="translate(97,44)"/>
<path d="M0 0 C0.33 1.32 0.66 2.64 1 4 C-3.95 6.97 -3.95 6.97 -9 10 C-9.33 9.34 -9.66 8.68 -10 8 C-7.4537541 3.80618322 -4.23328404 2.23645194 0 0 Z " fill="#0D0A06" transform="translate(111,92)"/>
<path d="M0 0 C0.66 0 1.32 0 2 0 C3.34423339 1.65788785 4.67618483 3.32576317 6 5 C8.12603185 6.76323505 8.12603185 6.76323505 10 8 C6.13209997 8 4.98680587 7.72629646 1.75 6 C1.04359375 5.62875 0.3371875 5.2575 -0.390625 4.875 C-1.18726562 4.441875 -1.18726562 4.441875 -2 4 C-1.34 2.68 -0.68 1.36 0 0 Z " fill="#CBB5AD" transform="translate(96,86)"/>
<path d="M0 0 C0.99 0.33 1.98 0.66 3 1 C-2.0940919 7.70459519 -2.0940919 7.70459519 -5.875 8.9375 C-6.57625 8.958125 -7.2775 8.97875 -8 9 C-7.04270084 7.87411986 -6.08412105 6.7493285 -5.125 5.625 C-4.59132813 4.99851562 -4.05765625 4.37203125 -3.5078125 3.7265625 C-2.38567993 2.44163349 -1.20628025 1.20628025 0 0 Z " fill="#443522" transform="translate(86,92)"/>
<path d="M0 0 C0 0.99 0 1.98 0 3 C-1.65002828 4.35386936 -3.3174387 5.68678142 -5 7 C-5.33 7.99 -5.66 8.98 -6 10 C-7.32 9.67 -8.64 9.34 -10 9 C-8.71142987 7.68445979 -7.41904109 6.37265903 -6.125 5.0625 C-5.04605469 3.96615234 -5.04605469 3.96615234 -3.9453125 2.84765625 C-2 1 -2 1 0 0 Z " fill="#261A0B" transform="translate(83,102)"/>
<path d="M0 0 C0.66 0.33 1.32 0.66 2 1 C1.67 3.31 1.34 5.62 1 8 C0.01 8 -0.98 8 -2 8 C-2 5.69 -2 3.38 -2 1 C-1.34 0.67 -0.68 0.34 0 0 Z " fill="#271D1B" transform="translate(33,80)"/>
<path d="M0 0 C1.94268841 2.91403262 3.46395304 5.85808576 5 9 C4.01 9.33 3.02 9.66 2 10 C-1.07692308 5.69230769 -1.07692308 5.69230769 -0.6875 2.1875 C-0.460625 1.465625 -0.23375 0.74375 0 0 Z " fill="#DEDDD8" transform="translate(101,31)"/>
<path d="M0 0 C4.61513112 1.31860889 8.09897612 3.21355437 12 6 C11.01 6.33 10.02 6.66 9 7 C6.96166576 5.7260411 4.96147874 4.38938077 3 3 C2.01 2.67 1.02 2.34 0 2 C0 1.34 0 0.68 0 0 Z " fill="#B8B2A7" transform="translate(91,90)"/>
<path d="M0 0 C1.125 1.75 1.125 1.75 2 4 C0.99659644 7.01021068 -0.67503273 8.88639339 -3 11 C-3.66 10.67 -4.32 10.34 -5 10 C-4.54625 9.649375 -4.0925 9.29875 -3.625 8.9375 C-1.35338666 6.22903794 -0.83201146 3.39204672 0 0 Z " fill="#DCDAD3" transform="translate(104,55)"/>
<path d="M0 0 C5.57142857 5.14285714 5.57142857 5.14285714 6 9 C3.5625 7.875 3.5625 7.875 1 6 C0.1875 2.8125 0.1875 2.8125 0 0 Z " fill="#C0BCAF" transform="translate(106,41)"/>
<path d="M0 0 C2.97 1.98 5.94 3.96 9 6 C8.34 6.66 7.68 7.32 7 8 C5.53515625 6.76302083 4.0703125 5.52604167 2.60546875 4.2890625 C1.1344954 3.10798901 -0.43037794 2.04641471 -2 1 C-1.34 0.67 -0.68 0.34 0 0 Z " fill="#DAD9D4" transform="translate(24,25)"/>
</svg>
