<svg xmlns="http://www.w3.org/2000/svg" width="24" height="24" viewBox="0 0 24 24">
	<g fill="none">
		<path fill="transparent" d="M19.174 4.826H3.87A1.913 1.913 0 1 1 3.87 1h15.304z" />
		<path fill="#66e1ff" d="M20.13 5.783v16.26a.957.957 0 0 1-.956.957H3.87a1.913 1.913 0 0 1-1.913-1.913V2.913A1.913 1.913 0 0 0 3.87 4.826h15.304a.957.957 0 0 1 .957.957" />
		<path fill="#c2f3ff" d="M5.225 21.087V4.827h-1.36a1.913 1.913 0 0 1-1.912-1.914v18.174A1.913 1.913 0 0 0 3.866 23h3.272a1.913 1.913 0 0 1-1.913-1.913" />
		<path stroke="#191919" stroke-linecap="round" stroke-linejoin="round" d="M12.081 23H3.873a1.913 1.913 0 0 1-1.913-1.913V2.913" stroke-width="1" />
		<path stroke="#191919" stroke-linecap="round" stroke-linejoin="round" d="M20.134 1H3.874a1.913 1.913 0 1 0 0 3.826h15.304a.957.957 0 0 1 .956.957v6.242M3.874 2.913h15.304" stroke-width="1" />
		<path fill="transparent" stroke="#191919" stroke-linecap="round" stroke-linejoin="round" d="M15.858 21.143a4.332 4.332 0 1 0 0-8.664a4.332 4.332 0 0 0 0 8.664" stroke-width="1" />
		<path stroke="#191919" stroke-linecap="round" stroke-linejoin="round" d="m22.047 23l-3.105-3.106" stroke-width="1" />
		<path fill="#e3e3e3" d="M15.858 21.143a4.332 4.332 0 1 0 0-8.664a4.332 4.332 0 0 0 0 8.664" />
		<path fill="transparent" d="M15.858 12.478a4.331 4.331 0 0 0-3.05 7.407l6.122-6.121a4.32 4.32 0 0 0-3.072-1.286" />
		<path stroke="#191919" stroke-linecap="round" stroke-linejoin="round" d="M15.858 21.143a4.332 4.332 0 1 0 0-8.664a4.332 4.332 0 0 0 0 8.664M22.047 23l-3.105-3.108" stroke-width="1" />
	</g>
</svg>