<?xml version="1.0" encoding="UTF-8"?>
<svg version="1.1" xmlns="http://www.w3.org/2000/svg" width="1006" height="626">
<path d="M0 0 C15.49224041 14.52397538 26.06556592 35.03623421 26.86328125 56.48046875 C27.3120784 79.63960381 22.40676152 99.12490972 7.625 117.4609375 C6.33698533 118.79779903 5.04540437 120.13123525 3.75 121.4609375 C-0.25520575 125.83351111 -0.29437218 129.65573436 -0.375 135.4609375 C-4.995 135.4609375 -9.615 135.4609375 -14.375 135.4609375 C-13.075625 137.0490625 -11.77625 138.6371875 -10.4375 140.2734375 C-9.61378906 141.28535156 -8.79007813 142.29726562 -7.94140625 143.33984375 C-6.34854162 145.28907809 -4.7335281 147.20548352 -3.08984375 149.11328125 C13.79987946 168.92221588 23.60686049 193.15377563 21.625 219.4609375 C18.10054472 250.27149817 1.10611334 274.22960454 -20.375 295.4609375 C-18.94261062 301.19049502 -16.02878632 304.9724867 -12.375 309.4609375 C-11.89417969 310.08871094 -11.41335937 310.71648437 -10.91796875 311.36328125 C0.43383709 325.41652949 18.09998732 335.7613358 33.625 344.4609375 C31.94165567 339.22152826 28.74681057 335.04687808 25.625 330.5859375 C24.45288766 328.88427804 23.28101562 327.18245304 22.109375 325.48046875 C19.9504252 322.36046494 17.77273713 319.25514071 15.578125 316.16015625 C14.67678237 314.8647927 13.77572295 313.56923202 12.875 312.2734375 C12.45734375 311.69932129 12.0396875 311.12520508 11.609375 310.53369141 C8.54586161 306.08719837 7.85780827 302.73972963 7.625 297.4609375 C8.80525604 293.29532794 9.81173998 291.12620447 13.17138672 288.37792969 C17.38046529 286.04160246 21.10916458 285.28968254 25.8203125 284.5390625 C26.69017792 284.38934998 27.56004333 284.23963745 28.45626831 284.08538818 C31.21876079 283.61375598 33.98416628 283.16251202 36.75 282.7109375 C38.61609798 282.39317286 40.48198635 282.07417468 42.34765625 281.75390625 C44.13002233 281.45202471 45.91256891 281.15120656 47.6953125 280.8515625 C48.5307962 280.71099426 49.36627991 280.57042603 50.2270813 280.42559814 C51.0082431 280.29836365 51.78940491 280.17112915 52.59423828 280.04003906 C53.27785431 279.92774963 53.96147034 279.81546021 54.665802 279.69976807 C56.625 279.4609375 56.625 279.4609375 60.625 279.4609375 C63.67207868 270.9291172 63.82977358 266.71290796 60.00390625 258.625 C59.62515854 257.78681732 59.24641083 256.94863464 58.85618591 256.08505249 C57.64771788 253.4118204 56.42010668 250.74811751 55.1875 248.0859375 C53.56737599 244.58568136 51.96746076 241.07717712 50.37890625 237.5625 C50.00391495 236.76953522 49.62892365 235.97657043 49.24256897 235.15957642 C46.66107133 229.44300042 45.47820171 224.48541596 47.25390625 218.25390625 C47.56199219 217.72410156 47.87007812 217.19429687 48.1875 216.6484375 C48.47753906 216.10574219 48.76757812 215.56304687 49.06640625 215.00390625 C52.42585526 211.67813593 56.57798818 210.53952501 61.15087891 210.19628906 C62.37210449 210.2475293 63.59333008 210.29876953 64.8515625 210.3515625 C65.52109955 210.37563171 66.1906366 210.39970093 66.88046265 210.42449951 C69.00457075 210.50481761 71.12689566 210.60771421 73.25 210.7109375 C74.64968415 210.76575711 76.04942482 210.81915274 77.44921875 210.87109375 C85.85647716 211.20044265 94.24112987 211.7497976 102.625 212.4609375 C102.91955078 211.83590332 103.21410156 211.21086914 103.51757812 210.56689453 C104.625 208.4609375 104.625 208.4609375 106.34375 206.765625 C108.44041863 202.99417839 107.07879223 199.6407291 106.125 195.5859375 C105.93647461 194.71549805 105.74794922 193.84505859 105.55371094 192.94824219 C104.4996642 188.13047735 103.36162233 183.3323132 102.234375 178.53125 C102.00814453 177.55913574 101.78191406 176.58702148 101.54882812 175.58544922 C101.10972947 173.71227981 100.66097381 171.84133977 100.20117188 169.97314453 C98.66306258 163.50127243 97.45837221 157.55250113 99.875 151.1484375 C101.68870144 148.36311029 102.68136939 146.9725316 105.625 145.4609375 C112.19125826 144.12792407 116.96334013 144.95026061 123.34765625 146.76171875 C125.20344177 147.24932086 127.05957265 147.73561015 128.91601562 148.22070312 C131.81259158 148.99402612 134.70489964 149.77830624 137.59204102 150.58618164 C140.39882967 151.36482685 143.21460354 152.09727801 146.03515625 152.82421875 C146.89262955 153.07706131 147.75010284 153.32990387 148.63356018 153.59040833 C152.04045773 154.44321212 154.45073716 154.93634528 157.76345825 153.59516907 C160.72180839 151.5072219 162.33896149 149.71533237 163.15382385 146.14183044 C163.29197905 143.33893203 163.17791485 140.63939164 162.984375 137.83984375 C162.92555145 136.31265968 162.92555145 136.31265968 162.86553955 134.75462341 C162.73588429 131.50834489 162.5584799 128.2670828 162.375 125.0234375 C162.21263675 121.78364033 162.06081172 118.54408056 161.92730713 115.30296326 C161.84227701 113.28978478 161.73972309 111.27724682 161.61712646 109.26600647 C161.34622714 103.44170278 161.80565636 99.60343059 164.625 94.4609375 C166.68605044 92.28241786 168.80081559 91.40133787 171.625 90.4609375 C180.1556484 90.48658073 186.62532637 93.97409789 194.125 97.7734375 C196.46820068 98.93730451 198.81193986 100.10008808 201.15625 101.26171875 C202.26186279 101.81150391 203.36747559 102.36128906 204.5065918 102.92773438 C211.59442579 106.89193785 211.59442579 106.89193785 219.3125 108.3359375 C220.4571875 107.9028125 220.4571875 107.9028125 221.625 107.4609375 C222.718125 107.1103125 223.81125 106.7596875 224.9375 106.3984375 C225.824375 106.0890625 226.71125 105.7796875 227.625 105.4609375 C227.68433716 104.58852417 227.68433716 104.58852417 227.74487305 103.69848633 C228.41027411 95.25496818 229.67947881 86.93308144 231.04418945 78.57983398 C231.30767286 76.95101258 231.56444881 75.32109278 231.81469727 73.69018555 C232.18107702 71.3026307 232.56681119 68.91891672 232.95703125 66.53515625 C233.06449173 65.81317551 233.17195221 65.09119476 233.28266907 64.34733582 C234.10021463 59.54569 235.6264944 56.28594265 238.625 52.4609375 C241.82599728 50.3435463 245.05109587 49.6640474 248.9140625 49.7890625 C255.31703606 51.37596661 260.53111965 56.45505949 265.625 60.4609375 C268.38006728 62.59321376 271.14053751 64.71816503 273.90527344 66.83789062 C275.78225592 68.27993896 277.65287526 69.73031266 279.51660156 71.18945312 C280.37995117 71.85783203 281.24330078 72.52621094 282.1328125 73.21484375 C282.90254395 73.81627197 283.67227539 74.4177002 284.46533203 75.03735352 C287.83945428 77.26146688 290.71970225 77.78297934 294.6875 77.1484375 C296.74305244 76.60619511 296.74305244 76.60619511 298.625 75.4609375 C299.56735438 73.62483685 299.56735438 73.62483685 300.03125 71.33984375 C301.79669607 64.70202818 304.04893029 58.26421228 306.33129883 51.79150391 C307.06513445 49.70344142 307.78739858 47.61158444 308.50976562 45.51953125 C308.98366594 44.1716255 309.45825148 42.82396042 309.93359375 41.4765625 C310.35439209 40.27290039 310.77519043 39.06923828 311.20874023 37.82910156 C313.51491162 32.3445402 315.98532669 27.82173098 321.625 25.4609375 C326.31914698 24.85243696 329.69960284 25.38142629 333.7421875 27.9375 C337.8714942 31.27864028 341.20054289 35.42387626 344.625 39.4609375 C345.76856769 40.77541201 346.91423493 42.08806442 348.0625 43.3984375 C348.61035156 44.02878906 349.15820312 44.65914063 349.72265625 45.30859375 C352.95678977 48.96774687 356.27570377 52.5503715 359.5859375 56.140625 C361.625 58.4609375 361.625 58.4609375 362.625 60.4609375 C365.21105332 60.929264 365.21105332 60.929264 368.1875 61.0859375 C369.19941406 61.16070312 370.21132813 61.23546875 371.25390625 61.3125 C372.42759766 61.38597656 372.42759766 61.38597656 373.625 61.4609375 C373.88313477 60.76129883 374.14126953 60.06166016 374.40722656 59.34082031 C375.74559248 56.17575128 377.3557685 53.33821672 379.109375 50.3828125 C379.44745178 49.81193909 379.78552856 49.24106567 380.1338501 48.65289307 C380.84826187 47.4484041 381.56442095 46.24494998 382.28222656 45.04248047 C383.36195893 43.23279499 384.43531098 41.41944671 385.5078125 39.60546875 C396.769899 20.61462713 396.769899 20.61462713 401.625 17.4609375 C404.02734375 17.0625 404.02734375 17.0625 406.5625 17.0859375 C407.39652344 17.07820313 408.23054687 17.07046875 409.08984375 17.0625 C412.3041434 17.56767498 414.03778611 18.47782347 416.625 20.4609375 C418.5546875 23.15625 418.5546875 23.15625 420.5 26.5859375 C420.86875244 27.21250244 421.23750488 27.83906738 421.61743164 28.48461914 C423.58209793 31.83047682 425.48508516 35.20392911 427.34033203 38.61181641 C429.21695301 42.05864097 431.13875087 45.47773928 433.0625 48.8984375 C433.65853027 50.03104004 434.25456055 51.16364258 434.86865234 52.33056641 C437.91982194 57.98476702 437.91982194 57.98476702 443.07202148 61.42236328 C446.84555441 61.71343272 449.44728079 61.24152051 452.62036133 59.13842773 C454.53116046 57.35530932 456.16357286 55.48801733 457.8125 53.4609375 C458.41344482 52.7697583 459.01438965 52.0785791 459.63354492 51.36645508 C461.32196885 49.41732031 462.97487946 47.44247421 464.625 45.4609375 C465.89192133 44.01998852 467.16167811 42.58151186 468.4375 41.1484375 C469.50107324 39.92019937 470.5635008 38.69096856 471.625 37.4609375 C473.18002181 35.66277654 474.74291663 33.87140207 476.3125 32.0859375 C477.03824219 31.25320312 477.76398437 30.42046875 478.51171875 29.5625 C481.62305992 26.4684121 483.63770342 25.55235385 488 25.1484375 C492.20772951 25.5111728 494.21405768 25.93980622 497.625 28.4609375 C501.40857032 34.17341811 503.48401922 40.74856438 505.60546875 47.20703125 C505.99653809 48.38141754 505.99653809 48.38141754 506.39550781 49.57952881 C507.48243507 52.84767483 508.56867699 56.11405988 509.59106445 59.40307617 C512.25983878 68.81321811 512.25983878 68.81321811 517.91943359 76.47583008 C520.82460783 77.67953244 522.51379888 77.92580967 525.625 77.4609375 C529.57545189 75.65817149 532.61069095 73.10702004 535.875 70.2734375 C537.70831991 68.77703269 539.54295929 67.28224299 541.37890625 65.7890625 C542.71139404 64.68014648 542.71139404 64.68014648 544.07080078 63.54882812 C547.54182739 60.71149113 551.14293746 58.09576743 554.8125 55.5234375 C555.38194336 55.11778564 555.95138672 54.71213379 556.53808594 54.29418945 C561.3624445 50.87580829 564.66248167 49.84055987 570.625 50.4609375 C575.04849831 52.27055045 577.54685443 55.23306125 579.625 59.4609375 C580.55723801 62.80125834 581.05581042 66.17187552 581.546875 69.6015625 C581.69658752 70.56495544 581.84630005 71.52834839 582.00054932 72.52093506 C582.47272034 75.58231889 582.92393345 78.64638078 583.375 81.7109375 C583.69267349 83.78666338 584.01166998 85.86218725 584.33203125 87.9375 C584.91121765 91.72052962 585.48667305 95.50400262 586.04589844 99.29003906 C586.15818787 100.04915588 586.27047729 100.80827271 586.38616943 101.59039307 C586.625 103.4609375 586.625 103.4609375 586.625 105.4609375 C592.85777306 108.27514706 592.85777306 108.27514706 599.48812866 107.89312744 C601.6251353 106.96287897 603.69011395 105.94301547 605.76171875 104.875 C606.52297562 104.49862396 607.28423248 104.12224792 608.06855774 103.73446655 C610.49089936 102.53304627 612.90165913 101.31024715 615.3125 100.0859375 C617.73627232 98.87369084 620.16219471 97.66584385 622.58857727 96.45883179 C624.09533565 95.70724837 625.60012728 94.95170619 627.10270691 94.19180298 C632.57729268 91.43089477 636.43052695 89.93598216 642.625 90.4609375 C646.54181949 92.56999415 649.28534785 94.68138077 651.625 98.4609375 C651.93865967 100.79977417 651.93865967 100.79977417 651.85449219 103.40966797 C651.83167175 104.39103729 651.80885132 105.37240662 651.78533936 106.3835144 C651.74789612 107.4377359 651.71045288 108.4919574 651.671875 109.578125 C651.62906421 111.81638466 651.58743417 114.05466716 651.546875 116.29296875 C651.46628272 119.81789803 651.37481572 123.34167951 651.26171875 126.86572266 C651.15883413 130.26996516 651.09995818 133.67279173 651.046875 137.078125 C651.00133484 138.12829803 650.95579468 139.17847107 650.90887451 140.26046753 C650.8577078 145.20925737 650.99413294 148.61692723 654.55957031 152.2746582 C657.58075443 154.38102308 659.54134194 154.75086876 663.1640625 154.20825195 C664.86883701 153.78320254 666.56428178 153.31947344 668.25 152.82421875 C669.15572754 152.59139694 670.06145508 152.35857513 670.99462891 152.11869812 C673.88167018 151.37089635 676.7525018 150.57512651 679.625 149.7734375 C682.49889744 148.99786105 685.37500329 148.23292714 688.25537109 147.48173523 C690.04382531 147.01255832 691.82836015 146.528093 693.60791016 146.02619934 C699.14672496 144.53846141 704.21267817 143.66133572 709.55078125 146.4765625 C712.68553922 149.2669386 714.79680936 151.31998429 715.625 155.4609375 C715.51723055 164.88449892 712.74052108 174.1679826 710.5625 183.2734375 C709.99494438 185.65051382 709.42940643 188.02796746 708.8707428 190.40715027 C708.5254515 191.87756345 708.1751614 193.34681479 707.81907654 194.81465149 C706.54908212 200.2208988 705.75523735 203.75362563 708.3125 208.7734375 C710.28745679 210.93548823 711.29172918 211.42432667 714.23413086 211.74755859 C715.25901611 211.72258301 716.28390137 211.69760742 717.33984375 211.671875 C719.07826538 211.63622437 719.07826538 211.63622437 720.85180664 211.59985352 C728.09120104 211.33332389 735.33239545 211.05245396 742.56640625 210.66186523 C756.82320291 209.90607917 756.82320291 209.90607917 762.625 213.4609375 C765.94774214 216.52135789 767.49592092 219.5034797 767.8515625 224.06542969 C767.10743383 231.93330742 762.4940879 239.85766817 759.15234375 246.9765625 C758.25853753 248.90547086 757.36598375 250.83495357 756.47387695 252.76464844 C755.86062459 254.07427819 755.23669599 255.3789559 754.6027832 256.67871094 C753.67098151 258.59820809 752.78389543 260.53357374 751.90234375 262.4765625 C751.36859131 263.60352539 750.83483887 264.73048828 750.28491211 265.89160156 C749.47716318 270.26055803 750.04561169 272.63435527 752.05259705 276.54891968 C755.04256952 280.18468025 758.92574026 280.34588046 763.39453125 280.87890625 C764.34889572 281.02951004 765.30326019 281.18011383 766.2865448 281.33528137 C769.33251029 281.81166784 772.38255101 282.23390094 775.4375 282.6484375 C778.48021577 283.07939043 781.51959673 283.52233375 784.55632019 283.99372864 C786.44254464 284.28483673 788.33261295 284.55235634 790.22602844 284.7922821 C796.38009015 285.71924044 800.58655482 287.58703216 804.625 292.4609375 C806.31173804 297.52115162 806.79911955 301.99177579 804.44921875 306.93359375 C802.60393028 309.85346548 800.63804455 312.65382001 798.625 315.4609375 C797.74426699 316.7374302 796.86683689 318.01620616 795.9921875 319.296875 C795.53328125 319.96783203 795.074375 320.63878906 794.6015625 321.33007812 C794.13492188 322.01263672 793.66828125 322.69519531 793.1875 323.3984375 C790.53595462 327.27687197 787.88070913 331.14071466 785.0703125 334.90625 C784.32523438 335.93492187 783.58015625 336.96359375 782.8125 338.0234375 C782.14605469 338.91160156 781.47960937 339.79976563 780.79296875 340.71484375 C779.33174796 343.51632653 779.33174796 343.51632653 780.0546875 347.015625 C781.96118658 351.19854089 783.7304489 352.52388491 787.5625 355.0234375 C788.84000938 355.88193454 790.11596875 356.7427412 791.390625 357.60546875 C792.07576172 358.06260254 792.76089844 358.51973633 793.46679688 358.99072266 C797.32843279 361.62135292 801.06244459 364.42468678 804.8125 367.2109375 C806.44116369 368.41439083 808.07007268 369.61751226 809.69921875 370.8203125 C810.51438965 371.42294922 811.32956055 372.02558594 812.16943359 372.64648438 C815.36532173 375.00797181 818.56438231 377.36513492 821.76391602 379.72167969 C823.33377431 380.87809273 824.90327509 382.03499126 826.47241211 383.19238281 C830.57438021 386.21752583 834.68157074 389.23520599 838.796875 392.2421875 C839.64701172 392.86480469 840.49714844 393.48742187 841.37304688 394.12890625 C842.98725171 395.3108923 844.60302494 396.49074083 846.22070312 397.66796875 C858.74741551 406.8520326 858.74741551 406.8520326 861.125 411.2109375 C862.3117344 418.92471109 860.8445087 424.66764746 857.3359375 431.62109375 C856.98768921 432.3125499 856.63944092 433.00400604 856.28063965 433.71641541 C851.59180576 442.75825822 845.83907119 451.10932649 840.125 459.5234375 C838.96016445 461.25300711 837.7959449 462.98299173 836.63232422 464.71337891 C828.09442979 477.38718627 819.44307432 489.98028867 810.625 502.4609375 C809.5544816 503.98162591 808.48416332 505.50245521 807.4140625 507.0234375 C804.96682932 510.49846979 802.51253068 513.96844046 800.05615234 517.43701172 C798.5927723 519.50651369 797.13370312 521.57899355 795.67578125 523.65234375 C791.09600517 530.16167016 786.49698096 536.65378589 781.81762695 543.09204102 C771.81348271 556.86290962 762.15620157 570.76127549 753.38647461 585.35498047 C746.70965629 596.38818983 746.70965629 596.38818983 742.625 600.4609375 C741.965 600.4609375 741.305 600.4609375 740.625 600.4609375 C739.07344496 576.7997232 750.26116718 552.78587114 760.48510742 532.14697266 C786.83952085 482.3394391 786.83952085 482.3394391 794.625 429.4609375 C792.39884986 427.34044751 790.36822542 425.83255021 787.625 424.4609375 C787.52695068 425.1732251 787.42890137 425.8855127 787.32788086 426.61938477 C786.51630547 429.90035938 785.21005563 432.08792898 783.37890625 434.92578125 C782.71133301 435.96621582 782.04375977 437.00665039 781.35595703 438.07861328 C780.2825708 439.72192627 780.2825708 439.72192627 779.1875 441.3984375 C778.45138349 442.53611661 777.71554487 443.67397557 776.97998047 444.81201172 C772.45931159 451.77975136 767.78972198 458.61097833 762.890625 465.31640625 C760.50668754 468.62514704 758.24286048 471.99356343 756 475.3984375 C751.7462033 481.84449014 747.35838534 488.19098922 742.9375 494.5234375 C727.28201535 516.7016278 727.28201535 516.7016278 712.76806641 539.62866211 C710.75881865 542.96318705 708.95673566 545.3927043 705.625 547.4609375 C706.16381577 540.36167564 707.71906306 534.13062037 710 527.3984375 C710.34796631 526.36348145 710.69593262 525.32852539 711.05444336 524.26220703 C715.90762822 510.26161932 722.31930411 496.96346793 729.0234375 483.76953125 C732.90523242 476.03026543 736.33072248 468.12690018 739.6875 460.1484375 C739.99181946 459.42880829 740.29613892 458.70917908 740.60968018 457.96774292 C748.69579021 441.68451933 748.69579021 441.68451933 752.625 424.4609375 C751.655625 425.15058594 750.68625 425.84023438 749.6875 426.55078125 C742.54957492 431.57426437 735.36180675 436.36767072 727.75 440.6484375 C727.06679688 441.03443115 726.38359375 441.4204248 725.6796875 441.81811523 C720.89158695 444.4609375 720.89158695 444.4609375 718.625 444.4609375 C718.25181641 445.52828125 718.25181641 445.52828125 717.87109375 446.6171875 C709.82602433 464.97709515 689.9107964 482.49541655 674.625 494.4609375 C673.64015625 495.25113281 672.6553125 496.04132812 671.640625 496.85546875 C655.81745475 509.43375513 638.26803863 520.3684246 619.77099609 528.54418945 C611.87036118 532.04733412 606.21647043 535.67645937 600.625 542.4609375 C576.41618886 571.20890072 540.5902137 597.28303563 502.625 602.4609375 C475.67702955 604.37711662 451.55340058 599.81538516 430.09375 582.60546875 C422.90923501 576.36448975 422.90923501 576.36448975 420.625 573.4609375 C420.625 572.8009375 420.625 572.1409375 420.625 571.4609375 C422.44257812 571.42226562 422.44257812 571.42226562 424.296875 571.3828125 C454.92194714 570.45992432 484.46918213 561.89227364 508.625 542.4609375 C509.54539062 541.74164062 510.46578125 541.02234375 511.4140625 540.28125 C520.2595667 533.23896153 528.15698901 525.76980038 534.625 516.4609375 C505.94326355 500.4681519 456.63044472 501.94803242 425.9375 510.1484375 C424.49665382 510.57478804 423.05741663 511.00707066 421.625 511.4609375 C423.46064197 506.3728231 426.33467888 502.68113198 429.625 498.4609375 C422.61799106 497.64373702 415.69583013 497.29065861 408.64453125 497.21484375 C406.50984234 497.18350326 404.37515825 497.15183291 402.24047852 497.11987305 C401.131492 497.10451508 400.02250549 497.0891571 398.87991333 497.07333374 C321.59688114 495.95315078 244.5892934 489.05340781 169.53143311 469.94537354 C167.81915036 469.51027227 166.10523039 469.08162614 164.39111328 468.65380859 C139.20305018 462.30127894 110.93136556 452.61447472 89.625 437.4609375 C93.20730941 446.41413827 97.24468039 455.09402255 101.5625 463.7109375 C101.88592377 464.35956757 102.20934753 465.00819763 102.54257202 465.67648315 C107.03025989 474.65501141 111.78970103 483.40133651 116.9375 492.0234375 C139.34294533 529.59434562 139.34294533 529.59434562 138.625 545.4609375 C135.34335749 544.36705666 134.87461864 543.82188578 132.91796875 541.14453125 C132.41330078 540.46197266 131.90863281 539.77941406 131.38867188 539.07617188 C130.6084668 537.99819336 130.6084668 537.99819336 129.8125 536.8984375 C129.30396484 536.20685547 128.79542969 535.51527344 128.27148438 534.80273438 C127.2375687 533.39666147 126.20569104 531.98908787 125.17578125 530.58007812 C121.03596658 524.92302659 116.82794737 519.39609019 112.25 514.0859375 C108.26736192 509.4231064 104.37781177 504.7031184 100.56640625 499.8984375 C98.54445301 497.35980808 96.49527731 494.8456042 94.4375 492.3359375 C88.47620092 485.06356233 82.54101685 477.77020006 76.625 470.4609375 C76.11533691 469.8313916 75.60567383 469.2018457 75.08056641 468.55322266 C52.33144151 440.40775924 52.33144151 440.40775924 44.625 427.4609375 C44.07070312 426.53796875 43.51640625 425.615 42.9453125 424.6640625 C42.50960937 423.93703125 42.07390625 423.21 41.625 422.4609375 C40.67625 423.2240625 39.7275 423.9871875 38.75 424.7734375 C38.21632812 425.20269531 37.68265625 425.63195312 37.1328125 426.07421875 C35.10832335 427.9361194 33.72578645 429.59275949 33.40234375 432.37890625 C35.80346281 466.40452023 68.50535676 506.72585092 88.3125 533.1484375 C101.17622505 550.36520567 120.04497372 577.20233046 119.625 599.4609375 C114.09668625 598.01555776 111.07608961 594.1015981 107.375 590.0234375 C106.71040771 589.30349609 106.04581543 588.58355469 105.36108398 587.84179688 C100.91350281 582.98654332 96.71245881 577.99403204 92.6015625 572.8515625 C89.08427363 568.59745027 85.22850133 564.68417674 81.03004456 561.09893799 C75.59621072 556.45461148 70.53523005 551.49099941 65.50466919 546.41577148 C64.02568091 544.92379507 62.54339498 543.43516197 61.06030273 541.94726562 C57.38052613 538.25425596 53.70627373 534.55576638 50.03186035 530.85742188 C46.91454371 527.72023446 43.79508912 524.58520148 40.67288208 521.45288086 C39.22634931 519.99995842 37.78290833 518.54401469 36.33959961 517.08789062 C31.79111734 512.5226122 27.19304597 508.10239547 22.30056763 503.90719604 C20.2416702 502.13006814 18.29570677 500.26098766 16.37109375 498.33984375 C15.66146484 497.63150391 14.95183594 496.92316406 14.22070312 496.19335938 C13.50849609 495.47728516 12.79628906 494.76121094 12.0625 494.0234375 C11.34642578 493.31123047 10.63035156 492.59902344 9.89257812 491.86523438 C6.5375482 488.50409885 3.27726557 485.11186848 0.18359375 481.5078125 C-3.8757199 476.79771172 -8.3127357 472.49893842 -12.75 468.1484375 C-19.40475716 461.55289883 -25.81901376 455.02814048 -31.375 447.4609375 C-32.26058594 446.26597656 -32.26058594 446.26597656 -33.1640625 445.046875 C-37.68758384 438.63676656 -40.28231622 432.66187385 -39.08984375 424.703125 C-37.70422416 420.35697393 -34.53134822 417.62836063 -31.375 414.4609375 C-30.01564361 412.97003049 -28.65659342 411.47881966 -27.30517578 409.98071289 C-23.31263929 405.56356898 -19.2271219 401.26373007 -14.9765625 397.09375 C-12.62339384 394.69466586 -10.46934067 392.13439254 -8.28515625 389.58203125 C-5.38850695 386.36550656 -2.24533037 383.41041439 0.90234375 380.44140625 C2.95314462 378.52115664 2.95314462 378.52115664 2.625 375.4609375 C0.41542882 373.4927621 0.41542882 373.4927621 -2.5 371.5234375 C-28.2189789 352.91642217 -57.53972305 326.47216767 -65.375 294.4609375 C-65.375 293.4709375 -65.375 292.4809375 -65.375 291.4609375 C-66.17550781 291.10708984 -66.17550781 291.10708984 -66.9921875 290.74609375 C-70.06158863 289.09062986 -72.75406424 287.03093242 -75.5 284.8984375 C-76.07258545 284.45588623 -76.6451709 284.01333496 -77.23510742 283.55737305 C-81.70450683 280.06512962 -85.95229745 276.37494868 -90.12109375 272.52734375 C-92.1213006 270.69353192 -94.16843238 268.95056383 -96.25 267.2109375 C-115.81662427 250.05069242 -133.5840834 225.43166744 -135.578125 198.7421875 C-135.88665269 180.43621098 -129.53327089 164.08621589 -116.84667969 150.86865234 C-113.54221996 147.48343383 -110.18710998 144.15223687 -106.79785156 140.85205078 C-105.31237371 139.39970816 -103.84400366 137.92994116 -102.375 136.4609375 C-106.665 136.1309375 -110.955 135.8009375 -115.375 135.4609375 C-115.354375 133.9965625 -115.33375 132.5321875 -115.3125 131.0234375 C-115.90406355 125.0661426 -118.54159281 122.87237168 -122.83203125 118.984375 C-137.27429299 104.65303693 -143.55994976 82.7736749 -143.75 62.9609375 C-143.52237746 39.23128728 -134.67727791 19.52555215 -118.375 2.4609375 C-117.82328125 1.83445312 -117.2715625 1.20796875 -116.703125 0.5625 C-86.0044435 -33.02368125 -31.90837298 -27.17777118 0 0 Z M-84.375 144.4609375 C-84.57776421 151.1453975 -83.89365194 157.12001829 -82.5 163.6484375 C-82.32597656 164.51146484 -82.15195313 165.37449219 -81.97265625 166.26367188 C-81.03968127 170.77996185 -79.95349751 175.11651416 -78.375 179.4609375 C-78.045 179.4609375 -77.715 179.4609375 -77.375 179.4609375 C-77.375 168.2409375 -77.375 157.0209375 -77.375 145.4609375 C-79.685 145.1309375 -81.995 144.8009375 -84.375 144.4609375 Z M-72.375 147.4609375 C-72.58359945 153.9893278 -72.76205333 160.50582164 -72.86938477 167.03491211 C-72.91418669 169.24722803 -72.97525454 171.45928477 -73.05395508 173.6706543 C-73.58621365 189.02961909 -72.15135946 199.69451338 -63.375 212.4609375 C-62.83190186 213.31937256 -62.28880371 214.17780762 -61.72924805 215.06225586 C-60.52630703 216.92071382 -59.26936823 218.69386109 -57.9375 220.4609375 C-57.51791016 221.04359375 -57.09832031 221.62625 -56.66601562 222.2265625 C-54.45649804 225.32897186 -54.45649804 225.32897186 -51.375 227.4609375 C-51.375 201.0609375 -51.375 174.6609375 -51.375 147.4609375 C-58.305 147.4609375 -65.235 147.4609375 -72.375 147.4609375 Z M626.22265625 474.140625 C625.38915146 474.31345001 624.55564667 474.48627502 623.69688416 474.66433716 C621.93220144 475.03140702 620.16776768 475.39967545 618.40356445 475.76904297 C615.70322139 476.33265615 613.00109625 476.88710747 610.29882812 477.44140625 C608.58581903 477.79891199 606.87292442 478.15696678 605.16015625 478.515625 C603.94598778 478.7626265 603.94598778 478.7626265 602.70729065 479.01461792 C599.16207804 479.76688164 596.67345666 480.42863306 593.625 482.4609375 C593.955 486.0909375 594.285 489.7209375 594.625 493.4609375 C607.30262461 491.54455238 616.44263672 489.33437178 626.6875 481.3984375 C627.96657227 480.44227539 627.96657227 480.44227539 629.27148438 479.46679688 C633.55908477 476.50006505 633.55908477 476.50006505 636.625 472.4609375 C633.10022507 472.4609375 629.6637425 473.42517424 626.22265625 474.140625 Z " fill="#F64B00" transform="translate(144.375,23.5390625)"/>
<path d="M0 0 C15.49224041 14.52397538 26.06556592 35.03623421 26.86328125 56.48046875 C27.3120784 79.63960381 22.40676152 99.12490972 7.625 117.4609375 C6.33698533 118.79779903 5.04540437 120.13123525 3.75 121.4609375 C-0.13951651 125.70721056 -0.45541944 129.85455365 -0.375 135.4609375 C-13.02420227 137.61973469 -13.02420227 137.61973469 -18.140625 135.09765625 C-20.68077109 132.99909185 -23.00927555 130.75398224 -25.375 128.4609375 C-27.60305188 126.65365691 -29.89344559 124.9332519 -32.1875 123.2109375 C-35.95301096 120.33873751 -39.68737569 117.43284914 -43.375 114.4609375 C-43.40005615 115.05519531 -43.4251123 115.64945313 -43.45092773 116.26171875 C-43.56808888 118.99494757 -43.69026273 121.72793117 -43.8125 124.4609375 C-43.85181641 125.39550781 -43.89113281 126.33007812 -43.93164062 127.29296875 C-43.97353516 128.21464844 -44.01542969 129.13632813 -44.05859375 130.0859375 C-44.09525146 130.92382812 -44.13190918 131.76171875 -44.16967773 132.625 C-44.32574172 134.7805758 -44.57608397 136.92956067 -44.8692627 139.07080078 C-45.4366293 143.56249279 -45.5870748 148.01580904 -45.67211914 152.5390625 C-45.70159889 153.84291649 -45.70159889 153.84291649 -45.73167419 155.17311096 C-45.79505931 158.01898334 -45.85265196 160.86494074 -45.91015625 163.7109375 C-45.95320867 165.69491342 -45.99662537 167.67888146 -46.04039001 169.6628418 C-46.15415584 174.86424604 -46.26299569 180.06574196 -46.37078857 185.26727295 C-46.48183114 190.58319449 -46.59756177 195.89901378 -46.71289062 201.21484375 C-46.93816611 211.6301139 -47.15823451 222.045487 -47.375 232.4609375 C-48.365 232.1309375 -49.355 231.8009375 -50.375 231.4609375 C-51.90899561 228.39294629 -51.55447954 225.16691482 -51.58032227 221.79833984 C-51.59022186 221.00800858 -51.60012146 220.21767731 -51.61032104 219.40339661 C-51.64197122 216.7845868 -51.66670733 214.16575884 -51.69140625 211.546875 C-51.71197274 209.73368858 -51.73296913 207.92050698 -51.75437927 206.10733032 C-51.80963142 201.32995508 -51.85902682 196.55253635 -51.90722656 191.77508545 C-51.95741866 186.90210082 -52.01311667 182.02917952 -52.06835938 177.15625 C-52.17597938 167.5911999 -52.27741581 158.02609488 -52.375 148.4609375 C-53.06464844 148.47253906 -53.75429687 148.48414063 -54.46484375 148.49609375 C-55.40457031 148.50511719 -56.34429687 148.51414063 -57.3125 148.5234375 C-58.22902344 148.53503906 -59.14554687 148.54664063 -60.08984375 148.55859375 C-64.1993936 148.43643115 -68.28878101 147.91496183 -72.375 147.4609375 C-72.375 162.9709375 -72.375 178.4809375 -72.375 194.4609375 C-76.37182257 190.46411493 -77.51744989 184.47819129 -77.71557617 178.95092773 C-77.71511096 177.39038162 -77.69875372 175.82977376 -77.66796875 174.26953125 C-77.66372391 173.43881607 -77.65947906 172.60810089 -77.65510559 171.75221252 C-77.63849314 169.13393868 -77.6008763 166.51647335 -77.5625 163.8984375 C-77.54743053 162.10873518 -77.53374612 160.31902063 -77.52148438 158.52929688 C-77.4886472 154.17287196 -77.43698936 149.81704115 -77.375 145.4609375 C-78.509375 145.3165625 -79.64375 145.1721875 -80.8125 145.0234375 C-84.375 144.4609375 -84.375 144.4609375 -85.375 143.4609375 C-85.51615161 140.79034899 -85.41747107 138.13661512 -85.375 135.4609375 C-86.45136719 135.54472656 -87.52773437 135.62851563 -88.63671875 135.71484375 C-97.70053035 136.36560564 -106.32206144 136.48431316 -115.375 135.4609375 C-115.34277344 134.84347656 -115.31054688 134.22601563 -115.27734375 133.58984375 C-115.33329606 129.50532534 -115.50575491 126.53926604 -118.12890625 123.28515625 C-119.68958022 121.84390776 -121.25787016 120.41088028 -122.83203125 118.984375 C-137.27429299 104.65303693 -143.55994976 82.7736749 -143.75 62.9609375 C-143.52237746 39.23128728 -134.67727791 19.52555215 -118.375 2.4609375 C-117.82328125 1.83445312 -117.2715625 1.20796875 -116.703125 0.5625 C-86.0044435 -33.02368125 -31.90837298 -27.17777118 0 0 Z " fill="#20C840" transform="translate(144.375,23.5390625)"/>
<path d="M0 0 C1.27513695 0.51755251 2.5505413 1.03444657 3.82617188 1.55078125 C4.50156006 1.82535156 5.17694824 2.09992188 5.87280273 2.3828125 C19.84631217 8.04394986 33.96242942 13.19395916 48.234375 18.05078125 C49.08439087 18.34133392 49.93440674 18.6318866 50.81018066 18.9312439 C62.0390284 22.76126058 73.32103868 26.31228048 84.734375 29.55078125 C85.94174316 29.89415527 87.14911133 30.2375293 88.39306641 30.59130859 C100.94446391 34.12866382 113.5232443 37.56477833 126.171875 40.73828125 C127.01951416 40.95154053 127.86715332 41.1647998 128.74047852 41.38452148 C146.62804127 45.80839916 164.61263971 49.65810551 182.734375 52.98828125 C183.77210052 53.17987823 184.80982605 53.37147522 185.8789978 53.56887817 C201.71497417 56.47421836 217.57803907 58.93798989 233.546875 60.98828125 C234.94184204 61.16748611 234.94184204 61.16748611 236.36499023 61.35031128 C248.41728531 62.88259864 260.48682383 64.19807731 272.58157349 65.34634399 C274.46414634 65.52511943 276.34625169 65.70880396 278.22827148 65.89331055 C287.05141197 66.72268157 295.88234971 67.1833851 304.734375 67.55078125 C305.77364136 67.59581787 306.81290771 67.64085449 307.88366699 67.68725586 C315.15017323 67.9921005 322.41374436 68.20747267 329.68539429 68.3427124 C332.16090598 68.39774759 334.63604993 68.47354014 337.11026001 68.57086182 C351.11944777 69.75148868 351.11944777 69.75148868 363.70239258 64.94262695 C366.54722559 62.13049442 368.644406 58.9580075 370.734375 55.55078125 C387.88223415 35.94528621 414.27866075 21.0719748 440.3671875 19.3046875 C468.03534311 18.78780987 491.08782694 31.88656059 510.734375 50.55078125 C520.6127318 60.07190188 520.6127318 60.07190188 523.734375 64.55078125 C523.734375 65.21078125 523.734375 65.87078125 523.734375 66.55078125 C524.724375 66.88078125 525.714375 67.21078125 526.734375 67.55078125 C526.734375 71.51078125 526.734375 75.47078125 526.734375 79.55078125 C526.074375 79.55078125 525.414375 79.55078125 524.734375 79.55078125 C523.52351868 77.86650742 522.39279751 76.12450391 521.296875 74.36328125 C516.66338537 67.23613174 511.37823694 60.89585028 505.734375 54.55078125 C504.86039063 53.54917969 504.86039063 53.54917969 503.96875 52.52734375 C490.75186859 38.30918345 471.38112243 28.90401346 452.12109375 27.23828125 C428.7382068 26.46127981 407.3775379 38.56781327 390.546875 53.98828125 C388.59186111 55.82528177 386.66306128 57.68576549 384.734375 59.55078125 C383.86941406 60.36417969 383.00445313 61.17757812 382.11328125 62.015625 C381.28699219 62.81097656 380.46070313 63.60632813 379.609375 64.42578125 C378.82320801 65.18101074 378.03704102 65.93624023 377.22705078 66.71435547 C374.59926311 69.44410281 374.59926311 69.44410281 373.1496582 72.87963867 C370.92617519 77.1539918 369.01037497 80.18487624 364.734375 82.55078125 C355.51416752 84.6389371 345.62999757 83.61190347 336.24848938 83.10027695 C332.54654945 82.91195998 328.84228453 82.79776072 325.13769531 82.67504883 C318.5971368 82.44766044 312.06144082 82.1576615 305.52509117 81.83209705 C299.80327477 81.54836791 294.08060692 81.33132611 288.35546875 81.12890625 C225.49822954 78.74819825 162.61442424 70.55772143 101.64080811 55.03521729 C99.92852536 54.60011602 98.21460539 54.17146989 96.50048828 53.74365234 C71.31242518 47.39112269 43.04074056 37.70431847 21.734375 22.55078125 C25.31668441 31.50398202 29.35405539 40.1838663 33.671875 48.80078125 C34.15701065 49.77372635 34.15701065 49.77372635 34.65194702 50.7663269 C39.13963489 59.74485516 43.89907603 68.49118026 49.046875 77.11328125 C71.45232033 114.68418937 71.45232033 114.68418937 70.734375 130.55078125 C67.45273249 129.45690041 66.98399364 128.91172953 65.02734375 126.234375 C64.2703418 125.21053711 64.2703418 125.21053711 63.49804688 124.16601562 C62.97791016 123.44736328 62.45777344 122.72871094 61.921875 121.98828125 C61.41333984 121.29669922 60.90480469 120.60511719 60.38085938 119.89257812 C59.3469437 118.48650522 58.31506604 117.07893162 57.28515625 115.66992188 C53.14534158 110.01287034 48.93732237 104.48593394 44.359375 99.17578125 C40.37673692 94.51295015 36.48718677 89.79296215 32.67578125 84.98828125 C30.65382801 82.44965183 28.60465231 79.93544795 26.546875 77.42578125 C20.58557592 70.15340608 14.65039185 62.86004381 8.734375 55.55078125 C8.22471191 54.92123535 7.71504883 54.29168945 7.18994141 53.64306641 C-16.37338005 24.4902702 -16.37338005 24.4902702 -23.265625 12.55078125 C-23.87857422 11.53951172 -23.87857422 11.53951172 -24.50390625 10.5078125 C-25.265625 8.55078125 -25.265625 8.55078125 -25.16015625 6.49609375 C-23.94187173 3.84672391 -22.41030177 2.96201943 -19.953125 1.42578125 C-19.17324219 0.92820312 -18.39335937 0.430625 -17.58984375 -0.08203125 C-16.82285156 -0.53320312 -16.05585938 -0.984375 -15.265625 -1.44921875 C-14.61207031 -1.85914063 -13.95851562 -2.2690625 -13.28515625 -2.69140625 C-8.83270422 -4.36215227 -4.15287582 -1.70715085 0 0 Z " fill="#A52B00" transform="translate(212.265625,438.44921875)"/>
<path d="M0 0 C11.44432534 8.85951863 18.57244887 21.63076327 21.12109375 35.87109375 C22.46043082 47.64066638 23.03542394 60.61527444 18.5625 71.75 C18.24925781 72.55566406 17.93601562 73.36132812 17.61328125 74.19140625 C12.07331101 87.4829554 3.45330731 95.66377693 -9.8125 101.125 C-20.74574887 105.33009572 -32.87554195 105.57241781 -43.625 100.875 C-56.46783594 94.84567593 -68.15269912 85.97338456 -73.7734375 72.5625 C-80.48983352 53.12782216 -76.37359108 36.08776385 -68.4375 17.75 C-68.1075 17.75 -67.7775 17.75 -67.4375 17.75 C-67.35113281 18.94496094 -67.26476562 20.13992188 -67.17578125 21.37109375 C-66.30680928 31.76054888 -65.53108676 40.52176535 -57.25 47.75 C-52.30700347 51.26501975 -48.41509936 51.46871429 -42.4375 50.75 C-36.91402232 49.02512451 -33.8590717 45.4988369 -30.9375 40.625 C-26.80752343 31.43466752 -26.59843409 20.57067394 -29.62109375 11.00390625 C-32.48111139 4.93472595 -35.53179698 0.41411512 -41.89453125 -2.296875 C-43.06048828 -2.64492188 -43.06048828 -2.64492188 -44.25 -3 C-45.04019531 -3.24234375 -45.83039063 -3.4846875 -46.64453125 -3.734375 C-47.23621094 -3.90453125 -47.82789063 -4.0746875 -48.4375 -4.25 C-34.83667823 -11.8060121 -12.41788114 -8.13585316 0 0 Z " fill="#020100" transform="translate(518.4375,336.25)"/>
<path d="M0 0 C0.85851562 0.63292969 1.71703125 1.26585937 2.6015625 1.91796875 C3.33632813 2.45808594 4.07109375 2.99820312 4.828125 3.5546875 C15.91366229 13.07797726 20.50770539 32.2230326 21.82470703 46.30371094 C22.65483873 59.36202092 21.39688966 72.06259832 13.40234375 82.93359375 C3.14420457 94.23757358 -14.44089067 100.78899824 -29.3359375 102.1953125 C-39.37399365 102.54385612 -47.75494562 99.43478176 -55.3984375 92.91796875 C-66.96269068 80.93885447 -74.04862525 67.44668905 -73.7734375 50.54296875 C-73.76183594 49.62104736 -73.75023437 48.69912598 -73.73828125 47.74926758 C-73.36229517 32.0504666 -67.58772578 16.83917958 -56.94140625 5.10546875 C-55.3984375 3.91796875 -55.3984375 3.91796875 -52.3984375 3.91796875 C-53.0171875 4.74296875 -53.6359375 5.56796875 -54.2734375 6.41796875 C-59.13171251 13.80874881 -59.53863245 23.13376807 -57.86328125 31.6328125 C-56.11568974 37.98334994 -53.73124227 42.75585701 -48.8359375 47.29296875 C-43.96155062 49.59722436 -39.69984162 49.68548547 -34.3984375 48.91796875 C-28.36295639 46.12376453 -24.75432068 41.22972522 -22.27734375 35.1796875 C-21.27104759 31.44521064 -21.05397161 27.94457187 -21.0859375 24.10546875 C-21.09157715 23.39914307 -21.0972168 22.69281738 -21.10302734 21.96508789 C-21.29178437 13.83078154 -22.93241959 7.49094394 -28.50390625 1.42578125 C-32.02200621 -1.37419109 -36.15305077 -2.73122638 -40.3984375 -4.08203125 C-30.06060447 -14.41986428 -10.05813088 -6.87069504 0 0 Z " fill="#020100" transform="translate(678.3984375,336.08203125)"/>
<path d="M0 0 C0.63180176 0.24443848 1.26360352 0.48887695 1.91455078 0.74072266 C5.67917337 2.30533356 8.26594873 4.04705315 10.9375 7.125 C7.45262766 14.59678538 3.31821035 21.37632611 -1.3125 28.1875 C-2.00923828 29.22189209 -2.70597656 30.25628418 -3.42382812 31.32202148 C-5.63055156 34.59389818 -7.84606381 37.85969717 -10.0625 41.125 C-11.48459048 43.22902104 -12.90646821 45.3331859 -14.328125 47.4375 C-21.21317249 57.61021723 -28.16136055 67.73673162 -35.1875 77.8125 C-50.61536715 99.68419367 -50.61536715 99.68419367 -64.91943359 122.29272461 C-66.92868135 125.62724955 -68.73076434 128.0567668 -72.0625 130.125 C-71.52368423 123.02573814 -69.96843694 116.79468287 -67.6875 110.0625 C-67.16555054 108.51006592 -67.16555054 108.51006592 -66.63305664 106.92626953 C-61.77987178 92.92568182 -55.36819589 79.62753043 -48.6640625 66.43359375 C-44.78226758 58.69432793 -41.35677752 50.79096268 -38 42.8125 C-37.69568054 42.09287079 -37.39136108 41.37324158 -37.07781982 40.63180542 C-28.99170979 24.34858183 -28.99170979 24.34858183 -25.0625 7.125 C-26.031875 7.81464844 -27.00125 8.50429688 -28 9.21484375 C-35.14140475 14.24167406 -42.3429224 19.05506047 -49.9375 23.375 C-50.62070312 23.76937256 -51.30390625 24.16374512 -52.0078125 24.57006836 C-53.65709641 25.48878151 -55.35641881 26.31663236 -57.0625 27.125 C-57.7225 26.795 -58.3825 26.465 -59.0625 26.125 C-58.54300781 25.10921875 -58.02351562 24.0934375 -57.48828125 23.046875 C-53.70559835 15.59591583 -50.10775826 8.17821525 -47.0703125 0.3828125 C-46.0625 -1.875 -46.0625 -1.875 -44.0625 -3.875 C-29.89349871 -7.19025067 -13.38833981 -5.20423478 0 0 Z " fill="#A52B00" transform="translate(922.0625,440.875)"/>
<path d="M0 0 C6.05964725 2.98237672 9.1550582 8.82837606 12.1328125 14.640625 C14.90676878 23.57753391 14.33056208 34.98458232 10.30859375 43.359375 C7.45385837 48.48609617 3.52240272 52.27636681 -2.00390625 54.421875 C-6.8876017 55.11494069 -10.86411824 54.98101629 -15.31640625 52.796875 C-21.72952086 47.12947139 -26.17146778 41.07923514 -27.00390625 32.421875 C-27.55761831 22.29932646 -26.49082527 13.53494265 -20.00390625 5.421875 C-14.09544383 -0.42851899 -8.19275455 -2.3636017 0 0 Z " fill="#FDFCFC" transform="translate(478.00390625,333.578125)"/>
<path d="M0 0 C9.11264136 7.22133844 19.00543074 15.53989112 25.69140625 25.1328125 C25.69140625 25.7928125 25.69140625 26.4528125 25.69140625 27.1328125 C26.68140625 27.4628125 27.67140625 27.7928125 28.69140625 28.1328125 C28.69140625 32.0928125 28.69140625 36.0528125 28.69140625 40.1328125 C28.03140625 40.1328125 27.37140625 40.1328125 26.69140625 40.1328125 C25.48054993 38.44853867 24.34982876 36.70653516 23.25390625 34.9453125 C18.62041662 27.81816299 13.33526819 21.47788153 7.69140625 15.1328125 C7.10875 14.46507812 6.52609375 13.79734375 5.92578125 13.109375 C-7.29110016 -1.1087853 -26.66184632 -10.51395529 -45.921875 -12.1796875 C-69.30476195 -12.95668894 -90.66543085 -0.85015548 -107.49609375 14.5703125 C-109.45110764 16.40731302 -111.37990747 18.26779674 -113.30859375 20.1328125 C-114.60603516 21.35291016 -114.60603516 21.35291016 -115.9296875 22.59765625 C-119.54928289 26.08172857 -122.92826561 29.44297891 -125.6953125 33.6484375 C-131.72789891 42.71864875 -131.72789891 42.71864875 -136.72265625 44.02734375 C-141.72315033 44.08832539 -145.09999564 43.93854457 -149.30859375 41.1328125 C-135.28540898 24.66565476 -135.28540898 24.66565476 -128.30859375 17.1328125 C-127.70144531 16.47152344 -127.09429688 15.81023437 -126.46875 15.12890625 C-91.55407038 -21.40971196 -41.81102361 -31.28392378 0 0 Z " fill="#070200" transform="translate(710.30859375,477.8671875)"/>
<path d="M0 0 C6.05259617 2.91421297 10.29275206 7.69337538 12.8125 13.875 C15.38899386 22.61138721 15.66798959 33.96696607 11.2734375 42.1015625 C8.19721159 46.68759254 5.2877204 50.93884851 0 53 C-5.17832915 53.7533557 -10.34329056 53.95084228 -14.875 51.0625 C-21.07515293 45.81392929 -24.53112004 37.4172381 -25.21875 29.47265625 C-25.56826296 19.08920868 -23.15772206 10.67293084 -16 3 C-11.50882354 -1.10621848 -5.764175 -0.75553987 0 0 Z " fill="#FCFCFC" transform="translate(644,333)"/>
<path d="M0 0 C-20.40259641 20.81515474 -20.40259641 20.81515474 -30 28 C-30.80425415 28.72968994 -30.80425415 28.72968994 -31.62475586 29.47412109 C-34.91060482 31.584981 -38.36184381 32.22918737 -42.1328125 33.0078125 C-43.3206282 33.26424026 -43.3206282 33.26424026 -44.53244019 33.52584839 C-46.20744163 33.88520515 -47.88351465 34.23959836 -49.56054688 34.58935547 C-52.09774499 35.11930717 -54.63095884 35.66569214 -57.1640625 36.21484375 C-61.76524663 37.20243796 -66.37626352 38.12444407 -71 39 C-72.61140869 39.3101001 -72.61140869 39.3101001 -74.25537109 39.62646484 C-76.60505332 39.98525773 -78.63957057 40.25628236 -81 40 C-83.5859375 38.0859375 -83.5859375 38.0859375 -85.375 35.375 C-85.98085938 34.49585938 -86.58671875 33.61671875 -87.2109375 32.7109375 C-87.80132813 31.81632812 -88.39171875 30.92171875 -89 30 C-90.31804989 28.32122067 -91.64713551 26.65085227 -93 25 C-91.94425781 24.76925781 -90.88851562 24.53851563 -89.80078125 24.30078125 C-84.86353841 23.21667916 -79.93135377 22.11054375 -75 21 C-73.70932617 20.71116943 -73.70932617 20.71116943 -72.39257812 20.41650391 C-57.53997925 17.07215461 -43.20812591 12.7849777 -28.79714966 7.90020752 C-25.77188075 6.87555203 -22.74505708 5.85552035 -19.71838379 4.83502197 C-17.45811092 4.0694808 -15.20118852 3.29459986 -12.94433594 2.51904297 C-11.54503577 2.04491113 -10.1456265 1.57110112 -8.74609375 1.09765625 C-8.09489059 0.87091721 -7.44368744 0.64417816 -6.77275085 0.41056824 C-2.22713208 -1.11356604 -2.22713208 -1.11356604 0 0 Z " fill="#A62B00" transform="translate(817,465)"/>
<path d="M0 0 C1.65 0 3.3 0 5 0 C5.15528243 32.3465256 4.7345614 64.66187927 4 97 C3.01 96.67 2.02 96.34 1 96 C-0.68072775 92.6385445 -0.12876829 88.84012532 -0.11352539 85.14404297 C-0.11367142 84.22691528 -0.11381744 83.3097876 -0.1139679 82.36486816 C-0.11326948 79.32395081 -0.1054804 76.2830942 -0.09765625 73.2421875 C-0.09579182 71.13754307 -0.09436803 69.0328982 -0.09336853 66.92825317 C-0.08954535 61.38143725 -0.07971674 55.8346474 -0.06866455 50.2878418 C-0.05844616 44.6307002 -0.05386999 38.97355441 -0.04882812 33.31640625 C-0.03809431 22.21092603 -0.02102026 11.10546518 0 0 Z " fill="#C6C4C0" transform="translate(93,159)"/>
<path d="M0 0 C1.65 0 3.3 0 5 0 C5 19.47 5 38.94 5 59 C0.69785636 54.69785636 -0.16975006 48.46568465 -0.34057617 42.57202148 C-0.3401081 40.58831549 -0.32357371 38.6045637 -0.29296875 36.62109375 C-0.28660149 35.04208031 -0.28660149 35.04208031 -0.28010559 33.4311676 C-0.26343768 30.09967458 -0.2258075 26.76880732 -0.1875 23.4375 C-0.17243781 21.16602442 -0.1587521 18.89453927 -0.14648438 16.62304688 C-0.11357326 11.0818211 -0.06349386 5.54095528 0 0 Z " fill="#C4C7C4" transform="translate(67,159)"/>
<path d="M0 0 C1.98223068 2.58504604 3.62594577 5.04049858 5 8 C4.01 8.495 4.01 8.495 3 9 C2.01 8.01 1.02 7.02 0 6 C0.309375 7.1446875 0.309375 7.1446875 0.625 8.3125 C1 11 1 11 -1 14 C-1 14.66 -1 15.32 -1 16 C-0.34 16.33 0.32 16.66 1 17 C1 17.66 1 18.32 1 19 C-0.65 19.33 -2.3 19.66 -4 20 C-4 20.99 -4 21.98 -4 23 C-3.34 22.67 -2.68 22.34 -2 22 C-2.33 24.64 -2.66 27.28 -3 30 C-3.99 30 -4.98 30 -6 30 C-5.67 36.93 -5.34 43.86 -5 51 C-4.34 51.33 -3.68 51.66 -3 52 C-2.40234375 54.1796875 -2.40234375 54.1796875 -1.9375 56.875 C-1.43729298 59.7108844 -0.91310717 62.26067849 0 65 C-0.33 65.99 -0.66 66.98 -1 68 C-1.81942948 65.48123707 -2.63065069 62.9602933 -3.4375 60.4375 C-3.66759766 59.73302734 -3.89769531 59.02855469 -4.13476562 58.30273438 C-10.21367564 39.18500289 -7.49265974 18.29426058 0 0 Z " fill="#0ACA37" transform="translate(8,51)"/>
<path d="M0 0 C8.89252296 -0.26197285 17.24996282 0.3960652 26 2 C25.34 3.32 24.68 4.64 24 6 C19.38 6 14.76 6 10 6 C10 5.67 10 5.34 10 5 C7.69 4.67 5.38 4.34 3 4 C3 3.34 3 2.68 3 2 C2.01 1.34 1.02 0.68 0 0 Z " fill="#1DC138" transform="translate(80,1)"/>
<path d="M0 0 C1 3 1 3 1 4 C1.99307821 5.33849671 2.99357052 6.67151309 4 8 C4.33 8.66 4.66 9.32 5 10 C6.65 10 8.3 10 10 10 C10 10.66 10 11.32 10 12 C1.96183206 12.61832061 1.96183206 12.61832061 -1.625 10.3125 C-3 8 -3 8 -2.875 5.4375 C-2 3 -2 3 0 0 Z " fill="#1DD63E" transform="translate(12,116)"/>
<path d="M0 0 C1.546875 0.433125 1.546875 0.433125 3.125 0.875 C3.125 1.865 3.125 2.855 3.125 3.875 C1.145 4.205 -0.835 4.535 -2.875 4.875 C-2.875 6.195 -2.875 7.515 -2.875 8.875 C-4.525 8.875 -6.175 8.875 -7.875 8.875 C-7.875 8.215 -7.875 7.555 -7.875 6.875 C-8.535 6.545 -9.195 6.215 -9.875 5.875 C-4.82884615 -0.15576923 -4.82884615 -0.15576923 0 0 Z " fill="#20CF4B" transform="translate(32.875,23.125)"/>
<path d="M0 0 C4.59306496 1.4859916 7.43569245 3.85014682 11 7 C10.34 7.66 9.68 8.32 9 9 C6.25150639 8.78857741 4.50213717 8.35866941 2.25 6.75 C0.68239911 4.55535876 0.35787125 2.64824722 0 0 Z " fill="#17CC39" transform="translate(130,14)"/>
<path d="M0 0 C2.01136276 2.55991624 3.62845496 5.04590299 5 8 C4.01 8.495 4.01 8.495 3 9 C2.01 8.01 1.02 7.02 0 6 C0.309375 7.1446875 0.309375 7.1446875 0.625 8.3125 C1 11 1 11 -1 14 C-1.99 13.67 -2.98 13.34 -4 13 C-3.52140759 11.39566191 -3.04210442 9.79153584 -2.5625 8.1875 C-2.29566406 7.29417969 -2.02882813 6.40085937 -1.75390625 5.48046875 C-1.19612127 3.64526945 -0.60655425 1.81966274 0 0 Z " fill="#14BA33" transform="translate(8,51)"/>
<path d="M0 0 C1.32 0.99 2.64 1.98 4 3 C4.66 2.67 5.32 2.34 6 2 C5.34 4.97 4.68 7.94 4 11 C0.07699505 8.64619703 -0.83857315 6.35535069 -2 2 C-1.34 2 -0.68 2 0 2 C0 1.34 0 0.68 0 0 Z " fill="#19C438" transform="translate(163,104)"/>
<path d="M0 0 C0.66 0 1.32 0 2 0 C2 0.99 2 1.98 2 3 C4.475 3.99 4.475 3.99 7 5 C6.34 6.32 5.68 7.64 5 9 C4.67 8.34 4.34 7.68 4 7 C2.02111039 6.27306096 0.02045442 5.60183749 -2 5 C-2 2 -2 2 0 0 Z " fill="#1BB33B" transform="translate(141,139)"/>
<path d="M0 0 C4.62 0 9.24 0 14 0 C13.67 0.99 13.34 1.98 13 3 C9.37 3 5.74 3 2 3 C2 2.34 2 1.68 2 1 C1.34 0.67 0.68 0.34 0 0 Z " fill="#11C732" transform="translate(79,169)"/>
<path d="M0 0 C-2.33214148 1.20628008 -4.49642139 2.1654738 -7 3 C-5.35 3 -3.7 3 -2 3 C-2.33 3.66 -2.66 4.32 -3 5 C-7.63536273 6.2935896 -10.57890387 5.78949129 -15 4 C-10.34714182 0.89809455 -5.58467324 -0.33846504 0 0 Z " fill="#12D23E" transform="translate(72,3)"/>
<path d="M0 0 C2.08304538 -0.05418326 4.16649768 -0.09287551 6.25 -0.125 C7.99023438 -0.15980469 7.99023438 -0.15980469 9.765625 -0.1953125 C12.82786046 -0.0103949 14.44202751 0.39176977 17 2 C12.126739 3.5912689 8.19209404 4.21192221 3 4 C3 3.34 3 2.68 3 2 C2.01 1.34 1.02 0.68 0 0 Z " fill="#0ED931" transform="translate(80,1)"/>
<path d="M0 0 C4.78419016 0.28142295 8.8520807 2.7870902 13 5 C12.01 5.495 12.01 5.495 11 6 C10.443125 5.690625 9.88625 5.38125 9.3125 5.0625 C6.87515926 3.74776031 6.87515926 3.74776031 3.375 4 C2.26125 4 1.1475 4 0 4 C-0.66 3.34 -1.32 2.68 -2 2 C-1.34 1.34 -0.68 0.68 0 0 Z " fill="#0FD73B" transform="translate(115,7)"/>
<path d="M0 0 C1.65 0 3.3 0 5 0 C5.66 1.98 6.32 3.96 7 6 C4.69 5.67 2.38 5.34 0 5 C0.66 3.68 1.32 2.36 2 1 C1.34 0.67 0.68 0.34 0 0 Z " fill="#1AD03D" transform="translate(60,163)"/>
<path d="M0 0 C1.98 0 3.96 0 6 0 C6 0.66 6 1.32 6 2 C4.02 2.99 4.02 2.99 2 4 C1.67 3.67 1.34 3.34 1 3 C0.01 4.32 -0.98 5.64 -2 7 C-1.125 2.25 -1.125 2.25 0 0 Z " fill="#10E543" transform="translate(11,45)"/>
<path d="M0 0 C0.28875 0.61875 0.5775 1.2375 0.875 1.875 C1.93720042 4.13325765 1.93720042 4.13325765 4 6 C3.67 6.99 3.34 7.98 3 9 C2.67 8.34 2.34 7.68 2 7 C-0.01669827 5.86649466 -0.01669827 5.86649466 -2 5 C-1.34 3.35 -0.68 1.7 0 0 Z " fill="#1AD042" transform="translate(162,108)"/>
<path d="M0 0 C1.65 0 3.3 0 5 0 C5.66 1.32 6.32 2.64 7 4 C4.69 3.67 2.38 3.34 0 3 C0 2.01 0 1.02 0 0 Z " fill="#18D538" transform="translate(154,42)"/>
<path d="M0 0 C2.31 0.33 4.62 0.66 7 1 C3.93882432 3.62386487 3.26826873 4 -1 4 C-0.67 2.68 -0.34 1.36 0 0 Z " fill="#17D43F" transform="translate(14,40)"/>
<path d="M0 0 C0.66 0.33 1.32 0.66 2 1 C0.515 3.475 0.515 3.475 -1 6 C-1.99 5.67 -2.98 5.34 -4 5 C-2.25 1.125 -2.25 1.125 0 0 Z " fill="#1ABB3B" transform="translate(46,11)"/>
</svg>
