<svg viewBox="0 0 22 22" xmlns="http://www.w3.org/2000/svg">
    <path d="m2 3v1 7 1 7h1v-7h8v5 1h9v-1-6h-8v-7h-9v-1zm1 2h8v6h-8zm9 7h7v5h-7z" fill="#232629"/>
    <path d="m7 3c-.9044199 0-1.6369417.6034832-2.2304688 1.3652344-.593527.7617512-1.0839051 1.7305249-1.4882812 2.6914062-.8087522 1.9217628-1.2675781 3.8261714-1.2675781 3.8261714l.9726562.234376s.4474039-1.8455914 1.2167969-3.6738286c.3846965-.9141187.8513471-1.820345 1.3535156-2.4648438.5001406-.6418961.9994888-.9719176 1.4375-.9746094.4208002.013779.7829782.1849883 1.15625.5429688.3758235.3604276.7398764.9081422 1.0761719 1.5878906.6725911 1.3594969 1.2345245 3.2261636 1.7968755 5.1015624.56235 1.875399 1.123821 3.759112 1.859374 5.214844.367777.727866.778279 1.354826 1.28711 1.816406.50725.460146 1.13933.747934 1.83789.730469.876622-.0041 1.542608-.633925 2.03125-1.402344.490232-.770918.856353-1.740786 1.142579-2.703125.572451-1.924677.814453-3.828125.814453-3.828125l-.992188-.128906s-.238349 1.846552-.78125 3.671875c-.27145.912661-.623332 1.817793-1.027344 2.453125-.404011.635332-.806864.939453-1.195312.939453h-.0078-.0059c-.423606.01175-.774786-.139225-1.144503-.474609-.369717-.335385-.731474-.862528-1.066406-1.525391-.669865-1.325726-1.232773-3.176055-1.794922-5.050781-.562149-1.8747265-1.123182-3.773705-1.857422-5.2578128-.3671204-.7420538-.7774654-1.3840406-1.2812501-1.8671874-.5037848-.4831469-1.1264282-.8049361-1.828125-.8242188h-.0058594z" fill="#3daee9"/>
</svg>