<svg id="svg" version="1.1" xmlns="http://www.w3.org/2000/svg" xmlns:xlink="http://www.w3.org/1999/xlink" width="48px" height="48px" viewBox="0, 0, 400, 400">
    <g id="svgg">
        <path id="path0" d="M189.200 18.400 C 189.200 18.635,187.808 18.800,185.824 18.800 C 183.967 18.800,182.336 18.980,182.200 19.200 C 182.064 19.420,180.894 19.600,179.600 19.600 C 178.306 19.600,177.136 19.780,177.000 20.000 C 176.863 20.221,175.063 20.400,172.976 20.400 C 170.725 20.400,169.200 20.562,169.200 20.800 C 169.200 21.020,168.671 21.200,168.024 21.200 C 167.377 21.200,166.736 21.380,166.600 21.600 C 166.464 21.820,165.728 22.000,164.964 22.000 C 164.098 22.000,163.488 22.226,163.345 22.600 C 163.173 23.047,162.461 23.200,160.557 23.200 C 159.119 23.200,158.000 23.375,158.000 23.600 C 158.000 23.820,157.622 24.000,157.160 24.000 C 156.699 24.000,155.754 24.249,155.060 24.553 C 154.367 24.857,152.450 25.496,150.800 25.971 C 149.150 26.447,147.487 27.008,147.105 27.218 C 146.723 27.428,146.138 27.600,145.805 27.600 C 145.472 27.600,145.200 27.780,145.200 28.000 C 145.200 28.220,144.671 28.400,144.024 28.400 C 143.377 28.400,142.736 28.580,142.600 28.800 C 142.464 29.020,142.003 29.200,141.576 29.200 C 141.149 29.200,140.800 29.380,140.800 29.600 C 140.800 29.820,140.528 30.000,140.195 30.000 C 139.862 30.000,139.277 30.169,138.895 30.376 C 138.513 30.583,137.345 31.058,136.300 31.431 C 135.255 31.804,134.400 32.264,134.400 32.454 C 134.400 32.644,134.040 32.800,133.600 32.800 C 133.160 32.800,132.800 32.980,132.800 33.200 C 132.800 33.420,132.535 33.600,132.212 33.600 C 131.889 33.600,130.983 33.960,130.200 34.400 C 129.417 34.840,128.542 35.200,128.255 35.200 C 127.969 35.200,127.494 35.650,127.200 36.200 C 126.805 36.938,126.338 37.200,125.421 37.200 C 124.635 37.200,123.964 37.495,123.600 38.000 C 123.283 38.440,122.714 38.800,122.335 38.800 C 121.957 38.800,121.536 38.980,121.400 39.200 C 121.264 39.420,120.843 39.600,120.465 39.600 C 120.086 39.600,119.517 39.960,119.200 40.400 C 118.883 40.840,118.436 41.200,118.208 41.200 C 117.979 41.200,117.307 41.650,116.713 42.200 C 116.120 42.750,115.397 43.200,115.106 43.200 C 114.815 43.200,114.317 43.560,114.000 44.000 C 113.683 44.440,113.103 44.800,112.712 44.800 C 112.320 44.800,112.000 44.941,112.000 45.114 C 112.000 45.286,111.415 45.770,110.700 46.189 C 109.985 46.608,108.923 47.456,108.340 48.075 C 107.756 48.694,107.121 49.200,106.928 49.200 C 106.735 49.200,106.317 49.560,106.000 50.000 C 105.683 50.440,105.187 50.800,104.899 50.800 C 104.611 50.800,104.272 51.069,104.146 51.398 C 104.019 51.726,103.755 51.896,103.558 51.774 C 103.361 51.652,103.200 51.756,103.200 52.005 C 103.200 52.662,102.159 53.600,101.429 53.600 C 101.083 53.600,100.800 53.780,100.800 54.000 C 100.800 54.220,100.631 54.400,100.425 54.400 C 99.931 54.400,87.600 66.726,87.600 67.220 C 87.600 67.429,87.402 67.600,87.160 67.600 C 86.752 67.600,85.579 68.739,83.900 70.764 C 83.515 71.229,83.200 71.877,83.200 72.205 C 83.200 72.532,83.038 72.800,82.840 72.800 C 82.303 72.800,79.600 75.605,79.600 76.162 C 79.600 76.427,79.015 77.300,78.300 78.103 C 76.077 80.599,75.211 81.780,75.205 82.324 C 75.202 82.612,75.020 82.736,74.800 82.600 C 74.580 82.464,74.400 82.684,74.400 83.088 C 74.400 83.493,74.040 84.083,73.600 84.400 C 73.160 84.717,72.800 85.278,72.800 85.646 C 72.800 86.013,72.519 86.422,72.175 86.554 C 71.831 86.686,71.662 86.977,71.800 87.200 C 71.938 87.423,71.769 87.714,71.425 87.846 C 71.081 87.978,70.800 88.336,70.800 88.643 C 70.800 88.949,70.620 89.200,70.400 89.200 C 70.180 89.200,70.000 89.560,70.000 90.000 C 70.000 90.440,69.820 90.800,69.600 90.800 C 69.380 90.800,69.200 91.126,69.200 91.525 C 69.200 91.923,68.840 92.636,68.400 93.108 C 67.960 93.580,67.600 94.225,67.600 94.540 C 67.600 94.856,67.319 95.222,66.975 95.354 C 66.631 95.486,66.452 95.761,66.578 95.965 C 66.704 96.169,66.536 96.607,66.204 96.939 C 65.872 97.271,65.600 97.700,65.600 97.892 C 65.600 98.494,64.614 100.394,64.300 100.397 C 64.135 100.399,64.000 100.850,64.000 101.400 C 64.000 101.950,63.820 102.400,63.600 102.400 C 63.380 102.400,63.200 102.760,63.200 103.200 C 63.200 103.640,63.061 104.000,62.891 104.000 C 62.721 104.000,62.251 104.675,61.847 105.500 C 61.442 106.325,60.951 107.313,60.756 107.695 C 60.560 108.077,60.400 108.752,60.400 109.195 C 60.400 109.638,60.220 110.000,60.000 110.000 C 59.780 110.000,59.600 110.450,59.600 111.000 C 59.600 111.550,59.420 112.000,59.200 112.000 C 58.980 112.000,58.800 112.529,58.800 113.176 C 58.800 113.823,58.620 114.464,58.400 114.600 C 58.180 114.736,58.000 115.182,58.000 115.590 C 58.000 115.999,57.817 116.394,57.593 116.469 C 57.370 116.543,57.110 117.215,57.015 117.960 C 56.921 118.706,56.654 119.506,56.422 119.738 C 56.190 119.970,56.000 120.664,56.000 121.280 C 56.000 121.896,55.820 122.400,55.600 122.400 C 55.380 122.400,55.200 122.929,55.200 123.576 C 55.200 124.223,55.020 124.864,54.800 125.000 C 54.580 125.136,54.400 125.946,54.400 126.800 C 54.400 127.654,54.220 128.464,54.000 128.600 C 53.780 128.736,53.600 129.276,53.600 129.800 C 53.600 130.324,53.420 130.864,53.200 131.000 C 52.980 131.136,52.800 131.831,52.800 132.544 C 52.800 133.257,52.597 134.043,52.348 134.292 C 52.099 134.541,51.821 135.423,51.730 136.253 C 51.638 137.083,51.422 137.951,51.249 138.181 C 51.076 138.412,50.889 139.500,50.834 140.600 C 50.779 141.700,50.569 142.660,50.367 142.733 C 50.165 142.807,50.000 144.032,50.000 145.457 C 50.000 146.882,49.843 147.950,49.651 147.831 C 49.459 147.713,49.269 149.360,49.229 151.493 C 49.189 153.625,48.980 155.583,48.763 155.845 C 48.255 156.457,48.323 185.505,48.834 185.821 C 49.035 185.945,49.200 187.667,49.200 189.647 C 49.200 191.945,49.345 193.158,49.600 193.000 C 49.924 192.800,50.281 197.822,50.047 199.300 C 50.021 199.465,50.180 199.600,50.400 199.600 C 50.620 199.600,50.800 200.027,50.800 200.550 C 50.800 201.072,51.076 202.281,51.413 203.236 C 51.750 204.191,51.922 205.445,51.795 206.023 C 51.644 206.711,51.777 207.249,52.182 207.585 C 52.569 207.907,52.800 208.760,52.800 209.873 C 52.800 210.954,52.956 211.551,53.200 211.400 C 53.442 211.250,53.600 211.804,53.600 212.800 C 53.600 213.796,53.758 214.350,54.000 214.200 C 54.237 214.053,54.400 214.518,54.400 215.343 C 54.400 216.108,54.574 216.793,54.787 216.867 C 55.000 216.940,55.219 217.585,55.272 218.300 C 55.326 219.015,55.512 219.600,55.685 219.600 C 55.858 219.600,56.000 220.014,56.000 220.520 C 56.000 221.026,56.209 221.649,56.464 221.904 C 56.720 222.160,56.982 222.868,57.047 223.479 C 57.112 224.089,57.353 224.651,57.583 224.728 C 57.812 224.804,58.000 225.201,58.000 225.610 C 58.000 226.018,58.180 226.464,58.400 226.600 C 58.620 226.736,58.800 227.287,58.800 227.824 C 58.800 228.361,58.958 228.800,59.151 228.800 C 59.345 228.800,59.718 229.385,59.981 230.100 C 60.847 232.459,62.595 235.987,62.900 235.993 C 63.065 235.997,63.200 236.370,63.200 236.822 C 63.200 237.678,65.427 242.206,66.304 243.132 C 66.581 243.425,66.705 243.830,66.580 244.032 C 66.455 244.235,66.535 244.400,66.758 244.400 C 66.980 244.400,67.471 245.075,67.847 245.900 C 68.224 246.725,68.872 247.782,69.287 248.248 C 69.702 248.715,70.071 249.480,70.106 249.948 C 70.141 250.417,70.366 250.800,70.605 250.800 C 70.844 250.800,71.272 251.443,71.556 252.230 C 71.841 253.016,72.172 253.561,72.293 253.441 C 72.500 253.233,73.441 254.715,74.362 256.700 C 74.592 257.195,74.965 257.600,75.190 257.600 C 75.416 257.600,75.600 257.842,75.600 258.138 C 75.600 258.434,75.960 259.002,76.400 259.400 C 76.840 259.798,77.200 260.396,77.200 260.729 C 77.200 261.061,77.305 261.228,77.433 261.100 C 77.800 260.733,79.082 262.143,78.888 262.700 C 78.793 262.975,78.870 263.200,79.060 263.200 C 79.249 263.200,79.644 263.741,79.937 264.402 C 80.230 265.064,80.634 265.503,80.835 265.379 C 81.036 265.254,81.200 265.421,81.200 265.749 C 81.200 266.078,81.567 266.463,82.016 266.605 C 82.465 266.748,83.112 267.563,83.454 268.419 C 83.797 269.275,84.284 269.935,84.538 269.887 C 84.792 269.839,84.955 270.025,84.900 270.300 C 84.845 270.575,84.988 270.800,85.218 270.800 C 85.761 270.800,87.600 272.639,87.600 273.182 C 87.600 273.412,87.761 273.555,87.958 273.500 C 88.155 273.445,88.983 274.267,89.798 275.327 C 90.612 276.387,91.380 277.153,91.504 277.030 C 91.628 276.906,92.148 277.420,92.660 278.174 C 93.171 278.927,93.923 279.649,94.331 279.778 C 94.738 279.907,95.311 280.460,95.604 281.007 C 95.896 281.553,96.285 282.022,96.468 282.050 C 96.650 282.078,97.008 282.123,97.262 282.150 C 97.516 282.178,97.769 282.506,97.824 282.880 C 97.941 283.678,99.765 285.600,100.405 285.600 C 100.648 285.600,100.746 285.764,100.621 285.965 C 100.497 286.166,100.936 286.570,101.598 286.863 C 102.259 287.156,102.800 287.531,102.800 287.698 C 102.800 287.864,103.081 288.000,103.424 288.000 C 103.798 288.000,103.932 288.187,103.758 288.468 C 103.564 288.783,103.687 288.852,104.134 288.681 C 104.745 288.446,104.996 288.820,104.837 289.730 C 104.806 289.911,104.966 289.945,105.193 289.804 C 105.420 289.664,105.713 289.830,105.845 290.172 C 105.976 290.515,106.230 290.705,106.410 290.594 C 106.589 290.483,107.007 290.664,107.339 290.996 C 107.671 291.328,108.166 291.600,108.438 291.600 C 108.710 291.600,108.828 291.705,108.700 291.834 C 108.305 292.228,109.683 293.543,110.259 293.322 C 110.556 293.208,110.800 293.339,110.800 293.613 C 110.800 294.235,111.995 295.170,112.812 295.187 C 113.148 295.194,113.683 295.560,114.000 296.000 C 114.317 296.440,114.817 296.800,115.112 296.800 C 115.406 296.800,115.536 296.980,115.400 297.200 C 115.264 297.420,115.529 297.600,115.989 297.600 C 116.449 297.600,116.928 297.869,117.054 298.198 C 117.181 298.526,117.445 298.696,117.642 298.574 C 117.839 298.452,118.000 298.644,118.000 299.000 C 118.000 299.360,118.191 299.529,118.431 299.381 C 118.667 299.235,119.218 299.498,119.654 299.966 C 120.091 300.435,120.617 300.713,120.824 300.585 C 121.031 300.457,121.200 300.543,121.200 300.776 C 121.200 301.009,121.526 301.200,121.925 301.200 C 122.323 301.200,123.047 301.571,123.534 302.024 C 124.021 302.478,125.045 303.110,125.809 303.430 C 126.574 303.749,127.201 304.143,127.203 304.305 C 127.209 304.845,129.381 305.658,129.540 305.180 C 129.620 304.940,129.948 305.120,130.270 305.579 C 130.592 306.038,131.002 306.322,131.182 306.211 C 131.362 306.100,131.732 306.277,132.004 306.604 C 132.276 306.932,132.724 307.200,133.000 307.200 C 133.276 307.200,133.724 307.468,133.996 307.796 C 134.268 308.123,134.636 308.302,134.813 308.192 C 134.990 308.082,135.399 308.256,135.720 308.577 C 136.042 308.899,136.415 309.052,136.550 308.917 C 136.685 308.782,137.132 308.976,137.543 309.348 C 138.303 310.036,139.177 310.333,141.497 310.688 C 142.210 310.797,142.706 311.028,142.599 311.201 C 142.391 311.539,143.300 312.026,144.600 312.272 C 145.040 312.355,145.460 312.599,145.534 312.814 C 145.608 313.029,145.833 313.103,146.034 312.979 C 146.235 312.855,146.400 312.914,146.400 313.112 C 146.400 313.310,146.940 313.439,147.600 313.400 C 148.449 313.350,148.809 313.515,148.832 313.964 C 148.849 314.314,148.947 314.395,149.050 314.144 C 149.181 313.826,149.685 313.905,150.716 314.407 C 151.530 314.803,152.331 315.042,152.498 314.940 C 152.664 314.837,152.800 315.033,152.800 315.376 C 152.800 315.824,153.201 316.000,154.224 316.000 C 155.071 316.000,155.547 316.162,155.400 316.400 C 155.264 316.620,155.444 316.800,155.800 316.800 C 156.156 316.800,156.336 316.620,156.200 316.400 C 156.064 316.180,156.143 316.000,156.376 316.000 C 156.609 316.000,156.800 316.191,156.800 316.425 C 156.800 316.659,157.115 316.818,157.500 316.779 C 158.752 316.652,159.252 316.792,159.000 317.200 C 158.864 317.420,159.108 317.600,159.543 317.600 C 159.978 317.600,160.416 317.375,160.517 317.100 C 160.659 316.713,160.824 316.726,161.250 317.159 C 161.717 317.633,161.715 317.669,161.238 317.397 C 160.850 317.175,160.770 317.227,160.979 317.565 C 161.145 317.834,161.518 317.964,161.807 317.853 C 162.097 317.741,162.424 317.886,162.535 318.174 C 162.645 318.462,163.187 318.647,163.740 318.587 C 164.373 318.517,164.836 318.717,164.993 319.127 C 165.209 319.690,165.294 319.698,165.622 319.189 C 165.859 318.819,166.112 318.749,166.300 319.000 C 166.702 319.536,167.728 319.731,167.406 319.210 C 167.267 318.984,167.343 318.800,167.576 318.800 C 167.809 318.800,168.000 318.959,168.000 319.153 C 168.000 319.539,169.294 320.019,170.669 320.144 C 171.147 320.188,171.452 320.083,171.346 319.912 C 171.240 319.740,171.343 319.600,171.576 319.600 C 171.809 319.600,172.000 319.770,172.000 319.978 C 172.000 320.186,172.705 320.317,173.568 320.268 C 174.430 320.220,175.061 320.301,174.970 320.449 C 174.767 320.777,176.032 321.301,176.324 321.009 C 176.439 320.894,176.293 320.800,176.000 320.800 C 175.707 320.800,175.582 320.684,175.724 320.543 C 175.865 320.402,176.210 320.476,176.490 320.708 C 176.771 320.941,177.990 321.175,179.200 321.229 C 180.410 321.284,181.613 321.492,181.874 321.692 C 182.167 321.916,182.685 321.876,183.223 321.588 C 183.715 321.324,183.987 321.297,183.846 321.526 C 183.489 322.102,195.915 322.168,196.608 321.594 C 196.969 321.294,197.208 321.290,197.388 321.581 C 197.531 321.811,198.132 321.979,198.724 321.953 L 199.800 321.905 198.600 321.600 C 197.697 321.370,198.118 321.283,200.300 321.247 C 201.998 321.220,203.200 321.366,203.200 321.600 C 203.200 321.820,203.391 322.000,203.624 322.000 C 203.857 322.000,203.912 321.775,203.747 321.500 C 203.523 321.127,203.610 321.132,204.089 321.521 C 204.939 322.210,216.918 322.138,216.532 321.447 C 216.395 321.201,216.525 321.225,216.821 321.500 C 217.465 322.097,218.800 322.165,218.800 321.600 C 218.800 321.380,218.935 321.221,219.100 321.247 C 220.234 321.426,221.610 321.139,221.382 320.770 C 221.233 320.530,221.473 320.564,221.926 320.846 C 222.589 321.261,222.863 321.248,223.444 320.776 C 223.981 320.340,224.074 320.331,223.829 320.738 C 223.595 321.128,223.712 321.232,224.253 321.115 C 224.664 321.025,224.961 320.757,224.914 320.517 C 224.861 320.252,225.367 320.132,226.209 320.211 C 226.969 320.281,227.693 320.173,227.819 319.969 C 227.944 319.766,228.227 319.600,228.447 319.600 C 228.667 319.600,228.760 319.741,228.653 319.914 C 228.546 320.087,228.792 320.229,229.200 320.229 C 229.608 320.229,229.854 320.087,229.747 319.914 C 229.640 319.741,230.013 319.578,230.576 319.550 C 232.814 319.441,233.144 319.389,233.430 319.103 C 233.593 318.940,233.947 318.990,234.216 319.214 C 234.564 319.502,234.778 319.435,234.950 318.985 C 235.085 318.635,235.384 318.466,235.615 318.609 C 235.846 318.752,236.297 318.651,236.618 318.385 C 237.074 318.006,237.200 318.009,237.200 318.400 C 237.200 318.783,237.347 318.776,237.840 318.367 C 238.193 318.074,238.774 317.792,239.133 317.739 C 239.492 317.687,239.849 317.454,239.926 317.222 C 240.003 316.990,240.556 316.800,241.153 316.800 C 241.751 316.800,242.456 316.584,242.720 316.320 C 243.048 315.992,243.200 315.980,243.200 316.283 C 243.200 316.528,243.556 316.632,244.000 316.516 C 244.440 316.401,244.800 316.164,244.800 315.989 C 244.800 315.814,245.115 315.719,245.500 315.779 C 245.885 315.838,246.298 315.737,246.417 315.553 C 246.537 315.370,246.987 315.154,247.417 315.072 C 249.077 314.759,250.400 314.302,250.400 314.042 C 250.400 313.893,250.715 313.748,251.100 313.719 C 252.588 313.607,253.396 313.274,253.290 312.817 C 253.230 312.555,253.350 312.446,253.558 312.574 C 253.766 312.702,254.236 312.507,254.604 312.139 C 255.047 311.696,255.363 311.616,255.539 311.901 C 255.724 312.201,256.015 312.179,256.496 311.826 C 256.877 311.548,257.061 311.194,256.906 311.039 C 256.751 310.884,256.916 310.870,257.272 311.006 C 257.628 311.143,258.040 311.059,258.187 310.821 C 258.335 310.582,258.610 310.483,258.800 310.600 C 258.990 310.717,259.258 310.630,259.396 310.407 C 259.534 310.183,260.187 310.000,260.847 310.000 C 261.507 310.000,261.958 309.856,261.849 309.680 C 261.741 309.504,262.000 309.143,262.426 308.877 C 263.037 308.495,263.203 308.499,263.213 308.897 C 263.220 309.195,263.454 309.099,263.786 308.660 C 264.094 308.253,264.518 308.026,264.728 308.156 C 264.938 308.285,265.332 308.123,265.604 307.796 C 265.876 307.468,266.346 307.200,266.649 307.200 C 266.952 307.200,267.200 307.020,267.200 306.800 C 267.200 306.580,267.481 306.400,267.824 306.400 C 268.216 306.400,268.336 306.215,268.147 305.900 C 267.972 305.609,268.161 305.650,268.600 306.000 C 269.039 306.350,269.228 306.391,269.053 306.100 C 268.844 305.752,269.064 305.600,269.776 305.600 C 270.339 305.600,270.800 305.420,270.800 305.200 C 270.800 304.980,271.048 304.800,271.351 304.800 C 271.654 304.800,272.133 304.522,272.415 304.182 C 272.697 303.842,273.179 303.660,273.485 303.777 C 273.791 303.895,273.932 303.813,273.797 303.595 C 273.663 303.378,273.799 303.200,274.101 303.200 C 274.402 303.200,274.998 302.885,275.425 302.500 C 275.851 302.115,276.399 301.800,276.641 301.800 C 277.079 301.800,278.894 300.605,279.737 299.761 C 279.979 299.519,280.497 299.405,280.888 299.507 C 281.280 299.610,281.600 299.482,281.600 299.223 C 281.600 298.964,281.392 298.881,281.138 299.038 C 280.861 299.209,280.785 299.149,280.947 298.886 C 281.095 298.646,281.573 298.518,282.008 298.602 C 282.444 298.685,282.805 298.539,282.811 298.277 C 282.817 298.015,283.807 297.351,285.011 296.803 C 286.455 296.146,287.200 295.567,287.200 295.103 C 287.200 294.716,287.448 294.400,287.751 294.400 C 288.054 294.400,288.524 294.132,288.796 293.804 C 289.068 293.477,289.439 293.300,289.619 293.412 C 289.800 293.524,290.402 293.162,290.956 292.608 C 291.510 292.053,292.142 291.600,292.359 291.600 C 292.577 291.600,293.006 291.241,293.313 290.803 C 293.620 290.364,293.991 290.124,294.136 290.269 C 294.281 290.414,294.400 290.293,294.400 290.000 C 294.400 289.707,294.511 289.578,294.648 289.714 C 294.958 290.024,296.000 289.015,296.000 288.405 C 296.000 288.156,296.180 288.064,296.400 288.200 C 296.620 288.336,296.800 288.227,296.800 287.957 C 296.800 287.687,296.912 287.578,297.048 287.715 C 297.185 287.852,297.960 287.252,298.772 286.382 C 299.583 285.512,300.506 284.797,300.823 284.794 C 301.310 284.789,301.306 284.727,300.800 284.400 C 300.207 284.017,300.665 283.789,301.700 283.953 C 301.865 283.979,302.022 283.820,302.050 283.600 C 302.078 283.380,302.123 282.992,302.150 282.738 C 302.178 282.484,302.557 282.224,302.993 282.160 C 303.429 282.096,303.847 281.858,303.923 281.631 C 303.999 281.404,305.143 280.315,306.465 279.209 C 307.788 278.104,308.777 277.200,308.662 277.200 C 308.548 277.200,309.207 276.403,310.127 275.429 C 311.767 273.693,313.342 271.899,315.512 269.294 C 316.110 268.575,317.095 267.476,317.700 266.850 C 318.305 266.225,318.800 265.497,318.800 265.233 C 318.800 264.969,318.959 264.851,319.154 264.971 C 319.518 265.197,320.672 262.857,320.485 262.270 C 320.427 262.089,320.544 262.042,320.745 262.166 C 320.945 262.290,321.332 262.123,321.604 261.796 C 321.876 261.468,321.970 261.200,321.815 261.200 C 321.659 261.200,322.177 260.573,322.966 259.807 C 323.755 259.041,324.400 258.135,324.400 257.795 C 324.400 257.454,324.670 257.071,325.000 256.945 C 325.330 256.818,325.600 256.486,325.600 256.206 C 325.600 255.926,325.958 255.451,326.397 255.149 C 326.835 254.847,327.250 254.200,327.320 253.710 C 327.389 253.221,327.600 252.681,327.787 252.510 C 327.975 252.340,327.982 252.453,327.802 252.762 C 327.587 253.134,327.628 253.230,327.926 253.046 C 328.173 252.893,328.779 251.888,329.272 250.813 C 329.765 249.737,330.275 248.923,330.405 249.003 C 330.534 249.083,330.879 248.342,331.170 247.357 C 331.461 246.372,331.795 245.662,331.914 245.780 C 332.112 245.978,332.752 245.072,333.455 243.600 C 333.613 243.270,333.935 242.868,334.171 242.706 C 334.459 242.509,334.436 242.410,334.100 242.406 C 333.798 242.402,333.916 242.084,334.400 241.600 C 334.840 241.160,335.200 240.530,335.200 240.200 C 335.200 239.870,335.368 239.600,335.574 239.600 C 335.780 239.600,336.176 238.970,336.454 238.200 C 336.733 237.430,337.105 236.800,337.280 236.800 C 337.456 236.800,337.600 236.249,337.600 235.576 C 337.600 234.903,337.767 234.456,337.971 234.582 C 338.175 234.708,338.482 234.404,338.652 233.906 C 338.822 233.408,338.994 232.910,339.034 232.800 C 339.075 232.690,339.239 232.195,339.400 231.700 C 339.562 231.205,339.852 230.800,340.047 230.800 C 340.241 230.800,340.400 230.478,340.400 230.085 C 340.400 229.691,340.764 228.656,341.208 227.785 C 341.652 226.913,342.057 225.630,342.108 224.934 C 342.159 224.238,342.380 223.698,342.600 223.734 C 342.820 223.770,342.968 223.443,342.929 223.006 C 342.890 222.569,343.062 222.085,343.312 221.931 C 343.562 221.776,343.792 221.180,343.823 220.606 C 343.853 220.031,344.086 219.354,344.339 219.101 C 344.593 218.847,344.800 218.237,344.800 217.744 C 344.800 217.251,344.980 216.736,345.200 216.600 C 345.420 216.464,345.600 215.744,345.600 215.000 C 345.600 214.256,345.780 213.536,346.000 213.400 C 346.220 213.264,346.400 212.523,346.400 211.753 C 346.400 210.983,346.547 210.444,346.726 210.555 C 346.906 210.665,347.093 209.911,347.142 208.878 C 347.196 207.737,347.475 206.815,347.852 206.529 C 348.251 206.227,348.378 205.762,348.208 205.227 C 348.063 204.769,348.189 203.901,348.488 203.297 C 348.787 202.694,349.086 201.300,349.152 200.200 C 349.217 199.100,349.413 198.020,349.587 197.800 C 349.761 197.580,349.935 195.792,349.974 193.826 C 350.013 191.860,350.164 190.060,350.311 189.826 C 350.674 189.246,350.748 188.640,350.842 185.486 C 350.886 183.993,351.079 182.675,351.271 182.556 C 351.729 182.273,351.665 156.891,351.206 156.726 C 351.012 156.657,350.803 155.012,350.741 153.071 C 350.680 151.130,350.488 149.454,350.315 149.347 C 350.142 149.240,350.000 147.914,350.000 146.400 C 350.000 144.886,349.820 143.536,349.600 143.400 C 349.380 143.264,349.200 142.173,349.200 140.976 C 349.200 139.779,349.050 138.800,348.867 138.800 C 348.523 138.800,348.499 138.693,348.360 136.498 C 348.315 135.783,348.036 134.996,347.739 134.749 C 347.443 134.503,347.200 133.604,347.200 132.751 C 347.200 131.898,347.020 131.200,346.800 131.200 C 346.580 131.200,346.400 130.379,346.400 129.376 C 346.400 128.263,346.244 127.649,346.000 127.800 C 345.762 127.947,345.600 127.479,345.600 126.647 C 345.600 125.877,345.420 125.136,345.200 125.000 C 344.980 124.864,344.800 124.223,344.800 123.576 C 344.800 122.929,344.620 122.400,344.400 122.400 C 344.180 122.400,344.000 122.119,344.000 121.775 C 344.000 120.727,342.731 117.200,342.354 117.200 C 342.159 117.200,342.000 116.755,342.000 116.212 C 342.000 115.669,341.640 114.583,341.200 113.800 C 340.760 113.017,340.400 112.021,340.400 111.588 C 340.400 111.155,340.220 110.800,340.000 110.800 C 339.780 110.800,339.600 110.260,339.600 109.600 C 339.600 108.940,339.420 108.400,339.200 108.400 C 338.980 108.400,338.800 108.115,338.800 107.767 C 338.800 107.419,338.170 106.060,337.400 104.746 C 336.630 103.432,336.000 102.094,336.000 101.773 C 336.000 101.065,335.309 99.791,334.097 98.268 C 333.601 97.643,333.297 96.966,333.423 96.763 C 333.548 96.560,333.369 96.286,333.025 96.154 C 332.681 96.022,332.400 95.574,332.400 95.157 C 332.400 94.741,332.220 94.400,332.000 94.400 C 331.780 94.400,331.600 94.029,331.600 93.576 C 331.600 93.123,331.420 92.864,331.200 93.000 C 330.980 93.136,330.796 93.012,330.791 92.724 C 330.786 92.436,330.430 91.750,330.000 91.200 C 329.570 90.650,329.214 89.879,329.209 89.487 C 329.204 89.096,328.931 88.672,328.602 88.546 C 328.274 88.419,328.104 88.155,328.226 87.958 C 328.348 87.761,328.167 87.600,327.824 87.600 C 327.415 87.600,327.200 87.233,327.200 86.533 C 327.200 85.947,327.083 85.584,326.940 85.727 C 326.604 86.063,325.629 84.786,325.613 83.988 C 325.606 83.652,325.240 83.117,324.800 82.800 C 324.360 82.483,324.000 81.916,324.000 81.541 C 324.000 81.165,323.595 80.530,323.100 80.129 C 322.605 79.728,321.945 78.905,321.632 78.300 C 321.320 77.695,320.915 77.200,320.732 77.200 C 320.550 77.200,320.400 76.973,320.400 76.696 C 320.400 76.419,320.040 75.968,319.600 75.693 C 319.160 75.418,318.800 74.989,318.800 74.740 C 318.800 74.491,318.305 73.798,317.700 73.200 C 316.228 71.746,315.200 70.461,315.200 70.075 C 315.200 69.901,314.390 68.987,313.400 68.043 C 312.410 67.100,311.600 66.153,311.600 65.940 C 311.600 65.727,311.420 65.664,311.200 65.800 C 310.980 65.936,310.800 65.851,310.800 65.610 C 310.800 65.055,308.164 62.400,307.613 62.400 C 307.386 62.400,307.200 62.119,307.200 61.776 C 307.200 61.433,307.020 61.264,306.800 61.400 C 306.580 61.536,306.400 61.451,306.400 61.210 C 306.400 60.712,303.791 58.000,303.311 58.000 C 303.138 58.000,302.470 57.370,301.828 56.600 C 301.186 55.830,300.462 55.200,300.219 55.200 C 299.976 55.200,299.517 54.840,299.200 54.400 C 298.883 53.960,298.458 53.600,298.257 53.600 C 298.055 53.600,297.352 52.970,296.694 52.200 C 296.036 51.430,295.291 50.800,295.037 50.800 C 294.784 50.800,294.317 50.440,294.000 50.000 C 293.683 49.560,293.233 49.200,293.000 49.200 C 292.767 49.200,292.317 48.840,292.000 48.400 C 291.683 47.960,291.181 47.600,290.885 47.600 C 290.589 47.600,289.752 46.970,289.026 46.200 C 288.300 45.430,287.452 44.800,287.141 44.800 C 286.831 44.800,286.317 44.440,286.000 44.000 C 285.683 43.560,285.185 43.200,284.894 43.200 C 284.603 43.200,283.880 42.750,283.287 42.200 C 282.693 41.650,282.021 41.200,281.792 41.200 C 281.564 41.200,281.117 40.840,280.800 40.400 C 280.483 39.960,279.914 39.600,279.535 39.600 C 279.157 39.600,278.736 39.420,278.600 39.200 C 278.464 38.980,278.043 38.800,277.665 38.800 C 277.286 38.800,276.717 38.440,276.400 38.000 C 276.036 37.495,275.365 37.200,274.579 37.200 C 273.662 37.200,273.195 36.938,272.800 36.200 C 272.506 35.650,272.031 35.200,271.745 35.200 C 271.458 35.200,270.583 34.840,269.800 34.400 C 269.017 33.960,268.111 33.600,267.788 33.600 C 267.465 33.600,267.200 33.420,267.200 33.200 C 267.200 32.980,266.855 32.800,266.433 32.800 C 266.012 32.800,265.607 32.658,265.533 32.485 C 265.313 31.965,260.985 30.000,260.060 30.000 C 259.587 30.000,259.200 29.820,259.200 29.600 C 259.200 29.380,258.851 29.200,258.424 29.200 C 257.997 29.200,257.536 29.020,257.400 28.800 C 257.264 28.580,256.623 28.400,255.976 28.400 C 255.329 28.400,254.800 28.220,254.800 28.000 C 254.800 27.780,254.528 27.600,254.195 27.600 C 253.862 27.600,253.277 27.428,252.895 27.218 C 252.513 27.008,250.850 26.447,249.200 25.971 C 247.550 25.496,245.633 24.857,244.940 24.553 C 244.246 24.249,243.301 24.000,242.840 24.000 C 242.378 24.000,242.000 23.820,242.000 23.600 C 242.000 23.375,240.881 23.200,239.443 23.200 C 237.539 23.200,236.827 23.047,236.655 22.600 C 236.512 22.226,235.902 22.000,235.036 22.000 C 234.272 22.000,233.536 21.820,233.400 21.600 C 233.264 21.380,232.623 21.200,231.976 21.200 C 231.329 21.200,230.800 21.020,230.800 20.800 C 230.800 20.562,229.275 20.400,227.024 20.400 C 224.937 20.400,223.137 20.221,223.000 20.000 C 222.864 19.780,221.694 19.600,220.400 19.600 C 219.106 19.600,217.936 19.420,217.800 19.200 C 217.664 18.980,216.033 18.800,214.176 18.800 C 212.192 18.800,210.800 18.635,210.800 18.400 C 210.800 18.143,206.933 18.000,200.000 18.000 C 193.067 18.000,189.200 18.143,189.200 18.400 M236.600 87.635 C 237.480 87.878,238.560 88.383,239.000 88.757 C 239.440 89.130,240.285 89.678,240.878 89.974 C 244.266 91.664,246.741 99.125,244.801 101.800 C 244.641 102.020,244.389 102.708,244.241 103.328 C 243.011 108.470,232.906 110.242,230.816 105.682 C 229.396 102.584,231.654 95.600,234.075 95.600 C 234.296 95.600,234.954 95.266,235.538 94.857 C 236.122 94.448,237.089 93.953,237.687 93.757 C 239.069 93.303,238.746 92.841,236.094 91.473 C 230.519 88.596,223.037 91.026,221.258 96.290 C 220.977 97.121,220.600 98.160,220.419 98.600 C 219.731 100.279,219.155 102.734,218.590 106.400 C 218.267 108.490,217.722 111.190,217.377 112.400 C 217.032 113.610,216.408 116.760,215.989 119.400 C 215.063 125.243,214.734 126.859,213.616 131.095 C 213.137 132.907,212.803 134.887,212.873 135.495 L 213.000 136.600 222.096 136.707 C 232.350 136.829,232.749 136.957,232.151 139.943 C 231.780 141.798,231.866 141.782,221.219 142.000 L 211.439 142.200 210.953 144.800 C 209.882 150.528,209.600 152.293,209.600 153.273 C 209.600 153.837,209.239 155.716,208.798 157.449 C 208.357 159.182,207.724 162.580,207.390 165.000 C 206.860 168.853,206.062 172.733,204.799 177.600 C 204.599 178.370,204.242 180.260,204.005 181.800 C 203.768 183.340,203.195 186.130,202.731 188.000 C 202.267 189.870,201.745 192.300,201.572 193.400 C 200.647 199.257,200.436 200.381,199.874 202.400 C 199.538 203.610,198.985 206.400,198.646 208.600 C 198.306 210.800,197.737 213.500,197.380 214.600 C 197.024 215.700,196.410 218.040,196.015 219.800 C 195.077 223.983,190.854 235.203,189.013 238.400 C 188.697 238.950,187.985 240.237,187.432 241.261 C 186.879 242.284,185.999 243.457,185.477 243.868 C 184.954 244.279,184.291 245.062,184.002 245.608 C 183.088 247.333,179.363 250.647,176.827 251.991 C 170.865 255.150,158.979 252.819,156.391 247.983 C 151.426 238.705,158.174 229.267,167.224 232.831 C 171.699 234.593,170.146 242.535,164.794 245.256 C 160.771 247.302,160.881 247.096,163.063 248.488 C 168.513 251.963,176.745 249.136,178.611 243.148 C 178.774 242.627,179.332 241.312,179.852 240.228 C 180.372 239.143,181.078 236.893,181.420 235.228 C 181.762 233.562,182.320 231.390,182.658 230.400 C 182.997 229.410,183.445 227.520,183.653 226.200 C 184.458 221.100,184.750 219.671,185.776 215.800 C 186.359 213.600,187.099 209.950,187.419 207.690 C 187.739 205.429,188.341 202.279,188.756 200.690 C 189.170 199.100,189.724 196.270,189.985 194.400 C 190.247 192.530,190.879 189.200,191.391 187.000 C 191.903 184.800,192.534 181.380,192.795 179.400 C 193.055 177.420,193.426 175.260,193.619 174.600 C 194.558 171.383,195.561 166.647,195.988 163.400 C 196.472 159.725,197.402 154.995,197.994 153.200 C 198.175 152.650,198.536 150.310,198.795 148.000 C 199.055 145.690,199.428 143.395,199.625 142.900 L 199.983 142.000 193.291 141.996 C 184.097 141.990,183.600 141.889,183.600 140.037 C 183.600 136.876,183.818 136.800,192.833 136.800 L 200.820 136.800 201.210 135.774 C 201.424 135.210,201.597 134.175,201.593 133.474 C 201.589 132.773,202.033 130.220,202.579 127.800 C 203.126 125.380,203.772 122.050,204.015 120.400 C 204.536 116.854,204.912 115.363,206.449 110.736 C 207.082 108.831,207.600 106.976,207.600 106.614 C 207.600 105.710,210.401 99.186,211.212 98.200 C 211.574 97.760,212.249 96.770,212.712 96.000 C 213.781 94.223,217.959 90.543,219.766 89.789 C 220.525 89.471,221.265 89.018,221.412 88.781 C 222.478 87.056,231.924 86.343,236.600 87.635 M144.600 342.278 C 143.720 342.375,142.829 342.621,142.620 342.827 C 142.411 343.032,141.950 343.200,141.595 343.200 C 140.857 343.200,138.800 345.203,138.800 345.922 C 138.800 346.185,138.620 346.400,138.400 346.400 C 138.180 346.400,138.000 347.120,138.000 348.000 C 138.000 348.880,138.180 349.600,138.400 349.600 C 138.620 349.600,138.800 348.970,138.800 348.200 C 138.800 347.430,138.980 346.800,139.200 346.800 C 139.420 346.800,139.600 346.530,139.600 346.200 C 139.600 345.870,139.759 345.600,139.953 345.600 C 140.148 345.600,140.401 345.240,140.516 344.800 C 140.657 344.259,141.062 344.000,141.763 344.000 C 142.333 344.000,142.800 343.820,142.800 343.600 C 142.800 342.754,151.937 343.110,152.885 343.993 C 153.667 344.722,153.685 344.844,153.102 345.493 C 152.753 345.882,152.407 346.740,152.333 347.400 C 152.241 348.230,152.015 348.553,151.600 348.449 C 150.027 348.051,145.969 348.374,145.401 348.942 C 144.046 350.297,144.635 350.800,147.576 350.800 C 149.103 350.800,150.464 350.980,150.600 351.200 C 151.043 351.917,151.699 351.621,151.484 350.800 C 151.369 350.360,151.436 350.000,151.633 350.000 C 152.294 350.000,153.600 348.629,153.600 347.935 C 153.600 347.557,153.786 347.133,154.012 346.992 C 154.469 346.710,154.124 344.088,153.531 343.339 C 152.979 342.641,147.369 341.974,144.600 342.278 M206.455 346.766 C 206.537 349.074,207.303 348.787,207.707 346.297 C 207.918 344.995,207.848 344.800,207.168 344.800 C 206.488 344.800,206.394 345.058,206.455 346.766 M212.157 345.433 C 212.291 345.781,212.400 347.131,212.400 348.433 L 212.400 350.800 214.100 350.757 C 215.745 350.716,215.765 350.701,214.700 350.280 C 213.662 349.870,213.600 349.703,213.600 347.323 C 213.600 345.024,213.525 344.800,212.757 344.800 C 212.153 344.800,211.983 344.979,212.157 345.433 M150.674 349.822 C 150.745 350.034,149.656 350.200,148.200 350.200 C 146.457 350.200,145.600 350.043,145.600 349.724 C 145.600 348.818,150.370 348.910,150.674 349.822 M133.500 350.557 C 133.115 350.849,132.800 351.216,132.800 351.373 C 132.800 351.529,132.520 351.937,132.177 352.280 C 131.834 352.623,131.654 353.165,131.777 353.484 C 131.900 353.804,132.000 354.321,132.000 354.633 C 132.000 354.945,132.180 355.200,132.400 355.200 C 132.620 355.200,132.800 354.508,132.800 353.663 C 132.800 352.022,134.184 351.200,136.946 351.200 C 137.616 351.200,138.000 350.981,138.000 350.600 C 138.000 349.822,134.512 349.788,133.500 350.557 M186.400 350.400 C 186.400 350.620,187.390 350.800,188.600 350.800 C 189.810 350.800,190.800 350.620,190.800 350.400 C 190.800 350.180,189.810 350.000,188.600 350.000 C 187.390 350.000,186.400 350.180,186.400 350.400 M232.000 350.400 C 232.000 350.622,233.067 350.800,234.400 350.800 C 235.733 350.800,236.800 350.622,236.800 350.400 C 236.800 350.178,235.733 350.000,234.400 350.000 C 233.067 350.000,232.000 350.178,232.000 350.400 M256.800 350.633 C 256.250 350.939,255.485 351.191,255.100 351.194 C 254.669 351.198,254.400 351.507,254.400 352.000 C 254.400 352.937,255.012 353.067,255.345 352.200 C 255.471 351.870,255.941 351.600,256.387 351.600 C 256.834 351.600,257.200 351.420,257.200 351.200 C 257.200 350.623,262.125 350.704,263.269 351.300 C 264.999 352.201,267.200 354.713,267.200 355.787 C 267.200 356.344,267.380 356.800,267.600 356.800 C 267.840 356.800,268.000 358.400,268.000 360.800 C 268.000 363.200,267.840 364.800,267.600 364.800 C 267.380 364.800,267.200 365.325,267.200 365.967 C 267.200 366.608,266.975 367.216,266.700 367.317 C 266.300 367.463,266.300 367.606,266.700 368.030 C 267.113 368.467,267.200 368.449,267.200 367.923 C 267.200 367.572,267.489 367.175,267.842 367.039 C 268.194 366.904,268.387 366.542,268.269 366.236 C 268.151 365.929,268.307 365.345,268.615 364.939 C 269.882 363.266,268.964 354.400,267.523 354.400 C 267.345 354.400,267.200 354.106,267.200 353.747 C 267.200 353.081,265.766 351.600,265.122 351.600 C 264.927 351.600,264.380 351.240,263.908 350.800 C 262.871 349.834,258.428 349.730,256.800 350.633 M248.667 350.667 C 248.221 351.112,248.351 378.322,248.800 378.600 C 249.064 378.763,249.200 374.077,249.200 364.843 L 249.200 350.838 251.700 350.696 L 254.200 350.554 251.567 350.477 C 250.118 350.435,248.813 350.520,248.667 350.667 M183.200 351.200 C 183.200 351.420,183.470 351.600,183.800 351.600 C 184.130 351.600,184.400 351.420,184.400 351.200 C 184.400 350.980,184.130 350.800,183.800 350.800 C 183.470 350.800,183.200 350.980,183.200 351.200 M192.600 351.200 C 192.736 351.420,193.207 351.600,193.647 351.600 C 194.087 351.600,194.336 351.420,194.200 351.200 C 194.064 350.980,193.593 350.800,193.153 350.800 C 192.713 350.800,192.464 350.980,192.600 351.200 M200.880 351.280 C 200.315 351.845,200.226 356.000,200.779 356.000 C 200.988 356.000,201.213 355.055,201.279 353.900 C 201.392 351.941,201.474 351.791,202.500 351.673 C 203.105 351.604,203.600 351.417,203.600 351.259 C 203.600 350.760,201.383 350.777,200.880 351.280 M230.000 351.200 C 230.000 351.420,230.270 351.600,230.600 351.600 C 230.930 351.600,231.200 351.420,231.200 351.200 C 231.200 350.980,230.930 350.800,230.600 350.800 C 230.270 350.800,230.000 350.980,230.000 351.200 M238.508 351.300 C 238.604 351.575,238.982 351.747,239.347 351.681 C 239.712 351.616,240.118 351.841,240.248 352.181 C 240.379 352.522,240.826 352.800,241.243 352.800 C 241.733 352.800,242.000 353.082,242.000 353.600 C 242.000 354.389,242.425 354.641,242.920 354.146 C 243.340 353.727,241.634 351.862,240.328 351.313 C 238.793 350.667,238.286 350.664,238.508 351.300 M180.849 352.111 C 180.292 352.668,180.262 353.600,180.800 353.600 C 181.020 353.600,181.200 353.420,181.200 353.200 C 181.200 352.980,181.470 352.800,181.800 352.800 C 182.130 352.800,182.400 352.639,182.400 352.443 C 182.400 351.856,181.332 351.628,180.849 352.111 M195.455 352.200 C 195.582 352.530,195.936 352.800,196.243 352.800 C 196.599 352.800,196.800 353.246,196.800 354.033 C 196.800 354.842,196.972 355.209,197.300 355.100 C 198.055 354.849,198.118 353.776,197.420 353.077 C 197.079 352.736,196.800 352.264,196.800 352.029 C 196.800 351.793,196.446 351.600,196.013 351.600 C 195.477 351.600,195.299 351.792,195.455 352.200 M228.400 352.200 C 228.400 352.530,228.580 352.800,228.800 352.800 C 229.020 352.800,229.200 352.530,229.200 352.200 C 229.200 351.870,229.020 351.600,228.800 351.600 C 228.580 351.600,228.400 351.870,228.400 352.200 M151.606 353.700 C 151.611 354.945,151.716 355.239,152.000 354.800 C 152.510 354.010,152.510 352.000,152.000 352.000 C 151.780 352.000,151.603 352.765,151.606 353.700 M226.667 353.067 C 226.179 353.554,226.391 354.400,227.000 354.400 C 227.333 354.400,227.600 354.044,227.600 353.600 C 227.600 352.803,227.174 352.560,226.667 353.067 M156.100 354.944 C 155.129 355.425,154.726 359.660,155.600 360.200 C 155.845 360.351,156.005 359.701,156.013 358.524 C 156.030 355.887,156.638 355.211,159.044 355.153 C 160.768 355.111,160.858 355.069,159.800 354.800 C 158.153 354.381,157.159 354.419,156.100 354.944 M179.600 355.000 C 179.600 355.330,179.780 355.600,180.000 355.600 C 180.220 355.600,180.400 355.330,180.400 355.000 C 180.400 354.670,180.220 354.400,180.000 354.400 C 179.780 354.400,179.600 354.670,179.600 355.000 M242.800 354.757 C 242.800 354.954,243.070 355.218,243.400 355.345 C 243.730 355.471,244.000 355.941,244.000 356.387 C 244.000 356.834,244.180 357.200,244.400 357.200 C 245.002 357.200,244.881 355.623,244.229 354.971 C 243.588 354.331,242.800 354.213,242.800 354.757 M173.817 355.572 C 173.691 355.777,173.770 356.058,173.993 356.196 C 174.217 356.334,174.400 357.337,174.400 358.424 L 174.400 360.400 165.400 360.400 C 159.667 360.400,156.400 360.545,156.400 360.800 C 156.400 361.453,173.630 361.304,174.500 360.643 C 175.427 359.939,175.535 355.200,174.624 355.200 C 174.307 355.200,173.944 355.368,173.817 355.572 M186.400 357.000 C 186.400 357.925,186.541 358.000,188.280 358.000 C 190.122 358.000,190.299 357.494,188.600 357.085 C 188.160 356.979,188.745 356.872,189.900 356.846 C 191.055 356.821,192.000 356.967,192.000 357.172 C 192.000 357.377,192.391 357.602,192.869 357.672 C 193.346 357.742,193.819 358.070,193.919 358.400 C 194.065 358.884,193.998 358.904,193.570 358.500 C 192.937 357.902,190.949 357.835,190.600 358.400 C 190.453 358.638,190.929 358.800,191.776 358.800 C 192.559 358.800,193.200 358.980,193.200 359.200 C 193.200 359.420,193.650 359.600,194.200 359.600 C 194.750 359.600,195.200 359.780,195.200 360.000 C 195.200 360.220,195.448 360.400,195.751 360.400 C 196.054 360.400,196.563 360.793,196.882 361.273 C 197.244 361.819,197.563 361.984,197.730 361.714 C 198.006 361.267,196.186 359.060,195.297 358.765 C 194.959 358.653,195.135 358.230,195.838 357.473 C 196.411 356.854,196.748 356.224,196.586 356.074 C 196.423 355.923,196.210 356.025,196.112 356.300 C 196.014 356.575,195.603 356.800,195.200 356.800 C 194.797 356.800,194.376 357.025,194.265 357.300 C 194.104 357.700,194.057 357.700,194.032 357.300 C 194.014 357.025,193.550 356.800,193.000 356.800 C 192.450 356.800,192.000 356.620,192.000 356.400 C 192.000 356.171,190.800 356.000,189.200 356.000 C 186.480 356.000,186.400 356.029,186.400 357.000 M224.697 356.795 C 223.945 357.674,223.748 360.197,224.400 360.600 C 224.644 360.751,224.800 360.149,224.800 359.057 C 224.800 358.063,225.005 357.198,225.260 357.113 C 225.513 357.029,225.647 356.740,225.557 356.471 C 225.448 356.144,225.161 356.253,224.697 356.795 M234.000 356.400 C 234.000 356.620,234.360 356.800,234.800 356.800 C 235.240 356.800,235.600 356.620,235.600 356.400 C 235.600 356.180,235.240 356.000,234.800 356.000 C 234.360 356.000,234.000 356.180,234.000 356.400 M179.067 356.667 C 178.652 357.082,178.753 358.400,179.200 358.400 C 179.420 358.400,179.600 357.950,179.600 357.400 C 179.600 356.353,179.508 356.226,179.067 356.667 M205.642 361.415 C 205.755 367.576,206.400 367.753,206.400 361.624 C 206.400 358.510,206.251 356.800,205.978 356.800 C 205.703 356.800,205.586 358.395,205.642 361.415 M212.400 357.200 C 212.400 357.420,212.539 357.600,212.709 357.600 C 212.879 357.600,213.036 358.687,213.058 360.015 C 213.079 361.344,213.210 362.544,213.349 362.682 C 213.487 362.820,213.600 361.553,213.600 359.867 C 213.600 357.407,213.481 356.800,213.000 356.800 C 212.670 356.800,212.400 356.980,212.400 357.200 M232.400 357.400 C 232.400 357.730,232.220 358.000,232.000 358.000 C 231.780 358.000,231.600 358.439,231.600 358.976 C 231.600 359.513,231.780 360.064,232.000 360.200 C 232.234 360.344,232.400 359.933,232.400 359.211 C 232.400 358.483,232.646 357.881,232.998 357.746 C 233.326 357.619,233.496 357.355,233.374 357.158 C 233.022 356.588,232.400 356.743,232.400 357.400 M236.000 357.167 C 236.000 357.368,236.198 357.599,236.439 357.680 C 238.205 358.268,236.672 365.600,234.783 365.600 C 234.134 365.600,232.400 363.566,232.400 362.805 C 232.400 362.388,232.220 361.936,232.000 361.800 C 231.767 361.656,231.600 362.063,231.600 362.776 C 231.600 363.449,231.780 364.000,232.000 364.000 C 232.220 364.000,232.400 364.360,232.400 364.800 C 232.400 365.244,232.667 365.600,233.000 365.600 C 233.330 365.600,233.600 365.780,233.600 366.000 C 233.600 366.694,235.158 366.435,236.601 365.500 L 237.990 364.600 237.995 361.271 C 237.999 358.915,237.833 357.776,237.429 357.371 C 236.783 356.726,236.000 356.614,236.000 357.167 M255.700 357.398 C 254.971 358.227,255.027 364.284,255.771 365.029 C 256.551 365.808,256.800 365.747,256.800 364.776 C 256.800 364.323,256.620 364.064,256.400 364.200 C 255.693 364.637,255.913 358.905,256.646 357.786 C 257.379 356.667,256.618 356.355,255.700 357.398 M144.837 358.270 C 144.869 358.452,144.873 361.345,144.847 364.700 L 144.800 370.800 141.800 370.800 C 140.067 370.800,138.800 370.969,138.800 371.200 C 138.800 371.867,144.361 371.696,145.049 371.008 C 145.721 370.336,145.801 358.572,145.137 358.161 C 144.941 358.040,144.806 358.089,144.837 358.270 M244.800 361.200 C 244.800 362.960,244.955 364.400,245.144 364.400 C 245.333 364.400,245.522 362.960,245.564 361.200 C 245.613 359.179,245.487 358.000,245.221 358.000 C 244.961 358.000,244.800 359.228,244.800 361.200 M260.400 361.024 C 260.400 362.905,260.269 363.566,259.938 363.362 C 259.664 363.193,259.585 363.251,259.742 363.506 C 259.888 363.742,259.714 364.229,259.356 364.587 C 258.618 365.325,258.857 365.817,259.783 365.462 C 260.122 365.332,260.400 364.870,260.400 364.436 C 260.400 364.002,260.580 363.536,260.800 363.400 C 261.020 363.264,261.200 362.083,261.200 360.776 C 261.200 359.459,261.022 358.400,260.800 358.400 C 260.574 358.400,260.400 359.541,260.400 361.024 M179.600 359.600 C 179.600 360.040,179.780 360.400,180.000 360.400 C 180.220 360.400,180.400 360.040,180.400 359.600 C 180.400 359.160,180.220 358.800,180.000 358.800 C 179.780 358.800,179.600 359.160,179.600 359.600 M180.689 361.044 C 180.222 361.511,180.356 362.000,180.951 362.000 C 182.185 362.000,182.507 363.133,181.325 363.315 C 180.249 363.480,180.239 363.500,181.100 363.790 C 181.595 363.957,182.000 364.252,182.000 364.447 C 182.000 364.641,182.360 364.800,182.800 364.800 C 183.240 364.800,183.601 364.935,183.603 365.100 C 183.613 366.090,189.092 366.877,190.967 366.157 C 191.874 365.809,191.749 364.800,190.800 364.800 C 190.360 364.800,190.000 364.620,190.000 364.400 C 190.000 364.180,189.640 364.000,189.200 364.000 C 187.940 364.000,188.267 364.667,189.700 365.020 L 191.000 365.340 189.611 365.502 C 188.830 365.593,188.158 365.475,188.077 365.232 C 187.998 364.994,187.453 364.794,186.867 364.787 C 186.280 364.780,185.440 364.489,185.000 364.141 C 184.224 363.527,184.234 363.513,185.300 363.698 C 185.905 363.803,186.400 363.734,186.400 363.545 C 186.400 363.249,184.838 363.005,183.900 363.153 C 183.735 363.179,183.645 362.979,183.700 362.709 C 183.755 362.440,183.357 362.152,182.816 362.071 C 182.274 361.989,181.639 361.660,181.405 361.339 C 181.170 361.018,180.848 360.885,180.689 361.044 M224.000 363.200 C 224.000 364.080,224.180 364.800,224.400 364.800 C 224.620 364.800,224.800 364.080,224.800 363.200 C 224.800 362.320,224.620 361.600,224.400 361.600 C 224.180 361.600,224.000 362.320,224.000 363.200 M197.853 362.714 C 197.728 362.917,197.887 363.424,198.208 363.841 C 198.768 364.572,198.785 364.567,198.672 363.710 C 198.531 362.649,198.167 362.206,197.853 362.714 M179.600 364.800 C 179.600 365.240,179.420 365.600,179.200 365.600 C 178.980 365.600,178.800 365.870,178.800 366.200 C 178.800 366.530,178.620 366.800,178.400 366.800 C 177.650 366.800,177.973 368.991,178.800 369.507 C 179.274 369.803,179.600 369.843,179.600 369.603 C 179.600 369.382,179.420 369.200,179.200 369.200 C 178.420 369.200,178.816 366.983,179.800 365.838 C 180.946 364.506,181.056 364.000,180.200 364.000 C 179.867 364.000,179.600 364.356,179.600 364.800 M213.600 364.733 C 213.600 365.210,213.764 365.600,213.965 365.600 C 214.371 365.600,214.311 364.577,213.878 364.145 C 213.725 363.992,213.600 364.257,213.600 364.733 M198.100 365.655 C 197.825 365.933,197.600 366.574,197.600 367.080 C 197.600 367.586,197.420 368.000,197.200 368.000 C 196.980 368.000,196.800 368.213,196.800 368.474 C 196.800 368.735,196.409 369.365,195.930 369.874 C 195.295 370.551,195.217 370.800,195.641 370.800 C 196.260 370.800,197.600 369.442,197.600 368.815 C 197.600 368.609,197.884 368.281,198.230 368.087 C 198.652 367.851,198.818 367.306,198.730 366.442 C 198.626 365.405,198.501 365.250,198.100 365.655 M214.600 366.000 C 214.464 366.220,214.723 366.400,215.176 366.400 C 215.629 366.400,216.000 366.220,216.000 366.000 C 216.000 365.780,215.741 365.600,215.424 365.600 C 215.107 365.600,214.736 365.780,214.600 366.000 M244.000 366.400 C 244.000 366.844,243.733 367.200,243.400 367.200 C 243.070 367.200,242.800 367.470,242.800 367.800 C 242.800 368.130,242.639 368.400,242.443 368.400 C 242.246 368.400,241.982 368.670,241.855 369.000 C 241.515 369.887,241.778 369.749,243.366 368.207 C 244.740 366.872,245.245 365.600,244.400 365.600 C 244.180 365.600,244.000 365.960,244.000 366.400 M206.500 368.056 C 206.652 368.750,208.819 370.914,209.090 370.643 C 209.221 370.512,208.972 370.089,208.536 369.703 C 208.101 369.316,207.628 368.685,207.485 368.300 C 207.200 367.533,206.339 367.320,206.500 368.056 M221.200 369.200 C 221.200 370.080,221.380 370.800,221.600 370.800 C 221.820 370.800,222.000 370.080,222.000 369.200 C 222.000 368.320,221.820 367.600,221.600 367.600 C 221.380 367.600,221.200 368.320,221.200 369.200 M264.460 369.842 C 264.162 370.178,263.999 370.532,264.095 370.629 C 264.192 370.726,264.598 370.444,264.998 370.002 C 265.397 369.561,265.561 369.207,265.362 369.215 C 265.163 369.224,264.757 369.505,264.460 369.842 M180.400 370.400 C 180.400 370.620,180.670 370.800,181.000 370.800 C 181.330 370.800,181.600 370.620,181.600 370.400 C 181.600 370.180,181.330 370.000,181.000 370.000 C 180.670 370.000,180.400 370.180,180.400 370.400 M255.200 374.344 C 255.200 377.244,255.342 378.759,255.600 378.600 C 255.820 378.464,256.000 376.833,256.000 374.976 C 256.000 371.642,256.012 371.600,257.000 371.600 C 257.550 371.600,258.000 371.420,258.000 371.200 C 258.000 370.980,257.586 370.800,257.080 370.800 C 256.574 370.800,255.944 370.584,255.680 370.320 C 255.307 369.947,255.200 370.841,255.200 374.344 M183.400 371.200 C 183.536 371.420,183.997 371.600,184.424 371.600 C 184.851 371.600,185.200 371.420,185.200 371.200 C 185.200 370.980,184.739 370.800,184.176 370.800 C 183.596 370.800,183.260 370.973,183.400 371.200 M191.800 371.200 C 191.936 371.420,192.566 371.600,193.200 371.600 C 193.834 371.600,194.464 371.420,194.600 371.200 C 194.750 370.958,194.196 370.800,193.200 370.800 C 192.204 370.800,191.650 370.958,191.800 371.200 M210.000 371.113 C 210.000 371.285,210.450 371.463,211.000 371.508 C 211.550 371.554,212.000 371.413,212.000 371.196 C 212.000 370.978,211.550 370.800,211.000 370.800 C 210.450 370.800,210.000 370.941,210.000 371.113 M218.000 371.200 C 218.000 371.420,218.259 371.600,218.576 371.600 C 218.893 371.600,219.264 371.420,219.400 371.200 C 219.536 370.980,219.277 370.800,218.824 370.800 C 218.371 370.800,218.000 370.980,218.000 371.200 M231.120 371.280 C 231.493 371.653,231.707 371.653,232.080 371.280 C 232.453 370.907,232.347 370.800,231.600 370.800 C 230.853 370.800,230.747 370.907,231.120 371.280 M187.200 372.000 C 188.004 372.520,190.921 372.520,190.600 372.000 C 190.464 371.780,189.508 371.603,188.476 371.606 C 187.117 371.611,186.765 371.719,187.200 372.000 M213.047 371.923 C 212.938 372.101,213.542 372.287,214.391 372.337 C 215.240 372.388,216.050 372.242,216.191 372.014 C 216.351 371.755,215.849 371.600,214.847 371.600 C 213.967 371.600,213.157 371.745,213.047 371.923 M258.800 372.000 C 258.800 372.220,259.160 372.400,259.600 372.400 C 260.040 372.400,260.400 372.220,260.400 372.000 C 260.400 371.780,260.040 371.600,259.600 371.600 C 259.160 371.600,258.800 371.780,258.800 372.000" stroke="none" fill="#ebebeb" fill-rule="evenodd">
        </path>
        <path id="path1" d="M226.000 87.179 C 223.514 87.549,221.804 88.146,221.412 88.781 C 221.265 89.018,220.525 89.471,219.766 89.789 C 217.959 90.543,213.781 94.223,212.712 96.000 C 212.249 96.770,211.574 97.760,211.212 98.200 C 210.401 99.186,207.600 105.710,207.600 106.614 C 207.600 106.976,207.082 108.831,206.449 110.736 C 204.912 115.363,204.536 116.854,204.015 120.400 C 203.772 122.050,203.126 125.380,202.579 127.800 C 202.033 130.220,201.589 132.773,201.593 133.474 C 201.597 134.175,201.424 135.210,201.210 135.774 L 200.820 136.800 192.833 136.800 C 183.818 136.800,183.600 136.876,183.600 140.037 C 183.600 141.889,184.097 141.990,193.291 141.996 L 199.983 142.000 199.625 142.900 C 199.428 143.395,199.055 145.690,198.795 148.000 C 198.536 150.310,198.175 152.650,197.994 153.200 C 197.402 154.995,196.472 159.725,195.988 163.400 C 195.561 166.647,194.558 171.383,193.619 174.600 C 193.426 175.260,193.055 177.420,192.795 179.400 C 192.534 181.380,191.903 184.800,191.391 187.000 C 190.879 189.200,190.247 192.530,189.985 194.400 C 189.724 196.270,189.170 199.100,188.756 200.690 C 188.341 202.279,187.739 205.429,187.419 207.690 C 187.099 209.950,186.359 213.600,185.776 215.800 C 184.750 219.671,184.458 221.100,183.653 226.200 C 183.445 227.520,182.997 229.410,182.658 230.400 C 182.320 231.390,181.762 233.562,181.420 235.228 C 181.078 236.893,180.372 239.143,179.852 240.228 C 179.332 241.312,178.774 242.627,178.611 243.148 C 176.745 249.136,168.513 251.963,163.063 248.488 C 160.881 247.096,160.771 247.302,164.794 245.256 C 170.146 242.535,171.699 234.593,167.224 232.831 C 158.174 229.267,151.426 238.705,156.391 247.983 C 158.979 252.819,170.865 255.150,176.827 251.991 C 179.363 250.647,183.088 247.333,184.002 245.608 C 184.291 245.062,184.954 244.279,185.477 243.868 C 185.999 243.457,186.879 242.284,187.432 241.261 C 187.985 240.237,188.697 238.950,189.013 238.400 C 190.854 235.203,195.077 223.983,196.015 219.800 C 196.410 218.040,197.024 215.700,197.380 214.600 C 197.737 213.500,198.306 210.800,198.646 208.600 C 198.985 206.400,199.538 203.610,199.874 202.400 C 200.436 200.381,200.647 199.257,201.572 193.400 C 201.745 192.300,202.267 189.870,202.731 188.000 C 203.195 186.130,203.768 183.340,204.005 181.800 C 204.242 180.260,204.599 178.370,204.799 177.600 C 206.062 172.733,206.860 168.853,207.390 165.000 C 207.724 162.580,208.357 159.182,208.798 157.449 C 209.239 155.716,209.600 153.837,209.600 153.273 C 209.600 152.293,209.882 150.528,210.953 144.800 L 211.439 142.200 221.219 142.000 C 231.866 141.782,231.780 141.798,232.151 139.943 C 232.749 136.957,232.350 136.829,222.096 136.707 L 213.000 136.600 212.873 135.495 C 212.803 134.887,213.137 132.907,213.616 131.095 C 214.734 126.859,215.063 125.243,215.989 119.400 C 216.408 116.760,217.032 113.610,217.377 112.400 C 217.722 111.190,218.267 108.490,218.590 106.400 C 219.155 102.734,219.731 100.279,220.419 98.600 C 220.600 98.160,220.977 97.121,221.258 96.290 C 223.037 91.026,230.519 88.596,236.094 91.473 C 238.746 92.841,239.069 93.303,237.687 93.757 C 237.089 93.953,236.122 94.448,235.538 94.857 C 234.954 95.266,234.296 95.600,234.075 95.600 C 231.654 95.600,229.396 102.584,230.816 105.682 C 232.906 110.242,243.011 108.470,244.241 103.328 C 244.389 102.708,244.641 102.020,244.801 101.800 C 246.741 99.125,244.266 91.664,240.878 89.974 C 240.285 89.678,239.440 89.130,239.000 88.757 C 237.301 87.313,230.585 86.498,226.000 87.179 M314.982 269.715 C 313.989 270.868,313.959 271.320,314.935 270.430 C 315.521 269.897,316.000 269.402,316.000 269.330 C 316.000 269.028,315.369 269.267,314.982 269.715 M104.306 288.687 C 104.219 288.859,104.565 289.399,105.074 289.886 C 106.199 290.961,106.280 290.683,105.232 289.350 C 104.809 288.813,104.393 288.514,104.306 288.687 M288.800 293.800 C 288.526 294.130,288.054 294.400,287.751 294.400 C 287.448 294.400,287.200 294.580,287.200 294.800 C 287.200 295.020,287.346 295.200,287.525 295.200 C 287.874 295.200,289.600 293.690,289.600 293.384 C 289.600 293.042,289.300 293.197,288.800 293.800 M160.400 317.400 C 160.400 317.767,160.594 318.002,160.830 317.923 C 161.067 317.845,161.260 317.609,161.260 317.400 C 161.260 317.191,161.067 316.956,160.830 316.877 C 160.594 316.798,160.400 317.033,160.400 317.400 M170.600 320.002 C 169.910 320.300,169.951 320.339,170.900 320.287 C 171.505 320.253,172.000 320.085,172.000 319.913 C 172.000 319.529,171.642 319.552,170.600 320.002 M227.771 320.048 C 227.555 320.396,230.250 320.283,230.605 319.928 C 230.743 319.790,230.202 319.696,229.402 319.719 C 228.602 319.741,227.868 319.889,227.771 320.048 M180.400 321.635 C 180.400 321.836,180.790 322.000,181.267 322.000 C 181.743 322.000,182.008 321.875,181.855 321.722 C 181.423 321.289,180.400 321.229,180.400 321.635 M196.627 321.557 C 196.545 321.690,197.990 321.843,199.839 321.896 C 201.964 321.957,203.200 321.839,203.200 321.575 C 203.200 321.132,196.900 321.114,196.627 321.557 M142.800 343.600 C 142.800 343.820,142.333 344.000,141.763 344.000 C 141.062 344.000,140.657 344.259,140.516 344.800 C 140.401 345.240,140.148 345.600,139.953 345.600 C 139.759 345.600,139.600 345.870,139.600 346.200 C 139.600 346.530,139.420 346.800,139.200 346.800 C 138.980 346.800,138.800 347.430,138.800 348.200 C 138.800 348.970,138.620 349.600,138.400 349.600 C 138.180 349.600,138.000 349.960,138.000 350.400 C 138.000 350.998,137.733 351.200,136.946 351.200 C 136.367 351.200,135.197 351.408,134.346 351.663 L 132.800 352.127 132.800 354.463 C 132.800 355.748,132.935 356.779,133.100 356.753 C 133.265 356.727,134.435 356.727,135.700 356.753 L 138.000 356.800 138.000 363.800 L 138.000 370.800 141.400 370.800 L 144.800 370.800 144.844 364.700 C 144.869 361.345,144.856 358.195,144.816 357.700 C 144.746 356.844,144.882 356.800,147.600 356.800 C 151.056 356.800,151.600 356.388,151.600 353.773 C 151.600 351.296,150.952 350.829,147.500 350.813 C 144.638 350.799,144.059 350.283,145.401 348.942 C 145.969 348.374,150.027 348.051,151.600 348.449 C 152.015 348.553,152.241 348.230,152.333 347.400 C 152.407 346.740,152.753 345.882,153.102 345.493 C 153.685 344.844,153.667 344.722,152.885 343.993 C 151.937 343.110,142.800 342.754,142.800 343.600 M207.843 345.433 C 207.709 345.781,207.600 346.520,207.600 347.076 C 207.600 347.768,207.427 348.019,207.050 347.874 C 206.747 347.758,206.505 347.874,206.513 348.132 C 206.588 350.794,206.450 351.045,205.000 350.876 C 204.190 350.781,203.600 350.888,203.600 351.130 C 203.600 351.359,203.105 351.604,202.500 351.673 C 201.446 351.795,201.395 351.904,201.281 354.300 L 201.162 356.800 203.781 356.800 L 206.400 356.800 206.400 362.157 C 206.400 366.550,206.508 367.556,207.000 367.745 C 207.330 367.871,207.600 368.169,207.600 368.406 C 207.600 369.314,209.574 370.800,210.782 370.800 C 211.452 370.800,212.000 370.937,212.000 371.104 C 212.000 371.271,212.379 371.644,212.842 371.933 C 213.305 372.222,213.564 372.266,213.418 372.030 C 213.240 371.742,213.951 371.600,215.576 371.600 C 216.925 371.600,218.000 371.423,218.000 371.200 C 218.000 370.980,218.720 370.800,219.600 370.800 L 221.200 370.800 221.200 368.600 C 221.200 367.318,221.023 366.400,220.776 366.400 C 220.543 366.400,220.464 366.220,220.600 366.000 C 220.740 365.773,220.404 365.600,219.824 365.600 C 219.261 365.600,218.800 365.780,218.800 366.000 C 218.800 366.220,217.799 366.400,216.576 366.400 C 215.196 366.400,214.447 366.248,214.600 366.000 C 214.736 365.780,214.567 365.600,214.224 365.600 C 213.784 365.600,213.600 365.208,213.600 364.267 C 213.600 363.533,213.487 362.820,213.349 362.682 C 213.210 362.544,213.079 361.344,213.058 360.015 C 213.036 358.687,212.879 357.600,212.709 357.600 C 212.539 357.600,212.400 357.420,212.400 357.200 C 212.400 356.963,213.908 356.795,216.100 356.787 C 220.834 356.771,221.200 356.517,221.200 353.256 L 221.200 350.800 216.800 350.800 L 212.400 350.800 212.400 348.433 C 212.400 345.032,212.247 344.800,210.000 344.800 C 208.623 344.800,208.017 344.978,207.843 345.433 M184.400 351.200 C 184.400 351.420,183.725 351.614,182.900 351.632 C 182.075 351.649,181.625 351.754,181.900 351.865 C 182.511 352.111,182.564 352.800,181.971 352.800 C 181.266 352.800,180.400 353.886,180.400 354.771 C 180.400 355.227,180.220 355.600,180.000 355.600 C 179.780 355.600,179.600 356.320,179.600 357.200 C 179.600 358.080,179.780 358.800,180.000 358.800 C 180.220 358.800,180.400 359.340,180.400 360.000 C 180.400 360.747,180.589 361.162,180.900 361.100 C 181.175 361.045,181.402 361.302,181.405 361.672 C 181.408 362.041,181.572 362.491,181.769 362.672 C 181.976 362.861,181.999 362.776,181.822 362.469 C 181.591 362.071,181.799 361.971,182.657 362.069 C 183.286 362.141,183.767 362.388,183.728 362.617 C 183.688 362.846,184.228 363.077,184.928 363.130 C 185.627 363.182,186.260 363.400,186.333 363.613 C 186.407 363.826,187.262 364.000,188.233 364.000 C 189.205 364.000,190.000 364.180,190.000 364.400 C 190.000 364.620,190.360 364.800,190.800 364.800 C 191.749 364.800,191.874 365.809,190.967 366.157 C 189.092 366.877,183.613 366.090,183.603 365.100 C 183.601 364.935,183.240 364.800,182.800 364.800 C 182.360 364.800,182.000 364.641,182.000 364.447 C 182.000 364.252,181.653 364.003,181.230 363.892 C 180.739 363.764,180.526 363.864,180.643 364.168 C 180.744 364.430,180.370 365.175,179.814 365.823 C 178.193 367.707,178.719 370.000,180.771 370.000 C 181.227 370.000,181.600 370.180,181.600 370.400 C 181.600 370.620,182.395 370.800,183.367 370.800 C 184.338 370.800,185.193 370.967,185.267 371.172 C 185.340 371.376,186.570 371.570,188.000 371.603 C 191.701 371.688,192.077 371.648,191.800 371.200 C 191.650 370.957,192.239 370.800,193.307 370.800 C 195.065 370.800,196.800 369.645,196.800 368.474 C 196.800 368.213,196.980 368.000,197.200 368.000 C 197.420 368.000,197.600 367.609,197.600 367.131 C 197.600 366.654,197.888 365.945,198.240 365.556 C 198.810 364.926,198.815 364.756,198.284 363.999 C 197.956 363.531,197.787 362.772,197.907 362.312 C 198.051 361.761,197.974 361.569,197.683 361.749 C 197.439 361.899,197.045 361.657,196.806 361.211 C 196.567 360.765,196.108 360.400,195.786 360.400 C 195.464 360.400,195.200 360.220,195.200 360.000 C 195.200 359.780,194.750 359.600,194.200 359.600 C 193.650 359.600,193.200 359.420,193.200 359.200 C 193.200 358.980,192.559 358.800,191.776 358.800 C 190.929 358.800,190.453 358.638,190.600 358.400 C 190.753 358.152,190.004 358.000,188.624 358.000 C 186.518 358.000,186.400 357.947,186.400 357.000 C 186.400 356.027,186.477 356.000,189.243 356.000 C 191.459 356.000,192.040 356.119,191.879 356.538 C 191.730 356.927,191.951 357.022,192.679 356.883 C 193.283 356.767,193.826 356.912,194.036 357.245 C 194.289 357.644,194.389 357.660,194.394 357.300 C 194.397 357.025,194.683 356.800,195.029 356.800 C 196.071 356.800,196.800 355.741,196.800 354.229 C 196.800 353.274,196.615 352.800,196.243 352.800 C 195.936 352.800,195.582 352.530,195.455 352.200 C 195.322 351.853,194.724 351.600,194.036 351.600 C 193.382 351.600,192.736 351.420,192.600 351.200 C 192.462 350.977,190.596 350.800,188.376 350.800 C 185.992 350.800,184.400 350.960,184.400 351.200 M231.200 351.200 C 231.200 351.420,230.750 351.600,230.200 351.600 C 229.578 351.600,229.200 351.827,229.200 352.200 C 229.200 352.533,228.844 352.800,228.400 352.800 C 227.867 352.800,227.600 353.067,227.600 353.600 C 227.600 354.040,227.395 354.400,227.144 354.400 C 226.529 354.400,225.628 355.635,225.613 356.500 C 225.606 356.885,225.420 357.200,225.200 357.200 C 224.980 357.200,224.800 358.021,224.800 359.024 C 224.800 360.137,224.644 360.751,224.400 360.600 C 224.180 360.464,224.000 360.633,224.000 360.976 C 224.000 361.319,224.180 361.600,224.400 361.600 C 224.620 361.600,224.800 362.410,224.800 363.400 C 224.800 364.390,224.980 365.200,225.200 365.200 C 225.420 365.200,225.600 365.635,225.600 366.167 C 225.600 366.698,225.767 367.193,225.970 367.267 C 226.173 367.340,226.398 367.655,226.470 367.967 C 226.649 368.746,227.734 369.908,228.100 369.713 C 228.265 369.625,228.400 369.833,228.400 370.176 C 228.400 370.519,228.535 370.779,228.700 370.753 C 229.952 370.555,232.405 370.868,232.200 371.200 C 232.044 371.452,232.996 371.600,234.776 371.600 C 236.392 371.600,237.600 371.429,237.600 371.200 C 237.600 370.980,238.230 370.800,239.000 370.800 C 239.770 370.800,240.400 370.620,240.400 370.400 C 240.400 370.180,240.771 370.000,241.224 370.000 C 241.677 370.000,241.945 369.835,241.820 369.632 C 241.695 369.430,241.864 368.993,242.196 368.661 C 242.528 368.329,242.800 367.864,242.800 367.629 C 242.800 367.393,243.070 367.200,243.400 367.200 C 243.730 367.200,244.000 366.855,244.000 366.433 C 244.000 366.012,244.204 365.599,244.452 365.516 C 245.013 365.329,244.944 357.465,244.380 357.267 C 244.171 357.193,244.000 356.783,244.000 356.354 C 244.000 355.926,243.720 355.467,243.377 355.336 C 243.034 355.204,242.845 354.859,242.957 354.569 C 243.085 354.233,242.948 354.122,242.580 354.263 C 242.186 354.414,242.000 354.214,242.000 353.643 C 242.000 353.083,241.746 352.800,241.243 352.800 C 240.826 352.800,240.375 352.511,240.239 352.158 C 240.096 351.784,239.739 351.615,239.381 351.752 C 239.035 351.885,238.671 351.729,238.542 351.393 C 238.272 350.690,231.200 350.504,231.200 351.200 M249.200 364.800 L 249.200 378.800 252.200 378.800 L 255.200 378.800 255.200 374.320 C 255.200 370.836,255.307 369.947,255.680 370.320 C 255.944 370.584,256.574 370.800,257.080 370.800 C 257.586 370.800,258.000 370.980,258.000 371.200 C 258.000 371.420,258.540 371.600,259.200 371.600 C 259.860 371.600,260.400 371.782,260.400 372.003 C 260.400 372.247,260.707 372.215,261.174 371.923 C 261.600 371.657,261.859 371.296,261.751 371.120 C 261.642 370.944,262.064 370.800,262.688 370.800 C 263.365 370.800,264.056 370.477,264.400 370.000 C 264.717 369.560,265.217 369.200,265.512 369.200 C 265.806 369.200,265.936 369.020,265.800 368.800 C 265.664 368.580,265.828 368.400,266.164 368.400 C 266.543 368.400,266.687 368.172,266.545 367.800 C 266.418 367.470,266.514 367.200,266.757 367.200 C 267.001 367.200,267.200 366.660,267.200 366.000 C 267.200 365.340,267.380 364.800,267.600 364.800 C 267.840 364.800,268.000 363.200,268.000 360.800 C 268.000 358.400,267.840 356.800,267.600 356.800 C 267.380 356.800,267.200 356.344,267.200 355.787 C 267.200 355.161,266.661 354.235,265.791 353.364 C 265.015 352.589,264.476 351.801,264.591 351.614 C 264.707 351.428,264.461 351.364,264.046 351.472 C 263.630 351.581,263.169 351.474,263.022 351.235 C 262.681 350.684,257.200 350.651,257.200 351.200 C 257.200 351.420,256.834 351.600,256.387 351.600 C 255.941 351.600,255.471 351.870,255.345 352.200 C 254.982 353.146,254.400 352.900,254.400 351.800 C 254.400 350.836,254.307 350.800,251.800 350.800 L 249.200 350.800 249.200 364.800 M156.496 355.995 C 156.223 356.432,156.000 357.602,156.000 358.595 L 156.000 360.400 165.200 360.400 L 174.400 360.400 174.400 358.424 C 174.400 357.337,174.217 356.334,173.993 356.196 C 173.770 356.058,173.691 355.777,173.817 355.572 C 173.956 355.347,170.681 355.200,165.520 355.200 C 157.445 355.200,156.966 355.242,156.496 355.995 M235.600 356.400 C 235.600 356.620,235.883 356.800,236.229 356.800 C 237.587 356.800,238.000 357.846,237.995 361.271 L 237.990 364.600 236.601 365.500 C 235.158 366.435,233.600 366.694,233.600 366.000 C 233.600 365.780,233.330 365.600,233.000 365.600 C 232.667 365.600,232.400 365.244,232.400 364.800 C 232.400 364.360,232.223 364.000,232.006 364.000 C 231.780 364.000,231.626 362.722,231.644 361.000 C 231.660 359.350,231.838 358.000,232.037 358.000 C 232.237 358.000,232.400 357.711,232.400 357.357 C 232.400 356.943,232.619 356.798,233.015 356.950 C 233.365 357.085,233.728 356.931,233.858 356.593 C 234.111 355.934,235.600 355.769,235.600 356.400 M259.700 356.646 C 260.085 356.782,260.400 357.232,260.400 357.647 C 260.400 358.061,260.589 358.400,260.819 358.400 C 261.079 358.400,261.193 359.348,261.119 360.900 C 261.044 362.470,260.826 363.400,260.533 363.400 C 260.277 363.400,259.917 363.564,259.733 363.764 C 259.538 363.978,259.620 364.001,259.934 363.820 C 260.326 363.593,260.432 363.760,260.334 364.452 C 260.254 365.012,259.877 365.453,259.400 365.542 C 258.960 365.625,258.489 365.868,258.354 366.083 C 258.106 366.476,256.765 365.889,255.715 364.929 C 254.117 363.467,255.312 356.800,257.171 356.800 C 257.627 356.800,258.000 356.605,258.000 356.367 C 258.000 356.128,258.225 356.038,258.500 356.166 C 258.775 356.295,259.315 356.511,259.700 356.646 " stroke="none" fill="#333333" fill-rule="evenodd">
        </path>
    </g>
</svg>