<?xml version="1.0" encoding="UTF-8"?>
<svg version="1.1" xmlns="http://www.w3.org/2000/svg" width="767" height="767">
<path d="M0 0 C2.24277795 -0.00461974 4.48555286 -0.0109798 6.72832155 -0.01890898 C12.83566086 -0.0354779 18.94274746 -0.02741291 25.05008721 -0.0149641 C30.97776257 -0.00680166 36.90539734 -0.01753035 42.83306329 -0.02755357 C55.69170039 -0.04853007 68.5502576 -0.04682564 81.40890215 -0.03523792 C92.6621821 -0.02514755 103.91543288 -0.02256195 115.16871643 -0.02732849 C115.91722544 -0.02763403 116.66573446 -0.02793957 117.43692556 -0.02825437 C120.47590686 -0.02949987 123.51488815 -0.03077349 126.55386941 -0.03209343 C155.02077369 -0.04431002 183.4876273 -0.03326644 211.95452375 -0.01170584 C237.20648535 0.00727443 262.45836625 0.00557583 287.71032715 -0.0135498 C316.1275155 -0.03500118 344.54465914 -0.04344338 372.96185446 -0.03110075 C375.99507235 -0.02981802 379.02829026 -0.02856665 382.06150818 -0.02732849 C382.80828042 -0.02701218 383.55505267 -0.02669587 384.32445437 -0.02636998 C395.56645867 -0.02183363 406.8084305 -0.02711584 418.0504303 -0.0372467 C430.84216972 -0.04871716 443.63381727 -0.04575353 456.42554533 -0.02412373 C462.94551238 -0.01346053 469.46534999 -0.00943046 475.98531914 -0.02272034 C481.96501468 -0.03472415 487.94439706 -0.02795089 493.92406458 -0.00681013 C496.07589138 -0.00237773 498.22774518 -0.0045336 500.37955433 -0.01431328 C517.31424003 -0.08531647 534.03461842 1.4568388 549.9276123 7.75793457 C550.70056641 8.05530518 551.47352051 8.35267578 552.26989746 8.65905762 C584.03202115 21.22598143 609.36362843 46.13489533 623.21569824 77.32775879 C626.04921253 84.19618512 628.25985655 91.31816749 630.1151123 98.50793457 C630.38619571 99.54141405 630.38619571 99.54141405 630.66275555 100.59577191 C632.89823751 110.7600889 632.40211451 121.18456337 632.38926697 131.53158569 C632.39372253 133.79062995 632.39903763 136.04967265 632.40513569 138.30871308 C632.41928805 144.50279344 632.4209795 150.69682356 632.42053878 156.89091778 C632.4220198 162.88979199 632.43283474 168.88864525 632.44323008 174.88750887 C632.4679284 189.42852172 632.47674847 203.9695231 632.48176657 218.51055404 C632.48202775 219.26302753 632.48228892 220.01550101 632.48255801 220.79077673 C632.48281829 221.54482106 632.48307856 222.2988654 632.48334672 223.07575956 C632.48643316 231.44444049 632.49293944 239.81311828 632.4995594 248.18179703 C632.51920398 273.47634921 632.53560987 298.770898 632.53843594 324.0654583 C632.53853 324.87399282 632.53862406 325.68252734 632.53872097 326.5155629 C632.53909943 329.79197006 632.53946343 333.06837722 632.53982395 336.34478438 C632.54009566 338.81062611 632.54037234 341.27646784 632.54064941 343.74230957 C632.54073744 344.55712052 632.54082546 345.37193147 632.54091615 346.21143366 C632.54381983 371.797606 632.56590212 397.38370271 632.60217285 422.96984863 C632.64295655 451.74002527 632.66659493 480.51015037 632.66689545 509.28035748 C632.66699226 512.35220981 632.66715898 515.42406213 632.66737556 518.49591446 C632.66741968 519.25223669 632.66746379 520.00855891 632.66750924 520.78779999 C632.66862615 532.92577247 632.68599204 545.0636688 632.70919488 557.2016168 C632.73211047 569.41652945 632.73621575 581.63133991 632.72164559 593.8462662 C632.71424353 600.45543731 632.7152632 607.06440222 632.73805618 613.67355919 C632.75876371 619.73636003 632.75593607 625.79869914 632.73518134 631.86149563 C632.7317089 634.04255242 632.73649981 636.22364333 632.75088578 638.40465544 C632.96416132 672.9973447 621.00225287 703.26038734 597.1151123 728.50793457 C596.35585449 729.33164551 595.59659668 730.15535645 594.81433105 731.00402832 C581.28799189 745.19450853 564.18207655 755.01624958 545.7401123 761.38293457 C544.96401611 761.65710205 544.18791992 761.93126953 543.38830566 762.21374512 C527.22965485 767.46094889 510.51263455 767.94713886 493.6854248 767.8888855 C491.47992217 767.89234985 489.27442128 767.89711959 487.06892395 767.90306723 C481.06004489 767.91550005 475.05131021 767.90944224 469.04243088 767.90010858 C463.21127491 767.89398896 457.38014864 767.90203194 451.54899681 767.90955067 C438.89900341 767.92528658 426.24905569 767.92400329 413.59905803 767.91531393 C402.52839547 767.90774738 391.45774958 767.9058064 380.38708496 767.90938187 C379.28271632 767.9097256 379.28271632 767.9097256 378.15603721 767.91007628 C375.16687589 767.91101039 372.17771458 767.9119656 369.18855327 767.91295557 C341.18600386 767.92211885 313.18348342 767.91383399 285.18093848 767.89766488 C260.33866841 767.88342959 235.49644448 767.88470353 210.6541748 767.89904785 C182.70066114 767.91513496 154.74717304 767.92146882 126.7936554 767.91221106 C123.81015015 767.911249 120.8266449 767.91031048 117.84313965 767.90938187 C117.10860184 767.90914463 116.37406402 767.9089074 115.61726749 767.90866298 C104.55746002 767.90526013 93.49767111 767.90922348 82.43786621 767.91682053 C69.8539642 767.92542174 57.27011473 767.92320406 44.68621922 767.90697829 C38.27170793 767.89912013 31.85729003 767.89596202 25.44277954 767.90592575 C19.5606007 767.9149241 13.67860102 767.90985572 7.79643822 767.89399309 C5.67891808 767.89066694 3.56138252 767.89228995 1.44387245 767.89962046 C-37.51861845 768.02406055 -71.15681394 756.49797104 -99.5723877 729.25793457 C-112.96398225 715.35581002 -123.09667318 698.59307688 -129.3223877 680.32043457 C-129.54515381 679.66969971 -129.76791992 679.01896484 -129.99743652 678.34851074 C-134.73480126 663.32951278 -135.32026638 648.70632233 -135.27256775 633.10406494 C-135.27674719 630.8647406 -135.28222803 628.62541839 -135.28888756 626.38610005 C-135.30328088 620.26976467 -135.29911658 614.15356475 -135.29172075 608.03722215 C-135.28746433 602.10646036 -135.29731494 596.17572577 -135.30662837 590.24497344 C-135.32624338 577.37419022 -135.32865258 564.50344738 -135.32343317 551.63265278 C-135.31886698 540.36637618 -135.31948637 529.10011551 -135.32527351 517.83383942 C-135.3260304 516.31961835 -135.32678638 514.80539728 -135.32754146 513.29117621 C-135.32868672 511.00906328 -135.3298366 508.72695035 -135.3310007 506.44483742 C-135.34169795 485.24150716 -135.34643898 464.03818219 -135.33853054 442.83485031 C-135.33823337 442.03641781 -135.33793619 441.23798532 -135.33763002 440.4153579 C-135.33518136 433.93252256 -135.33256963 427.44968728 -135.32994588 420.96685201 C-135.31984656 395.68869153 -135.32819603 370.4105975 -135.35144043 345.13244629 C-135.37754683 316.69624626 -135.39035186 288.26008621 -135.38325268 259.82387376 C-135.38253668 256.78834677 -135.38186229 253.75281978 -135.38121223 250.71729279 C-135.38104243 249.96993454 -135.38087262 249.2225763 -135.38069766 248.45257083 C-135.37840037 237.19999121 -135.38634442 225.94744888 -135.39950371 214.69487762 C-135.41445399 201.88840692 -135.41520611 189.08202325 -135.3974328 176.27555433 C-135.38874442 169.74751071 -135.38673735 163.21959905 -135.40208435 156.69156075 C-135.41598519 150.7043094 -135.41109894 144.71736524 -135.39184511 138.73013142 C-135.38810132 136.57549104 -135.39095972 134.42082573 -135.40145677 132.26620767 C-135.47790975 115.3580993 -133.94069135 98.64344258 -127.6973877 82.75793457 C-127.40259521 81.98755859 -127.10780273 81.21718262 -126.80407715 80.42346191 C-121.51211827 67.08185929 -113.99348815 55.52934112 -104.8848877 44.50793457 C-104.2558252 43.7370752 -103.6267627 42.96621582 -102.9786377 42.17199707 C-91.20987125 28.20996052 -75.5021993 17.77927713 -58.8848877 10.50793457 C-58.24470703 10.22579102 -57.60452637 9.94364746 -56.94494629 9.6529541 C-38.50580448 1.70900293 -19.89321892 -0.09041201 0 0 Z " fill="#980000" transform="translate(134.8848876953125,-0.5079345703125)"/>
<path d="M0 0 C2.24277795 -0.00461974 4.48555286 -0.0109798 6.72832155 -0.01890898 C12.83566086 -0.0354779 18.94274746 -0.02741291 25.05008721 -0.0149641 C30.97776257 -0.00680166 36.90539734 -0.01753035 42.83306329 -0.02755357 C55.69170039 -0.04853007 68.5502576 -0.04682564 81.40890215 -0.03523792 C92.6621821 -0.02514755 103.91543288 -0.02256195 115.16871643 -0.02732849 C115.91722544 -0.02763403 116.66573446 -0.02793957 117.43692556 -0.02825437 C120.47590686 -0.02949987 123.51488815 -0.03077349 126.55386941 -0.03209343 C155.02077369 -0.04431002 183.4876273 -0.03326644 211.95452375 -0.01170584 C237.20648535 0.00727443 262.45836625 0.00557583 287.71032715 -0.0135498 C316.1275155 -0.03500118 344.54465914 -0.04344338 372.96185446 -0.03110075 C375.99507235 -0.02981802 379.02829026 -0.02856665 382.06150818 -0.02732849 C382.80828042 -0.02701218 383.55505267 -0.02669587 384.32445437 -0.02636998 C395.56645867 -0.02183363 406.8084305 -0.02711584 418.0504303 -0.0372467 C430.84216972 -0.04871716 443.63381727 -0.04575353 456.42554533 -0.02412373 C462.94551238 -0.01346053 469.46534999 -0.00943046 475.98531914 -0.02272034 C481.96501468 -0.03472415 487.94439706 -0.02795089 493.92406458 -0.00681013 C496.07589138 -0.00237773 498.22774518 -0.0045336 500.37955433 -0.01431328 C517.31424003 -0.08531647 534.03461842 1.4568388 549.9276123 7.75793457 C550.70056641 8.05530518 551.47352051 8.35267578 552.26989746 8.65905762 C584.03202115 21.22598143 609.36362843 46.13489533 623.21569824 77.32775879 C626.04921253 84.19618512 628.25985655 91.31816749 630.1151123 98.50793457 C630.38619571 99.54141405 630.38619571 99.54141405 630.66275555 100.59577191 C632.89823751 110.7600889 632.40211451 121.18456337 632.38926697 131.53158569 C632.39372253 133.79062995 632.39903763 136.04967265 632.40513569 138.30871308 C632.41928805 144.50279344 632.4209795 150.69682356 632.42053878 156.89091778 C632.4220198 162.88979199 632.43283474 168.88864525 632.44323008 174.88750887 C632.4679284 189.42852172 632.47674847 203.9695231 632.48176657 218.51055404 C632.48202775 219.26302753 632.48228892 220.01550101 632.48255801 220.79077673 C632.48281829 221.54482106 632.48307856 222.2988654 632.48334672 223.07575956 C632.48643316 231.44444049 632.49293944 239.81311828 632.4995594 248.18179703 C632.51920398 273.47634921 632.53560987 298.770898 632.53843594 324.0654583 C632.53853 324.87399282 632.53862406 325.68252734 632.53872097 326.5155629 C632.53909943 329.79197006 632.53946343 333.06837722 632.53982395 336.34478438 C632.54009566 338.81062611 632.54037234 341.27646784 632.54064941 343.74230957 C632.54073744 344.55712052 632.54082546 345.37193147 632.54091615 346.21143366 C632.54381983 371.797606 632.56590212 397.38370271 632.60217285 422.96984863 C632.64295655 451.74002527 632.66659493 480.51015037 632.66689545 509.28035748 C632.66699226 512.35220981 632.66715898 515.42406213 632.66737556 518.49591446 C632.66741968 519.25223669 632.66746379 520.00855891 632.66750924 520.78779999 C632.66862615 532.92577247 632.68599204 545.0636688 632.70919488 557.2016168 C632.73211047 569.41652945 632.73621575 581.63133991 632.72164559 593.8462662 C632.71424353 600.45543731 632.7152632 607.06440222 632.73805618 613.67355919 C632.75876371 619.73636003 632.75593607 625.79869914 632.73518134 631.86149563 C632.7317089 634.04255242 632.73649981 636.22364333 632.75088578 638.40465544 C632.96416132 672.9973447 621.00225287 703.26038734 597.1151123 728.50793457 C596.35585449 729.33164551 595.59659668 730.15535645 594.81433105 731.00402832 C581.28799189 745.19450853 564.18207655 755.01624958 545.7401123 761.38293457 C544.96401611 761.65710205 544.18791992 761.93126953 543.38830566 762.21374512 C527.22965485 767.46094889 510.51263455 767.94713886 493.6854248 767.8888855 C491.47992217 767.89234985 489.27442128 767.89711959 487.06892395 767.90306723 C481.06004489 767.91550005 475.05131021 767.90944224 469.04243088 767.90010858 C463.21127491 767.89398896 457.38014864 767.90203194 451.54899681 767.90955067 C438.89900341 767.92528658 426.24905569 767.92400329 413.59905803 767.91531393 C402.52839547 767.90774738 391.45774958 767.9058064 380.38708496 767.90938187 C379.28271632 767.9097256 379.28271632 767.9097256 378.15603721 767.91007628 C375.16687589 767.91101039 372.17771458 767.9119656 369.18855327 767.91295557 C341.18600386 767.92211885 313.18348342 767.91383399 285.18093848 767.89766488 C260.33866841 767.88342959 235.49644448 767.88470353 210.6541748 767.89904785 C182.70066114 767.91513496 154.74717304 767.92146882 126.7936554 767.91221106 C123.81015015 767.911249 120.8266449 767.91031048 117.84313965 767.90938187 C117.10860184 767.90914463 116.37406402 767.9089074 115.61726749 767.90866298 C104.55746002 767.90526013 93.49767111 767.90922348 82.43786621 767.91682053 C69.8539642 767.92542174 57.27011473 767.92320406 44.68621922 767.90697829 C38.27170793 767.89912013 31.85729003 767.89596202 25.44277954 767.90592575 C19.5606007 767.9149241 13.67860102 767.90985572 7.79643822 767.89399309 C5.67891808 767.89066694 3.56138252 767.89228995 1.44387245 767.89962046 C-37.51861845 768.02406055 -71.15681394 756.49797104 -99.5723877 729.25793457 C-112.96398225 715.35581002 -123.09667318 698.59307688 -129.3223877 680.32043457 C-129.54515381 679.66969971 -129.76791992 679.01896484 -129.99743652 678.34851074 C-134.73480126 663.32951278 -135.32026638 648.70632233 -135.27256775 633.10406494 C-135.27674719 630.8647406 -135.28222803 628.62541839 -135.28888756 626.38610005 C-135.30328088 620.26976467 -135.29911658 614.15356475 -135.29172075 608.03722215 C-135.28746433 602.10646036 -135.29731494 596.17572577 -135.30662837 590.24497344 C-135.32624338 577.37419022 -135.32865258 564.50344738 -135.32343317 551.63265278 C-135.31886698 540.36637618 -135.31948637 529.10011551 -135.32527351 517.83383942 C-135.3260304 516.31961835 -135.32678638 514.80539728 -135.32754146 513.29117621 C-135.32868672 511.00906328 -135.3298366 508.72695035 -135.3310007 506.44483742 C-135.34169795 485.24150716 -135.34643898 464.03818219 -135.33853054 442.83485031 C-135.33823337 442.03641781 -135.33793619 441.23798532 -135.33763002 440.4153579 C-135.33518136 433.93252256 -135.33256963 427.44968728 -135.32994588 420.96685201 C-135.31984656 395.68869153 -135.32819603 370.4105975 -135.35144043 345.13244629 C-135.37754683 316.69624626 -135.39035186 288.26008621 -135.38325268 259.82387376 C-135.38253668 256.78834677 -135.38186229 253.75281978 -135.38121223 250.71729279 C-135.38104243 249.96993454 -135.38087262 249.2225763 -135.38069766 248.45257083 C-135.37840037 237.19999121 -135.38634442 225.94744888 -135.39950371 214.69487762 C-135.41445399 201.88840692 -135.41520611 189.08202325 -135.3974328 176.27555433 C-135.38874442 169.74751071 -135.38673735 163.21959905 -135.40208435 156.69156075 C-135.41598519 150.7043094 -135.41109894 144.71736524 -135.39184511 138.73013142 C-135.38810132 136.57549104 -135.39095972 134.42082573 -135.40145677 132.26620767 C-135.47790975 115.3580993 -133.94069135 98.64344258 -127.6973877 82.75793457 C-127.40259521 81.98755859 -127.10780273 81.21718262 -126.80407715 80.42346191 C-121.51211827 67.08185929 -113.99348815 55.52934112 -104.8848877 44.50793457 C-104.2558252 43.7370752 -103.6267627 42.96621582 -102.9786377 42.17199707 C-91.20987125 28.20996052 -75.5021993 17.77927713 -58.8848877 10.50793457 C-58.24470703 10.22579102 -57.60452637 9.94364746 -56.94494629 9.6529541 C-38.50580448 1.70900293 -19.89321892 -0.09041201 0 0 Z M-60.8848877 89.50793457 C-75.82488321 107.26817791 -86.07216918 131.24199359 -86.01631546 154.60416222 C-86.01836809 155.40658086 -86.02042073 156.20899951 -86.02253556 157.03573388 C-86.02819811 159.72939427 -86.02674922 162.42300341 -86.02532959 165.1166687 C-86.02791367 167.06559992 -86.03092695 169.01453061 -86.03433299 170.96346056 C-86.04240152 176.32336328 -86.04419249 181.68325261 -86.04493046 187.04316068 C-86.04678131 192.82255999 -86.05432891 198.60195236 -86.06106567 204.38134766 C-86.07464942 217.02215845 -86.08067404 229.66296607 -86.08507633 242.30378294 C-86.08783921 250.19867361 -86.0920767 258.09356306 -86.09658051 265.98845291 C-86.10877422 287.85146959 -86.11910805 309.71448512 -86.1224556 331.57750511 C-86.12267723 332.9910526 -86.12289901 334.40460009 -86.12312095 335.81814758 C-86.12334159 337.23506616 -86.12356207 338.65198474 -86.1237824 340.06890333 C-86.12422494 342.91137338 -86.12467206 345.75384343 -86.12512207 348.59631348 C-86.12523146 349.30107945 -86.12534085 350.00584542 -86.12545356 350.73196794 C-86.12908197 373.56990549 -86.14499363 396.40781126 -86.16831243 419.24573664 C-86.19293563 443.40546615 -86.20662963 467.5651775 -86.20782351 491.72491992 C-86.20873952 504.88889024 -86.21447304 518.05281895 -86.23264313 531.2167778 C-86.24806476 542.42902474 -86.25315246 553.64121722 -86.24490502 564.85347275 C-86.24100559 570.57083996 -86.24189359 576.28809757 -86.25596237 582.0054512 C-86.26874375 587.24774423 -86.26746664 592.48984578 -86.25537166 597.73213871 C-86.25342196 599.62052409 -86.25645914 601.50892324 -86.26521602 603.39728932 C-86.32849555 617.9755783 -85.33802932 632.0642904 -79.6348877 645.69543457 C-79.33042725 646.44462158 -79.0259668 647.19380859 -78.71228027 647.96569824 C-66.52047487 677.32959094 -44.5952109 698.81843734 -15.2677002 711.01184082 C1.07665879 716.89932497 17.86791225 717.95704735 35.09060669 717.8888855 C37.029423 717.89235161 38.96823733 717.89712252 40.90704763 717.90306723 C46.17869251 717.9154757 51.45017238 717.90945365 56.72181749 717.90010858 C62.42875766 717.89327646 68.1356709 717.90381974 73.84260559 717.91204834 C84.99981127 717.92534322 96.15695618 717.92252707 107.31416418 717.91381042 C116.38584325 717.90701819 125.45750536 717.90612379 134.52918625 717.90938187 C135.82334807 717.90984157 137.1175099 717.91030126 138.45088875 717.91077489 C141.08043517 717.91173413 143.70998159 717.91270677 146.33952801 717.91369267 C170.25786703 717.92199077 194.17617333 717.91340554 218.09450708 717.89766488 C239.895664 717.8834266 261.69676834 717.88470679 283.4979248 717.89904785 C308.0359216 717.91513559 332.57388664 717.92141343 357.11188829 717.91221106 C359.73081549 717.91125547 362.34974269 717.91031236 364.96866989 717.90938187 C366.25704073 717.90891904 367.54541158 717.90845621 368.87282396 717.90797936 C377.92907435 717.90539477 386.98530601 717.90974895 396.0415535 717.91682053 C407.08438331 717.9252543 418.12714919 717.92291582 429.16997172 717.90697829 C434.79843619 717.89912135 440.42679424 717.89595992 446.0552578 717.90592575 C451.21690972 717.91492651 456.37835753 717.90985193 461.53999119 717.89399309 C463.39771948 717.89066798 465.25546535 717.89228756 467.11318214 717.89962046 C482.00135461 717.9538368 496.66463593 716.86193429 510.6776123 711.38293457 C511.853479 710.93289063 511.853479 710.93289063 513.05310059 710.47375488 C526.83486551 705.01226775 538.26766794 697.54914996 549.1151123 687.50793457 C549.92464355 686.77961426 550.7341748 686.05129395 551.5682373 685.30090332 C562.93645113 674.58854798 570.10119528 661.73732458 576.1151123 647.50793457 C576.53663574 646.5308252 576.95815918 645.55371582 577.39245605 644.54699707 C583.0286986 630.38194977 583.55685727 615.83054592 583.50952148 600.81968689 C583.5144205 598.8753606 583.52061495 596.93103723 583.52797937 594.98671871 C583.5442741 589.68568514 583.54208243 584.38480131 583.5366044 579.08375156 C583.53392117 573.35005137 583.54849026 567.61638994 583.56069946 561.88270569 C583.58170211 550.66493 583.58629725 539.44720606 583.58451158 528.22941303 C583.5832012 519.10479481 583.58702214 509.98019266 583.59443665 500.85557747 C583.59653597 498.22184549 583.59863357 495.58811351 583.60072947 492.95438153 C583.60177299 491.64326439 583.60281652 490.33214725 583.60389167 488.98129929 C583.61741474 471.24154498 583.62502284 453.50179755 583.62056732 435.76203823 C583.62039537 435.06926447 583.62022341 434.37649071 583.62004625 433.6627238 C583.61915746 430.15206889 583.61821264 426.641414 583.61724824 423.13075911 C583.6170572 422.43362657 583.61686617 421.73649402 583.61666935 421.01823625 C583.61628225 419.60846616 583.61589192 418.19869607 583.61549837 416.78892598 C583.60953229 394.86733815 583.62495489 372.945856 583.65710449 351.02429199 C583.69325952 326.35111408 583.71245973 301.67800571 583.70756578 277.00479943 C583.70532686 263.95754345 583.71047951 250.91039219 583.73545837 237.86315727 C583.75654788 226.7534243 583.75998798 215.64385345 583.74115878 204.53411364 C583.73204756 198.8744748 583.73071534 193.21513763 583.75151443 187.55552292 C584.03575035 147.26196963 584.03575035 147.26196963 571.1151123 109.50793457 C570.78527344 108.87452148 570.45543457 108.2411084 570.11560059 107.58850098 C564.77732777 97.53327451 558.08941806 89.57247292 550.1151123 81.50793457 C549.52343262 80.84406738 548.93175293 80.1802002 548.32214355 79.49621582 C531.4990257 60.94321438 503.12511073 51.63743287 478.86433743 50.39243041 C473.11978647 50.21257181 467.37444364 50.23427122 461.62773132 50.24723816 C459.70530513 50.24421124 457.78288014 50.24031907 455.86045724 50.23564559 C450.62013405 50.22542651 445.37987973 50.22753176 440.13955104 50.23182619 C434.47137851 50.23430453 428.80322208 50.22526556 423.13505554 50.2177887 C412.04696604 50.20507054 400.95890079 50.20324439 389.87080523 50.20558896 C380.85389847 50.20737545 371.83699904 50.20561539 362.82009315 50.20136452 C361.53442839 50.20076933 360.24876363 50.20017414 358.92413932 50.19956091 C356.31191076 50.1983491 353.6996822 50.19713497 351.08745364 50.19591854 C333.56125997 50.18813745 316.03507076 50.18420788 298.50887585 50.18823528 C297.82449837 50.18839166 297.1401209 50.18854803 296.43500471 50.18870915 C292.96685725 50.18951485 289.49870981 50.19036062 286.03056236 50.19122245 C284.99751282 50.19147908 284.99751282 50.19147908 283.94359358 50.1917409 C282.55087829 50.19208756 281.158163 50.19243609 279.76544771 50.19278649 C258.09902749 50.19814262 236.43264798 50.19021278 214.76623535 50.17175293 C190.38462507 50.1510037 166.00304614 50.14034682 141.62142545 50.14432842 C128.72634879 50.14623762 115.83130921 50.14378026 102.93623924 50.12961388 C91.95890801 50.11767575 80.9816367 50.11632247 70.00430461 50.12840404 C64.41003954 50.13427553 58.81588393 50.13544018 53.22162628 50.12340164 C48.08874433 50.11248483 42.95606247 50.11571454 37.82318965 50.12966333 C35.97812008 50.13229437 34.13303452 50.12999454 32.2879807 50.12192746 C-4.49363612 49.97242232 -36.11750759 61.56045279 -60.8848877 89.50793457 Z " fill="#980000" transform="translate(134.8848876953125,-0.5079345703125)"/>
<path d="M0 0 C17.49 0 34.98 0 53 0 C56.34195241 8.02068578 59.50667048 15.96350631 62.37890625 24.14453125 C62.98551086 25.85804276 62.98551086 25.85804276 63.60437012 27.60617065 C64.69833706 30.69670785 65.78965404 33.78816658 66.88020706 36.87990952 C68.99607031 42.87307896 71.12340893 48.86219331 73.25 54.8515625 C73.4903554 55.52875776 73.73071079 56.20595303 73.97834969 56.90366936 C78.93281213 70.85849084 83.98431489 84.77723861 89.0625 98.6875 C96.38095194 118.74152617 103.60413994 138.8277766 110.76919556 158.93710327 C117.43780437 177.65243086 124.16587394 196.3444529 131 215 C133.85843328 212.14156672 134.69746708 208.64230673 135.9921875 204.89453125 C136.28971924 204.04914795 136.58725098 203.20376465 136.89379883 202.33276367 C137.54612844 200.47817638 138.19597432 198.62271411 138.84368896 196.76651001 C140.63282156 191.64185275 142.44213849 186.52432397 144.25 181.40625 C144.82498734 179.77669121 144.82498734 179.77669121 145.41159058 178.11421204 C149.81689214 165.65030302 154.3446464 153.23137523 158.875 140.8125 C160.57745048 136.1421556 162.27919961 131.4715561 163.98046875 126.80078125 C164.40047653 125.64769974 164.82048431 124.49461823 165.2532196 123.30659485 C169.59397576 111.38160817 173.8942575 99.44215928 178.1875 87.5 C179.6548768 83.41924526 181.12233731 79.33852062 182.58984375 75.2578125 C182.95011658 74.25595413 183.3103894 73.25409576 183.68157959 72.22187805 C187.49349952 61.62385911 191.31536115 51.02943991 195.14346313 40.43725586 C195.86710992 38.43461892 196.59041113 36.43185707 197.31332397 34.42895508 C198.31729006 31.64759851 199.32254381 28.86671048 200.328125 26.0859375 C200.61180435 25.2993576 200.8954837 24.51277771 201.1877594 23.70236206 C204.05775043 15.77486281 207.03892336 7.89620437 210 0 C227.49 0 244.98 0 263 0 C263 85.8 263 171.6 263 260 C251.45 260 239.9 260 228 260 C227.67 190.37 227.34 120.74 227 49 C220.73 66.49 214.46 83.98 208 102 C203.09915177 115.56876638 198.19726121 129.13706339 193.28222656 142.70068359 C190.36514309 150.75168766 187.45007484 158.80342126 184.53515625 166.85520935 C182.30324108 173.02022986 180.07075889 179.18504363 177.83691406 185.34936523 C173.95285574 196.06916385 170.07201011 206.79003381 166.21514893 217.51965332 C164.64056424 221.90007451 163.06357527 226.27962864 161.48657227 230.65917969 C160.75295753 232.69905725 160.02067033 234.73941279 159.28979492 236.78027344 C158.28760702 239.57865994 157.28098941 242.37541621 156.2734375 245.171875 C155.9837912 245.98468933 155.6941449 246.79750366 155.39572144 247.63494873 C155.12253082 248.3906012 154.84934021 249.14625366 154.56787109 249.92480469 C154.33587006 250.57149109 154.10386902 251.21817749 153.86483765 251.88446045 C152.73103517 254.6579336 151.33997473 257.32005054 150 260 C137.79 260 125.58 260 113 260 C109.81277062 252.35064948 106.75025002 244.78565268 103.98828125 236.9921875 C103.62280182 235.96935165 103.25732239 234.94651581 102.88076782 233.89268494 C102.09685598 231.69771734 101.31435999 229.50224364 100.53317261 227.30630493 C99.28412378 223.79523457 98.03136467 220.28550769 96.77758789 216.77612305 C95.47328085 213.12529117 94.16915621 209.47439576 92.86613464 205.82310486 C88.57919107 193.81141441 84.26131847 181.81095613 79.9375 169.8125 C78.82149601 166.71465268 77.70558241 163.61677281 76.5896759 160.51889038 C75.84589866 158.45411478 75.1020735 156.38935643 74.35820007 154.32461548 C71.71391194 146.98432598 69.07314536 139.64277513 66.43359375 132.30078125 C65.28131982 129.09668875 64.12897195 125.89262285 62.97659302 122.68856812 C62.27374824 120.73393259 61.57114725 118.77920939 60.86886597 116.82437134 C52.97744428 94.85918004 44.9763016 72.93482941 37 51 C36.67 120.3 36.34 189.6 36 261 C24.12 261 12.24 261 0 261 C0 174.87 0 88.74 0 0 Z " fill="#FEFCFC" transform="translate(152,230)"/>
<path d="M0 0 C2.08603646 0.01682531 4.17210895 0.02961789 6.25819397 0.03858948 C11.69897933 0.07264554 17.13753713 0.1607783 22.57745361 0.26092529 C28.14833455 0.35366618 33.71958214 0.39424001 39.29101562 0.43945312 C50.18602266 0.53543254 61.07880413 0.69348033 71.97265625 0.87890625 C71.97265625 11.76890625 71.97265625 22.65890625 71.97265625 33.87890625 C38.97265625 33.87890625 5.97265625 33.87890625 -28.02734375 33.87890625 C-28.02734375 48.06890625 -28.02734375 62.25890625 -28.02734375 76.87890625 C-23.83015625 76.71648437 -19.63296875 76.5540625 -15.30859375 76.38671875 C-11.88585061 76.2961996 -8.46346151 76.22046229 -5.04019165 76.15440369 C-1.46659186 76.08151538 2.1020928 75.98488092 5.67285156 75.82275391 C25.20858499 74.95952398 39.07619371 77.34929515 55.442276 89.11021423 C59.44254751 91.90633481 63.66827721 94.28538093 67.91015625 96.69140625 C74.78565402 100.69190402 74.78565402 100.69190402 75.97265625 101.87890625 C76.06656921 103.78134387 76.09009283 105.68729084 76.08618164 107.59204102 C76.08610611 108.81323135 76.08603058 110.03442169 76.08595276 111.2926178 C76.08084536 112.63518311 76.07562936 113.977748 76.0703125 115.3203125 C76.06844824 116.68651783 76.06702438 118.05272382 76.06602478 119.41893005 C76.06220019 123.0209232 76.05237042 126.62287625 76.0413208 130.22485352 C76.03110541 133.8979437 76.02652689 137.57104034 76.02148438 141.24414062 C76.01074809 148.45574748 75.99367239 155.66732125 75.97265625 162.87890625 C52.13232422 176.50195312 52.13232422 176.50195312 50.22189331 177.54577637 C47.83196581 178.91525112 47.83196581 178.91525112 45.18850708 180.9005127 C34.22963937 188.28914068 24.06256893 187.92245491 11.16796875 187.66015625 C8.99081518 187.64520532 6.81363439 187.63383181 4.63644409 187.62585449 C-1.0490564 187.59554516 -6.73287952 187.5171673 -12.41772461 187.42822266 C-18.23658568 187.34587067 -24.05572212 187.30973818 -29.875 187.26953125 C-41.25996404 187.18414971 -52.64325095 187.04362683 -64.02734375 186.87890625 C-64.02734375 176.31890625 -64.02734375 165.75890625 -64.02734375 154.87890625 C-29.70734375 154.87890625 4.61265625 154.87890625 39.97265625 154.87890625 C39.97265625 139.69890625 39.97265625 124.51890625 39.97265625 108.87890625 C35.78707031 109.04132813 31.60148438 109.20375 27.2890625 109.37109375 C23.87185073 109.46163765 20.45499458 109.53736588 17.03725433 109.60340881 C13.4715379 109.67624244 9.91076123 109.77276383 6.34790039 109.93505859 C-13.52058013 110.81511605 -27.47255063 108.11867681 -44.30038452 96.58172607 C-46.92570199 94.94237534 -49.39012487 93.83515457 -52.28833008 92.77197266 C-57.04249944 90.93750402 -61.13277099 89.24602778 -64.02734375 84.87890625 C-66.77906593 75.94391143 -66.10093551 66.42303833 -65.71923828 57.1918335 C-65.62992306 54.43748573 -65.63769879 51.68701476 -65.64733315 48.93150711 C-65.64912177 45.62607595 -65.57526932 42.32422236 -65.50390625 39.01953125 C-65.49702789 37.79131653 -65.49014954 36.56310181 -65.48306274 35.29766846 C-65.09166098 27.00251132 -65.09166098 27.00251132 -62.07675171 23.81965637 C-59.78358073 22.26570201 -57.53450331 21.04942834 -55.02734375 19.87890625 C-53.59281006 19.06841412 -52.16233682 18.25063923 -50.73828125 17.421875 C-49.29515569 16.63270634 -47.8498386 15.84753185 -46.40234375 15.06640625 C-44.97100914 14.29209954 -43.54138964 13.51461604 -42.11328125 12.734375 C-41.36175278 12.33388947 -40.6102243 11.93340393 -39.83592224 11.52078247 C-36.926495 9.88689171 -36.926495 9.88689171 -34.02381897 7.66220093 C-23.04019884 -0.24632647 -13.18078122 -0.3157861 0 0 Z " fill="#FEFDFD" transform="translate(543.02734375,303.12109375)"/>
<path d="M0 0 C1.96101748 -0.00390407 3.92203211 -0.0095533 5.88304019 -0.0167709 C11.21141258 -0.03138414 16.53948519 -0.02142942 21.86784744 -0.00703418 C27.63746772 0.00415268 33.40704857 -0.00789219 39.17666626 -0.01687622 C50.4544049 -0.03075743 61.73203102 -0.02329095 73.00976422 -0.00820064 C86.15814516 0.00871868 99.30649854 0.00544184 112.454887 0.00170528 C136.62857735 -0.00473268 160.80221196 0.01139251 184.97588712 0.03689292 C207.01216208 0.06001548 229.0483714 0.06539059 251.08465576 0.05516052 C256.73112612 0.05255819 262.37759648 0.04997309 268.02406693 0.0475626 C268.71936423 0.04726515 269.41466153 0.0469677 270.13102845 0.04666124 C288.58537921 0.03903653 307.0397243 0.0455263 325.49407268 0.05625862 C328.14077043 0.05778437 330.78746819 0.05930473 333.43416595 0.06081963 C334.73620307 0.06157744 336.03824019 0.06233525 337.37973298 0.06311603 C346.53464686 0.06784945 355.68954589 0.0660142 364.84445953 0.06175423 C376.00514263 0.05681769 387.16575797 0.06285626 398.32642558 0.08264852 C404.01552784 0.09249055 409.70452712 0.09765901 415.3936348 0.08975601 C420.60947749 0.08265886 425.82511314 0.08959751 431.04092869 0.10735964 C432.91946863 0.11137802 434.79802769 0.11044862 436.67656031 0.10384078 C451.45929167 0.05632453 465.47586374 1.31282194 479.39520264 6.75120544 C480.19063477 7.0549408 480.98606689 7.35867615 481.80560303 7.6716156 C493.62387504 12.29963326 503.82455869 18.50850816 513.70770264 26.50120544 C514.91233154 27.4738031 514.91233154 27.4738031 516.14129639 28.46604919 C536.77178411 45.95011938 550.26625628 72.87032353 553.70770264 99.50120544 C554.21726423 106.04264176 554.11840648 112.60892017 554.09538269 119.16531372 C554.0995631 121.11916417 554.10504447 123.07301219 554.1117025 125.02685577 C554.12608336 130.35874826 554.12193549 135.69048521 554.11453569 141.02238595 C554.10978794 146.78739943 554.12232813 152.55238002 554.1325531 158.31738281 C554.14971579 169.59779358 554.15058625 180.87814857 554.1453402 192.158569 C554.14129206 201.33234003 554.1427497 210.50609463 554.14808846 219.67986488 C554.14883688 220.9875793 554.1495853 222.29529373 554.1503564 223.64263586 C554.15188795 226.29963622 554.1534263 228.95663659 554.15497137 231.61363695 C554.16502249 249.44332934 554.16897011 267.27301587 554.16134548 285.10270977 C554.16089972 286.1472815 554.16089972 286.1472815 554.16044496 287.21295569 C554.15799635 292.86702628 554.1553846 298.52109679 554.15276082 304.17516729 C554.14266339 326.217388 554.15100775 348.25953248 554.17425537 370.30174255 C554.20037184 395.10379567 554.21311449 419.90580246 554.20606762 444.70786983 C554.2025809 457.82600923 554.20477116 470.94408608 554.22231865 484.06221581 C554.23707383 495.2309657 554.23763291 506.39960901 554.22024774 517.56835689 C554.21176215 523.2599795 554.20952825 528.95141198 554.22489929 534.64302444 C554.2388296 539.86610661 554.23387691 545.08883726 554.21466006 550.31189952 C554.21092513 552.18864419 554.21374848 554.0654176 554.22427171 555.94213649 C554.30772939 571.9828127 552.82351325 588.55688423 546.02020264 603.31370544 C545.67698975 604.08665955 545.33377686 604.85961365 544.98016357 605.6559906 C539.11931376 618.51862351 532.04248327 629.09258538 522.07537842 639.11888123 C520.86801532 640.33917574 519.68974903 641.58811134 518.51629639 642.84104919 C513.74061009 647.86757962 508.54163104 651.77306299 502.70770264 655.50120544 C501.74864014 656.13929138 500.78957764 656.77737732 499.80145264 657.43479919 C479.80398965 669.88467603 457.6746007 673.80876858 434.5447998 673.77536011 C432.59654067 673.77981719 430.64828335 673.78513277 428.70002866 673.79122883 C423.36492557 673.8053634 418.02988088 673.80707298 412.69476175 673.80663192 C406.93303132 673.80828419 401.17132465 673.82135853 395.40960693 673.83282471 C382.8182068 673.85564411 370.22682355 673.86359234 357.63540554 673.86865115 C349.7653904 673.87191236 341.89538012 673.87843748 334.02536774 673.88565254 C312.21363336 673.9052161 290.40190403 673.92170249 268.59016037 673.92452908 C267.54455603 673.92467017 267.54455603 673.92467017 266.47782836 673.92481411 C263.65319546 673.92519257 260.82856255 673.92555656 258.00392964 673.92591709 C255.87816907 673.9261888 253.75240851 673.92646548 251.62664795 673.92674255 C250.92421172 673.92683058 250.22177549 673.9269186 249.49805332 673.92700929 C227.44973286 673.92991178 205.40150024 673.95198369 183.35321045 673.98826599 C158.55079371 674.02907991 133.74843723 674.05266876 108.94598508 674.05298859 C95.82599046 674.0535719 82.70610889 674.06198227 69.58614349 674.09098625 C58.41042021 674.1155793 47.23485119 674.12272981 36.05910811 674.10773873 C30.36507016 674.10060171 24.67133633 674.10128795 18.97733307 674.12414932 C-23.32768632 674.28377653 -58.20182871 670.21400947 -89.85479736 639.31370544 C-102.51230432 626.59183516 -110.91289177 611.1452514 -116.66729736 594.25120544 C-116.90601563 593.55551453 -117.14473389 592.85982361 -117.39068604 592.14305115 C-121.42605092 579.61955529 -121.58344613 567.20143629 -121.5597229 554.19113159 C-121.56346395 552.23915894 -121.56806728 550.28718778 -121.57345355 548.33521897 C-121.5856428 542.99464952 -121.58542789 537.65414292 -121.58306479 532.31356275 C-121.58265559 526.54443046 -121.59370567 520.77531803 -121.60317993 515.00619507 C-121.61976882 503.71168377 -121.62528853 492.41719335 -121.62640469 481.12267088 C-121.62735621 471.93785731 -121.63147174 462.75305061 -121.63780594 453.56823921 C-121.65254985 431.74358729 -121.66485628 409.91894069 -121.66380882 388.0942831 C-121.66377767 387.39697868 -121.66374651 386.69967426 -121.66371441 385.9812394 C-121.6635482 382.44739625 -121.66335012 378.9135531 -121.66314499 375.37970995 C-121.6631051 374.67793738 -121.66306521 373.9761648 -121.66302411 373.25312639 C-121.66294324 371.83397172 -121.66285964 370.41481705 -121.66277333 368.99566238 C-121.66154844 346.92708982 -121.67655254 324.85857877 -121.70391846 302.7900238 C-121.73468709 277.96749691 -121.75182274 253.14501073 -121.74999201 228.32246357 C-121.74932906 215.19033421 -121.75477994 202.05827422 -121.77634811 188.92616081 C-121.79459689 177.74377383 -121.79887693 166.56148767 -121.78532927 155.37909221 C-121.77881817 149.67950944 -121.77861512 143.98011988 -121.79603577 138.28055573 C-121.81185393 133.05124426 -121.80881419 127.82227781 -121.7914675 122.59297431 C-121.78841675 120.71279048 -121.79195631 118.83258032 -121.80318765 116.95242756 C-121.98902042 83.60425108 -110.18218211 55.54222746 -86.85479736 31.75120544 C-81.72479771 26.65590286 -76.48278703 22.27969692 -70.29229736 18.50120544 C-69.24686768 17.84636169 -68.20143799 17.19151794 -67.12432861 16.51683044 C-46.37908846 3.86351507 -24.04641246 -0.13488595 0 0 Z M-93.29229736 42.50120544 C-108.23229287 60.26144879 -118.47957885 84.23526447 -118.42372513 107.59743309 C-118.42577776 108.39985174 -118.4278304 109.20227039 -118.42994523 110.02900475 C-118.43560778 112.72266514 -118.43415889 115.41627428 -118.43273926 118.10993958 C-118.43532333 120.05887079 -118.43833661 122.00780148 -118.44174266 123.95673144 C-118.44981119 129.31663416 -118.45160215 134.67652348 -118.45234013 140.03643155 C-118.45419098 145.81583086 -118.46173858 151.59522323 -118.46847534 157.37461853 C-118.48205909 170.01542932 -118.48808371 182.65623694 -118.492486 195.29705381 C-118.49524887 203.19194449 -118.49948636 211.08683394 -118.50399017 218.98172379 C-118.51618389 240.84474046 -118.52651772 262.707756 -118.52986526 284.57077599 C-118.5300869 285.98432347 -118.53030868 287.39787096 -118.53053062 288.81141845 C-118.53075126 290.22833703 -118.53097174 291.64525562 -118.53119206 293.0621742 C-118.53163461 295.90464425 -118.53208173 298.7471143 -118.53253174 301.58958435 C-118.53264113 302.29435032 -118.53275052 302.9991163 -118.53286323 303.72523882 C-118.53649163 326.56317637 -118.5524033 349.40108213 -118.5757221 372.23900752 C-118.6003453 396.39873702 -118.6140393 420.55844837 -118.61523318 444.71819079 C-118.61614919 457.88216111 -118.6218827 471.04608983 -118.6400528 484.21004868 C-118.65547443 495.42229562 -118.66056213 506.6344881 -118.65231469 517.84674363 C-118.64841526 523.56411084 -118.64930326 529.28136844 -118.66337204 534.99872208 C-118.67615342 540.24101511 -118.67487631 545.48311666 -118.66278133 550.72540958 C-118.66083163 552.61379496 -118.6638688 554.50219411 -118.67262569 556.39056019 C-118.73590522 570.96884918 -117.74543899 585.05756128 -112.04229736 598.68870544 C-111.73783691 599.43789246 -111.43337646 600.18707947 -111.11968994 600.95896912 C-98.92788454 630.32286181 -77.00262057 651.81170822 -47.67510986 664.00511169 C-31.33075087 669.89259585 -14.53949742 670.95031822 2.68319702 670.88215637 C4.62201333 670.88562249 6.56082767 670.89039339 8.49963796 670.89633811 C13.77128284 670.90874657 19.04276271 670.90272453 24.31440783 670.89337945 C30.02134799 670.88654734 35.72826124 670.89709061 41.43519592 670.90531921 C52.5924016 670.91861409 63.74954651 670.91579794 74.90675451 670.90708129 C83.97843358 670.90028906 93.05009569 670.89939466 102.12177658 670.90265274 C103.4159384 670.90311244 104.71010023 670.90357214 106.04347908 670.90404577 C108.6730255 670.905005 111.30257193 670.90597764 113.93211834 670.90696354 C137.85045736 670.91526165 161.76876366 670.90667641 185.68709741 670.89093575 C207.48825433 670.87669747 229.28935867 670.87797767 251.09051514 670.89231873 C275.62851193 670.90840646 300.16647697 670.91468431 324.70447862 670.90548193 C327.32340582 670.90452634 329.94233302 670.90358323 332.56126022 670.90265274 C333.84963107 670.90218991 335.13800191 670.90172709 336.46541429 670.90125024 C345.52166468 670.89866564 354.57789634 670.90301982 363.63414383 670.9100914 C374.67697364 670.91852518 385.71973952 670.91618669 396.76256205 670.90024917 C402.39102652 670.89239222 408.01938457 670.88923079 413.64784813 670.89919662 C418.80950006 670.90819739 423.97094786 670.90312281 429.13258152 670.88726397 C430.99030981 670.88393885 432.84805568 670.88555844 434.70577247 670.89289133 C449.59394494 670.94710767 464.25722626 669.85520517 478.27020264 664.37620544 C479.44606934 663.9261615 479.44606934 663.9261615 480.64569092 663.46702576 C494.42745584 658.00553863 505.86025827 650.54242084 516.70770264 640.50120544 C517.51723389 639.77288513 518.32676514 639.04456482 519.16082764 638.29417419 C530.52904147 627.58181886 537.69378561 614.73059545 543.70770264 600.50120544 C544.12922607 599.52409607 544.55074951 598.54698669 544.98504639 597.54026794 C550.62128893 583.37522065 551.1494476 568.8238168 551.10211182 553.81295776 C551.10701083 551.86863148 551.11320528 549.9243081 551.12056971 547.97998959 C551.13686443 542.67895602 551.13467276 537.37807219 551.12919474 532.07702243 C551.12651151 526.34332225 551.14108059 520.60966082 551.15328979 514.87597656 C551.17429244 503.65820088 551.17888758 492.44047693 551.17710191 481.2226839 C551.17579153 472.09806568 551.17961247 462.97346354 551.18702698 453.84884834 C551.1891263 451.21511636 551.1912239 448.58138438 551.1933198 445.9476524 C551.19436333 444.63653526 551.19540685 443.32541812 551.196482 441.97457016 C551.21000507 424.23481585 551.21761317 406.49506843 551.21315765 388.7553091 C551.2129857 388.06253534 551.21281374 387.36976158 551.21263658 386.65599467 C551.21174779 383.14533977 551.21080298 379.63468487 551.20983857 376.12402999 C551.20964754 375.42689744 551.2094565 374.72976489 551.20925968 374.01150712 C551.20887258 372.60173703 551.20848226 371.19196694 551.2080887 369.78219685 C551.20212262 347.86060903 551.21754522 325.93912687 551.24969482 304.01756287 C551.28584985 279.34438495 551.30505006 254.67127659 551.30015612 229.9980703 C551.29791719 216.95081432 551.30306984 203.90366306 551.32804871 190.85642815 C551.34913821 179.74669517 551.35257831 168.63712432 551.33374912 157.52738451 C551.3246379 151.86774567 551.32330568 146.20840851 551.34410477 140.54879379 C551.62834068 100.2552405 551.62834068 100.2552405 538.70770264 62.50120544 C538.37786377 61.86779236 538.0480249 61.23437927 537.70819092 60.58177185 C532.3699181 50.52654538 525.68200839 42.5657438 517.70770264 34.50120544 C517.11602295 33.83733826 516.52434326 33.17347107 515.91473389 32.48948669 C499.09161603 13.93648526 470.71770106 4.63070374 446.45692776 3.38570128 C440.71237681 3.20584269 434.96703397 3.22754209 429.22032166 3.24050903 C427.29789546 3.23748212 425.37547047 3.23358995 423.45304757 3.22891647 C418.21272438 3.21869738 412.97247006 3.22080264 407.73214138 3.22509706 C402.06396884 3.22757541 396.39581241 3.21853643 390.72764587 3.21105957 C379.63955637 3.19834141 368.55149112 3.19651526 357.46339556 3.19885983 C348.4464888 3.20064632 339.42958937 3.19888627 330.41268349 3.19463539 C329.12701872 3.1940402 327.84135396 3.19344501 326.51672966 3.19283179 C323.90450109 3.19161998 321.29227253 3.19040584 318.68004397 3.18918941 C301.1538503 3.18140833 283.62766109 3.17747876 266.10146618 3.18150616 C265.4170887 3.18166253 264.73271123 3.18181891 264.02759504 3.18198002 C260.55944759 3.18278572 257.09130014 3.1836315 253.6231527 3.18449333 C252.59010315 3.18474996 252.59010315 3.18474996 251.53618392 3.18501177 C250.14346863 3.18535843 248.75075334 3.18570696 247.35803805 3.18605736 C225.69161782 3.1914135 204.02523831 3.18348366 182.35882568 3.1650238 C157.9772154 3.14427457 133.59563647 3.13361769 109.21401578 3.13759929 C96.31893912 3.13950849 83.42389954 3.13705114 70.52882957 3.12288475 C59.55149835 3.11094662 48.57422703 3.10959334 37.59689494 3.12167492 C32.00262987 3.12754641 26.40847427 3.12871105 20.81421661 3.11667252 C15.68133466 3.10575571 10.5486528 3.10898542 5.41577999 3.1229342 C3.57071041 3.12556525 1.72562485 3.12326542 -0.11942897 3.11519834 C-36.90104579 2.96569319 -68.52491726 14.55372367 -93.29229736 42.50120544 Z " fill="#C44F4F" transform="translate(167.29229736328125,46.49879455566406)"/>
</svg>
