<?xml version="1.0" encoding="UTF-8"?>
<!DOCTYPE svg PUBLIC "-//W3C//DTD SVG 1.1//EN" "http://www.w3.org/Graphics/SVG/1.1/DTD/svg11.dtd">
<svg xmlns="http://www.w3.org/2000/svg" version="1.1" width="1024px" height="829px" style="shape-rendering:geometricPrecision; text-rendering:geometricPrecision; image-rendering:optimizeQuality; fill-rule:evenodd; clip-rule:evenodd" xmlns:xlink="http://www.w3.org/1999/xlink">
<g><path style="opacity:0.9" fill="#b42249" d="M 466.5,-0.5 C 496.5,-0.5 526.5,-0.5 556.5,-0.5C 650.642,6.15029 738.309,33.317 819.5,81C 862.638,107.988 901.138,140.488 935,178.5C 984.626,236.991 1014.13,304.324 1023.5,380.5C 1023.5,402.833 1023.5,425.167 1023.5,447.5C 1014.12,523.716 984.623,591.05 935,649.5C 869.829,722.045 790.329,772.878 696.5,802C 650.667,815.935 604.001,824.768 556.5,828.5C 526.5,828.5 496.5,828.5 466.5,828.5C 361.264,821.034 264.93,788.201 177.5,730C 121.282,691.11 76.1152,641.943 42,582.5C 19.5047,540.178 5.338,495.178 -0.5,447.5C -0.5,425.167 -0.5,402.833 -0.5,380.5C 8.87355,304.324 38.3736,236.991 88,178.5C 153.101,105.982 232.601,55.1486 326.5,26C 372.319,12.0684 418.985,3.23504 466.5,-0.5 Z"/></g>
<g><path style="opacity:0.9" fill="#e0a6b5" d="M 346.5,163.5 C 345.511,158.025 345.178,152.358 345.5,146.5C 318.167,146.5 290.833,146.5 263.5,146.5C 263.5,150.167 263.5,153.833 263.5,157.5C 262.517,153.702 262.183,149.702 262.5,145.5C 290.5,145.5 318.5,145.5 346.5,145.5C 346.5,151.5 346.5,157.5 346.5,163.5 Z"/></g>
<g><path style="opacity:0.9" fill="#dfa2b2" d="M 759.5,159.5 C 759.5,155.167 759.5,150.833 759.5,146.5C 732.167,146.5 704.833,146.5 677.5,146.5C 677.818,151.032 677.485,155.366 676.5,159.5C 676.5,154.833 676.5,150.167 676.5,145.5C 704.5,145.5 732.5,145.5 760.5,145.5C 760.819,150.363 760.486,155.03 759.5,159.5 Z"/></g>
<g><path style="opacity:0.9" fill="#fefefe" d="M 346.5,163.5 C 347.411,168.453 348.078,173.453 348.5,178.5C 348.41,181.152 349.076,183.485 350.5,185.5C 365.458,239.239 398.458,277.406 449.5,300C 455.297,302.544 461.297,304.377 467.5,305.5C 468.209,306.404 469.209,306.737 470.5,306.5C 470.5,253.167 470.5,199.833 470.5,146.5C 497.833,146.5 525.167,146.5 552.5,146.5C 552.5,199.833 552.5,253.167 552.5,306.5C 553.791,306.737 554.791,306.404 555.5,305.5C 615.271,286.895 654.104,247.562 672,187.5C 674.472,178.308 675.972,168.975 676.5,159.5C 677.485,155.366 677.818,151.032 677.5,146.5C 704.833,146.5 732.167,146.5 759.5,146.5C 759.5,150.833 759.5,155.167 759.5,159.5C 752.306,245.095 712.973,311.262 641.5,358C 614.575,374.466 585.575,385.299 554.5,390.5C 553.169,397.97 552.502,405.804 552.5,414C 552.502,422.196 553.169,430.03 554.5,437.5C 627.33,451.827 683.83,490.16 724,552.5C 737.282,573.993 746.782,596.993 752.5,621.5C 752.41,624.152 753.076,626.485 754.5,628.5C 757.286,641.006 758.953,653.673 759.5,666.5C 759.5,671.5 759.5,676.5 759.5,681.5C 732.167,681.5 704.833,681.5 677.5,681.5C 677.921,673.589 677.255,665.923 675.5,658.5C 664.972,598.803 632.305,555.969 577.5,530C 570.255,527.196 562.922,524.696 555.5,522.5C 554.791,521.596 553.791,521.263 552.5,521.5C 552.5,574.833 552.5,628.167 552.5,681.5C 525.167,681.5 497.833,681.5 470.5,681.5C 470.5,628.167 470.5,574.833 470.5,521.5C 469.209,521.263 468.209,521.596 467.5,522.5C 420.158,536.67 384.992,565.67 362,609.5C 354.836,625.156 350.003,641.49 347.5,658.5C 345.745,665.923 345.079,673.589 345.5,681.5C 318.167,681.5 290.833,681.5 263.5,681.5C 263.5,676.5 263.5,671.5 263.5,666.5C 268.835,594.326 299.169,535.159 354.5,489C 387.625,462.114 425.291,444.947 467.5,437.5C 468.5,437.5 469.5,437.5 470.5,437.5C 470.5,421.833 470.5,406.167 470.5,390.5C 469.5,390.5 468.5,390.5 467.5,390.5C 459.966,389.594 452.632,387.927 445.5,385.5C 443.485,384.076 441.152,383.41 438.5,383.5C 375.07,363.366 326.903,324.366 294,266.5C 275.578,232.479 265.411,196.146 263.5,157.5C 263.5,153.833 263.5,150.167 263.5,146.5C 290.833,146.5 318.167,146.5 345.5,146.5C 345.178,152.358 345.511,158.025 346.5,163.5 Z"/></g>
<g><path style="opacity:0.9" fill="#d990a3" d="M 552.5,145.5 C 552.5,145.833 552.5,146.167 552.5,146.5C 525.167,146.5 497.833,146.5 470.5,146.5C 470.5,199.833 470.5,253.167 470.5,306.5C 469.209,306.737 468.209,306.404 467.5,305.5C 469.496,252.51 470.162,199.177 469.5,145.5C 497.167,145.5 524.833,145.5 552.5,145.5 Z"/></g>
<g><path style="opacity:0.9" fill="#d7889d" d="M 552.5,145.5 C 552.835,199.008 553.835,252.341 555.5,305.5C 554.791,306.404 553.791,306.737 552.5,306.5C 552.5,253.167 552.5,199.833 552.5,146.5C 552.5,146.167 552.5,145.833 552.5,145.5 Z"/></g>
<g><path style="opacity:0.9" fill="#e4afbd" d="M 348.5,178.5 C 349.924,180.515 350.59,182.848 350.5,185.5C 349.076,183.485 348.41,181.152 348.5,178.5 Z"/></g>
<g><path style="opacity:0.9" fill="#e5afbc" d="M 438.5,383.5 C 441.152,383.41 443.485,384.076 445.5,385.5C 442.848,385.59 440.515,384.924 438.5,383.5 Z"/></g>
<g><path style="opacity:0.9" fill="#d7889d" d="M 467.5,390.5 C 468.5,390.5 469.5,390.5 470.5,390.5C 470.5,406.167 470.5,421.833 470.5,437.5C 469.5,437.5 468.5,437.5 467.5,437.5C 468.801,429.9 469.467,422.067 469.5,414C 469.467,405.933 468.801,398.1 467.5,390.5 Z"/></g>
<g><path style="opacity:0.9" fill="#d7899e" d="M 554.5,390.5 C 553.167,406.167 553.167,421.833 554.5,437.5C 553.169,430.03 552.502,422.196 552.5,414C 552.502,405.804 553.169,397.97 554.5,390.5 Z"/></g>
<g><path style="opacity:0.9" fill="#d990a3" d="M 467.5,522.5 C 468.209,521.596 469.209,521.263 470.5,521.5C 470.5,574.833 470.5,628.167 470.5,681.5C 497.833,681.5 525.167,681.5 552.5,681.5C 552.5,681.833 552.5,682.167 552.5,682.5C 524.833,682.5 497.167,682.5 469.5,682.5C 470.162,628.823 469.496,575.49 467.5,522.5 Z"/></g>
<g><path style="opacity:0.9" fill="#d7889d" d="M 555.5,522.5 C 553.835,575.659 552.835,628.992 552.5,682.5C 552.5,682.167 552.5,681.833 552.5,681.5C 552.5,628.167 552.5,574.833 552.5,521.5C 553.791,521.263 554.791,521.596 555.5,522.5 Z"/></g>
<g><path style="opacity:0.9" fill="#df9eae" d="M 752.5,621.5 C 753.924,623.515 754.59,625.848 754.5,628.5C 753.076,626.485 752.41,624.152 752.5,621.5 Z"/></g>
<g><path style="opacity:0.9" fill="#dfa2b2" d="M 347.5,658.5 C 346.834,666.483 346.501,674.483 346.5,682.5C 318.5,682.5 290.5,682.5 262.5,682.5C 262.179,676.974 262.512,671.64 263.5,666.5C 263.5,671.5 263.5,676.5 263.5,681.5C 290.833,681.5 318.167,681.5 345.5,681.5C 345.079,673.589 345.745,665.923 347.5,658.5 Z"/></g>
<g><path style="opacity:0.9" fill="#dfa2b2" d="M 675.5,658.5 C 677.255,665.923 677.921,673.589 677.5,681.5C 704.833,681.5 732.167,681.5 759.5,681.5C 759.5,676.5 759.5,671.5 759.5,666.5C 760.488,671.64 760.821,676.974 760.5,682.5C 732.5,682.5 704.5,682.5 676.5,682.5C 676.499,674.483 676.166,666.483 675.5,658.5 Z"/></g>
</svg>
