<?xml version="1.0" encoding="UTF-8"?>
<!DOCTYPE svg PUBLIC "-//W3C//DTD SVG 1.1//EN" "http://www.w3.org/Graphics/SVG/1.1/DTD/svg11.dtd">
<svg xmlns="http://www.w3.org/2000/svg" version="1.1" width="683px" height="216px" style="shape-rendering:geometricPrecision; text-rendering:geometricPrecision; image-rendering:optimizeQuality; fill-rule:evenodd; clip-rule:evenodd" xmlns:xlink="http://www.w3.org/1999/xlink">
<g><path style="opacity:0.988" fill="rgb(235, 235, 235)" d="M 72.5,-0.5 C 77.8333,-0.5 83.1667,-0.5 88.5,-0.5C 116.417,5.27422 130.917,22.6076 132,51.5C 132.5,79.1647 132.667,106.831 132.5,134.5C 118.5,134.5 104.5,134.5 90.5,134.5C 90.6666,107.831 90.5,81.1646 90,54.5C 85.0109,37.5818 73.8442,31.4151 56.5,36C 48.8362,38.998 44.0029,44.498 42,52.5C 40.5724,79.8032 40.0724,107.137 40.5,134.5C 26.8333,134.5 13.1667,134.5 -0.5,134.5C -0.5,89.8333 -0.5,45.1667 -0.5,0.5C 13.1667,0.5 26.8333,0.5 40.5,0.5C 40.3339,6.17645 40.5006,11.8431 41,17.5C 49.0744,7.21396 59.5744,1.21396 72.5,-0.5 Z"/></g>
<g><path style="opacity:0.993" fill="rgb(235, 235, 235)" d="M 199.5,-0.5 C 206.833,-0.5 214.167,-0.5 221.5,-0.5C 233.132,2.06924 242.632,8.06924 250,17.5C 250.499,11.8431 250.666,6.17645 250.5,0.5C 264.5,0.5 278.5,0.5 292.5,0.5C 292.5,45.1667 292.5,89.8333 292.5,134.5C 278.5,134.5 264.5,134.5 250.5,134.5C 250.666,128.824 250.499,123.157 250,117.5C 239.975,130.51 226.642,136.843 210,136.5C 178.483,133.657 159.483,116.657 153,85.5C 148.58,63.0165 152.247,42.0165 164,22.5C 173.122,10.5259 184.956,2.85919 199.5,-0.5 Z M 216.5,35.5 C 234.719,34.5692 245.886,42.9025 250,60.5C 252.433,73.6183 248.933,84.785 239.5,94C 224.127,103.061 210.627,100.895 199,87.5C 191.667,74.1667 191.667,60.8333 199,47.5C 203.505,41.3482 209.338,37.3482 216.5,35.5 Z"/></g>
<g><path style="opacity:0.99" fill="rgb(235, 235, 235)" d="M 393.5,-0.5 C 399.167,-0.5 404.833,-0.5 410.5,-0.5C 436.053,5.22906 450.22,21.2291 453,47.5C 453.5,76.4981 453.667,105.498 453.5,134.5C 439.833,134.5 426.167,134.5 412.5,134.5C 412.947,107.129 412.447,79.7962 411,52.5C 407.576,40.4499 399.576,34.4499 387,34.5C 374.066,35.294 366.066,41.9606 363,54.5C 362.5,81.1646 362.333,107.831 362.5,134.5C 348.5,134.5 334.5,134.5 320.5,134.5C 320.5,89.8333 320.5,45.1667 320.5,0.5C 334.5,0.5 348.5,0.5 362.5,0.5C 362.334,5.84372 362.501,11.1771 363,16.5C 371.244,7.29646 381.411,1.62979 393.5,-0.5 Z"/></g>
<g><path style="opacity:0.993" fill="rgb(235, 235, 235)" d="M 520.5,-0.5 C 527.833,-0.5 535.167,-0.5 542.5,-0.5C 553.802,1.93227 563.302,7.59894 571,16.5C 571.499,11.1771 571.666,5.84372 571.5,0.5C 585.5,0.5 599.5,0.5 613.5,0.5C 613.5,45.1667 613.5,89.8333 613.5,134.5C 599.5,134.5 585.5,134.5 571.5,134.5C 571.666,129.156 571.499,123.823 571,118.5C 554.356,135.866 534.523,140.699 511.5,133C 489.995,123.475 477.495,106.975 474,83.5C 469.073,56.6948 475.573,33.1948 493.5,13C 501.503,6.33198 510.503,1.83198 520.5,-0.5 Z M 537.5,35.5 C 554.943,34.1313 566.11,41.798 571,58.5C 574.169,73.0219 570.336,85.1885 559.5,95C 544.933,102.738 532.1,100.571 521,88.5C 513.667,74.5 513.667,60.5 521,46.5C 525.632,41.3397 531.132,37.673 537.5,35.5 Z"/></g>
<g><path style="opacity:0.981" fill="rgb(235, 235, 235)" d="M 682.5,116.5 C 682.5,120.167 682.5,123.833 682.5,127.5C 675.525,142.327 664.525,146.16 649.5,139C 641.045,130.905 639.212,121.405 644,110.5C 652.624,100.704 662.791,98.8708 674.5,105C 678.311,108.15 680.977,111.983 682.5,116.5 Z"/></g>
<g><path style="opacity:0.991" fill="rgb(235, 235, 235)" d="M 637.5,215.5 C 631.167,215.5 624.833,215.5 618.5,215.5C 594.089,208.405 580.756,192.072 578.5,166.5C 587.857,166.168 597.19,166.502 606.5,167.5C 611.872,186.852 623.538,192.019 641.5,183C 645.883,178.734 648.55,173.567 649.5,167.5C 658.81,166.502 668.143,166.168 677.5,166.5C 675.243,192.076 661.91,208.409 637.5,215.5 Z"/></g>
</svg>
