<?xml version="1.0" encoding="UTF-8"?>
<svg version="1.1" xmlns="http://www.w3.org/2000/svg" width="512" height="512">
<path d="M0 0 C2.375 0.1875 2.375 0.1875 5 1 C6.0234375 3.265625 6.0234375 3.265625 7 6 C7.73171742 7.52971358 8.48245871 9.05044365 9.25 10.5625 C10.63518056 13.30055371 12.01896642 16.03836267 13.37890625 18.7890625 C16.11081957 24.31244038 18.94170166 29.76874055 21.875 35.1875 C25.14312422 41.23770372 28.10460637 47.39440851 30.98632812 53.63647461 C33.58926175 59.23316695 36.41527392 64.68239055 39.38671875 70.09179688 C41.16073632 73.33686194 42.62856418 76.57141044 44 80 C45.22771632 82.3697137 46.47385755 84.71938914 47.75 87.0625 C56.58287513 103.45718783 56.58287513 103.45718783 60 112 C60.98189187 113.67739862 61.98133771 115.34467377 63 117 C64.6823344 120.22702326 66.18492643 123.53851399 67.71630859 126.83886719 C70.85563034 133.59204208 74.08240848 140.22835901 77.7734375 146.703125 C79 149 79 149 79.859375 151.21484375 C81.57289365 155.39888072 83.74713493 159.3266303 85.875 163.3125 C94.16465863 178.89558233 94.16465863 178.89558233 96.015625 183.55859375 C97.34683146 186.86019707 99.04993906 189.94103715 100.75 193.0625 C109.58287513 209.45718783 109.58287513 209.45718783 113 218 C113.98189187 219.67739862 114.98133771 221.34467377 116 223 C116.67662589 224.32830705 117.34049686 225.66310889 118 227 C118.61255598 228.21520961 119.22592353 229.43001028 119.83984375 230.64453125 C120.53911786 232.03382631 121.23833497 233.42315005 121.9375 234.8125 C122.45860352 235.84213867 122.45860352 235.84213867 122.99023438 236.89257812 C124.63941362 240.17540763 126.22581581 243.45914172 127.65625 246.84375 C128.89840916 249.76137965 130.32961221 252.31285442 132 255 C132.67778506 256.32771595 133.34143717 257.66264544 134 259 C134.57234375 260.1446875 135.1446875 261.289375 135.734375 262.46875 C145.15625 281.3125 154.578125 300.15625 164 319 C164.31428955 319.62334229 164.6285791 320.24668457 164.95239258 320.88891602 C165.99489917 322.98972108 166.99702024 325.10504291 167.98828125 327.23046875 C168.36533203 328.03419922 168.74238281 328.83792969 169.13085938 329.66601562 C169.90900548 331.32648938 170.68510109 332.98792585 171.45898438 334.65039062 C173.75699191 339.53803102 176.20423228 344.29116459 178.87573242 348.9855957 C179.97996621 350.9641045 181.00075118 352.96676155 182 355 C182.495 355.99 182.99 356.98 183.5 358 C189.33333333 369.66666667 195.16666667 381.33333333 201 393 C201.31428955 393.62334229 201.6285791 394.24668457 201.95239258 394.88891602 C202.99489917 396.98972108 203.99702024 399.10504291 204.98828125 401.23046875 C205.36533203 402.03419922 205.74238281 402.83792969 206.13085938 403.66601562 C206.90900548 405.32648938 207.68510109 406.98792585 208.45898438 408.65039062 C210.75699191 413.53803102 213.20423228 418.29116459 215.87573242 422.9855957 C217.74004792 426.32597945 219.37196431 429.7648207 220.98828125 433.23046875 C221.36533203 434.03419922 221.74238281 434.83792969 222.13085938 435.66601562 C222.90900548 437.32648938 223.68510109 438.98792585 224.45898438 440.65039062 C226.75699191 445.53803102 229.20423228 450.29116459 231.87573242 454.9855957 C232.97996621 456.9641045 234.00075118 458.96676155 235 461 C235.495 461.99 235.99 462.98 236.5 464 C237.28307296 465.56614592 238.06602442 467.13235309 238.84765625 468.69921875 C239.8412154 470.68296905 240.83986059 472.66401598 241.83984375 474.64453125 C242.53911786 476.03382631 243.23833497 477.42315005 243.9375 478.8125 C244.28490234 479.49892578 244.63230469 480.18535156 244.99023438 480.89257812 C246.63941362 484.17540763 248.22581581 487.45914172 249.65625 490.84375 C250.89840916 493.76137965 252.32961221 496.31285442 254 499 C254.68268138 500.32520503 255.3507041 501.65812182 256 503 C256.37125 503.639375 256.7425 504.27875 257.125 504.9375 C258 507 258 507 258 512 C89.04 512 -79.92 512 -254 512 C-252.95138889 504.65972222 -252.95138889 504.65972222 -250 501 C-249.67 500.01 -249.34 499.02 -249 498 C-248.01593623 495.04780869 -246.87752159 493.42513206 -245 491 C-244.31846131 489.33935939 -243.65402617 487.67166743 -243 486 C-241.23695601 482.12246144 -239.39536316 478.28245022 -237.5625 474.4375 C-237.07201172 473.39658203 -236.58152344 472.35566406 -236.07617188 471.28320312 C-235.59857422 470.28095703 -235.12097656 469.27871094 -234.62890625 468.24609375 C-234.19650635 467.33529053 -233.76410645 466.4244873 -233.31860352 465.48608398 C-232 463 -232 463 -230.46069336 460.98461914 C-228.81033176 458.742301 -227.97475468 456.60286774 -227 454 C-225.23695601 450.12246144 -223.39536316 446.28245022 -221.5625 442.4375 C-221.07201172 441.39658203 -220.58152344 440.35566406 -220.07617188 439.28320312 C-219.35977539 437.77983398 -219.35977539 437.77983398 -218.62890625 436.24609375 C-218.19650635 435.33529053 -217.76410645 434.4244873 -217.31860352 433.48608398 C-216 431 -216 431 -214.46069336 428.98461914 C-212.81033176 426.742301 -211.97475468 424.60286774 -211 422 C-209.23695601 418.12246144 -207.39536316 414.28245022 -205.5625 410.4375 C-205.07201172 409.39658203 -204.58152344 408.35566406 -204.07617188 407.28320312 C-203.35977539 405.77983398 -203.35977539 405.77983398 -202.62890625 404.24609375 C-202.19650635 403.33529053 -201.76410645 402.4244873 -201.31860352 401.48608398 C-200 399 -200 399 -198.46069336 396.98461914 C-196.81033176 394.742301 -195.97475468 392.60286774 -195 390 C-193.23695601 386.12246144 -191.39536316 382.28245022 -189.5625 378.4375 C-189.07201172 377.39658203 -188.58152344 376.35566406 -188.07617188 375.28320312 C-187.35977539 373.77983398 -187.35977539 373.77983398 -186.62890625 372.24609375 C-186.19650635 371.33529053 -185.76410645 370.4244873 -185.31860352 369.48608398 C-184.06098795 367.11498617 -182.62831049 365.12473622 -181 363 C-180.31867549 361.33927151 -179.65257873 359.672233 -179 358 C-178 356.33333333 -177 354.66666667 -176 353 C-175.32548046 351.33649598 -174.65965525 349.66945415 -174 348 C-172.42221533 344.4986002 -170.77015581 341.03267559 -169.125 337.5625 C-168.69058594 336.63373047 -168.25617188 335.70496094 -167.80859375 334.74804688 C-164.18167242 327.09665879 -164.18167242 327.09665879 -161.8046875 323.65234375 C-160.07230659 321.10626877 -159.11143589 318.85465759 -158 316 C-156.42221533 312.4986002 -154.77015581 309.03267559 -153.125 305.5625 C-152.69058594 304.63373047 -152.25617188 303.70496094 -151.80859375 302.74804688 C-149.50139848 297.88076557 -147.08229124 293.41312392 -144 289 C-143.31246699 287.34183216 -142.64438717 285.67540664 -142 284 C-141 282.33333333 -140 280.66666667 -139 279 C-138.32548046 277.33649598 -137.65965525 275.66945415 -137 274 C-135.42221533 270.4986002 -133.77015581 267.03267559 -132.125 263.5625 C-131.69058594 262.63373047 -131.25617188 261.70496094 -130.80859375 260.74804688 C-127.18167242 253.09665879 -127.18167242 253.09665879 -124.8046875 249.65234375 C-123.07230659 247.10626877 -122.11143589 244.85465759 -121 242 C-119.42221533 238.4986002 -117.77015581 235.03267559 -116.125 231.5625 C-115.69058594 230.63373047 -115.25617188 229.70496094 -114.80859375 228.74804688 C-111.18167242 221.09665879 -111.18167242 221.09665879 -108.8046875 217.65234375 C-107.07407276 215.10886452 -106.10994622 212.85148697 -105 210 C-104.31293568 208.48730515 -103.6120369 206.98082837 -102.8984375 205.48046875 C-102.4950415 204.63162109 -102.09164551 203.78277344 -101.67602539 202.90820312 C-101.24668701 202.01037109 -100.81734863 201.11253906 -100.375 200.1875 C-99.92697021 199.24970703 -99.47894043 198.31191406 -99.01733398 197.34570312 C-90.24122592 179.02871855 -81.06916343 160.86794677 -71.12109375 143.15625 C-69.90563511 140.81850377 -68.97655903 138.44822666 -68 136 C-66.59927912 132.87843601 -65.14488413 129.78293572 -63.6875 126.6875 C-63.30916016 125.87087891 -62.93082031 125.05425781 -62.54101562 124.21289062 C-60.32290903 119.50269812 -57.88139196 115.11499104 -55.06542969 110.73852539 C-53.74019365 108.57605843 -52.878698 106.37722447 -52 104 C-50.68751287 101.06379398 -49.31259635 98.1573214 -47.9375 95.25 C-47.54481934 94.41960205 -47.15213867 93.5892041 -46.74755859 92.73364258 C-43.34093787 85.59463878 -39.69656993 78.59952155 -35.9453125 71.63671875 C-34.23271612 68.45476909 -32.60098661 65.23989132 -31 62 C-30.37821086 60.75490517 -29.75577488 59.51013323 -29.1328125 58.265625 C-28.80692139 57.61384277 -28.48103027 56.96206055 -28.14526367 56.29052734 C-14.07263184 28.14526367 -14.07263184 28.14526367 0 0 Z " fill="#FF9853" transform="translate(254,0)"/>
<path d="M0 0 C1.18062691 1.78395454 2.19498789 3.54675951 3.12214661 5.47615051 C3.44312317 6.13357239 3.76409973 6.79099426 4.09480286 7.46833801 C4.7568971 8.93191476 5.37208611 10.4173471 5.94636536 11.91755676 C7.3456552 15.29058176 9.0653786 18.46101955 10.80964661 21.66365051 C19.64252174 38.05833835 19.64252174 38.05833835 23.05964661 46.60115051 C24.04153848 48.27854913 25.04098431 49.94582429 26.05964661 51.60115051 C26.7362725 52.92945756 27.40014347 54.26425941 28.05964661 55.60115051 C28.67220259 56.81636012 29.28557014 58.03116079 29.89949036 59.24568176 C30.59876446 60.63497682 31.29798158 62.02430056 31.99714661 63.41365051 C32.34454895 64.10007629 32.69195129 64.78650208 33.04988098 65.49372864 C34.69906023 68.77655814 36.28546242 72.06029223 37.71589661 75.44490051 C38.95805576 78.36253016 40.38925882 80.91400494 42.05964661 83.60115051 C42.73743167 84.92886646 43.40108377 86.26379595 44.05964661 87.60115051 C44.63199036 88.74583801 45.20433411 89.89052551 45.79402161 91.06990051 C55.21589661 109.91365051 64.63777161 128.75740051 74.05964661 147.60115051 C74.37393616 148.2244928 74.68822571 148.84783508 75.01203918 149.49006653 C76.05454578 151.59087159 77.05666684 153.70619342 78.04792786 155.83161926 C78.42497864 156.63534973 78.80202942 157.4390802 79.19050598 158.26716614 C79.96865209 159.9276399 80.7447477 161.58907636 81.51863098 163.25154114 C83.81663852 168.13918154 86.26387889 172.8923151 88.93537903 177.58674622 C90.03961282 179.56525501 91.06039779 181.56791206 92.05964661 183.60115051 C92.80214661 185.08615051 92.80214661 185.08615051 93.55964661 186.60115051 C99.39297994 198.26781718 105.22631327 209.93448385 111.05964661 221.60115051 C111.37393616 222.2244928 111.68822571 222.84783508 112.01203918 223.49006653 C113.05454578 225.59087159 114.05666684 227.70619342 115.04792786 229.83161926 C115.42497864 230.63534973 115.80202942 231.4390802 116.19050598 232.26716614 C116.96865209 233.9276399 117.7447477 235.58907636 118.51863098 237.25154114 C120.81663852 242.13918154 123.26387889 246.8923151 125.93537903 251.58674622 C127.79969452 254.92712996 129.43161091 258.36597122 131.04792786 261.83161926 C131.42497864 262.63534973 131.80202942 263.4390802 132.19050598 264.26716614 C132.96865209 265.9276399 133.7447477 267.58907636 134.51863098 269.25154114 C136.81663852 274.13918154 139.26387889 278.8923151 141.93537903 283.58674622 C143.03961282 285.56525501 144.06039779 287.56791206 145.05964661 289.60115051 C145.55464661 290.59115051 146.04964661 291.58115051 146.55964661 292.60115051 C147.34271957 294.16729643 148.12567102 295.73350361 148.90730286 297.30036926 C149.90086201 299.28411956 150.8995072 301.26516649 151.89949036 303.24568176 C152.59876446 304.63497682 153.29798158 306.02430056 153.99714661 307.41365051 C154.34454895 308.10007629 154.69195129 308.78650208 155.04988098 309.49372864 C156.69906023 312.77655814 158.28546242 316.06029223 159.71589661 319.44490051 C160.95805576 322.36253016 162.38925882 324.91400494 164.05964661 327.60115051 C164.74232798 328.92635554 165.41035071 330.25927233 166.05964661 331.60115051 C166.43089661 332.24052551 166.80214661 332.87990051 167.18464661 333.53865051 C168.05964661 335.60115051 168.05964661 335.60115051 168.05964661 340.60115051 C111.62964661 340.60115051 55.19964661 340.60115051 -2.94035339 340.60115051 C-9.02386342 329.04248147 -15.07464407 317.49401799 -20.91691589 305.81599426 C-21.62001823 304.41301859 -22.323175 303.01007021 -23.02638245 301.60714722 C-24.47451896 298.71676279 -25.92108213 295.82559758 -27.36662292 292.93391418 C-29.22082017 289.22541627 -31.08059533 285.51974408 -32.94162941 281.81467342 C-34.38380342 278.94139382 -35.82237857 276.06632403 -37.2599144 273.19072151 C-37.94521632 271.82129685 -38.63181399 270.45251982 -39.31973648 269.08440971 C-40.27079178 267.19203409 -41.21680616 265.29722277 -42.1615448 263.40168762 C-42.96901657 261.78888161 -42.96901657 261.78888161 -43.7928009 260.14349365 C-44.94035339 257.60115051 -44.94035339 257.60115051 -44.94035339 255.60115051 C-16.89035339 255.60115051 11.15964661 255.60115051 40.05964661 255.60115051 C37.41964661 250.32115051 34.77964661 245.04115051 32.05964661 239.60115051 C30.72631327 236.91365051 29.39297994 234.22615051 28.05964661 231.53865051 C25.5254448 226.44459202 22.8987628 221.41383809 20.18464661 216.41365051 C16.4729369 209.56246449 13.15286245 202.54688007 9.83918762 195.49641418 C6.92364767 189.32655088 3.82079811 183.29472491 0.57719421 177.29248047 C-2.35095462 171.82333523 -5.03849368 166.26282006 -7.68254089 160.65193176 C-14.74634511 145.77949654 -22.14582008 131.07597007 -29.52690125 116.35939026 C-31.36736731 112.68876343 -33.20552696 109.01698204 -35.04386902 105.34529114 C-38.06167218 99.3184388 -41.08090036 93.29230314 -44.10205078 87.26712799 C-45.77431205 83.9311801 -47.44379072 80.59386548 -49.11010742 77.25494385 C-49.47059079 76.53289229 -49.83107416 75.81084074 -50.20248127 75.06690884 C-50.89399494 73.68149041 -51.58508543 72.29586064 -52.27567577 70.90998173 C-54.52313936 66.40788486 -56.84909873 61.95855516 -59.25285339 57.53865051 C-63.34978827 49.90825605 -67.07136369 42.11911079 -70.76359558 34.28645325 C-74.21553203 27.00422771 -77.88136275 19.86262319 -81.76823425 12.80281067 C-82.15632263 12.08657532 -82.54441101 11.37033997 -82.94425964 10.63240051 C-83.28271912 10.01945129 -83.62117859 9.40650208 -83.96989441 8.77497864 C-85.29480868 5.80717068 -86.0673747 2.72760002 -86.94035339 -0.39884949 C-75.90979321 -0.59887835 -64.87909442 -0.78261923 -53.84791851 -0.94543743 C-48.72596732 -1.02155124 -43.60423548 -1.10332187 -38.48258972 -1.19792175 C-33.54201901 -1.28897057 -28.60142218 -1.36528888 -23.6604557 -1.43129921 C-21.77328282 -1.45911944 -19.88618115 -1.49229131 -17.99919701 -1.53084373 C-15.36067301 -1.58384588 -12.72253916 -1.61799326 -10.08366394 -1.64762878 C-9.29963699 -1.66776535 -8.51561005 -1.68790192 -7.70782471 -1.70864868 C-2.41387416 -1.7402225 -2.41387416 -1.7402225 0 0 Z " fill="#FF3C21" transform="translate(343.9403533935547,171.3988494873047)"/>
<path d="M0 0 C3.50417663 3.12232121 5.5372985 6.51582881 7.57818604 10.675354 C7.91489405 11.34535234 8.25160207 12.01535068 8.59851336 12.705652 C9.7220734 14.94619711 10.83411919 17.19225851 11.94628906 19.43847656 C12.75093501 21.04889717 13.55628643 22.65896544 14.36228943 24.26870728 C16.5494522 28.64188422 18.7267017 33.01993016 20.90223789 37.39890003 C23.1869556 41.99338941 25.4807729 46.58333114 27.77362061 51.17376709 C32.12299631 59.8849612 36.46420623 68.60019812 40.80249667 77.31691718 C45.708914 87.17418931 50.6242125 97.02702252 55.5403676 106.87944078 C63.96117799 123.75585137 72.37570097 140.63538332 80.78178406 157.51913452 C86.84363737 169.69338989 92.90945028 181.86575274 99.02929688 194.01098633 C99.71633485 195.37511379 100.40330307 196.73927638 101.09020996 198.10346985 C101.43746628 198.7931164 101.7847226 199.48276295 102.14250183 200.19330788 C104.41687469 204.71294799 106.6865008 209.23497406 108.95619965 213.75696278 C110.93870838 217.70617263 112.92351769 221.65419485 114.91308594 225.59985352 C116.85972593 229.46062783 118.8005496 233.32427384 120.73731995 237.19000816 C121.4720426 238.65391728 122.20887428 240.11676989 122.94786072 241.57853127 C123.97276228 243.6066627 124.99017712 245.63838224 126.00585938 247.67114258 C126.58573608 248.82423416 127.16561279 249.97732574 127.76306152 251.1653595 C129 254 129 254 129 257 C72.9 257 16.8 257 -41 257 C-50.01174178 240.10298416 -50.01174178 240.10298416 -53.4375 232.625 C-56.66126978 225.70546622 -60.08406711 218.93159231 -63.69287109 212.20581055 C-67.26203001 205.54768701 -70.63835186 198.80194252 -73.98974609 192.03222656 C-75.05466444 189.89003702 -76.12962549 187.75312201 -77.20703125 185.6171875 C-77.56982178 184.89668213 -77.9326123 184.17617676 -78.30639648 183.43383789 C-78.99849844 182.05991193 -79.69193556 180.6866574 -80.38696289 179.31420898 C-81.27330154 177.55042472 -82.13752081 175.77557336 -83 174 C-83.48597656 173.18660156 -83.97195312 172.37320313 -84.47265625 171.53515625 C-85.32532074 167.43605068 -83.08266925 164.55307181 -81.0625 161.125 C-80.20649622 159.59810982 -79.35367939 158.06942902 -78.50390625 156.5390625 C-77.86219482 155.3929248 -77.86219482 155.3929248 -77.20751953 154.22363281 C-75.48365169 151.04915075 -73.98162943 147.79275623 -72.5 144.5 C-68.98247713 136.77014771 -64.98283836 129.31921915 -60.9765625 121.83447266 C-58.00462302 116.25168434 -55.26078734 110.57920102 -52.62158203 104.83251953 C-49.4184395 97.86815193 -45.96799265 91.08837341 -42.33691406 84.33764648 C-39.90447645 79.7874175 -37.63784696 75.19527137 -35.5 70.5 C-32.6815493 64.30994473 -29.55733351 58.32470727 -26.3359375 52.3359375 C-23.90390707 47.78622072 -21.63781248 43.19457128 -19.5 38.5 C-16.67685474 32.3070549 -13.57098188 26.30065224 -10.35571289 20.30297852 C-6.76646892 13.60166435 -3.36068378 6.81862208 0 0 Z " fill="#FFF14C" transform="translate(169,170)"/>
<path d="M0 0 C2.375 0.1875 2.375 0.1875 5 1 C6.0234375 3.265625 6.0234375 3.265625 7 6 C7.73171742 7.52971358 8.48245871 9.05044365 9.25 10.5625 C10.63518056 13.30055371 12.01896642 16.03836267 13.37890625 18.7890625 C16.11081957 24.31244038 18.94170166 29.76874055 21.875 35.1875 C25.14312422 41.23770372 28.10460637 47.39440851 30.98632812 53.63647461 C33.58926175 59.23316695 36.41527392 64.68239055 39.38671875 70.09179688 C41.16073632 73.33686194 42.62856418 76.57141044 44 80 C45.22771632 82.3697137 46.47385755 84.71938914 47.75 87.0625 C56.58287513 103.45718783 56.58287513 103.45718783 60 112 C60.98189187 113.67739862 61.98133771 115.34467377 63 117 C64.6823344 120.22702326 66.18492643 123.53851399 67.71630859 126.83886719 C70.85563034 133.59204208 74.08240848 140.22835901 77.7734375 146.703125 C79 149 79 149 79.90625 151.27734375 C81.42862913 155.06698036 83.28258971 158.66999626 85.125 162.3125 C85.49753906 163.05306641 85.87007812 163.79363281 86.25390625 164.55664062 C87.16744806 166.37201217 88.08347487 168.18613282 89 170 C88 171 88 171 85.19076443 171.12304783 C83.2895664 171.12166514 83.2895664 171.12166514 81.34996033 171.12025452 C80.6467349 171.12110894 79.94350947 171.12196337 79.21897417 171.12284368 C76.84509484 171.12450053 74.47128502 171.1189738 72.09741211 171.11352539 C70.40270489 171.11324354 68.70799755 171.11340122 67.01329041 171.1139679 C62.39778374 171.11425594 57.78230283 171.10835809 53.16680217 171.10139394 C48.34879736 171.09516156 43.53079203 171.09455669 38.71278381 171.09336853 C29.58257502 171.09025487 20.45237814 171.08204102 11.32217461 171.07201904 C0.93057324 171.06085898 -9.46102868 171.05534772 -19.85263455 171.05032361 C-41.23509636 171.03985843 -62.61754743 171.02225832 -84 171 C-84 167.87325495 -83.51803248 166.60180818 -82.20703125 163.83203125 C-81.82353516 163.02056641 -81.44003906 162.20910156 -81.04492188 161.37304688 C-80.63822266 160.52806641 -80.23152344 159.68308594 -79.8125 158.8125 C-79.42513672 157.98685547 -79.03777344 157.16121094 -78.63867188 156.31054688 C-76.38057977 151.57415203 -73.89522457 147.14401692 -71.06005859 142.73193359 C-69.73721787 140.57066412 -68.88021224 138.37477669 -68 136 C-66.60424781 132.87624509 -65.1448641 129.78289317 -63.6875 126.6875 C-63.30916016 125.87087891 -62.93082031 125.05425781 -62.54101562 124.21289062 C-60.32290903 119.50269812 -57.88139196 115.11499104 -55.06542969 110.73852539 C-53.74019365 108.57605843 -52.878698 106.37722447 -52 104 C-50.68751287 101.06379398 -49.31259635 98.1573214 -47.9375 95.25 C-47.54481934 94.41960205 -47.15213867 93.5892041 -46.74755859 92.73364258 C-43.34093787 85.59463878 -39.69656993 78.59952155 -35.9453125 71.63671875 C-34.23271612 68.45476909 -32.60098661 65.23989132 -31 62 C-30.37821086 60.75490517 -29.75577488 59.51013323 -29.1328125 58.265625 C-28.80692139 57.61384277 -28.48103027 56.96206055 -28.14526367 56.29052734 C-18.76350911 37.52701823 -9.38175456 18.76350911 0 0 Z " fill="#986666" transform="translate(254,0)"/>
<path d="M0 0 C3.35551914 2.79801909 5.08725111 6.56733328 7.0625 10.375 C7.45244141 11.11814453 7.84238281 11.86128906 8.24414062 12.62695312 C11.76333997 19.40239097 15.02382661 26.29388855 18.27001953 33.203125 C20.8537732 38.67577654 23.56016296 44.05138043 26.4375 49.375 C30.54288488 56.97915729 34.27546224 64.73943884 37.97753906 72.54663086 C41.56964501 80.12021897 45.26932685 87.63109091 49.04833984 95.11279297 C50.70798331 98.40397923 52.35302763 101.70246013 54 105 C54.66660162 106.33336586 55.33326818 107.66669925 56 109 C80.140625 157.28125 80.140625 157.28125 81.04882812 159.10546875 C81.73208148 160.46636351 82.42460205 161.82262031 83.12304688 163.17578125 C83.48978516 163.89121094 83.85652344 164.60664063 84.234375 165.34375 C84.57178711 165.99537109 84.90919922 166.64699219 85.25683594 167.31835938 C86 169 86 169 86 171 C29.9 171 -26.2 171 -84 171 C-82.95138889 163.65972222 -82.95138889 163.65972222 -80 160 C-79.67 159.01 -79.34 158.02 -79 157 C-78.01593623 154.04780869 -76.87752159 152.42513206 -75 150 C-74.31846131 148.33935939 -73.65402617 146.67166743 -73 145 C-71.23695601 141.12246144 -69.39536316 137.28245022 -67.5625 133.4375 C-66.82676758 131.87612305 -66.82676758 131.87612305 -66.07617188 130.28320312 C-65.59857422 129.28095703 -65.12097656 128.27871094 -64.62890625 127.24609375 C-64.19650635 126.33529053 -63.76410645 125.4244873 -63.31860352 124.48608398 C-62 122 -62 122 -60.46069336 119.98461914 C-58.81033176 117.742301 -57.97475468 115.60286774 -57 113 C-55.23695601 109.12246144 -53.39536316 105.28245022 -51.5625 101.4375 C-51.07201172 100.39658203 -50.58152344 99.35566406 -50.07617188 98.28320312 C-49.59857422 97.28095703 -49.12097656 96.27871094 -48.62890625 95.24609375 C-48.19650635 94.33529053 -47.76410645 93.4244873 -47.31860352 92.48608398 C-46 90 -46 90 -44.46069336 87.98461914 C-42.81033176 85.742301 -41.97475468 83.60286774 -41 81 C-39.23695601 77.12246144 -37.39536316 73.28245022 -35.5625 69.4375 C-35.07201172 68.39658203 -34.58152344 67.35566406 -34.07617188 66.28320312 C-33.59857422 65.28095703 -33.12097656 64.27871094 -32.62890625 63.24609375 C-32.19650635 62.33529053 -31.76410645 61.4244873 -31.31860352 60.48608398 C-30 58 -30 58 -28.46069336 55.98461914 C-26.81033176 53.742301 -25.97475468 51.60286774 -25 49 C-23.23695601 45.12246144 -21.39536316 41.28245022 -19.5625 37.4375 C-19.07201172 36.39658203 -18.58152344 35.35566406 -18.07617188 34.28320312 C-17.59857422 33.28095703 -17.12097656 32.27871094 -16.62890625 31.24609375 C-15.9803064 29.87988892 -15.9803064 29.87988892 -15.31860352 28.48608398 C-14.06098795 26.11498617 -12.62831049 24.12473622 -11 22 C-10.31867549 20.33927151 -9.65257873 18.672233 -9 17 C-8 15.33333333 -7 13.66666667 -6 12 C-5.31867549 10.33927151 -4.65257873 8.672233 -4 7 C-1.22222222 1.22222222 -1.22222222 1.22222222 0 0 Z " fill="#669898" transform="translate(84,341)"/>
<path d="M0 0 C1.18062691 1.78395454 2.19498789 3.54675951 3.12214661 5.47615051 C3.44312317 6.13357239 3.76409973 6.79099426 4.09480286 7.46833801 C4.7568971 8.93191476 5.37208611 10.4173471 5.94636536 11.91755676 C7.3456552 15.29058176 9.0653786 18.46101955 10.80964661 21.66365051 C19.64252174 38.05833835 19.64252174 38.05833835 23.05964661 46.60115051 C24.04153848 48.27854913 25.04098431 49.94582429 26.05964661 51.60115051 C26.7362725 52.92945756 27.40014347 54.26425941 28.05964661 55.60115051 C28.67220259 56.81636012 29.28557014 58.03116079 29.89949036 59.24568176 C30.59876446 60.63497682 31.29798158 62.02430056 31.99714661 63.41365051 C32.34454895 64.10007629 32.69195129 64.78650208 33.04988098 65.49372864 C34.69906023 68.77655814 36.28546242 72.06029223 37.71589661 75.44490051 C38.95805576 78.36253016 40.38925882 80.91400494 42.05964661 83.60115051 C42.73743167 84.92886646 43.40108377 86.26379595 44.05964661 87.60115051 C44.63199036 88.74583801 45.20433411 89.89052551 45.79402161 91.06990051 C74.05964661 147.60115051 74.05964661 147.60115051 75.01252747 149.52009583 C75.99753665 151.47771259 77.012987 153.41537976 78.04011536 155.35115051 C78.77611382 156.76765024 79.51178169 158.18432178 80.24714661 159.60115051 C80.62806458 160.31271301 81.00898254 161.02427551 81.40144348 161.75740051 C81.7565802 162.44833801 82.11171692 163.13927551 82.47761536 163.85115051 C82.96911072 164.78700989 82.96911072 164.78700989 83.47053528 165.74177551 C84.19926898 168.04183183 83.8235686 169.34893532 83.05964661 171.60115051 C83.05964661 170.94115051 83.05964661 170.28115051 83.05964661 169.60115051 C54.67964661 169.93115051 26.29964661 170.26115051 -2.94035339 170.60115051 C-6.57035339 163.01115051 -10.20035339 155.42115051 -13.94035339 147.60115051 C-16.59518564 142.21888136 -19.2594205 136.84321586 -21.95207214 131.48005676 C-22.65723385 130.07161324 -23.3622102 128.66307692 -24.0670166 127.25445557 C-25.88517875 123.62186346 -27.70573459 119.99047681 -29.52690125 116.35939026 C-31.36736731 112.68876343 -33.20552696 109.01698204 -35.04386902 105.34529114 C-38.06167218 99.3184388 -41.08090036 93.29230314 -44.10205078 87.26712799 C-45.77431205 83.9311801 -47.44379072 80.59386548 -49.11010742 77.25494385 C-49.47059079 76.53289229 -49.83107416 75.81084074 -50.20248127 75.06690884 C-50.89399494 73.68149041 -51.58508543 72.29586064 -52.27567577 70.90998173 C-54.52313936 66.40788486 -56.84909873 61.95855516 -59.25285339 57.53865051 C-63.34978827 49.90825605 -67.07136369 42.11911079 -70.76359558 34.28645325 C-74.21553203 27.00422771 -77.88136275 19.86262319 -81.76823425 12.80281067 C-82.15632263 12.08657532 -82.54441101 11.37033997 -82.94425964 10.63240051 C-83.28271912 10.01945129 -83.62117859 9.40650208 -83.96989441 8.77497864 C-85.29480868 5.80717068 -86.0673747 2.72760002 -86.94035339 -0.39884949 C-75.90979321 -0.59887835 -64.87909442 -0.78261923 -53.84791851 -0.94543743 C-48.72596732 -1.02155124 -43.60423548 -1.10332187 -38.48258972 -1.19792175 C-33.54201901 -1.28897057 -28.60142218 -1.36528888 -23.6604557 -1.43129921 C-21.77328282 -1.45911944 -19.88618115 -1.49229131 -17.99919701 -1.53084373 C-15.36067301 -1.58384588 -12.72253916 -1.61799326 -10.08366394 -1.64762878 C-9.29963699 -1.66776535 -8.51561005 -1.68790192 -7.70782471 -1.70864868 C-2.41387416 -1.7402225 -2.41387416 -1.7402225 0 0 Z " fill="#FF5C33" transform="translate(343.9403533935547,171.3988494873047)"/>
<path d="M0 0 C28.38 0 56.76 0 86 0 C120.69006347 69.38012695 120.69006347 69.38012695 121.97622681 71.95247936 C122.80947158 73.61895189 123.64274343 75.28541088 124.4760437 76.95185566 C126.35441751 80.70832361 128.23244784 84.46496175 130.10925293 88.22221375 C134.08955376 96.18938875 138.08446857 104.14905703 142.09020996 112.10346985 C144.71645853 117.31916549 147.33662763 122.53791132 149.95619965 127.75696278 C151.93870838 131.70617263 153.92351769 135.65419485 155.91308594 139.59985352 C157.85972593 143.46062783 159.8005496 147.32427384 161.73731995 151.19000816 C162.4720426 152.65391728 163.20887428 154.11676989 163.94786072 155.57853127 C164.97276228 157.6066627 165.99017712 159.63838224 167.00585938 161.67114258 C167.58573608 162.82423416 168.16561279 163.97732574 168.76306152 165.1653595 C170 168 170 168 170 171 C141.95 171 113.9 171 85 171 C63.68417301 128.40864906 63.68417301 128.40864906 54.78515625 110.61914062 C48.62991382 98.31459954 42.47424791 86.01027156 36.31591797 73.70727539 C31.83172109 64.74882618 27.34891492 55.78968273 22.86780119 46.82969087 C20.49344726 42.08229051 18.11838227 37.33524884 15.74165344 32.58903694 C13.50742376 28.12733418 11.2750461 23.66470989 9.0441227 19.20135307 C8.22242081 17.5582258 7.40002658 15.91544457 6.57691002 14.27302551 C5.45841457 12.04096622 4.34235337 9.80770698 3.22692871 7.57411194 C2.89619811 6.91556357 2.5654675 6.2570152 2.22471476 5.57851082 C0 1.11412121 0 1.11412121 0 0 Z " fill="#FFC66E" transform="translate(128,256)"/>
<path d="M0 0 C28.38 0 56.76 0 86 0 C89.92708333 7.85416667 93.85416667 15.70833333 97.78125 23.5625 C98.39145996 24.78283936 99.00166992 26.00317871 99.63037109 27.26049805 C100.91489331 29.82950016 102.19901782 32.39870062 103.48291016 34.96801758 C107.44669079 42.90093604 107.44669079 42.90093604 111.4296875 50.82421875 C114.42537521 56.77002963 117.359117 62.73418665 120.18115234 68.76477051 C123.36907269 75.56794898 126.63500448 82.29359921 130.1875 88.9140625 C137.45918729 102.61123381 144.34675893 116.5061823 151.28076172 130.3762207 C153.25602697 134.32685451 155.23686565 138.274667 157.21897316 142.22187138 C158.75379367 145.28044332 160.28501501 148.34080617 161.81519699 151.40170097 C162.54515643 152.86044026 163.27641238 154.31853153 164.00899124 155.77595711 C165.02231149 157.79286362 166.03059374 159.81220959 167.03759766 161.83227539 C167.61144196 162.97853897 168.18528625 164.12480255 168.77651978 165.30580139 C170 168 170 168 170 170 C141.95 170 113.9 170 85 170 C78.89538821 158.40123761 72.83214351 146.81235026 66.97998047 135.08935547 C66.23976209 133.6102799 65.49937466 132.13128892 64.75883484 130.65237427 C62.78450544 126.70819739 60.81263343 122.76279716 58.84137869 118.81708288 C56.76729893 114.66635997 54.691239 110.51662756 52.61550903 106.36672974 C49.14295383 99.42342582 45.67206399 92.47929138 42.20214844 85.53466797 C38.1883511 77.50159398 34.17163134 69.46998626 30.15345275 61.43910301 C26.69108818 54.51890157 23.23027257 47.59792718 19.77076828 40.6762954 C17.70935442 36.55190807 15.64739958 32.42779362 13.5840416 28.30437851 C11.65328232 24.44573501 9.72446176 20.58612874 7.79717445 16.72574997 C7.08834032 15.30675381 6.37881685 13.88810176 5.66857338 12.46981049 C4.70387103 10.54311516 3.7416114 8.61522 2.77999878 6.6869812 C2.23991117 5.60642897 1.69982357 4.52587673 1.14336967 3.41258049 C0 1 0 1 0 0 Z " fill="#FFB665" transform="translate(171,171)"/>
<path d="M0 0 C11.03079354 -0.04629472 22.06156406 -0.08185463 33.09243488 -0.10362434 C38.214246 -0.11407152 43.33599075 -0.12824777 48.45776367 -0.15087891 C53.39848167 -0.17257396 58.33913575 -0.18456159 63.27989769 -0.18975449 C65.16699416 -0.19345625 67.05408705 -0.20068465 68.94115639 -0.21146011 C71.57974494 -0.22593069 74.21806775 -0.22797981 76.85668945 -0.22705078 C78.03272987 -0.23783661 78.03272987 -0.23783661 79.23252869 -0.24884033 C83.03272137 -0.23431568 84.75816056 -0.16122629 88 2 C89.08740234 3.82836914 89.08740234 3.82836914 90.0859375 6.03515625 C90.45976562 6.84533203 90.83359375 7.65550781 91.21875 8.49023438 C91.6003125 9.33908203 91.981875 10.18792969 92.375 11.0625 C95.00278245 16.83909072 97.72606254 22.47587743 100.87353516 27.98999023 C101.9810278 29.96614692 103.00137545 31.96699387 104 34 C104.495 34.99 104.99 35.98 105.5 37 C106.28307296 38.56614592 107.06602442 40.13235309 107.84765625 41.69921875 C108.8412154 43.68296905 109.83986059 45.66401598 110.83984375 47.64453125 C111.53911786 49.03382631 112.23833497 50.42315005 112.9375 51.8125 C113.28490234 52.49892578 113.63230469 53.18535156 113.99023438 53.89257812 C115.63941362 57.17540763 117.22581581 60.45914172 118.65625 63.84375 C119.89840916 66.76137965 121.32961221 69.31285442 123 72 C123.68268138 73.32520503 124.3507041 74.65812182 125 76 C125.37125 76.639375 125.7425 77.27875 126.125 77.9375 C127 80 127 80 127 85 C98.62 85 70.24 85 41 85 C32.33333333 67.66666667 23.66666667 50.33333333 15 33 C14.66943604 32.33911377 14.33887207 31.67822754 13.99829102 30.99731445 C13.33653843 29.67332378 12.67555917 28.34894628 12.01538086 27.02416992 C10.27990356 23.54420988 8.52868887 20.07338093 6.75390625 16.61328125 C6.38716797 15.89333984 6.02042969 15.17339844 5.64257812 14.43164062 C4.94180562 13.05670722 4.23634684 11.68414843 3.52539062 10.31445312 C1.77421197 6.86559415 0.66756544 3.7950305 0 0 Z " fill="#FF0000" transform="translate(385,427)"/>
<path d="M0 0 C1.18062691 1.78395454 2.19498789 3.54675951 3.12214661 5.47615051 C3.44312317 6.13357239 3.76409973 6.79099426 4.09480286 7.46833801 C4.7568971 8.93191476 5.37208611 10.4173471 5.94636536 11.91755676 C7.3456552 15.29058176 9.0653786 18.46101955 10.80964661 21.66365051 C19.64252174 38.05833835 19.64252174 38.05833835 23.05964661 46.60115051 C24.04153848 48.27854913 25.04098431 49.94582429 26.05964661 51.60115051 C26.7362725 52.92945756 27.40014347 54.26425941 28.05964661 55.60115051 C28.67220259 56.81636012 29.28557014 58.03116079 29.89949036 59.24568176 C30.59876446 60.63497682 31.29798158 62.02430056 31.99714661 63.41365051 C32.34454895 64.10007629 32.69195129 64.78650208 33.04988098 65.49372864 C34.6976035 68.7736584 36.28067644 72.05305707 37.70417786 75.43708801 C38.97396244 78.62152695 38.97396244 78.62152695 40.80964661 81.41365051 C41.42839661 82.49646301 41.42839661 82.49646301 42.05964661 83.60115051 C41.72964661 84.26115051 41.39964661 84.92115051 41.05964661 85.60115051 C29.9154624 85.63260782 18.77198988 85.62662022 7.62787247 85.57268429 C2.45323471 85.54881947 -2.72075823 85.53790655 -7.89543152 85.55647278 C-12.88845181 85.57391275 -17.88031291 85.55748823 -22.87319183 85.51747322 C-24.77896881 85.50817139 -26.68484584 85.51112028 -28.5905838 85.52645683 C-31.25892918 85.54584763 -33.92360003 85.52187735 -36.59172058 85.48762512 C-37.38150299 85.50344131 -38.1712854 85.51925751 -38.98500061 85.53555298 C-41.19444275 85.480896 -41.19444275 85.480896 -44.94035339 84.60115051 C-46.9218641 82.38102157 -47.7273579 80.39671361 -48.94035339 77.60115051 C-49.47241394 76.5744928 -50.00447449 75.54783508 -50.55265808 74.49006653 C-51.32464539 72.93823669 -51.32464539 72.93823669 -52.11222839 71.35505676 C-52.68980896 70.19667297 -53.26738953 69.03828918 -53.86247253 67.84480286 C-54.47179584 66.61776682 -55.08108884 65.39071573 -55.69035339 64.16365051 C-56.3248347 62.88962365 -56.95952045 61.61569858 -57.59440613 60.34187317 C-58.83357558 57.85504967 -60.07178302 55.36775169 -61.30900574 52.87995911 C-63.20163167 49.07601323 -65.10085783 45.27541685 -67.00285339 41.47615051 C-67.6018783 40.27826714 -68.20083376 39.08034903 -68.79972839 37.88240051 C-69.12263855 37.2365802 -69.44554871 36.59075989 -69.77824402 35.92536926 C-74.49894714 26.48396301 -79.21965027 17.04255676 -83.94035339 7.60115051 C-84.49424744 6.53461243 -85.04814148 5.46807434 -85.61882019 4.36921692 C-86.94035339 1.60115051 -86.94035339 1.60115051 -86.94035339 -0.39884949 C-75.90979321 -0.59887835 -64.87909442 -0.78261923 -53.84791851 -0.94543743 C-48.72596732 -1.02155124 -43.60423548 -1.10332187 -38.48258972 -1.19792175 C-33.54201901 -1.28897057 -28.60142218 -1.36528888 -23.6604557 -1.43129921 C-21.77328282 -1.45911944 -19.88618115 -1.49229131 -17.99919701 -1.53084373 C-15.36067301 -1.58384588 -12.72253916 -1.61799326 -10.08366394 -1.64762878 C-9.29963699 -1.66776535 -8.51561005 -1.68790192 -7.70782471 -1.70864868 C-2.41387416 -1.7402225 -2.41387416 -1.7402225 0 0 Z " fill="#FE6600" transform="translate(343.9403533935547,171.3988494873047)"/>
<path d="M0 0 C28.38 0 56.76 0 86 0 C96.48176884 20.88332006 96.48176884 20.88332006 100.9296875 29.76171875 C103.96937563 35.82912134 107.00994636 41.89607062 110.05566406 47.96044922 C112.51004586 52.84754418 114.96055843 57.73656087 117.40835571 62.62695694 C118.34475024 64.49603947 119.28255685 66.36441523 120.22177124 68.23208237 C121.53305954 70.84022373 122.83938658 73.4507919 124.14453125 76.06201172 C124.53726227 76.8402832 124.92999329 77.61855469 125.33462524 78.42041016 C128 83.77189568 128 83.77189568 128 86 C99.95 86 71.9 86 43 86 C33.98825822 69.10298416 33.98825822 69.10298416 30.5625 61.625 C27.33873022 54.70546622 23.91593289 47.93159231 20.30712891 41.20581055 C16.73951745 34.55057374 13.36457592 27.8078022 10.01464844 21.04101562 C8.93658679 18.87244119 7.84836486 16.70919328 6.7578125 14.546875 C6.39051025 13.81734619 6.02320801 13.08781738 5.64477539 12.33618164 C4.9396281 10.93622647 4.23315072 9.53694022 3.52514648 8.13842773 C2.17313068 5.44782333 0.9538244 2.86147319 0 0 Z " fill="#FED522" transform="translate(85,341)"/>
<path d="M0 0 C28.05 0 56.1 0 85 0 C88.05282235 5.49508023 91.03714852 10.93647435 93.8125 16.5625 C94.50645508 17.9596629 95.20046713 19.35679751 95.89453125 20.75390625 C96.24338379 21.45789551 96.59223633 22.16188477 96.95166016 22.88720703 C98.6262939 26.26221412 100.31357251 29.63087514 102 33 C102.66673182 34.33330075 103.33339838 35.66663414 104 37 C104.33 37.66 104.66 38.32 105 39 C108.70182292 46.40364583 112.40364583 53.80729167 116.10546875 61.2109375 C116.45158203 61.90300293 116.79769531 62.59506836 117.15429688 63.30810547 C117.83450691 64.66884699 118.51420788 66.02984313 119.19335938 67.39111328 C120.65483327 70.31918649 122.1238234 73.24225014 123.61328125 76.15625 C124.07089844 77.0534375 124.52851563 77.950625 125 78.875 C125.5878125 80.01582031 125.5878125 80.01582031 126.1875 81.1796875 C127 83 127 83 127 85 C98.95 85 70.9 85 42 85 C35.91648998 73.44133096 29.86570932 61.89286748 24.0234375 50.21484375 C23.32033517 48.81186808 22.61717839 47.40891969 21.91397095 46.0059967 C20.46583443 43.11561228 19.01927127 40.22444707 17.57373047 37.33276367 C15.71953322 33.62426576 13.85975807 29.91859357 11.99872398 26.21352291 C10.55654998 23.34024331 9.11797482 20.46517352 7.680439 17.589571 C6.99513707 16.22014634 6.3085394 14.85136931 5.62061691 13.4832592 C4.66956161 11.59088358 3.72354723 9.69607226 2.77880859 7.80053711 C2.24049408 6.7253331 1.70217957 5.65012909 1.14755249 4.54234314 C0 2 0 2 0 0 Z " fill="#FF5B32" transform="translate(299,427)"/>
<path d="M0 0 C28.38 0 56.76 0 86 0 C96.48176884 20.92342887 96.48176884 20.92342887 100.9296875 29.81054688 C103.97052786 35.88623849 107.01181222 41.9617051 110.05566406 48.03588867 C112.50830035 52.93033464 114.95900883 57.8257413 117.40835571 62.72183418 C118.34545592 64.59417993 119.28326273 66.46617219 120.22177124 68.33781242 C121.53120307 70.94946868 122.83816799 73.56234492 124.14453125 76.17553711 C124.53726227 76.95740387 124.92999329 77.73927063 125.33462524 78.54483032 C128 83.88594784 128 83.88594784 128 85 C99.62 85 71.24 85 42 85 C31.51823116 64.07657113 31.51823116 64.07657113 27.0703125 55.18945312 C24.02947214 49.11376151 20.98818778 43.0382949 17.94433594 36.96411133 C15.49169965 32.06966536 13.04099117 27.1742587 10.59164429 22.27816582 C9.65454408 20.40582007 8.71673727 18.53382781 7.77822876 16.66218758 C6.46879693 14.05053132 5.16183201 11.43765508 3.85546875 8.82446289 C3.46273773 8.04259613 3.07000671 7.26072937 2.66537476 6.45516968 C0 1.11405216 0 1.11405216 0 0 Z " fill="#FFE580" transform="translate(128,256)"/>
<path d="M0 0 C28.38 0 56.76 0 86 0 C89.92708333 7.85416667 93.85416667 15.70833333 97.78125 23.5625 C98.39145996 24.78283936 99.00166992 26.00317871 99.63037109 27.26049805 C100.91489331 29.82950016 102.19901782 32.39870062 103.48291016 34.96801758 C107.44669079 42.90093604 107.44669079 42.90093604 111.4296875 50.82421875 C116.13487917 60.16204009 120.63480727 69.58868034 125.07373047 79.05566406 C126.02357927 81.04949534 127.01231828 83.02463656 128 85 C99.62 85 71.24 85 42 85 C31.51823116 64.07657113 31.51823116 64.07657113 27.0703125 55.18945312 C24.02947214 49.11376151 20.98818778 43.0382949 17.94433594 36.96411133 C15.49169965 32.06966536 13.04099117 27.1742587 10.59164429 22.27816582 C9.65454408 20.40582007 8.71673727 18.53382781 7.77822876 16.66218758 C6.46879693 14.05053132 5.16183201 11.43765508 3.85546875 8.82446289 C3.46273773 8.04259613 3.07000671 7.26072937 2.66537476 6.45516968 C0 1.11405216 0 1.11405216 0 0 Z " fill="#FEBF31" transform="translate(171,171)"/>
<path d="M0 0 C28.38 0 56.76 0 86 0 C96.48176884 20.92342887 96.48176884 20.92342887 100.9296875 29.81054688 C103.97052786 35.88623849 107.01181222 41.9617051 110.05566406 48.03588867 C112.50830035 52.93033464 114.95900883 57.8257413 117.40835571 62.72183418 C118.34545592 64.59417993 119.28326273 66.46617219 120.22177124 68.33781242 C121.53120307 70.94946868 122.83816799 73.56234492 124.14453125 76.17553711 C124.53726227 76.95740387 124.92999329 77.73927063 125.33462524 78.54483032 C128 83.88594784 128 83.88594784 128 85 C99.62 85 71.24 85 42 85 C33.13525391 67.27050781 33.13525391 67.27050781 30.125 60.6875 C27.28587556 54.56378628 24.24136506 48.57889042 21.0625 42.625 C17.26690404 35.5152575 13.69885611 28.33099831 10.30688477 21.02001953 C7.01160133 13.9304823 3.50367485 7.00734969 0 0 Z " fill="#FE9800" transform="translate(128,427)"/>
<path d="M0 0 C28.05 0 56.1 0 85 0 C94.28125 18.5315625 94.28125 18.5315625 103.75 37.4375 C106.67117676 43.26619751 106.67117676 43.26619751 109.65136719 49.21264648 C112.04541016 53.99621582 112.04541016 53.99621582 113.16925049 56.24305725 C113.94666751 57.79636592 114.72487256 59.34928036 115.50372314 60.90187073 C116.69025252 63.26753858 117.87419466 65.63448572 119.05761719 68.00170898 C119.39922253 68.68132155 119.74082787 69.36093412 120.09278488 70.06114101 C122.55203787 74.99008397 124.75658284 79.9523114 127 85 C98.95 85 70.9 85 42 85 C35.91648998 73.44133096 29.86570932 61.89286748 24.0234375 50.21484375 C23.32033517 48.81186808 22.61717839 47.40891969 21.91397095 46.0059967 C20.46583443 43.11561228 19.01927127 40.22444707 17.57373047 37.33276367 C15.71953322 33.62426576 13.85975807 29.91859357 11.99872398 26.21352291 C10.55654998 23.34024331 9.11797482 20.46517352 7.680439 17.589571 C6.99513707 16.22014634 6.3085394 14.85136931 5.62061691 13.4832592 C4.66956161 11.59088358 3.72354723 9.69607226 2.77880859 7.80053711 C2.24049408 6.7253331 1.70217957 5.65012909 1.14755249 4.54234314 C0 2 0 2 0 0 Z " fill="#FF894C" transform="translate(214,427)"/>
<path d="M0 0 C2.375 0.1875 2.375 0.1875 5 1 C6.0234375 3.265625 6.0234375 3.265625 7 6 C7.73171742 7.52971358 8.48245871 9.05044365 9.25 10.5625 C10.63518056 13.30055371 12.01896642 16.03836267 13.37890625 18.7890625 C16.11081957 24.31244038 18.94170166 29.76874055 21.875 35.1875 C25.14312422 41.23770372 28.10460637 47.39440851 30.98632812 53.63647461 C33.58926175 59.23316695 36.41527392 64.68239055 39.38671875 70.09179688 C41.15875508 73.33323782 42.7007134 76.54276782 44 80 C44.66 81.65 45.32 83.3 46 85 C16.96 85 -12.08 85 -42 85 C-36.65034965 72.16083916 -36.65034965 72.16083916 -33 67 C-32.33127496 65.33415816 -31.66507375 63.66730295 -31 62 C-29.77220193 59.4157912 -28.47948881 56.86510549 -27.1875 54.3125 C-26.83147705 53.60496582 -26.4754541 52.89743164 -26.10864258 52.16845703 C-25.39870656 50.75759392 -24.68803096 49.34710268 -23.9765625 47.93701172 C-22.70730872 45.41944685 -21.44684668 42.89753283 -20.1875 40.375 C-13.45833333 26.91666667 -6.72916667 13.45833333 0 0 Z " fill="#980068" transform="translate(254,0)"/>
<path d="M0 0 C0.99 0 1.98 0 3 0 C8.48080629 10.91535175 13.957337 21.83283666 19.42835999 32.75309563 C21.96867871 37.82327849 24.51048616 42.89270363 27.05566406 47.96044922 C29.51004586 52.84754418 31.96055843 57.73656087 34.40835571 62.62695694 C35.34475024 64.49603947 36.28255685 66.36441523 37.22177124 68.23208237 C38.53305954 70.84022373 39.83938658 73.4507919 41.14453125 76.06201172 C41.53726227 76.8402832 41.92999329 77.61855469 42.33462524 78.42041016 C45 83.77189568 45 83.77189568 45 86 C16.62 86 -11.76 86 -41 86 C-41 82.87325495 -40.51803248 81.60180818 -39.20703125 78.83203125 C-38.82353516 78.02056641 -38.44003906 77.20910156 -38.04492188 76.37304688 C-37.63822266 75.52806641 -37.23152344 74.68308594 -36.8125 73.8125 C-36.42513672 72.98685547 -36.03777344 72.16121094 -35.63867188 71.31054688 C-33.38057977 66.57415203 -30.89522457 62.14401692 -28.06005859 57.73193359 C-26.73721787 55.57066412 -25.88021224 53.37477669 -25 51 C-23.60424781 47.87624509 -22.1448641 44.78289317 -20.6875 41.6875 C-20.30916016 40.87087891 -19.93082031 40.05425781 -19.54101562 39.21289062 C-17.34763534 34.5552049 -14.98388715 30.18164295 -12.12426758 25.89770508 C-10.80801281 23.67593562 -9.93095388 21.40720372 -9 19 C-8.29188409 17.44572333 -7.57025652 15.89753869 -6.8359375 14.35546875 C-6.43632812 13.51435547 -6.03671875 12.67324219 -5.625 11.80664062 C-5.00625 10.51016602 -5.00625 10.51016602 -4.375 9.1875 C-3.95476562 8.30384766 -3.53453125 7.42019531 -3.1015625 6.50976562 C-2.06907239 4.33918982 -1.0351788 2.16929448 0 0 Z " fill="#99BF99" transform="translate(211,85)"/>
<path d="M0 0 C3.35551914 2.79801909 5.08725111 6.56733328 7.0625 10.375 C7.45244141 11.11814453 7.84238281 11.86128906 8.24414062 12.62695312 C11.76333997 19.40239097 15.02382661 26.29388855 18.27001953 33.203125 C20.8537747 38.67577972 23.56018836 44.05136236 26.4375 49.375 C30.14215293 56.23775883 33.57556894 63.21324639 36.9375 70.25 C37.64700806 71.7337915 37.64700806 71.7337915 38.37084961 73.24755859 C40.37601109 77.47059986 42.26176018 81.65440044 44 86 C15.29 86 -13.42 86 -43 86 C-40.74350075 80.35875187 -38.17586877 74.91978208 -35.5625 69.4375 C-35.07201172 68.39658203 -34.58152344 67.35566406 -34.07617188 66.28320312 C-33.59857422 65.28095703 -33.12097656 64.27871094 -32.62890625 63.24609375 C-31.9803064 61.87988892 -31.9803064 61.87988892 -31.31860352 60.48608398 C-30 58 -30 58 -28.46069336 55.98461914 C-26.81033176 53.742301 -25.97475468 51.60286774 -25 49 C-23.23695601 45.12246144 -21.39536316 41.28245022 -19.5625 37.4375 C-19.07201172 36.39658203 -18.58152344 35.35566406 -18.07617188 34.28320312 C-17.59857422 33.28095703 -17.12097656 32.27871094 -16.62890625 31.24609375 C-16.19650635 30.33529053 -15.76410645 29.4244873 -15.31860352 28.48608398 C-14.06098795 26.11498617 -12.62831049 24.12473622 -11 22 C-10.31867549 20.33927151 -9.65257873 18.672233 -9 17 C-8 15.33333333 -7 13.66666667 -6 12 C-5.31867549 10.33927151 -4.65257873 8.672233 -4 7 C-1.22222222 1.22222222 -1.22222222 1.22222222 0 0 Z " fill="#66D5BA" transform="translate(84,341)"/>
<path d="M0 0 C3.29137673 3.06743067 5.03925589 6.66467537 7.01245117 10.65258789 C7.40303207 11.43009903 7.79361298 12.20761017 8.19602966 13.00868225 C9.48428002 15.57708276 10.76380017 18.1497221 12.04296875 20.72265625 C12.93508209 22.50740148 13.82760991 24.29193959 14.72053528 26.07627869 C16.58952999 29.8143578 18.4543729 33.55446966 20.31616211 37.29614258 C22.70701835 42.10057467 25.10673515 46.90051359 27.50937939 51.69905949 C29.35251818 55.38200215 31.19167101 59.06692335 33.02953529 62.75250053 C33.91322152 64.52373102 34.79799572 66.29441912 35.68385887 68.06456184 C36.91844335 70.53336151 38.14781539 73.00468551 39.37573242 75.47680664 C39.74504883 76.21296204 40.11436523 76.94911743 40.49487305 77.70758057 C43 82.77125622 43 82.77125622 43 85 C14.95 85 -13.1 85 -42 85 C-40.95138889 77.65972222 -40.95138889 77.65972222 -38 74 C-37.67 73.01 -37.34 72.02 -37 71 C-36.01593623 68.04780869 -34.87752159 66.42513206 -33 64 C-32.31846131 62.33935939 -31.65402617 60.67166743 -31 59 C-29.23695601 55.12246144 -27.39536316 51.28245022 -25.5625 47.4375 C-25.07201172 46.39658203 -24.58152344 45.35566406 -24.07617188 44.28320312 C-23.59857422 43.28095703 -23.12097656 42.27871094 -22.62890625 41.24609375 C-21.9803064 39.87988892 -21.9803064 39.87988892 -21.31860352 38.48608398 C-20 36 -20 36 -18.46069336 33.98461914 C-16.8100126 31.74186737 -15.97301672 29.60413495 -15 27 C-13.26003603 23.12146608 -11.44051827 19.28114328 -9.625 15.4375 C-9.14289062 14.39658203 -8.66078125 13.35566406 -8.1640625 12.28320312 C-7.6896875 11.28095703 -7.2153125 10.27871094 -6.7265625 9.24609375 C-6.08581787 7.87988892 -6.08581787 7.87988892 -5.43212891 6.48608398 C-3.91960687 3.86044268 -2.22845895 2.03665804 0 0 Z " fill="#660098" transform="translate(42,427)"/>
<path d="M0 0 C2.31313645 3.46970467 4.13053626 7.11356792 5.99072266 10.83618164 C6.3909111 11.63319992 6.79109955 12.4302182 7.20341492 13.25138855 C8.52576197 15.88658202 9.84508438 18.5232751 11.1640625 21.16015625 C12.08037423 22.98956758 12.9967467 24.81894848 13.91317749 26.64830017 C15.83287065 30.48169821 17.75090742 34.31591994 19.66796875 38.15063477 C22.1299788 43.07475671 24.59748898 47.99609989 27.06641579 52.91675663 C28.9598365 56.69250743 30.84964108 60.47005928 32.73841476 64.24813652 C33.64700527 66.06413393 34.55689954 67.87947961 35.46809769 69.69417 C36.73854086 72.22531164 38.00394056 74.75891167 39.26806641 77.29321289 C39.6483046 78.04806976 40.02854279 78.80292664 40.42030334 79.58065796 C43 84.77168186 43 84.77168186 43 87 C14.62 87 -13.76 87 -43 87 C-41.49014145 82.47042434 -40.10100859 79.13154159 -37.8125 75.0625 C-35.23132206 70.36315955 -32.84617241 65.63128618 -30.625 60.75 C-27.05837417 52.93952798 -23.02712833 45.40196412 -18.9765625 37.83447266 C-15.95073681 32.15045909 -13.16423521 26.37061649 -10.4675293 20.52416992 C-10.16886963 19.87681885 -9.87020996 19.22946777 -9.5625 18.5625 C-9.26835205 17.92481689 -8.9742041 17.28713379 -8.67114258 16.63012695 C-6.02623935 10.9492086 -3.09325449 5.45001981 0 0 Z " fill="#FFF433" transform="translate(127,254)"/>
<path d="M0 0 C0.99 0.66 1.98 1.32 3 2 C3 4 3 4 0.5 6.625 C-0.325 7.40875 -1.15 8.1925 -2 9 C-2.66 8.67 -3.32 8.34 -4 8 C-2.68 5.36 -1.36 2.72 0 0 Z " fill="#FFF839" transform="translate(169,170)"/>
</svg>
